<?xml version="1.0" encoding="UTF-8" standalone="no"?>
<!DOCTYPE svg PUBLIC "-//W3C//DTD SVG 1.1//EN"
 "http://www.w3.org/Graphics/SVG/1.1/DTD/svg11.dtd">
<!-- Generated by graphviz version 12.1.0 (20240811.2233)
 -->
<!-- Title: src/plugins_types/boolean.c Pages: 1 -->
<svg width="1881pt" height="463pt"
 viewBox="0.00 0.00 1880.88 462.50" xmlns="http://www.w3.org/2000/svg" xmlns:xlink="http://www.w3.org/1999/xlink">
<g id="graph0" class="graph" transform="scale(1 1) rotate(0) translate(4 458.5)">
<title>src/plugins_types/boolean.c</title>
<!-- Node1 -->
<g id="Node000001" class="node">
<title>Node1</title>
<g id="a_Node000001"><a xlink:title="Built&#45;in boolean type plugin.">
<polygon fill="#999999" stroke="#666666" points="1667.75,-454.5 1530.25,-454.5 1530.25,-436 1667.75,-436 1667.75,-454.5"/>
<text text-anchor="middle" x="1599" y="-441" font-family="Helvetica,sans-Serif" font-size="10.00">src/plugins_types/boolean.c</text>
</a>
</g>
</g>
<!-- Node2 -->
<g id="Node000002" class="node">
<title>Node2</title>
<g id="a_Node000002"><a xlink:href="plugins__types_8h.html" target="_top" xlink:title="API for (user) types plugins.">
<polygon fill="white" stroke="#666666" points="312.12,-182 227.88,-182 227.88,-163.5 312.12,-163.5 312.12,-182"/>
<text text-anchor="middle" x="270" y="-168.5" font-family="Helvetica,sans-Serif" font-size="10.00">plugins_types.h</text>
</a>
</g>
</g>
<!-- Node1&#45;&gt;Node2 -->
<g id="edge1_Node000001_Node000002" class="edge">
<title>Node1&#45;&gt;Node2</title>
<g id="a_edge1_Node000001_Node000002"><a xlink:title=" ">
<path fill="none" stroke="#63b8ff" d="M1530.1,-443.07C1232.95,-437.52 76,-411.18 76,-337.25 76,-337.25 76,-337.25 76,-280.75 76,-216.38 158.9,-190.45 216.31,-180.2"/>
<polygon fill="#63b8ff" stroke="#63b8ff" points="216.64,-183.69 225.93,-178.6 215.49,-176.79 216.64,-183.69"/>
</a>
</g>
</g>
<!-- Node4 -->
<g id="Node000004" class="node">
<title>Node4</title>
<g id="a_Node000004"><a xlink:title=" ">
<polygon fill="#e0e0e0" stroke="#999999" points="1120.75,-18.5 1073.25,-18.5 1073.25,0 1120.75,0 1120.75,-18.5"/>
<text text-anchor="middle" x="1097" y="-5" font-family="Helvetica,sans-Serif" font-size="10.00">stdint.h</text>
</a>
</g>
</g>
<!-- Node1&#45;&gt;Node4 -->
<g id="edge14_Node000001_Node000004" class="edge">
<title>Node1&#45;&gt;Node4</title>
<g id="a_edge14_Node000001_Node000004"><a xlink:title=" ">
<path fill="none" stroke="#63b8ff" d="M1599,-435.65C1599,-417.48 1599,-373.85 1599,-337.25 1599,-337.25 1599,-337.25 1599,-117.25 1599,-21.72 1246.85,-11.15 1132.44,-10.24"/>
<polygon fill="#63b8ff" stroke="#63b8ff" points="1132.75,-6.74 1122.73,-10.19 1132.71,-13.74 1132.75,-6.74"/>
</a>
</g>
</g>
<!-- Node11 -->
<g id="Node000011" class="node">
<title>Node11</title>
<g id="a_Node000011"><a xlink:title=" ">
<polygon fill="#e0e0e0" stroke="#999999" points="72.75,-73 25.25,-73 25.25,-54.5 72.75,-54.5 72.75,-73"/>
<text text-anchor="middle" x="49" y="-59.5" font-family="Helvetica,sans-Serif" font-size="10.00">stdlib.h</text>
</a>
</g>
</g>
<!-- Node1&#45;&gt;Node11 -->
<g id="edge15_Node000001_Node000011" class="edge">
<title>Node1&#45;&gt;Node11</title>
<g id="a_edge15_Node000001_Node000011"><a xlink:title=" ">
<path fill="none" stroke="#63b8ff" d="M1529.84,-443.82C1292.18,-442.03 509.89,-433.68 261,-400 142.77,-384 0,-456.56 0,-337.25 0,-337.25 0,-337.25 0,-171.75 0,-137.67 20.81,-102.57 35.3,-82.25"/>
<polygon fill="#63b8ff" stroke="#63b8ff" points="37.9,-84.62 41.07,-74.51 32.29,-80.43 37.9,-84.62"/>
</a>
</g>
</g>
<!-- Node12 -->
<g id="Node000012" class="node">
<title>Node12</title>
<g id="a_Node000012"><a xlink:href="libyang_8h.html" target="_top" xlink:title="The main libyang public header.">
<polygon fill="white" stroke="#666666" points="1142.12,-400 1087.88,-400 1087.88,-381.5 1142.12,-381.5 1142.12,-400"/>
<text text-anchor="middle" x="1115" y="-386.5" font-family="Helvetica,sans-Serif" font-size="10.00">libyang.h</text>
</a>
</g>
</g>
<!-- Node1&#45;&gt;Node12 -->
<g id="edge16_Node000001_Node000012" class="edge">
<title>Node1&#45;&gt;Node12</title>
<g id="a_edge16_Node000001_Node000012"><a xlink:title=" ">
<path fill="none" stroke="#63b8ff" d="M1529.91,-436.76C1426.6,-425.55 1235.28,-404.8 1153.6,-395.94"/>
<polygon fill="#63b8ff" stroke="#63b8ff" points="1154.19,-392.48 1143.87,-394.88 1153.43,-399.44 1154.19,-392.48"/>
</a>
</g>
</g>
<!-- Node32 -->
<g id="Node000032" class="node">
<title>Node32</title>
<g id="a_Node000032"><a xlink:title=" ">
<polygon fill="#e0e0e0" stroke="#999999" points="1688.88,-400 1627.12,-400 1627.12,-381.5 1688.88,-381.5 1688.88,-400"/>
<text text-anchor="middle" x="1658" y="-386.5" font-family="Helvetica,sans-Serif" font-size="10.00">common.h</text>
</a>
</g>
</g>
<!-- Node1&#45;&gt;Node32 -->
<g id="edge80_Node000001_Node000032" class="edge">
<title>Node1&#45;&gt;Node32</title>
<g id="a_edge80_Node000001_Node000032"><a xlink:title=" ">
<path fill="none" stroke="#63b8ff" d="M1608.74,-435.58C1617.25,-428.01 1629.81,-416.83 1640.12,-407.66"/>
<polygon fill="#63b8ff" stroke="#63b8ff" points="1642.16,-410.53 1647.31,-401.26 1637.51,-405.3 1642.16,-410.53"/>
</a>
</g>
</g>
<!-- Node33 -->
<g id="Node000033" class="node">
<title>Node33</title>
<g id="a_Node000033"><a xlink:title=" ">
<polygon fill="#e0e0e0" stroke="#999999" points="1762.88,-400 1707.12,-400 1707.12,-381.5 1762.88,-381.5 1762.88,-400"/>
<text text-anchor="middle" x="1735" y="-386.5" font-family="Helvetica,sans-Serif" font-size="10.00">compat.h</text>
</a>
</g>
</g>
<!-- Node1&#45;&gt;Node33 -->
<g id="edge81_Node000001_Node000033" class="edge">
<title>Node1&#45;&gt;Node33</title>
<g id="a_edge81_Node000001_Node000033"><a xlink:title=" ">
<path fill="none" stroke="#63b8ff" d="M1621.46,-435.58C1643.41,-427.11 1677.08,-414.11 1702.06,-404.47"/>
<polygon fill="#63b8ff" stroke="#63b8ff" points="1703.03,-407.84 1711.1,-400.98 1700.51,-401.31 1703.03,-407.84"/>
</a>
</g>
</g>
<!-- Node34 -->
<g id="Node000034" class="node">
<title>Node34</title>
<g id="a_Node000034"><a xlink:title=" ">
<polygon fill="#e0e0e0" stroke="#999999" points="1872.88,-400 1781.12,-400 1781.12,-381.5 1872.88,-381.5 1872.88,-400"/>
<text text-anchor="middle" x="1827" y="-386.5" font-family="Helvetica,sans-Serif" font-size="10.00">plugins_internal.h</text>
</a>
</g>
</g>
<!-- Node1&#45;&gt;Node34 -->
<g id="edge82_Node000001_Node000034" class="edge">
<title>Node1&#45;&gt;Node34</title>
<g id="a_edge82_Node000001_Node000034"><a xlink:title=" ">
<path fill="none" stroke="#63b8ff" d="M1636.91,-435.52C1675.53,-426.63 1735.6,-412.79 1777.86,-403.06"/>
<polygon fill="#63b8ff" stroke="#63b8ff" points="1778.57,-406.49 1787.53,-400.84 1777,-399.67 1778.57,-406.49"/>
</a>
</g>
</g>
<!-- Node3 -->
<g id="Node000003" class="node">
<title>Node3</title>
<g id="a_Node000003"><a xlink:title=" ">
<polygon fill="#e0e0e0" stroke="#999999" points="564.25,-127.5 513.75,-127.5 513.75,-109 564.25,-109 564.25,-127.5"/>
<text text-anchor="middle" x="539" y="-114" font-family="Helvetica,sans-Serif" font-size="10.00">stddef.h</text>
</a>
</g>
</g>
<!-- Node2&#45;&gt;Node3 -->
<g id="edge2_Node000002_Node000003" class="edge">
<title>Node2&#45;&gt;Node3</title>
<g id="a_edge2_Node000002_Node000003"><a xlink:title=" ">
<path fill="none" stroke="#63b8ff" d="M312.59,-164.42C357.46,-156.54 430.46,-143.29 502.35,-127.98"/>
<polygon fill="#63b8ff" stroke="#63b8ff" points="502.89,-131.45 511.93,-125.93 501.42,-124.6 502.89,-131.45"/>
</a>
</g>
</g>
<!-- Node2&#45;&gt;Node4 -->
<g id="edge3_Node000002_Node000004" class="edge">
<title>Node2&#45;&gt;Node4</title>
<g id="a_edge3_Node000002_Node000004"><a xlink:title=" ">
<path fill="none" stroke="#63b8ff" d="M262.11,-163.07C251.61,-150.42 235.61,-126.51 247,-109 279.61,-58.88 311.91,-68.65 370,-54.5 503.6,-21.96 934.9,-12.77 1061.66,-10.74"/>
<polygon fill="#63b8ff" stroke="#63b8ff" points="1061.49,-14.25 1071.44,-10.59 1061.38,-7.25 1061.49,-14.25"/>
</a>
</g>
</g>
<!-- Node5 -->
<g id="Node000005" class="node">
<title>Node5</title>
<g id="a_Node000005"><a xlink:title=" ">
<polygon fill="#e0e0e0" stroke="#999999" points="763.25,-18.5 712.75,-18.5 712.75,0 763.25,0 763.25,-18.5"/>
<text text-anchor="middle" x="738" y="-5" font-family="Helvetica,sans-Serif" font-size="10.00">config.h</text>
</a>
</g>
</g>
<!-- Node2&#45;&gt;Node5 -->
<g id="edge4_Node000002_Node000005" class="edge">
<title>Node2&#45;&gt;Node5</title>
<g id="a_edge4_Node000002_Node000005"><a xlink:title=" ">
<path fill="none" stroke="#63b8ff" d="M231.53,-163.05C212.54,-156.61 191.32,-145.68 180,-127.5 162.85,-99.96 157.98,-78.33 180,-54.5 197.73,-35.31 579.57,-17.13 701.16,-11.81"/>
<polygon fill="#63b8ff" stroke="#63b8ff" points="701.07,-15.32 710.91,-11.39 700.76,-8.32 701.07,-15.32"/>
</a>
</g>
</g>
<!-- Node6 -->
<g id="Node000006" class="node">
<title>Node6</title>
<g id="a_Node000006"><a xlink:href="log_8h.html" target="_top" xlink:title="Logger manipulation routines and error definitions.">
<polygon fill="white" stroke="#666666" points="1068.5,-73 1031.5,-73 1031.5,-54.5 1068.5,-54.5 1068.5,-73"/>
<text text-anchor="middle" x="1050" y="-59.5" font-family="Helvetica,sans-Serif" font-size="10.00">log.h</text>
</a>
</g>
</g>
<!-- Node2&#45;&gt;Node6 -->
<g id="edge5_Node000002_Node000006" class="edge">
<title>Node2&#45;&gt;Node6</title>
<g id="a_edge5_Node000002_Node000006"><a xlink:title=" ">
<path fill="none" stroke="#63b8ff" d="M273.53,-163.37C280,-149.24 295.2,-121.04 318,-109 383.53,-74.39 910.19,-79.6 984,-73 995.87,-71.94 1008.89,-70.39 1020.2,-68.93"/>
<polygon fill="#63b8ff" stroke="#63b8ff" points="1020.31,-72.44 1029.76,-67.65 1019.39,-65.5 1020.31,-72.44"/>
</a>
</g>
</g>
<!-- Node7 -->
<g id="Node000007" class="node">
<title>Node7</title>
<g id="a_Node000007"><a xlink:href="plugins_8h.html" target="_top" xlink:title="Plugins manipulation.">
<polygon fill="white" stroke="#666666" points="495.5,-127.5 440.5,-127.5 440.5,-109 495.5,-109 495.5,-127.5"/>
<text text-anchor="middle" x="468" y="-114" font-family="Helvetica,sans-Serif" font-size="10.00">plugins.h</text>
</a>
</g>
</g>
<!-- Node2&#45;&gt;Node7 -->
<g id="edge8_Node000002_Node000007" class="edge">
<title>Node2&#45;&gt;Node7</title>
<g id="a_edge8_Node000002_Node000007"><a xlink:title=" ">
<path fill="none" stroke="#63b8ff" d="M302.7,-163.08C337.44,-153.87 392.34,-139.31 429.23,-129.53"/>
<polygon fill="#63b8ff" stroke="#63b8ff" points="429.83,-132.99 438.6,-127.05 428.04,-126.23 429.83,-132.99"/>
</a>
</g>
</g>
<!-- Node8 -->
<g id="Node000008" class="node">
<title>Node8</title>
<g id="a_Node000008"><a xlink:href="tree_8h.html" target="_top" xlink:title="libyang generic macros and functions to work with YANG schema or data trees.">
<polygon fill="white" stroke="#666666" points="419.38,-73 378.62,-73 378.62,-54.5 419.38,-54.5 419.38,-73"/>
<text text-anchor="middle" x="399" y="-59.5" font-family="Helvetica,sans-Serif" font-size="10.00">tree.h</text>
</a>
</g>
</g>
<!-- Node2&#45;&gt;Node8 -->
<g id="edge10_Node000002_Node000008" class="edge">
<title>Node2&#45;&gt;Node8</title>
<g id="a_edge10_Node000002_Node000008"><a xlink:title=" ">
<path fill="none" stroke="#63b8ff" d="M264.14,-163.15C256.11,-150.17 243.94,-125.35 256,-109 281.38,-74.57 333.24,-66.12 367.04,-64.48"/>
<polygon fill="#63b8ff" stroke="#63b8ff" points="366.76,-67.99 376.65,-64.19 366.55,-60.99 366.76,-67.99"/>
</a>
</g>
</g>
<!-- Node10 -->
<g id="Node000010" class="node">
<title>Node10</title>
<g id="a_Node000010"><a xlink:href="tree__edit_8h.html" target="_top" xlink:title="libyang generic macros and functions to modify YANG schema or data trees. Intended for internal use a...">
<polygon fill="white" stroke="#666666" points="127.5,-127.5 66.5,-127.5 66.5,-109 127.5,-109 127.5,-127.5"/>
<text text-anchor="middle" x="97" y="-114" font-family="Helvetica,sans-Serif" font-size="10.00">tree_edit.h</text>
</a>
</g>
</g>
<!-- Node2&#45;&gt;Node10 -->
<g id="edge12_Node000002_Node000010" class="edge">
<title>Node2&#45;&gt;Node10</title>
<g id="a_edge12_Node000002_Node000010"><a xlink:title=" ">
<path fill="none" stroke="#63b8ff" d="M241.43,-163.08C212.76,-154.38 168.37,-140.91 136.37,-131.2"/>
<polygon fill="#63b8ff" stroke="#63b8ff" points="137.64,-127.93 127.06,-128.37 135.61,-134.62 137.64,-127.93"/>
</a>
</g>
</g>
<!-- Node6&#45;&gt;Node4 -->
<g id="edge6_Node000006_Node000004" class="edge">
<title>Node6&#45;&gt;Node4</title>
<g id="a_edge6_Node000006_Node000004"><a xlink:title=" ">
<path fill="none" stroke="#63b8ff" d="M1057.76,-54.08C1064.26,-46.82 1073.74,-36.23 1081.75,-27.28"/>
<polygon fill="#63b8ff" stroke="#63b8ff" points="1084.31,-29.67 1088.37,-19.89 1079.1,-25 1084.31,-29.67"/>
</a>
</g>
</g>
<!-- Node6&#45;&gt;Node5 -->
<g id="edge7_Node000006_Node000005" class="edge">
<title>Node6&#45;&gt;Node5</title>
<g id="a_edge7_Node000006_Node000005"><a xlink:title=" ">
<path fill="none" stroke="#63b8ff" d="M1031.42,-59.62C981.17,-51.17 841.91,-27.73 774.92,-16.46"/>
<polygon fill="#63b8ff" stroke="#63b8ff" points="775.61,-13.03 765.17,-14.82 774.45,-19.93 775.61,-13.03"/>
</a>
</g>
</g>
<!-- Node7&#45;&gt;Node6 -->
<g id="edge9_Node000007_Node000006" class="edge">
<title>Node7&#45;&gt;Node6</title>
<g id="a_edge9_Node000007_Node000006"><a xlink:title=" ">
<path fill="none" stroke="#63b8ff" d="M495.8,-110.6C498.89,-109.99 502.01,-109.44 505,-109 716.18,-77.69 771.57,-94.25 984,-73 995.85,-71.81 1008.87,-70.24 1020.19,-68.79"/>
<polygon fill="#63b8ff" stroke="#63b8ff" points="1020.29,-72.31 1029.75,-67.54 1019.38,-65.37 1020.29,-72.31"/>
</a>
</g>
</g>
<!-- Node9 -->
<g id="Node000009" class="node">
<title>Node9</title>
<g id="a_Node000009"><a xlink:title=" ">
<polygon fill="#e0e0e0" stroke="#999999" points="428.38,-18.5 369.62,-18.5 369.62,0 428.38,0 428.38,-18.5"/>
<text text-anchor="middle" x="399" y="-5" font-family="Helvetica,sans-Serif" font-size="10.00">inttypes.h</text>
</a>
</g>
</g>
<!-- Node8&#45;&gt;Node9 -->
<g id="edge11_Node000008_Node000009" class="edge">
<title>Node8&#45;&gt;Node9</title>
<g id="a_edge11_Node000008_Node000009"><a xlink:title=" ">
<path fill="none" stroke="#63b8ff" d="M399,-54.08C399,-47.58 399,-38.42 399,-30.16"/>
<polygon fill="#63b8ff" stroke="#63b8ff" points="402.5,-30.27 399,-20.27 395.5,-30.27 402.5,-30.27"/>
</a>
</g>
</g>
<!-- Node10&#45;&gt;Node11 -->
<g id="edge13_Node000010_Node000011" class="edge">
<title>Node10&#45;&gt;Node11</title>
<g id="a_edge13_Node000010_Node000011"><a xlink:title=" ">
<path fill="none" stroke="#63b8ff" d="M89.07,-108.58C82.36,-101.24 72.55,-90.51 64.32,-81.5"/>
<polygon fill="#63b8ff" stroke="#63b8ff" points="67.13,-79.39 57.8,-74.38 61.96,-84.12 67.13,-79.39"/>
</a>
</g>
</g>
<!-- Node12&#45;&gt;Node4 -->
<g id="edge17_Node000012_Node000004" class="edge">
<title>Node12&#45;&gt;Node4</title>
<g id="a_edge17_Node000012_Node000004"><a xlink:title=" ">
<path fill="none" stroke="#63b8ff" d="M1123.56,-381.17C1139.69,-364.05 1173,-323.74 1173,-282.75 1173,-282.75 1173,-282.75 1173,-226.25 1173,-149.15 1129.38,-64.9 1108.23,-28.59"/>
<polygon fill="#63b8ff" stroke="#63b8ff" points="1111.37,-27.01 1103.24,-20.21 1105.36,-30.6 1111.37,-27.01"/>
</a>
</g>
</g>
<!-- Node12&#45;&gt;Node6 -->
<g id="edge46_Node000012_Node000006" class="edge">
<title>Node12&#45;&gt;Node6</title>
<g id="a_edge46_Node000012_Node000006"><a xlink:title=" ">
<path fill="none" stroke="#63b8ff" d="M1117.7,-381.25C1123.16,-363.27 1135,-319.98 1135,-282.75 1135,-282.75 1135,-282.75 1135,-171.75 1135,-131.96 1098.51,-98.37 1073.35,-79.95"/>
<polygon fill="#63b8ff" stroke="#63b8ff" points="1075.48,-77.17 1065.28,-74.3 1071.46,-82.9 1075.48,-77.17"/>
</a>
</g>
</g>
<!-- Node12&#45;&gt;Node8 -->
<g id="edge77_Node000012_Node000008" class="edge">
<title>Node12&#45;&gt;Node8</title>
<g id="a_edge77_Node000012_Node000008"><a xlink:title=" ">
<path fill="none" stroke="#63b8ff" d="M1087.57,-388.61C919.67,-381.31 38,-337.73 38,-228.25 38,-228.25 38,-228.25 38,-171.75 38,-142.61 34.76,-127.83 57,-109 103.4,-69.7 291.5,-64.91 367.2,-64.6"/>
<polygon fill="#63b8ff" stroke="#63b8ff" points="366.84,-68.1 376.84,-64.59 366.83,-61.1 366.84,-68.1"/>
</a>
</g>
</g>
<!-- Node13 -->
<g id="Node000013" class="node">
<title>Node13</title>
<g id="a_Node000013"><a xlink:href="context_8h.html" target="_top" xlink:title="internal context structures and functions">
<polygon fill="white" stroke="#666666" points="1066.88,-236.5 1011.12,-236.5 1011.12,-218 1066.88,-218 1066.88,-236.5"/>
<text text-anchor="middle" x="1039" y="-223" font-family="Helvetica,sans-Serif" font-size="10.00">context.h</text>
</a>
</g>
</g>
<!-- Node12&#45;&gt;Node13 -->
<g id="edge18_Node000012_Node000013" class="edge">
<title>Node12&#45;&gt;Node13</title>
<g id="a_edge18_Node000012_Node000013"><a xlink:title=" ">
<path fill="none" stroke="#63b8ff" d="M1107.09,-381.17C1099.57,-372.64 1088.33,-358.94 1081,-345.5 1063.35,-313.16 1050.59,-271.93 1044.03,-247.97"/>
<polygon fill="#63b8ff" stroke="#63b8ff" points="1047.42,-247.12 1041.49,-238.34 1040.66,-248.9 1047.42,-247.12"/>
</a>
</g>
</g>
<!-- Node14 -->
<g id="Node000014" class="node">
<title>Node14</title>
<g id="a_Node000014"><a xlink:href="parser__schema_8h.html" target="_top" xlink:title="Schema parsers for libyang.">
<polygon fill="white" stroke="#666666" points="740.88,-182 649.12,-182 649.12,-163.5 740.88,-163.5 740.88,-182"/>
<text text-anchor="middle" x="695" y="-168.5" font-family="Helvetica,sans-Serif" font-size="10.00">parser_schema.h</text>
</a>
</g>
</g>
<!-- Node12&#45;&gt;Node14 -->
<g id="edge62_Node000012_Node000014" class="edge">
<title>Node12&#45;&gt;Node14</title>
<g id="a_edge62_Node000012_Node000014"><a xlink:title=" ">
<path fill="none" stroke="#63b8ff" d="M1087.5,-389.17C1017.82,-387.21 836.43,-378.96 788,-345.5 734.34,-308.43 708.82,-230.13 699.44,-193.46"/>
<polygon fill="#63b8ff" stroke="#63b8ff" points="702.87,-192.75 697.13,-183.84 696.06,-194.38 702.87,-192.75"/>
</a>
</g>
</g>
<!-- Node15 -->
<g id="Node000015" class="node">
<title>Node15</title>
<g id="a_Node000015"><a xlink:href="tree__data_8h.html" target="_top" xlink:title="libyang representation of YANG data trees.">
<polygon fill="white" stroke="#666666" points="823.38,-182 758.62,-182 758.62,-163.5 823.38,-163.5 823.38,-182"/>
<text text-anchor="middle" x="791" y="-168.5" font-family="Helvetica,sans-Serif" font-size="10.00">tree_data.h</text>
</a>
</g>
</g>
<!-- Node12&#45;&gt;Node15 -->
<g id="edge78_Node000012_Node000015" class="edge">
<title>Node12&#45;&gt;Node15</title>
<g id="a_edge78_Node000012_Node000015"><a xlink:title=" ">
<path fill="none" stroke="#63b8ff" d="M1087.73,-389.45C1020.46,-388.15 849.05,-381.32 807,-345.5 763.16,-308.15 776.16,-229.98 785.34,-193.41"/>
<polygon fill="#63b8ff" stroke="#63b8ff" points="788.71,-194.37 787.93,-183.8 781.95,-192.55 788.71,-194.37"/>
</a>
</g>
</g>
<!-- Node18 -->
<g id="Node000018" class="node">
<title>Node18</title>
<g id="a_Node000018"><a xlink:href="tree__schema_8h.html" target="_top" xlink:title="libyang representation of YANG schema trees.">
<polygon fill="white" stroke="#666666" points="993.25,-127.5 912.75,-127.5 912.75,-109 993.25,-109 993.25,-127.5"/>
<text text-anchor="middle" x="953" y="-114" font-family="Helvetica,sans-Serif" font-size="10.00">tree_schema.h</text>
</a>
</g>
</g>
<!-- Node12&#45;&gt;Node18 -->
<g id="edge79_Node000012_Node000018" class="edge">
<title>Node12&#45;&gt;Node18</title>
<g id="a_edge79_Node000012_Node000018"><a xlink:title=" ">
<path fill="none" stroke="#63b8ff" d="M1114.99,-381.14C1114.56,-354.68 1110.37,-272.96 1076,-218 1052.08,-179.74 1008,-149.83 979.62,-133.36"/>
<polygon fill="#63b8ff" stroke="#63b8ff" points="981.69,-130.51 971.26,-128.65 978.25,-136.61 981.69,-130.51"/>
</a>
</g>
</g>
<!-- Node21 -->
<g id="Node000021" class="node">
<title>Node21</title>
<g id="a_Node000021"><a xlink:href="dict_8h.html" target="_top" xlink:title="libyang dictionary">
<polygon fill="white" stroke="#666666" points="405.62,-182 366.38,-182 366.38,-163.5 405.62,-163.5 405.62,-182"/>
<text text-anchor="middle" x="386" y="-168.5" font-family="Helvetica,sans-Serif" font-size="10.00">dict.h</text>
</a>
</g>
</g>
<!-- Node12&#45;&gt;Node21 -->
<g id="edge38_Node000012_Node000021" class="edge">
<title>Node12&#45;&gt;Node21</title>
<g id="a_edge38_Node000012_Node000021"><a xlink:title=" ">
<path fill="none" stroke="#63b8ff" d="M1087.59,-389.08C1027.73,-387.03 881.31,-378.72 764,-345.5 623.62,-305.75 468.93,-221.49 410.31,-187.96"/>
<polygon fill="#63b8ff" stroke="#63b8ff" points="412.23,-185.02 401.82,-183.06 408.73,-191.09 412.23,-185.02"/>
</a>
</g>
</g>
<!-- Node23 -->
<g id="Node000023" class="node">
<title>Node23</title>
<g id="a_Node000023"><a xlink:href="in_8h.html" target="_top" xlink:title="libyang input structures and functions">
<polygon fill="white" stroke="#666666" points="1325.88,-127.5 1294.12,-127.5 1294.12,-109 1325.88,-109 1325.88,-127.5"/>
<text text-anchor="middle" x="1310" y="-114" font-family="Helvetica,sans-Serif" font-size="10.00">in.h</text>
</a>
</g>
</g>
<!-- Node12&#45;&gt;Node23 -->
<g id="edge43_Node000012_Node000023" class="edge">
<title>Node12&#45;&gt;Node23</title>
<g id="a_edge43_Node000012_Node000023"><a xlink:title=" ">
<path fill="none" stroke="#63b8ff" d="M1142.44,-381.57C1181.64,-367.98 1249,-336.78 1249,-282.75 1249,-282.75 1249,-282.75 1249,-226.25 1249,-190.44 1275.11,-155.69 1293.16,-135.94"/>
<polygon fill="#63b8ff" stroke="#63b8ff" points="1295.57,-138.48 1299.95,-128.83 1290.51,-133.64 1295.57,-138.48"/>
</a>
</g>
</g>
<!-- Node24 -->
<g id="Node000024" class="node">
<title>Node24</title>
<g id="a_Node000024"><a xlink:href="metadata_8h.html" target="_top" xlink:title="ietf&#45;yang&#45;metadata API">
<polygon fill="white" stroke="#666666" points="880.38,-345.5 815.62,-345.5 815.62,-327 880.38,-327 880.38,-345.5"/>
<text text-anchor="middle" x="848" y="-332" font-family="Helvetica,sans-Serif" font-size="10.00">metadata.h</text>
</a>
</g>
</g>
<!-- Node12&#45;&gt;Node24 -->
<g id="edge47_Node000012_Node000024" class="edge">
<title>Node12&#45;&gt;Node24</title>
<g id="a_edge47_Node000012_Node000024"><a xlink:title=" ">
<path fill="none" stroke="#63b8ff" d="M1087.43,-384.33C1041.16,-375.23 947.5,-356.81 892.02,-345.91"/>
<polygon fill="#63b8ff" stroke="#63b8ff" points="892.77,-342.49 882.28,-343.99 891.42,-349.35 892.77,-342.49"/>
</a>
</g>
</g>
<!-- Node26 -->
<g id="Node000026" class="node">
<title>Node26</title>
<g id="a_Node000026"><a xlink:href="parser__data_8h.html" target="_top" xlink:title="Data parsers for libyang.">
<polygon fill="white" stroke="#666666" points="955,-236.5 879,-236.5 879,-218 955,-218 955,-236.5"/>
<text text-anchor="middle" x="917" y="-223" font-family="Helvetica,sans-Serif" font-size="10.00">parser_data.h</text>
</a>
</g>
</g>
<!-- Node12&#45;&gt;Node26 -->
<g id="edge61_Node000012_Node000026" class="edge">
<title>Node12&#45;&gt;Node26</title>
<g id="a_edge61_Node000012_Node000026"><a xlink:title=" ">
<path fill="none" stroke="#63b8ff" d="M1104.35,-381.07C1072.53,-355.11 977.75,-277.8 936.52,-244.17"/>
<polygon fill="#63b8ff" stroke="#63b8ff" points="938.83,-241.54 928.87,-237.93 934.41,-246.97 938.83,-241.54"/>
</a>
</g>
</g>
<!-- Node27 -->
<g id="Node000027" class="node">
<title>Node27</title>
<g id="a_Node000027"><a xlink:href="out_8h.html" target="_top" xlink:title="libyang output structures and functions">
<polygon fill="white" stroke="#666666" points="1380.5,-127.5 1343.5,-127.5 1343.5,-109 1380.5,-109 1380.5,-127.5"/>
<text text-anchor="middle" x="1362" y="-114" font-family="Helvetica,sans-Serif" font-size="10.00">out.h</text>
</a>
</g>
</g>
<!-- Node12&#45;&gt;Node27 -->
<g id="edge57_Node000012_Node000027" class="edge">
<title>Node12&#45;&gt;Node27</title>
<g id="a_edge57_Node000012_Node000027"><a xlink:title=" ">
<path fill="none" stroke="#63b8ff" d="M1142.45,-388.24C1199.38,-383.47 1325,-363.77 1325,-282.75 1325,-282.75 1325,-282.75 1325,-226.25 1325,-193.74 1340.44,-158.58 1351.37,-137.76"/>
<polygon fill="#63b8ff" stroke="#63b8ff" points="1354.38,-139.56 1356.13,-129.11 1348.25,-136.19 1354.38,-139.56"/>
</a>
</g>
</g>
<!-- Node29 -->
<g id="Node000029" class="node">
<title>Node29</title>
<g id="a_Node000029"><a xlink:href="printer__data_8h.html" target="_top" xlink:title="Data printers for libyang.">
<polygon fill="white" stroke="#666666" points="1428.62,-236.5 1353.38,-236.5 1353.38,-218 1428.62,-218 1428.62,-236.5"/>
<text text-anchor="middle" x="1391" y="-223" font-family="Helvetica,sans-Serif" font-size="10.00">printer_data.h</text>
</a>
</g>
</g>
<!-- Node12&#45;&gt;Node29 -->
<g id="edge63_Node000012_Node000029" class="edge">
<title>Node12&#45;&gt;Node29</title>
<g id="a_edge63_Node000012_Node000029"><a xlink:title=" ">
<path fill="none" stroke="#63b8ff" d="M1142.36,-387.48C1195.23,-382.61 1308.88,-369.57 1339,-345.5 1369.65,-321.01 1382.74,-274.7 1387.92,-248.2"/>
<polygon fill="#63b8ff" stroke="#63b8ff" points="1391.35,-248.91 1389.62,-238.45 1384.46,-247.71 1391.35,-248.91"/>
</a>
</g>
</g>
<!-- Node30 -->
<g id="Node000030" class="node">
<title>Node30</title>
<g id="a_Node000030"><a xlink:href="printer__schema_8h.html" target="_top" xlink:title="Schema printers for libyang.">
<polygon fill="white" stroke="#666666" points="1531.5,-182 1440.5,-182 1440.5,-163.5 1531.5,-163.5 1531.5,-182"/>
<text text-anchor="middle" x="1486" y="-168.5" font-family="Helvetica,sans-Serif" font-size="10.00">printer_schema.h</text>
</a>
</g>
</g>
<!-- Node12&#45;&gt;Node30 -->
<g id="edge69_Node000012_Node000030" class="edge">
<title>Node12&#45;&gt;Node30</title>
<g id="a_edge69_Node000012_Node000030"><a xlink:title=" ">
<path fill="none" stroke="#63b8ff" d="M1142.41,-387.4C1198.63,-382.17 1324.78,-368.2 1361,-345.5 1421.36,-307.67 1461.8,-229.15 1478.01,-192.88"/>
<polygon fill="#63b8ff" stroke="#63b8ff" points="1481.22,-194.27 1481.98,-183.7 1474.8,-191.5 1481.22,-194.27"/>
</a>
</g>
</g>
<!-- Node31 -->
<g id="Node000031" class="node">
<title>Node31</title>
<g id="a_Node000031"><a xlink:href="set_8h.html" target="_top" xlink:title="Generic set structure and manipulation routines.">
<polygon fill="white" stroke="#666666" points="1276.5,-127.5 1239.5,-127.5 1239.5,-109 1276.5,-109 1276.5,-127.5"/>
<text text-anchor="middle" x="1258" y="-114" font-family="Helvetica,sans-Serif" font-size="10.00">set.h</text>
</a>
</g>
</g>
<!-- Node12&#45;&gt;Node31 -->
<g id="edge74_Node000012_Node000031" class="edge">
<title>Node12&#45;&gt;Node31</title>
<g id="a_edge74_Node000012_Node000031"><a xlink:title=" ">
<path fill="none" stroke="#63b8ff" d="M1136.54,-381.09C1152.42,-373.73 1173.51,-361.76 1187,-345.5 1206.06,-322.52 1211,-312.61 1211,-282.75 1211,-282.75 1211,-282.75 1211,-226.25 1211,-192.56 1230.78,-157.55 1244.67,-137.12"/>
<polygon fill="#63b8ff" stroke="#63b8ff" points="1247.45,-139.25 1250.39,-129.07 1241.74,-135.2 1247.45,-139.25"/>
</a>
</g>
</g>
<!-- Node13&#45;&gt;Node4 -->
<g id="edge19_Node000013_Node000004" class="edge">
<title>Node13&#45;&gt;Node4</title>
<g id="a_edge19_Node000013_Node000004"><a xlink:title=" ">
<path fill="none" stroke="#63b8ff" d="M1043,-217.58C1046.96,-208.77 1052.98,-194.65 1057,-182 1074.18,-127.91 1087.46,-62.09 1093.47,-29.89"/>
<polygon fill="#63b8ff" stroke="#63b8ff" points="1096.84,-30.91 1095.2,-20.45 1089.96,-29.65 1096.84,-30.91"/>
</a>
</g>
</g>
<!-- Node13&#45;&gt;Node6 -->
<g id="edge20_Node000013_Node000006" class="edge">
<title>Node13&#45;&gt;Node6</title>
<g id="a_edge20_Node000013_Node000006"><a xlink:title=" ">
<path fill="none" stroke="#63b8ff" d="M1039.59,-217.57C1041.29,-192.59 1046.23,-120.1 1048.64,-84.69"/>
<polygon fill="#63b8ff" stroke="#63b8ff" points="1052.12,-85.2 1049.3,-74.99 1045.13,-84.72 1052.12,-85.2"/>
</a>
</g>
</g>
<!-- Node13&#45;&gt;Node14 -->
<g id="edge21_Node000013_Node000014" class="edge">
<title>Node13&#45;&gt;Node14</title>
<g id="a_edge21_Node000013_Node000014"><a xlink:title=" ">
<path fill="none" stroke="#63b8ff" d="M1010.85,-221.95C954.53,-213.36 827,-193.9 752.36,-182.5"/>
<polygon fill="#63b8ff" stroke="#63b8ff" points="753.21,-179.09 742.79,-181.04 752.15,-186.01 753.21,-179.09"/>
</a>
</g>
</g>
<!-- Node13&#45;&gt;Node15 -->
<g id="edge23_Node000013_Node000015" class="edge">
<title>Node13&#45;&gt;Node15</title>
<g id="a_edge23_Node000013_Node000015"><a xlink:title=" ">
<path fill="none" stroke="#63b8ff" d="M1011.03,-220.33C968.05,-211.23 885.39,-193.73 834.53,-182.96"/>
<polygon fill="#63b8ff" stroke="#63b8ff" points="835.55,-179.6 825.04,-180.96 834.1,-186.45 835.55,-179.6"/>
</a>
</g>
</g>
<!-- Node14&#45;&gt;Node6 -->
<g id="edge22_Node000014_Node000006" class="edge">
<title>Node14&#45;&gt;Node6</title>
<g id="a_edge22_Node000014_Node000006"><a xlink:title=" ">
<path fill="none" stroke="#63b8ff" d="M695.15,-163.29C695.9,-149.56 699.52,-122.6 716,-109 718.94,-106.57 938.69,-78.74 1020.1,-68.5"/>
<polygon fill="#63b8ff" stroke="#63b8ff" points="1020.29,-72 1029.78,-67.28 1019.42,-65.06 1020.29,-72"/>
</a>
</g>
</g>
<!-- Node15&#45;&gt;Node3 -->
<g id="edge25_Node000015_Node000003" class="edge">
<title>Node15&#45;&gt;Node3</title>
<g id="a_edge25_Node000015_Node000003"><a xlink:title=" ">
<path fill="none" stroke="#63b8ff" d="M758.15,-164.96C716.31,-156.31 641.76,-140.87 578,-127.5 577.19,-127.33 576.36,-127.16 575.54,-126.98"/>
<polygon fill="#63b8ff" stroke="#63b8ff" points="576.58,-123.63 566.07,-124.99 575.14,-130.48 576.58,-123.63"/>
</a>
</g>
</g>
<!-- Node15&#45;&gt;Node4 -->
<g id="edge26_Node000015_Node000004" class="edge">
<title>Node15&#45;&gt;Node4</title>
<g id="a_edge26_Node000015_Node000004"><a xlink:title=" ">
<path fill="none" stroke="#63b8ff" d="M810.66,-163C826.72,-155.22 849.4,-142.73 866,-127.5 895.35,-100.57 885.06,-76.9 918,-54.5 961.57,-24.88 1023.1,-15.05 1061.49,-11.82"/>
<polygon fill="#63b8ff" stroke="#63b8ff" points="1061.62,-15.32 1071.34,-11.1 1061.12,-8.33 1061.62,-15.32"/>
</a>
</g>
</g>
<!-- Node15&#45;&gt;Node5 -->
<g id="edge28_Node000015_Node000005" class="edge">
<title>Node15&#45;&gt;Node5</title>
<g id="a_edge28_Node000015_Node000005"><a xlink:title=" ">
<path fill="none" stroke="#63b8ff" d="M762.6,-163.01C745.83,-156.22 725.97,-144.96 716,-127.5 698.09,-96.14 714.79,-53.1 727.26,-28.84"/>
<polygon fill="#63b8ff" stroke="#63b8ff" points="730.26,-30.63 731.98,-20.18 724.12,-27.28 730.26,-30.63"/>
</a>
</g>
</g>
<!-- Node15&#45;&gt;Node6 -->
<g id="edge29_Node000015_Node000006" class="edge">
<title>Node15&#45;&gt;Node6</title>
<g id="a_edge29_Node000015_Node000006"><a xlink:title=" ">
<path fill="none" stroke="#63b8ff" d="M769.89,-163.14C744.33,-151.51 706.8,-129.84 725,-109 727.43,-106.21 940.12,-78.79 1020.07,-68.56"/>
<polygon fill="#63b8ff" stroke="#63b8ff" points="1020.31,-72.06 1029.79,-67.32 1019.42,-65.12 1020.31,-72.06"/>
</a>
</g>
</g>
<!-- Node15&#45;&gt;Node8 -->
<g id="edge30_Node000015_Node000008" class="edge">
<title>Node15&#45;&gt;Node8</title>
<g id="a_edge30_Node000015_Node000008"><a xlink:title=" ">
<path fill="none" stroke="#63b8ff" d="M758.3,-165.11C722.8,-157.52 664.67,-144.01 616,-127.5 596.3,-120.82 592.7,-115.7 573,-109 524.21,-92.42 465.88,-78.8 430.67,-71.23"/>
<polygon fill="#63b8ff" stroke="#63b8ff" points="431.65,-67.86 421.14,-69.22 430.2,-74.71 431.65,-67.86"/>
</a>
</g>
</g>
<!-- Node16 -->
<g id="Node000016" class="node">
<title>Node16</title>
<g id="a_Node000016"><a xlink:title=" ">
<polygon fill="#e0e0e0" stroke="#999999" points="795.88,-127.5 734.12,-127.5 734.12,-109 795.88,-109 795.88,-127.5"/>
<text text-anchor="middle" x="765" y="-114" font-family="Helvetica,sans-Serif" font-size="10.00">arpa/inet.h</text>
</a>
</g>
</g>
<!-- Node15&#45;&gt;Node16 -->
<g id="edge24_Node000015_Node000016" class="edge">
<title>Node15&#45;&gt;Node16</title>
<g id="a_edge24_Node000015_Node000016"><a xlink:title=" ">
<path fill="none" stroke="#63b8ff" d="M786.71,-163.08C783.34,-156.28 778.52,-146.56 774.28,-138"/>
<polygon fill="#63b8ff" stroke="#63b8ff" points="777.46,-136.52 769.89,-129.11 771.19,-139.63 777.46,-136.52"/>
</a>
</g>
</g>
<!-- Node17 -->
<g id="Node000017" class="node">
<title>Node17</title>
<g id="a_Node000017"><a xlink:title=" ">
<polygon fill="#e0e0e0" stroke="#999999" points="856.5,-127.5 813.5,-127.5 813.5,-109 856.5,-109 856.5,-127.5"/>
<text text-anchor="middle" x="835" y="-114" font-family="Helvetica,sans-Serif" font-size="10.00">time.h</text>
</a>
</g>
</g>
<!-- Node15&#45;&gt;Node17 -->
<g id="edge27_Node000015_Node000017" class="edge">
<title>Node15&#45;&gt;Node17</title>
<g id="a_edge27_Node000015_Node000017"><a xlink:title=" ">
<path fill="none" stroke="#63b8ff" d="M798.27,-163.08C804.29,-155.89 813.04,-145.45 820.49,-136.57"/>
<polygon fill="#63b8ff" stroke="#63b8ff" points="823.16,-138.83 826.9,-128.92 817.79,-134.33 823.16,-138.83"/>
</a>
</g>
</g>
<!-- Node15&#45;&gt;Node18 -->
<g id="edge31_Node000015_Node000018" class="edge">
<title>Node15&#45;&gt;Node18</title>
<g id="a_edge31_Node000015_Node000018"><a xlink:title=" ">
<path fill="none" stroke="#63b8ff" d="M817.75,-163.08C844.37,-154.46 885.45,-141.14 915.35,-131.45"/>
<polygon fill="#63b8ff" stroke="#63b8ff" points="916.34,-134.81 924.77,-128.4 914.18,-128.15 916.34,-134.81"/>
</a>
</g>
</g>
<!-- Node18&#45;&gt;Node4 -->
<g id="edge33_Node000018_Node000004" class="edge">
<title>Node18&#45;&gt;Node4</title>
<g id="a_edge33_Node000018_Node000004"><a xlink:title=" ">
<path fill="none" stroke="#63b8ff" d="M961.59,-108.55C974.35,-95.87 999.35,-71.92 1023,-54.5 1038.13,-43.36 1056.21,-32.5 1070.72,-24.33"/>
<polygon fill="#63b8ff" stroke="#63b8ff" points="1072.17,-27.53 1079.23,-19.62 1068.78,-21.4 1072.17,-27.53"/>
</a>
</g>
</g>
<!-- Node18&#45;&gt;Node5 -->
<g id="edge35_Node000018_Node000005" class="edge">
<title>Node18&#45;&gt;Node5</title>
<g id="a_edge35_Node000018_Node000005"><a xlink:title=" ">
<path fill="none" stroke="#63b8ff" d="M935.77,-108.67C898.58,-90.17 810.52,-46.34 765.51,-23.94"/>
<polygon fill="#63b8ff" stroke="#63b8ff" points="767.18,-20.86 756.67,-19.54 764.06,-27.13 767.18,-20.86"/>
</a>
</g>
</g>
<!-- Node18&#45;&gt;Node6 -->
<g id="edge36_Node000018_Node000006" class="edge">
<title>Node18&#45;&gt;Node6</title>
<g id="a_edge36_Node000018_Node000006"><a xlink:title=" ">
<path fill="none" stroke="#63b8ff" d="M969.02,-108.58C984.04,-100.45 1006.76,-88.15 1024.32,-78.65"/>
<polygon fill="#63b8ff" stroke="#63b8ff" points="1025.5,-81.99 1032.63,-74.15 1022.17,-75.83 1025.5,-81.99"/>
</a>
</g>
</g>
<!-- Node18&#45;&gt;Node8 -->
<g id="edge37_Node000018_Node000008" class="edge">
<title>Node18&#45;&gt;Node8</title>
<g id="a_edge37_Node000018_Node000008"><a xlink:title=" ">
<path fill="none" stroke="#63b8ff" d="M912.28,-113.39C897.68,-112 881.1,-110.43 866,-109 702.08,-93.46 505.79,-74.87 430.5,-67.73"/>
<polygon fill="#63b8ff" stroke="#63b8ff" points="431.28,-64.29 420.99,-66.83 430.62,-71.26 431.28,-64.29"/>
</a>
</g>
</g>
<!-- Node19 -->
<g id="Node000019" class="node">
<title>Node19</title>
<g id="a_Node000019"><a xlink:title=" ">
<polygon fill="#e0e0e0" stroke="#999999" points="975.12,-73 926.88,-73 926.88,-54.5 975.12,-54.5 975.12,-73"/>
<text text-anchor="middle" x="951" y="-59.5" font-family="Helvetica,sans-Serif" font-size="10.00">pcre2.h</text>
</a>
</g>
</g>
<!-- Node18&#45;&gt;Node19 -->
<g id="edge32_Node000018_Node000019" class="edge">
<title>Node18&#45;&gt;Node19</title>
<g id="a_edge32_Node000018_Node000019"><a xlink:title=" ">
<path fill="none" stroke="#63b8ff" d="M952.67,-108.58C952.42,-102.08 952.07,-92.92 951.76,-84.66"/>
<polygon fill="#63b8ff" stroke="#63b8ff" points="955.26,-84.63 951.38,-74.77 948.27,-84.9 955.26,-84.63"/>
</a>
</g>
</g>
<!-- Node20 -->
<g id="Node000020" class="node">
<title>Node20</title>
<g id="a_Node000020"><a xlink:title=" ">
<polygon fill="#e0e0e0" stroke="#999999" points="1434.62,-73 1389.38,-73 1389.38,-54.5 1434.62,-54.5 1434.62,-73"/>
<text text-anchor="middle" x="1412" y="-59.5" font-family="Helvetica,sans-Serif" font-size="10.00">stdio.h</text>
</a>
</g>
</g>
<!-- Node18&#45;&gt;Node20 -->
<g id="edge34_Node000018_Node000020" class="edge">
<title>Node18&#45;&gt;Node20</title>
<g id="a_edge34_Node000018_Node000020"><a xlink:title=" ">
<path fill="none" stroke="#63b8ff" d="M993.72,-115.17C1068.29,-110.92 1231.87,-99.44 1378.12,-73.27"/>
<polygon fill="#63b8ff" stroke="#63b8ff" points="1378.37,-76.79 1387.58,-71.55 1377.11,-69.9 1378.37,-76.79"/>
</a>
</g>
</g>
<!-- Node21&#45;&gt;Node3 -->
<g id="edge39_Node000021_Node000003" class="edge">
<title>Node21&#45;&gt;Node3</title>
<g id="a_edge39_Node000021_Node000003"><a xlink:title=" ">
<path fill="none" stroke="#63b8ff" d="M406,-164.89C430.6,-156.45 472.81,-141.96 503.09,-131.57"/>
<polygon fill="#63b8ff" stroke="#63b8ff" points="503.89,-135 512.22,-128.44 501.62,-128.38 503.89,-135"/>
</a>
</g>
</g>
<!-- Node21&#45;&gt;Node4 -->
<g id="edge40_Node000021_Node000004" class="edge">
<title>Node21&#45;&gt;Node4</title>
<g id="a_edge40_Node000021_Node000004"><a xlink:title=" ">
<path fill="none" stroke="#63b8ff" d="M389.61,-163.15C395.95,-149.22 410.49,-121.98 432,-109 540.08,-43.8 940.25,-18.28 1061.78,-11.93"/>
<polygon fill="#63b8ff" stroke="#63b8ff" points="1061.65,-15.45 1071.46,-11.44 1061.29,-8.45 1061.65,-15.45"/>
</a>
</g>
</g>
<!-- Node21&#45;&gt;Node6 -->
<g id="edge42_Node000021_Node000006" class="edge">
<title>Node21&#45;&gt;Node6</title>
<g id="a_edge42_Node000021_Node000006"><a xlink:title=" ">
<path fill="none" stroke="#63b8ff" d="M367.41,-163C343.97,-150.86 308.8,-128.22 327,-109 377.26,-55.91 911.18,-79.54 984,-73 995.87,-71.93 1008.89,-70.39 1020.2,-68.92"/>
<polygon fill="#63b8ff" stroke="#63b8ff" points="1020.31,-72.44 1029.76,-67.65 1019.39,-65.5 1020.31,-72.44"/>
</a>
</g>
</g>
<!-- Node22 -->
<g id="Node000022" class="node">
<title>Node22</title>
<g id="a_Node000022"><a xlink:title=" ">
<polygon fill="#e0e0e0" stroke="#999999" points="384.12,-127.5 335.88,-127.5 335.88,-109 384.12,-109 384.12,-127.5"/>
<text text-anchor="middle" x="360" y="-114" font-family="Helvetica,sans-Serif" font-size="10.00">string.h</text>
</a>
</g>
</g>
<!-- Node21&#45;&gt;Node22 -->
<g id="edge41_Node000021_Node000022" class="edge">
<title>Node21&#45;&gt;Node22</title>
<g id="a_edge41_Node000021_Node000022"><a xlink:title=" ">
<path fill="none" stroke="#63b8ff" d="M381.71,-163.08C378.34,-156.28 373.52,-146.56 369.28,-138"/>
<polygon fill="#63b8ff" stroke="#63b8ff" points="372.46,-136.52 364.89,-129.11 366.19,-139.63 372.46,-136.52"/>
</a>
</g>
</g>
<!-- Node23&#45;&gt;Node6 -->
<g id="edge45_Node000023_Node000006" class="edge">
<title>Node23&#45;&gt;Node6</title>
<g id="a_edge45_Node000023_Node000006"><a xlink:title=" ">
<path fill="none" stroke="#63b8ff" d="M1293.83,-111.33C1291.23,-110.49 1288.56,-109.68 1286,-109 1213.08,-89.74 1125.37,-75.6 1080.18,-68.97"/>
<polygon fill="#63b8ff" stroke="#63b8ff" points="1080.76,-65.52 1070.37,-67.55 1079.76,-72.44 1080.76,-65.52"/>
</a>
</g>
</g>
<!-- Node23&#45;&gt;Node20 -->
<g id="edge44_Node000023_Node000020" class="edge">
<title>Node23&#45;&gt;Node20</title>
<g id="a_edge44_Node000023_Node000020"><a xlink:title=" ">
<path fill="none" stroke="#63b8ff" d="M1325.94,-109.05C1341.75,-100.91 1366.27,-88.29 1385.1,-78.59"/>
<polygon fill="#63b8ff" stroke="#63b8ff" points="1386.52,-81.8 1393.81,-74.11 1383.32,-75.58 1386.52,-81.8"/>
</a>
</g>
</g>
<!-- Node24&#45;&gt;Node15 -->
<g id="edge56_Node000024_Node000015" class="edge">
<title>Node24&#45;&gt;Node15</title>
<g id="a_edge56_Node000024_Node000015"><a xlink:title=" ">
<path fill="none" stroke="#63b8ff" d="M833.94,-326.64C822.62,-318.86 807.42,-306.3 800,-291 784.75,-259.54 785.88,-217.71 788.29,-193.46"/>
<polygon fill="#63b8ff" stroke="#63b8ff" points="791.74,-194.09 789.45,-183.75 784.79,-193.26 791.74,-194.09"/>
</a>
</g>
</g>
<!-- Node25 -->
<g id="Node000025" class="node">
<title>Node25</title>
<g id="a_Node000025"><a xlink:href="plugins__exts_8h.html" target="_top" xlink:title="libyang support for YANG extensions implementation.">
<polygon fill="white" stroke="#666666" points="887.5,-291 808.5,-291 808.5,-272.5 887.5,-272.5 887.5,-291"/>
<text text-anchor="middle" x="848" y="-277.5" font-family="Helvetica,sans-Serif" font-size="10.00">plugins_exts.h</text>
</a>
</g>
</g>
<!-- Node24&#45;&gt;Node25 -->
<g id="edge48_Node000024_Node000025" class="edge">
<title>Node24&#45;&gt;Node25</title>
<g id="a_edge48_Node000024_Node000025"><a xlink:title=" ">
<path fill="none" stroke="#63b8ff" d="M848,-326.58C848,-320.08 848,-310.92 848,-302.66"/>
<polygon fill="#63b8ff" stroke="#63b8ff" points="851.5,-302.77 848,-292.77 844.5,-302.77 851.5,-302.77"/>
</a>
</g>
</g>
<!-- Node25&#45;&gt;Node6 -->
<g id="edge49_Node000025_Node000006" class="edge">
<title>Node25&#45;&gt;Node6</title>
<g id="a_edge49_Node000025_Node000006"><a xlink:title=" ">
<path fill="none" stroke="#63b8ff" d="M887.88,-273.24C912.26,-266.93 942.74,-255.73 964,-236.5 1011.13,-193.86 1035.75,-119.51 1045.26,-84.3"/>
<polygon fill="#63b8ff" stroke="#63b8ff" points="1048.62,-85.26 1047.71,-74.7 1041.84,-83.52 1048.62,-85.26"/>
</a>
</g>
</g>
<!-- Node25&#45;&gt;Node7 -->
<g id="edge52_Node000025_Node000007" class="edge">
<title>Node25&#45;&gt;Node7</title>
<g id="a_edge52_Node000025_Node000007"><a xlink:title=" ">
<path fill="none" stroke="#63b8ff" d="M827.57,-272.07C764.68,-245.34 573.75,-164.19 498.73,-132.31"/>
<polygon fill="#63b8ff" stroke="#63b8ff" points="500.5,-129.26 489.92,-128.57 497.76,-135.7 500.5,-129.26"/>
</a>
</g>
</g>
<!-- Node25&#45;&gt;Node10 -->
<g id="edge54_Node000025_Node000010" class="edge">
<title>Node25&#45;&gt;Node10</title>
<g id="a_edge54_Node000025_Node000010"><a xlink:title=" ">
<path fill="none" stroke="#63b8ff" d="M808.34,-278.9C707.51,-273.28 434.16,-252.2 219,-182 182.51,-170.09 143.62,-148.31 119.8,-133.81"/>
<polygon fill="#63b8ff" stroke="#63b8ff" points="121.91,-130.99 111.57,-128.7 118.22,-136.94 121.91,-130.99"/>
</a>
</g>
</g>
<!-- Node25&#45;&gt;Node15 -->
<g id="edge53_Node000025_Node000015" class="edge">
<title>Node25&#45;&gt;Node15</title>
<g id="a_edge53_Node000025_Node000015"><a xlink:title=" ">
<path fill="none" stroke="#63b8ff" d="M843.53,-272.35C834.42,-255.25 813.51,-216 800.99,-192.51"/>
<polygon fill="#63b8ff" stroke="#63b8ff" points="804.11,-190.92 796.32,-183.74 797.93,-194.21 804.11,-190.92"/>
</a>
</g>
</g>
<!-- Node25&#45;&gt;Node18 -->
<g id="edge55_Node000025_Node000018" class="edge">
<title>Node25&#45;&gt;Node18</title>
<g id="a_edge55_Node000025_Node000018"><a xlink:title=" ">
<path fill="none" stroke="#63b8ff" d="M849.94,-272.22C853.01,-259.74 859.71,-236.05 870,-218 888.2,-186.06 917.19,-154.48 935.64,-135.93"/>
<polygon fill="#63b8ff" stroke="#63b8ff" points="938.02,-138.5 942.68,-128.99 933.1,-133.52 938.02,-138.5"/>
</a>
</g>
</g>
<!-- Node25&#45;&gt;Node26 -->
<g id="edge50_Node000025_Node000026" class="edge">
<title>Node25&#45;&gt;Node26</title>
<g id="a_edge50_Node000025_Node000026"><a xlink:title=" ">
<path fill="none" stroke="#63b8ff" d="M859.39,-272.08C869.54,-264.36 884.63,-252.88 896.81,-243.61"/>
<polygon fill="#63b8ff" stroke="#63b8ff" points="898.77,-246.52 904.61,-237.67 894.54,-240.94 898.77,-246.52"/>
</a>
</g>
</g>
<!-- Node26&#45;&gt;Node15 -->
<g id="edge51_Node000026_Node000015" class="edge">
<title>Node26&#45;&gt;Node15</title>
<g id="a_edge51_Node000026_Node000015"><a xlink:title=" ">
<path fill="none" stroke="#63b8ff" d="M896.19,-217.58C876.13,-209.22 845.5,-196.46 822.46,-186.86"/>
<polygon fill="#63b8ff" stroke="#63b8ff" points="823.81,-183.63 813.23,-183.01 821.12,-190.09 823.81,-183.63"/>
</a>
</g>
</g>
<!-- Node27&#45;&gt;Node6 -->
<g id="edge60_Node000027_Node000006" class="edge">
<title>Node27&#45;&gt;Node6</title>
<g id="a_edge60_Node000027_Node000006"><a xlink:title=" ">
<path fill="none" stroke="#63b8ff" d="M1343.21,-111.13C1340.47,-110.35 1337.68,-109.61 1335,-109 1243.28,-87.98 1132.63,-73.97 1080.28,-68.01"/>
<polygon fill="#63b8ff" stroke="#63b8ff" points="1080.68,-64.54 1070.35,-66.9 1079.9,-71.49 1080.68,-64.54"/>
</a>
</g>
</g>
<!-- Node27&#45;&gt;Node20 -->
<g id="edge58_Node000027_Node000020" class="edge">
<title>Node27&#45;&gt;Node20</title>
<g id="a_edge58_Node000027_Node000020"><a xlink:title=" ">
<path fill="none" stroke="#63b8ff" d="M1370.26,-108.58C1377.25,-101.24 1387.47,-90.51 1396.05,-81.5"/>
<polygon fill="#63b8ff" stroke="#63b8ff" points="1398.49,-84.01 1402.85,-74.35 1393.42,-79.18 1398.49,-84.01"/>
</a>
</g>
</g>
<!-- Node28 -->
<g id="Node000028" class="node">
<title>Node28</title>
<g id="a_Node000028"><a xlink:title=" ">
<polygon fill="#e0e0e0" stroke="#999999" points="1371.75,-73 1306.25,-73 1306.25,-54.5 1371.75,-54.5 1371.75,-73"/>
<text text-anchor="middle" x="1339" y="-59.5" font-family="Helvetica,sans-Serif" font-size="10.00">sys/types.h</text>
</a>
</g>
</g>
<!-- Node27&#45;&gt;Node28 -->
<g id="edge59_Node000027_Node000028" class="edge">
<title>Node27&#45;&gt;Node28</title>
<g id="a_edge59_Node000027_Node000028"><a xlink:title=" ">
<path fill="none" stroke="#63b8ff" d="M1358.2,-108.58C1355.25,-101.85 1351.06,-92.27 1347.34,-83.79"/>
<polygon fill="#63b8ff" stroke="#63b8ff" points="1350.55,-82.4 1343.33,-74.64 1344.14,-85.21 1350.55,-82.4"/>
</a>
</g>
</g>
<!-- Node29&#45;&gt;Node4 -->
<g id="edge64_Node000029_Node000004" class="edge">
<title>Node29&#45;&gt;Node4</title>
<g id="a_edge64_Node000029_Node000004"><a xlink:title=" ">
<path fill="none" stroke="#63b8ff" d="M1428.82,-226.87C1464.2,-225.16 1515.31,-216.36 1541,-182 1577.06,-133.77 1621.77,-148.71 1468,-54.5 1412.24,-20.34 1214.19,-12.54 1132.56,-10.77"/>
<polygon fill="#63b8ff" stroke="#63b8ff" points="1132.75,-7.27 1122.69,-10.57 1132.62,-14.27 1132.75,-7.27"/>
</a>
</g>
</g>
<!-- Node29&#45;&gt;Node6 -->
<g id="edge66_Node000029_Node000006" class="edge">
<title>Node29&#45;&gt;Node6</title>
<g id="a_edge66_Node000029_Node000006"><a xlink:title=" ">
<path fill="none" stroke="#63b8ff" d="M1373.48,-217.53C1333.74,-197.81 1233.65,-148.41 1149,-109 1125.64,-98.12 1098.95,-86.22 1079.18,-77.51"/>
<polygon fill="#63b8ff" stroke="#63b8ff" points="1080.64,-74.33 1070.07,-73.51 1077.82,-80.74 1080.64,-74.33"/>
</a>
</g>
</g>
<!-- Node29&#45;&gt;Node15 -->
<g id="edge68_Node000029_Node000015" class="edge">
<title>Node29&#45;&gt;Node15</title>
<g id="a_edge68_Node000029_Node000015"><a xlink:title=" ">
<path fill="none" stroke="#63b8ff" d="M1353.01,-222.93C1246.9,-213.64 947.75,-187.47 834.86,-177.59"/>
<polygon fill="#63b8ff" stroke="#63b8ff" points="835.37,-174.12 825.1,-176.73 834.76,-181.09 835.37,-174.12"/>
</a>
</g>
</g>
<!-- Node29&#45;&gt;Node20 -->
<g id="edge65_Node000029_Node000020" class="edge">
<title>Node29&#45;&gt;Node20</title>
<g id="a_edge65_Node000029_Node000020"><a xlink:title=" ">
<path fill="none" stroke="#63b8ff" d="M1392.13,-217.57C1395.38,-192.59 1404.8,-120.1 1409.41,-84.69"/>
<polygon fill="#63b8ff" stroke="#63b8ff" points="1412.85,-85.34 1410.67,-74.98 1405.91,-84.44 1412.85,-85.34"/>
</a>
</g>
</g>
<!-- Node29&#45;&gt;Node27 -->
<g id="edge67_Node000029_Node000027" class="edge">
<title>Node29&#45;&gt;Node27</title>
<g id="a_edge67_Node000029_Node000027"><a xlink:title=" ">
<path fill="none" stroke="#63b8ff" d="M1388.72,-217.85C1384.15,-200.98 1373.74,-162.57 1367.35,-138.98"/>
<polygon fill="#63b8ff" stroke="#63b8ff" points="1370.74,-138.1 1364.74,-129.37 1363.98,-139.93 1370.74,-138.1"/>
</a>
</g>
</g>
<!-- Node30&#45;&gt;Node4 -->
<g id="edge70_Node000030_Node000004" class="edge">
<title>Node30&#45;&gt;Node4</title>
<g id="a_edge70_Node000030_Node000004"><a xlink:title=" ">
<path fill="none" stroke="#63b8ff" d="M1486.46,-163.35C1486.86,-151.05 1486.56,-127.57 1480,-109 1470.33,-81.63 1468.64,-69.84 1444,-54.5 1392.39,-22.36 1209.25,-13.43 1131.89,-11.06"/>
<polygon fill="#63b8ff" stroke="#63b8ff" points="1132.45,-7.57 1122.36,-10.79 1132.26,-14.57 1132.45,-7.57"/>
</a>
</g>
</g>
<!-- Node30&#45;&gt;Node6 -->
<g id="edge72_Node000030_Node000006" class="edge">
<title>Node30&#45;&gt;Node6</title>
<g id="a_edge72_Node000030_Node000006"><a xlink:title=" ">
<path fill="none" stroke="#63b8ff" d="M1476.18,-163.12C1459.67,-149.15 1424.74,-121.84 1390,-109 1281.1,-68.73 1140.75,-64.14 1080.11,-64.23"/>
<polygon fill="#63b8ff" stroke="#63b8ff" points="1080.24,-60.73 1070.26,-64.3 1080.29,-67.73 1080.24,-60.73"/>
</a>
</g>
</g>
<!-- Node30&#45;&gt;Node20 -->
<g id="edge71_Node000030_Node000020" class="edge">
<title>Node30&#45;&gt;Node20</title>
<g id="a_edge71_Node000030_Node000020"><a xlink:title=" ">
<path fill="none" stroke="#63b8ff" d="M1483.88,-163.02C1480.52,-150.31 1473.05,-126.33 1461,-109 1453.44,-98.13 1442.73,-88.06 1433.25,-80.28"/>
<polygon fill="#63b8ff" stroke="#63b8ff" points="1435.57,-77.65 1425.53,-74.26 1431.26,-83.17 1435.57,-77.65"/>
</a>
</g>
</g>
<!-- Node30&#45;&gt;Node27 -->
<g id="edge73_Node000030_Node000027" class="edge">
<title>Node30&#45;&gt;Node27</title>
<g id="a_edge73_Node000030_Node000027"><a xlink:title=" ">
<path fill="none" stroke="#63b8ff" d="M1465.52,-163.08C1445.31,-154.52 1414.19,-141.35 1391.34,-131.67"/>
<polygon fill="#63b8ff" stroke="#63b8ff" points="1392.85,-128.51 1382.27,-127.83 1390.12,-134.96 1392.85,-128.51"/>
</a>
</g>
</g>
<!-- Node31&#45;&gt;Node4 -->
<g id="edge75_Node000031_Node000004" class="edge">
<title>Node31&#45;&gt;Node4</title>
<g id="a_edge75_Node000031_Node000004"><a xlink:title=" ">
<path fill="none" stroke="#63b8ff" d="M1255.71,-108.65C1251.71,-95.22 1242.18,-69.26 1225,-54.5 1198.63,-31.84 1160.01,-20.6 1132.1,-15.14"/>
<polygon fill="#63b8ff" stroke="#63b8ff" points="1132.81,-11.71 1122.35,-13.4 1131.58,-18.6 1132.81,-11.71"/>
</a>
</g>
</g>
<!-- Node31&#45;&gt;Node6 -->
<g id="edge76_Node000031_Node000006" class="edge">
<title>Node31&#45;&gt;Node6</title>
<g id="a_edge76_Node000031_Node000006"><a xlink:title=" ">
<path fill="none" stroke="#63b8ff" d="M1239.17,-112.5C1202.99,-103.37 1123.47,-83.29 1079.94,-72.31"/>
<polygon fill="#63b8ff" stroke="#63b8ff" points="1080.95,-68.95 1070.4,-69.9 1079.24,-75.74 1080.95,-68.95"/>
</a>
</g>
</g>
</g>
</svg>
