<?xml version="1.0" encoding="UTF-8" standalone="no"?>
<!DOCTYPE svg PUBLIC "-//W3C//DTD SVG 1.1//EN"
 "http://www.w3.org/Graphics/SVG/1.1/DTD/svg11.dtd">
<!-- Generated by graphviz version 12.1.0 (20240811.2233)
 -->
<!-- Title: src/context.h Pages: 1 -->
<svg width="500pt" height="245pt"
 viewBox="0.00 0.00 499.56 244.50" xmlns="http://www.w3.org/2000/svg" xmlns:xlink="http://www.w3.org/1999/xlink">

<svg id="main" version="1.1" xmlns="http://www.w3.org/2000/svg" xmlns:xlink="http://www.w3.org/1999/xlink" xml:space="preserve">

<style type="text/css"><![CDATA[
.node, .edge {opacity: 0.7;}
.node.selected, .edge.selected {opacity: 1;}
.edge:hover path { stroke: red; }
.edge:hover polygon { stroke: red; fill: red; }
]]></style>
<script type="application/ecmascript" xlink:href="svg.min.js"/>
<svg id="graph" class="graph">
<g id="graph0" class="graph" transform="scale(1 1) rotate(0) translate(4 240.5)">
<title>src/context.h</title>
<!-- Node1 -->
<g id="Node000001" class="node">
<title>Node1</title>
<g id="a_Node000001"><a xlink:title="internal context structures and functions">
<polygon fill="#999999" stroke="#666666" points="76.18,-236.5 3.93,-236.5 3.93,-218 76.18,-218 76.18,-236.5"/>
<text text-anchor="middle" x="40.06" y="-223" font-family="Helvetica,sans-Serif" font-size="10.00">src/context.h</text>
</a>
</g>
</g>
<!-- Node2 -->
<g id="Node000002" class="node">
<title>Node2</title>
<g id="a_Node000002"><a xlink:title=" ">
<polygon fill="#e0e0e0" stroke="#999999" points="88.81,-18.5 41.31,-18.5 41.31,0 88.81,0 88.81,-18.5"/>
<text text-anchor="middle" x="65.06" y="-5" font-family="Helvetica,sans-Serif" font-size="10.00">stdint.h</text>
</a>
</g>
</g>
<!-- Node1&#45;&gt;Node2 -->
<g id="edge1_Node000001_Node000002" class="edge">
<title>Node1&#45;&gt;Node2</title>
<g id="a_edge1_Node000001_Node000002"><a xlink:title=" ">
<path fill="none" stroke="#63b8ff" d="M33.74,-217.63C27.89,-209.08 19.57,-195.35 16.06,-182 1.61,-127.2 -9.47,-106.06 14.06,-54.5 19.51,-42.54 29.98,-32.57 40.01,-25.13"/>
<polygon fill="#63b8ff" stroke="#63b8ff" points="41.77,-28.17 48.08,-19.65 37.84,-22.38 41.77,-28.17"/>
</a>
</g>
</g>
<!-- Node3 -->
<g id="Node000003" class="node">
<title>Node3</title>
<g id="a_Node000003"><a xlink:href="log_8h.html" target="_top" xlink:title="Logger manipulation routines and error definitions.">
<polygon fill="white" stroke="#666666" points="59.56,-73 22.56,-73 22.56,-54.5 59.56,-54.5 59.56,-73"/>
<text text-anchor="middle" x="41.06" y="-59.5" font-family="Helvetica,sans-Serif" font-size="10.00">log.h</text>
</a>
</g>
</g>
<!-- Node1&#45;&gt;Node3 -->
<g id="edge2_Node000001_Node000003" class="edge">
<title>Node1&#45;&gt;Node3</title>
<g id="a_edge2_Node000001_Node000003"><a xlink:title=" ">
<path fill="none" stroke="#63b8ff" d="M35.44,-217.74C31,-209.05 24.6,-195.02 22.06,-182 15.34,-147.69 25.85,-107.4 33.72,-84.1"/>
<polygon fill="#63b8ff" stroke="#63b8ff" points="37,-85.34 37.08,-74.74 30.41,-82.97 37,-85.34"/>
</a>
</g>
</g>
<!-- Node5 -->
<g id="Node000005" class="node">
<title>Node5</title>
<g id="a_Node000005"><a xlink:href="parser__schema_8h.html" target="_top" xlink:title="Schema parsers for libyang.">
<polygon fill="white" stroke="#666666" points="122.93,-182 31.18,-182 31.18,-163.5 122.93,-163.5 122.93,-182"/>
<text text-anchor="middle" x="77.06" y="-168.5" font-family="Helvetica,sans-Serif" font-size="10.00">parser_schema.h</text>
</a>
</g>
</g>
<!-- Node1&#45;&gt;Node5 -->
<g id="edge5_Node000001_Node000005" class="edge">
<title>Node1&#45;&gt;Node5</title>
<g id="a_edge5_Node000001_Node000005"><a xlink:title=" ">
<path fill="none" stroke="#63b8ff" d="M46.17,-217.58C51.12,-210.55 58.28,-200.4 64.45,-191.64"/>
<polygon fill="#63b8ff" stroke="#63b8ff" points="67.29,-193.69 70.19,-183.5 61.57,-189.65 67.29,-193.69"/>
</a>
</g>
</g>
<!-- Node6 -->
<g id="Node000006" class="node">
<title>Node6</title>
<g id="a_Node000006"><a xlink:href="tree__data_8h.html" target="_top" xlink:title="libyang representation of YANG data trees.">
<polygon fill="white" stroke="#666666" points="260.43,-182 195.68,-182 195.68,-163.5 260.43,-163.5 260.43,-182"/>
<text text-anchor="middle" x="228.06" y="-168.5" font-family="Helvetica,sans-Serif" font-size="10.00">tree_data.h</text>
</a>
</g>
</g>
<!-- Node1&#45;&gt;Node6 -->
<g id="edge7_Node000001_Node000006" class="edge">
<title>Node1&#45;&gt;Node6</title>
<g id="a_edge7_Node000001_Node000006"><a xlink:title=" ">
<path fill="none" stroke="#63b8ff" d="M71.1,-217.58C102.53,-208.8 151.34,-195.17 186.18,-185.44"/>
<polygon fill="#63b8ff" stroke="#63b8ff" points="186.82,-188.9 195.51,-182.84 184.93,-182.16 186.82,-188.9"/>
</a>
</g>
</g>
<!-- Node3&#45;&gt;Node2 -->
<g id="edge3_Node000003_Node000002" class="edge">
<title>Node3&#45;&gt;Node2</title>
<g id="a_edge3_Node000003_Node000002"><a xlink:title=" ">
<path fill="none" stroke="#63b8ff" d="M45.02,-54.08C48.13,-47.28 52.57,-37.56 56.49,-29"/>
<polygon fill="#63b8ff" stroke="#63b8ff" points="59.56,-30.68 60.54,-20.13 53.2,-27.77 59.56,-30.68"/>
</a>
</g>
</g>
<!-- Node4 -->
<g id="Node000004" class="node">
<title>Node4</title>
<g id="a_Node000004"><a xlink:title=" ">
<polygon fill="#e0e0e0" stroke="#999999" points="189.31,-18.5 138.81,-18.5 138.81,0 189.31,0 189.31,-18.5"/>
<text text-anchor="middle" x="164.06" y="-5" font-family="Helvetica,sans-Serif" font-size="10.00">config.h</text>
</a>
</g>
</g>
<!-- Node3&#45;&gt;Node4 -->
<g id="edge4_Node000003_Node000004" class="edge">
<title>Node3&#45;&gt;Node4</title>
<g id="a_edge4_Node000003_Node000004"><a xlink:title=" ">
<path fill="none" stroke="#63b8ff" d="M60,-54.66C79.55,-46.32 110.35,-33.17 133.37,-23.35"/>
<polygon fill="#63b8ff" stroke="#63b8ff" points="134.43,-26.7 142.26,-19.55 131.69,-20.26 134.43,-26.7"/>
</a>
</g>
</g>
<!-- Node5&#45;&gt;Node3 -->
<g id="edge6_Node000005_Node000003" class="edge">
<title>Node5&#45;&gt;Node3</title>
<g id="a_edge6_Node000005_Node000003"><a xlink:title=" ">
<path fill="none" stroke="#63b8ff" d="M74.23,-163.35C68.53,-146.4 55.51,-107.71 47.58,-84.15"/>
<polygon fill="#63b8ff" stroke="#63b8ff" points="50.96,-83.2 44.45,-74.84 44.32,-85.43 50.96,-83.2"/>
</a>
</g>
</g>
<!-- Node6&#45;&gt;Node2 -->
<g id="edge10_Node000006_Node000002" class="edge">
<title>Node6&#45;&gt;Node2</title>
<g id="a_edge10_Node000006_Node000002"><a xlink:title=" ">
<path fill="none" stroke="#63b8ff" d="M214.55,-163.02C201.96,-154.6 182.93,-141.16 168.06,-127.5 132.78,-95.11 97.11,-51.55 78.41,-27.69"/>
<polygon fill="#63b8ff" stroke="#63b8ff" points="81.31,-25.71 72.42,-19.96 75.78,-30 81.31,-25.71"/>
</a>
</g>
</g>
<!-- Node6&#45;&gt;Node3 -->
<g id="edge13_Node000006_Node000003" class="edge">
<title>Node6&#45;&gt;Node3</title>
<g id="a_edge13_Node000006_Node000003"><a xlink:title=" ">
<path fill="none" stroke="#63b8ff" d="M195.44,-164.52C169.1,-157.7 131.82,-145.77 103.06,-127.5 83.73,-115.23 65.83,-95.89 54.28,-81.92"/>
<polygon fill="#63b8ff" stroke="#63b8ff" points="57.29,-80.07 48.31,-74.45 51.82,-84.44 57.29,-80.07"/>
</a>
</g>
</g>
<!-- Node6&#45;&gt;Node4 -->
<g id="edge12_Node000006_Node000004" class="edge">
<title>Node6&#45;&gt;Node4</title>
<g id="a_edge12_Node000006_Node000004"><a xlink:title=" ">
<path fill="none" stroke="#63b8ff" d="M213.91,-163.11C202.48,-155.31 187.02,-142.74 179.06,-127.5 162.77,-96.36 161.56,-54.42 162.54,-30.06"/>
<polygon fill="#63b8ff" stroke="#63b8ff" points="166.03,-30.5 163.12,-20.31 159.04,-30.08 166.03,-30.5"/>
</a>
</g>
</g>
<!-- Node7 -->
<g id="Node000007" class="node">
<title>Node7</title>
<g id="a_Node000007"><a xlink:title=" ">
<polygon fill="#e0e0e0" stroke="#999999" points="347.93,-127.5 286.18,-127.5 286.18,-109 347.93,-109 347.93,-127.5"/>
<text text-anchor="middle" x="317.06" y="-114" font-family="Helvetica,sans-Serif" font-size="10.00">arpa/inet.h</text>
</a>
</g>
</g>
<!-- Node6&#45;&gt;Node7 -->
<g id="edge8_Node000006_Node000007" class="edge">
<title>Node6&#45;&gt;Node7</title>
<g id="a_edge8_Node000006_Node000007"><a xlink:title=" ">
<path fill="none" stroke="#63b8ff" d="M242.75,-163.08C256.28,-155.1 276.61,-143.11 292.58,-133.69"/>
<polygon fill="#63b8ff" stroke="#63b8ff" points="294.2,-136.8 301.03,-128.7 290.64,-130.77 294.2,-136.8"/>
</a>
</g>
</g>
<!-- Node8 -->
<g id="Node000008" class="node">
<title>Node8</title>
<g id="a_Node000008"><a xlink:title=" ">
<polygon fill="#e0e0e0" stroke="#999999" points="416.31,-127.5 365.81,-127.5 365.81,-109 416.31,-109 416.31,-127.5"/>
<text text-anchor="middle" x="391.06" y="-114" font-family="Helvetica,sans-Serif" font-size="10.00">stddef.h</text>
</a>
</g>
</g>
<!-- Node6&#45;&gt;Node8 -->
<g id="edge9_Node000006_Node000008" class="edge">
<title>Node6&#45;&gt;Node8</title>
<g id="a_edge9_Node000006_Node000008"><a xlink:title=" ">
<path fill="none" stroke="#63b8ff" d="M254.97,-163.08C282.15,-154.33 324.32,-140.74 354.52,-131.02"/>
<polygon fill="#63b8ff" stroke="#63b8ff" points="355.56,-134.36 364,-127.96 353.41,-127.7 355.56,-134.36"/>
</a>
</g>
</g>
<!-- Node9 -->
<g id="Node000009" class="node">
<title>Node9</title>
<g id="a_Node000009"><a xlink:title=" ">
<polygon fill="#e0e0e0" stroke="#999999" points="477.56,-127.5 434.56,-127.5 434.56,-109 477.56,-109 477.56,-127.5"/>
<text text-anchor="middle" x="456.06" y="-114" font-family="Helvetica,sans-Serif" font-size="10.00">time.h</text>
</a>
</g>
</g>
<!-- Node6&#45;&gt;Node9 -->
<g id="edge11_Node000006_Node000009" class="edge">
<title>Node6&#45;&gt;Node9</title>
<g id="a_edge11_Node000006_Node000009"><a xlink:title=" ">
<path fill="none" stroke="#63b8ff" d="M260.91,-164.78C297.95,-156.84 360.23,-143.21 423.15,-127.89"/>
<polygon fill="#63b8ff" stroke="#63b8ff" points="423.72,-131.35 432.6,-125.58 422.05,-124.55 423.72,-131.35"/>
</a>
</g>
</g>
<!-- Node10 -->
<g id="Node000010" class="node">
<title>Node10</title>
<g id="a_Node000010"><a xlink:href="tree_8h.html" target="_top" xlink:title="libyang generic macros and functions to work with YANG schema or data trees.">
<polygon fill="white" stroke="#666666" points="465.43,-73 424.68,-73 424.68,-54.5 465.43,-54.5 465.43,-73"/>
<text text-anchor="middle" x="445.06" y="-59.5" font-family="Helvetica,sans-Serif" font-size="10.00">tree.h</text>
</a>
</g>
</g>
<!-- Node6&#45;&gt;Node10 -->
<g id="edge14_Node000006_Node000010" class="edge">
<title>Node6&#45;&gt;Node10</title>
<g id="a_edge14_Node000006_Node000010"><a xlink:title=" ">
<path fill="none" stroke="#63b8ff" d="M260.76,-171.19C323.81,-169.33 458.45,-161.41 487.06,-127.5 499.7,-112.51 483.22,-93.6 467.33,-80.48"/>
<polygon fill="#63b8ff" stroke="#63b8ff" points="469.53,-77.76 459.47,-74.42 465.26,-83.3 469.53,-77.76"/>
</a>
</g>
</g>
<!-- Node12 -->
<g id="Node000012" class="node">
<title>Node12</title>
<g id="a_Node000012"><a xlink:href="tree__schema_8h.html" target="_top" xlink:title="libyang representation of YANG schema trees.">
<polygon fill="white" stroke="#666666" points="268.31,-127.5 187.81,-127.5 187.81,-109 268.31,-109 268.31,-127.5"/>
<text text-anchor="middle" x="228.06" y="-114" font-family="Helvetica,sans-Serif" font-size="10.00">tree_schema.h</text>
</a>
</g>
</g>
<!-- Node6&#45;&gt;Node12 -->
<g id="edge16_Node000006_Node000012" class="edge">
<title>Node6&#45;&gt;Node12</title>
<g id="a_edge16_Node000006_Node000012"><a xlink:title=" ">
<path fill="none" stroke="#63b8ff" d="M228.06,-163.08C228.06,-156.58 228.06,-147.42 228.06,-139.16"/>
<polygon fill="#63b8ff" stroke="#63b8ff" points="231.56,-139.27 228.06,-129.27 224.56,-139.27 231.56,-139.27"/>
</a>
</g>
</g>
<!-- Node11 -->
<g id="Node000011" class="node">
<title>Node11</title>
<g id="a_Node000011"><a xlink:title=" ">
<polygon fill="#e0e0e0" stroke="#999999" points="474.43,-18.5 415.68,-18.5 415.68,0 474.43,0 474.43,-18.5"/>
<text text-anchor="middle" x="445.06" y="-5" font-family="Helvetica,sans-Serif" font-size="10.00">inttypes.h</text>
</a>
</g>
</g>
<!-- Node10&#45;&gt;Node11 -->
<g id="edge15_Node000010_Node000011" class="edge">
<title>Node10&#45;&gt;Node11</title>
<g id="a_edge15_Node000010_Node000011"><a xlink:title=" ">
<path fill="none" stroke="#63b8ff" d="M445.06,-54.08C445.06,-47.58 445.06,-38.42 445.06,-30.16"/>
<polygon fill="#63b8ff" stroke="#63b8ff" points="448.56,-30.27 445.06,-20.27 441.56,-30.27 448.56,-30.27"/>
</a>
</g>
</g>
<!-- Node12&#45;&gt;Node2 -->
<g id="edge18_Node000012_Node000002" class="edge">
<title>Node12&#45;&gt;Node2</title>
<g id="a_edge18_Node000012_Node000002"><a xlink:title=" ">
<path fill="none" stroke="#63b8ff" d="M214.99,-108.67C187.21,-90.44 122,-47.63 87.45,-24.95"/>
<polygon fill="#63b8ff" stroke="#63b8ff" points="89.73,-22.26 79.45,-19.7 85.89,-28.11 89.73,-22.26"/>
</a>
</g>
</g>
<!-- Node12&#45;&gt;Node3 -->
<g id="edge21_Node000012_Node000003" class="edge">
<title>Node12&#45;&gt;Node3</title>
<g id="a_edge21_Node000012_Node000003"><a xlink:title=" ">
<path fill="none" stroke="#63b8ff" d="M197.18,-108.58C162.13,-98.74 105.37,-82.81 70.8,-73.1"/>
<polygon fill="#63b8ff" stroke="#63b8ff" points="72.02,-69.81 61.45,-70.48 70.13,-76.55 72.02,-69.81"/>
</a>
</g>
</g>
<!-- Node12&#45;&gt;Node4 -->
<g id="edge20_Node000012_Node000004" class="edge">
<title>Node12&#45;&gt;Node4</title>
<g id="a_edge20_Node000012_Node000004"><a xlink:title=" ">
<path fill="none" stroke="#63b8ff" d="M223.03,-108.85C212.76,-91.67 189.11,-52.14 175.08,-28.69"/>
<polygon fill="#63b8ff" stroke="#63b8ff" points="178.15,-26.99 170.01,-20.2 172.14,-30.58 178.15,-26.99"/>
</a>
</g>
</g>
<!-- Node12&#45;&gt;Node10 -->
<g id="edge22_Node000012_Node000010" class="edge">
<title>Node12&#45;&gt;Node10</title>
<g id="a_edge22_Node000012_Node000010"><a xlink:title=" ">
<path fill="none" stroke="#63b8ff" d="M263.89,-108.58C305.43,-98.53 373.29,-82.11 413.1,-72.48"/>
<polygon fill="#63b8ff" stroke="#63b8ff" points="413.89,-75.89 422.79,-70.14 412.25,-69.09 413.89,-75.89"/>
</a>
</g>
</g>
<!-- Node13 -->
<g id="Node000013" class="node">
<title>Node13</title>
<g id="a_Node000013"><a xlink:title=" ">
<polygon fill="#e0e0e0" stroke="#999999" points="278.18,-73 229.93,-73 229.93,-54.5 278.18,-54.5 278.18,-73"/>
<text text-anchor="middle" x="254.06" y="-59.5" font-family="Helvetica,sans-Serif" font-size="10.00">pcre2.h</text>
</a>
</g>
</g>
<!-- Node12&#45;&gt;Node13 -->
<g id="edge17_Node000012_Node000013" class="edge">
<title>Node12&#45;&gt;Node13</title>
<g id="a_edge17_Node000012_Node000013"><a xlink:title=" ">
<path fill="none" stroke="#63b8ff" d="M232.35,-108.58C235.72,-101.78 240.53,-92.06 244.77,-83.5"/>
<polygon fill="#63b8ff" stroke="#63b8ff" points="247.87,-85.13 249.17,-74.61 241.6,-82.02 247.87,-85.13"/>
</a>
</g>
</g>
<!-- Node14 -->
<g id="Node000014" class="node">
<title>Node14</title>
<g id="a_Node000014"><a xlink:title=" ">
<polygon fill="#e0e0e0" stroke="#999999" points="341.68,-73 296.43,-73 296.43,-54.5 341.68,-54.5 341.68,-73"/>
<text text-anchor="middle" x="319.06" y="-59.5" font-family="Helvetica,sans-Serif" font-size="10.00">stdio.h</text>
</a>
</g>
</g>
<!-- Node12&#45;&gt;Node14 -->
<g id="edge19_Node000012_Node000014" class="edge">
<title>Node12&#45;&gt;Node14</title>
<g id="a_edge19_Node000012_Node000014"><a xlink:title=" ">
<path fill="none" stroke="#63b8ff" d="M243.08,-108.58C257.05,-100.53 278.09,-88.38 294.5,-78.92"/>
<polygon fill="#63b8ff" stroke="#63b8ff" points="295.78,-82.22 302.7,-74.19 292.28,-76.15 295.78,-82.22"/>
</a>
</g>
</g>
</g>
</svg>
</svg>

<style type='text/css'>
<![CDATA[
[data-mouse-over-selected='false'] { opacity: 0.7; }
[data-mouse-over-selected='true']  { opacity: 1.0; }
]]>
</style>
<script type="application/ecmascript"><![CDATA[
document.addEventListener('DOMContentLoaded', (event) => {
  highlightEdges();
  highlightAdjacentNodes();
});
]]></script>
</svg>
