<?xml version="1.0" encoding="UTF-8" standalone="no"?>
<!DOCTYPE svg PUBLIC "-//W3C//DTD SVG 1.1//EN"
 "http://www.w3.org/Graphics/SVG/1.1/DTD/svg11.dtd">
<!-- Generated by graphviz version 12.1.0 (20240811.2233)
 -->
<!-- Title: src/dict.h Pages: 1 -->
<svg width="225pt" height="136pt"
 viewBox="0.00 0.00 224.50 135.50" xmlns="http://www.w3.org/2000/svg" xmlns:xlink="http://www.w3.org/1999/xlink">
<g id="graph0" class="graph" transform="scale(1 1) rotate(0) translate(4 131.5)">
<title>src/dict.h</title>
<!-- Node1 -->
<g id="Node000001" class="node">
<title>Node1</title>
<g id="a_Node000001"><a xlink:title="libyang dictionary">
<polygon fill="#999999" stroke="#666666" points="132.12,-127.5 76.38,-127.5 76.38,-109 132.12,-109 132.12,-127.5"/>
<text text-anchor="middle" x="104.25" y="-114" font-family="Helvetica,sans-Serif" font-size="10.00">src/dict.h</text>
</a>
</g>
</g>
<!-- Node2 -->
<g id="Node000002" class="node">
<title>Node2</title>
<g id="a_Node000002"><a xlink:title=" ">
<polygon fill="#e0e0e0" stroke="#999999" points="50.5,-73 0,-73 0,-54.5 50.5,-54.5 50.5,-73"/>
<text text-anchor="middle" x="25.25" y="-59.5" font-family="Helvetica,sans-Serif" font-size="10.00">stddef.h</text>
</a>
</g>
</g>
<!-- Node1&#45;&gt;Node2 -->
<g id="edge1_Node000001_Node000002" class="edge">
<title>Node1&#45;&gt;Node2</title>
<g id="a_edge1_Node000001_Node000002"><a xlink:title=" ">
<path fill="none" stroke="#63b8ff" d="M91.2,-108.58C79.43,-100.75 61.84,-89.07 47.79,-79.73"/>
<polygon fill="#63b8ff" stroke="#63b8ff" points="49.84,-76.89 39.58,-74.27 45.97,-82.72 49.84,-76.89"/>
</a>
</g>
</g>
<!-- Node3 -->
<g id="Node000003" class="node">
<title>Node3</title>
<g id="a_Node000003"><a xlink:title=" ">
<polygon fill="#e0e0e0" stroke="#999999" points="125,-18.5 77.5,-18.5 77.5,0 125,0 125,-18.5"/>
<text text-anchor="middle" x="101.25" y="-5" font-family="Helvetica,sans-Serif" font-size="10.00">stdint.h</text>
</a>
</g>
</g>
<!-- Node1&#45;&gt;Node3 -->
<g id="edge2_Node000001_Node000003" class="edge">
<title>Node1&#45;&gt;Node3</title>
<g id="a_edge2_Node000001_Node000003"><a xlink:title=" ">
<path fill="none" stroke="#63b8ff" d="M102.51,-108.81C100.78,-99.94 98.24,-85.56 97.25,-73 96.12,-58.62 97.22,-42.37 98.55,-30.01"/>
<polygon fill="#63b8ff" stroke="#63b8ff" points="102,-30.64 99.75,-20.28 95.05,-29.78 102,-30.64"/>
</a>
</g>
</g>
<!-- Node4 -->
<g id="Node000004" class="node">
<title>Node4</title>
<g id="a_Node000004"><a xlink:title=" ">
<polygon fill="#e0e0e0" stroke="#999999" points="154.38,-73 106.12,-73 106.12,-54.5 154.38,-54.5 154.38,-73"/>
<text text-anchor="middle" x="130.25" y="-59.5" font-family="Helvetica,sans-Serif" font-size="10.00">string.h</text>
</a>
</g>
</g>
<!-- Node1&#45;&gt;Node4 -->
<g id="edge3_Node000001_Node000004" class="edge">
<title>Node1&#45;&gt;Node4</title>
<g id="a_edge3_Node000001_Node000004"><a xlink:title=" ">
<path fill="none" stroke="#63b8ff" d="M108.54,-108.58C111.91,-101.78 116.73,-92.06 120.97,-83.5"/>
<polygon fill="#63b8ff" stroke="#63b8ff" points="124.06,-85.13 125.36,-74.61 117.79,-82.02 124.06,-85.13"/>
</a>
</g>
</g>
<!-- Node5 -->
<g id="Node000005" class="node">
<title>Node5</title>
<g id="a_Node000005"><a xlink:href="log_8h.html" target="_top" xlink:title="Logger manipulation routines and error definitions.">
<polygon fill="white" stroke="#666666" points="209.75,-73 172.75,-73 172.75,-54.5 209.75,-54.5 209.75,-73"/>
<text text-anchor="middle" x="191.25" y="-59.5" font-family="Helvetica,sans-Serif" font-size="10.00">log.h</text>
</a>
</g>
</g>
<!-- Node1&#45;&gt;Node5 -->
<g id="edge4_Node000001_Node000005" class="edge">
<title>Node1&#45;&gt;Node5</title>
<g id="a_edge4_Node000001_Node000005"><a xlink:title=" ">
<path fill="none" stroke="#63b8ff" d="M118.62,-108.58C131.84,-100.6 151.71,-88.61 167.33,-79.19"/>
<polygon fill="#63b8ff" stroke="#63b8ff" points="168.81,-82.38 175.57,-74.21 165.2,-76.38 168.81,-82.38"/>
</a>
</g>
</g>
<!-- Node5&#45;&gt;Node3 -->
<g id="edge5_Node000005_Node000003" class="edge">
<title>Node5&#45;&gt;Node3</title>
<g id="a_edge5_Node000005_Node000003"><a xlink:title=" ">
<path fill="none" stroke="#63b8ff" d="M176.39,-54.08C162.71,-46.1 142.15,-34.11 126,-24.69"/>
<polygon fill="#63b8ff" stroke="#63b8ff" points="127.84,-21.71 117.44,-19.69 124.32,-27.76 127.84,-21.71"/>
</a>
</g>
</g>
<!-- Node6 -->
<g id="Node000006" class="node">
<title>Node6</title>
<g id="a_Node000006"><a xlink:title=" ">
<polygon fill="#e0e0e0" stroke="#999999" points="216.5,-18.5 166,-18.5 166,0 216.5,0 216.5,-18.5"/>
<text text-anchor="middle" x="191.25" y="-5" font-family="Helvetica,sans-Serif" font-size="10.00">config.h</text>
</a>
</g>
</g>
<!-- Node5&#45;&gt;Node6 -->
<g id="edge6_Node000005_Node000006" class="edge">
<title>Node5&#45;&gt;Node6</title>
<g id="a_edge6_Node000005_Node000006"><a xlink:title=" ">
<path fill="none" stroke="#63b8ff" d="M191.25,-54.08C191.25,-47.58 191.25,-38.42 191.25,-30.16"/>
<polygon fill="#63b8ff" stroke="#63b8ff" points="194.75,-30.27 191.25,-20.27 187.75,-30.27 194.75,-30.27"/>
</a>
</g>
</g>
</g>
</svg>
