<?xml version="1.0" encoding="UTF-8" standalone="no"?>
<!DOCTYPE svg PUBLIC "-//W3C//DTD SVG 1.1//EN"
 "http://www.w3.org/Graphics/SVG/1.1/DTD/svg11.dtd">
<!-- Generated by graphviz version 12.1.0 (20240811.2233)
 -->
<!-- Title: Data Tree Pages: 1 -->
<!--zoomable 575 -->

<svg id="main" version="1.1" xmlns="http://www.w3.org/2000/svg" xmlns:xlink="http://www.w3.org/1999/xlink" xml:space="preserve" onload="init(evt)">

<style type="text/css"><![CDATA[
.node, .edge {opacity: 0.7;}
.node.selected, .edge.selected {opacity: 1;}
.edge:hover path { stroke: red; }
.edge:hover polygon { stroke: red; fill: red; }
]]></style>

<defs>
  <circle id="rim" cx="0" cy="0" r="7"/>
  <circle id="rim2" cx="0" cy="0" r="3.5"/>
  <g id="zoomPlus">
    <use xlink:href="#rim" fill="#404040"><set attributeName="fill" to="#808080" begin="zoomplus.mouseover" end="zoomplus.mouseout"/></use>
    <path d="M-4,0h8M0,-4v8" fill="none" stroke="white" stroke-width="1.5" pointer-events="none"/>
  </g>
  <g id="zoomMin">
    <use xlink:href="#rim" fill="#404040"><set attributeName="fill" to="#808080" begin="zoomminus.mouseover" end="zoomminus.mouseout"/></use>
    <path d="M-4,0h8" fill="none" stroke="white" stroke-width="1.5" pointer-events="none"/>
  </g>
  <g id="arrowUp" transform="translate(30 24)">
    <use xlink:href="#rim"/>
    <path pointer-events="none" fill="none" stroke="white" stroke-width="1.5" d="M0,-3.0v7 M-2.5,-0.5L0,-3.0L2.5,-0.5"/>
  </g>
  <g id="arrowRight" transform="rotate(90) translate(36 -43)">
    <use xlink:href="#rim"/>
    <path pointer-events="none" fill="none" stroke="white" stroke-width="1.5" d="M0,-3.0v7 M-2.5,-0.5L0,-3.0L2.5,-0.5"/>
  </g>
  <g id="arrowDown" transform="rotate(180) translate(-30 -48)">
    <use xlink:href="#rim"/>
    <path pointer-events="none" fill="none" stroke="white" stroke-width="1.5" d="M0,-3.0v7 M-2.5,-0.5L0,-3.0L2.5,-0.5"/>
  </g>
  <g id="arrowLeft" transform="rotate(270) translate(-36 17)">
    <use xlink:href="#rim"/>
    <path pointer-events="none" fill="none" stroke="white" stroke-width="1.5" d="M0,-3.0v7 M-2.5,-0.5L0,-3.0L2.5,-0.5"/>
  </g>
  <g id="resetDef">
    <use xlink:href="#rim2" fill="#404040"><set attributeName="fill" to="#808080" begin="reset.mouseover" end="reset.mouseout"/></use>
  </g>
</defs>
<script type="application/ecmascript">
var viewWidth = 298;
var viewHeight = 575;
var sectionId = 'dynsection-0';
</script>
<script type="application/ecmascript" xlink:href="svg.min.js"/>
<svg id="graph" class="graph">
<g id="viewport">
<title>Data Tree</title>
<!-- Node3 -->
<g id="Node000003" class="node">
<title>Node3</title>
<g id="a_Node000003"><a xlink:href="group__datacompareoptions.html" target="_top" xlink:title=" ">
<polygon fill="white" stroke="#666666" points="285.75,-566.75 174.5,-566.75 174.5,-548.25 285.75,-548.25 285.75,-566.75"/>
<text text-anchor="middle" x="230.12" y="-553.25" font-family="Helvetica,sans-Serif" font-size="10.00">Data compare options</text>
</a>
</g>
</g>
<!-- Node10 -->
<g id="Node000010" class="node">
<title>Node10</title>
<g id="a_Node000010"><a xlink:href="group__dataparseroptions.html" target="_top" xlink:title=" ">
<polygon fill="white" stroke="#666666" points="280.88,-529.75 179.38,-529.75 179.38,-511.25 280.88,-511.25 280.88,-529.75"/>
<text text-anchor="middle" x="230.12" y="-516.25" font-family="Helvetica,sans-Serif" font-size="10.00">Data parser options</text>
</a>
</g>
</g>
<!-- Node12 -->
<g id="Node000012" class="node">
<title>Node12</title>
<g id="a_Node000012"><a xlink:href="group__dataprinterflags.html" target="_top" xlink:title=" ">
<polygon fill="white" stroke="#666666" points="275.25,-492.75 185,-492.75 185,-474.25 275.25,-474.25 275.25,-492.75"/>
<text text-anchor="middle" x="230.12" y="-479.25" font-family="Helvetica,sans-Serif" font-size="10.00">Data printer flags</text>
</a>
</g>
</g>
<!-- Node1 -->
<g id="Node000001" class="node">
<title>Node1</title>
<g id="a_Node000001"><a xlink:title=" ">
<polygon fill="#999999" stroke="#666666" points="134,-307.75 76,-307.75 76,-289.25 134,-289.25 134,-307.75"/>
<text text-anchor="middle" x="105" y="-294.25" font-family="Helvetica,sans-Serif" font-size="10.00">Data Tree</text>
</a>
</g>
</g>
<!-- Node1&#45;&gt;Node3 -->
<g id="edge2" class="edge">
<title>Node1&#45;&gt;Node3</title>
<path fill="none" stroke="black" d="M105.31,-319.13C104.95,-364.95 110.64,-476.08 170,-538.5 173.64,-542.33 178.05,-545.39 182.81,-547.83"/>
<polygon fill="black" stroke="black" points="108.81,-319.38 105.52,-309.32 101.81,-319.24 108.81,-319.38"/>
</g>
<!-- Node1&#45;&gt;Node10 -->
<g id="edge9" class="edge">
<title>Node1&#45;&gt;Node10</title>
<path fill="none" stroke="black" d="M106.55,-319.51C108.76,-360.3 119.45,-450.67 170,-501.5 173.8,-505.32 178.37,-508.38 183.27,-510.82"/>
<polygon fill="black" stroke="black" points="110.05,-319.48 106.15,-309.63 103.06,-319.76 110.05,-319.48"/>
</g>
<!-- Node1&#45;&gt;Node12 -->
<g id="edge11" class="edge">
<title>Node1&#45;&gt;Node12</title>
<path fill="none" stroke="black" d="M108.22,-319.02C113.07,-353.85 127.8,-424.64 170,-464.5 174.23,-468.5 179.31,-471.65 184.69,-474.15"/>
<polygon fill="black" stroke="black" points="111.73,-318.93 107.03,-309.44 104.79,-319.79 111.73,-318.93"/>
</g>
<!-- Node9 -->
<g id="Node000009" class="node">
<title>Node9</title>
<g id="a_Node000009"><a xlink:href="group__datatype.html" target="_top" xlink:title=" ">
<polygon fill="white" stroke="#666666" points="280.5,-455.75 179.75,-455.75 179.75,-437.25 280.5,-437.25 280.5,-455.75"/>
<text text-anchor="middle" x="230.12" y="-442.25" font-family="Helvetica,sans-Serif" font-size="10.00">Data operation type</text>
</a>
</g>
</g>
<!-- Node1&#45;&gt;Node9 -->
<g id="edge8" class="edge">
<title>Node1&#45;&gt;Node9</title>
<path fill="none" stroke="black" d="M110.85,-319.19C118.56,-347.62 136.33,-398.52 170,-427.5 174.41,-431.3 179.6,-434.34 185.03,-436.77"/>
<polygon fill="black" stroke="black" points="114.28,-318.49 108.44,-309.65 107.5,-320.21 114.28,-318.49"/>
</g>
<!-- Node13 -->
<g id="Node000013" class="node">
<title>Node13</title>
<g id="a_Node000013"><a xlink:href="group__datavalidationoptions.html" target="_top" xlink:title=" ">
<polygon fill="white" stroke="#666666" points="287.25,-418.75 173,-418.75 173,-400.25 287.25,-400.25 287.25,-418.75"/>
<text text-anchor="middle" x="230.12" y="-405.25" font-family="Helvetica,sans-Serif" font-size="10.00">Data validation options</text>
</a>
</g>
</g>
<!-- Node1&#45;&gt;Node13 -->
<g id="edge12" class="edge">
<title>Node1&#45;&gt;Node13</title>
<path fill="none" stroke="black" d="M114.98,-318.37C125.37,-339.23 144.4,-371.56 170,-390.5 175.11,-394.28 181.01,-397.33 187.06,-399.78"/>
<polygon fill="black" stroke="black" points="118.21,-317.02 110.75,-309.49 111.89,-320.03 118.21,-317.02"/>
</g>
<!-- Node4 -->
<g id="Node000004" class="node">
<title>Node4</title>
<g id="a_Node000004"><a xlink:href="group__diffmergeoptions.html" target="_top" xlink:title=" ">
<polygon fill="white" stroke="#666666" points="289.88,-381.75 170.38,-381.75 170.38,-363.25 289.88,-363.25 289.88,-381.75"/>
<text text-anchor="middle" x="230.12" y="-368.25" font-family="Helvetica,sans-Serif" font-size="10.00">Data diff merge options.</text>
</a>
</g>
</g>
<!-- Node1&#45;&gt;Node4 -->
<g id="edge3" class="edge">
<title>Node1&#45;&gt;Node4</title>
<path fill="none" stroke="black" d="M122.49,-315.97C134.64,-327.97 152.1,-343.48 170,-353.5 176.59,-357.19 183.99,-360.28 191.27,-362.82"/>
<polygon fill="black" stroke="black" points="125.21,-313.75 115.71,-309.06 120.21,-318.65 125.21,-313.75"/>
</g>
<!-- Node5 -->
<g id="Node000005" class="node">
<title>Node5</title>
<g id="a_Node000005"><a xlink:href="group__diffoptions.html" target="_top" xlink:title=" ">
<polygon fill="white" stroke="#666666" points="274.88,-344.75 185.38,-344.75 185.38,-326.25 274.88,-326.25 274.88,-344.75"/>
<text text-anchor="middle" x="230.12" y="-331.25" font-family="Helvetica,sans-Serif" font-size="10.00">Data diff options.</text>
</a>
</g>
</g>
<!-- Node1&#45;&gt;Node5 -->
<g id="edge4" class="edge">
<title>Node1&#45;&gt;Node5</title>
<path fill="none" stroke="black" d="M144.86,-310.18C161.68,-315.23 181.13,-321.08 197.1,-325.88"/>
<polygon fill="black" stroke="black" points="146.28,-306.95 135.7,-307.42 144.27,-313.65 146.28,-306.95"/>
</g>
<!-- Node8 -->
<g id="Node000008" class="node">
<title>Node8</title>
<g id="a_Node000008"><a xlink:href="group__dnodeflags.html" target="_top" xlink:title=" ">
<polygon fill="white" stroke="#666666" points="272.25,-307.75 188,-307.75 188,-289.25 272.25,-289.25 272.25,-307.75"/>
<text text-anchor="middle" x="230.12" y="-294.25" font-family="Helvetica,sans-Serif" font-size="10.00">Data node flags</text>
</a>
</g>
</g>
<!-- Node1&#45;&gt;Node8 -->
<g id="edge7" class="edge">
<title>Node1&#45;&gt;Node8</title>
<path fill="none" stroke="black" d="M145.63,-298.5C159.15,-298.5 174.29,-298.5 187.93,-298.5"/>
<polygon fill="black" stroke="black" points="145.76,-295 135.76,-298.5 145.76,-302 145.76,-295"/>
</g>
<!-- Node6 -->
<g id="Node000006" class="node">
<title>Node6</title>
<g id="a_Node000006"><a xlink:href="group__dupoptions.html" target="_top" xlink:title=" ">
<polygon fill="white" stroke="#666666" points="290.25,-270.75 170,-270.75 170,-252.25 290.25,-252.25 290.25,-270.75"/>
<text text-anchor="middle" x="230.12" y="-257.25" font-family="Helvetica,sans-Serif" font-size="10.00">Data duplication options</text>
</a>
</g>
</g>
<!-- Node1&#45;&gt;Node6 -->
<g id="edge5" class="edge">
<title>Node1&#45;&gt;Node6</title>
<path fill="none" stroke="black" d="M144.86,-286.82C161.68,-281.77 181.13,-275.92 197.1,-271.12"/>
<polygon fill="black" stroke="black" points="144.27,-283.35 135.7,-289.58 146.28,-290.05 144.27,-283.35"/>
</g>
<!-- Node14 -->
<g id="Node000014" class="node">
<title>Node14</title>
<g id="a_Node000014"><a xlink:href="group__implicitoptions.html" target="_top" xlink:title=" ">
<polygon fill="white" stroke="#666666" points="284.62,-234 175.62,-234 175.62,-205 284.62,-205 284.62,-234"/>
<text text-anchor="start" x="183.62" y="-220.5" font-family="Helvetica,sans-Serif" font-size="10.00">Implicit node creation</text>
<text text-anchor="middle" x="230.12" y="-210" font-family="Helvetica,sans-Serif" font-size="10.00"> options</text>
</a>
</g>
</g>
<!-- Node1&#45;&gt;Node14 -->
<g id="edge13" class="edge">
<title>Node1&#45;&gt;Node14</title>
<path fill="none" stroke="black" d="M123.15,-281.03C135.39,-269.28 152.69,-254.06 170,-243.5 175.39,-240.21 181.31,-237.2 187.26,-234.5"/>
<polygon fill="black" stroke="black" points="120.95,-278.29 116.28,-287.8 125.86,-283.27 120.95,-278.29"/>
</g>
<!-- Node16 -->
<g id="Node000016" class="node">
<title>Node16</title>
<g id="a_Node000016"><a xlink:href="group__lydhints.html" target="_top" xlink:title=" ">
<polygon fill="white" stroke="#666666" points="282.38,-187 177.88,-187 177.88,-158 282.38,-158 282.38,-187"/>
<text text-anchor="start" x="185.88" y="-173.5" font-family="Helvetica,sans-Serif" font-size="10.00">Value and node type</text>
<text text-anchor="middle" x="230.12" y="-163" font-family="Helvetica,sans-Serif" font-size="10.00"> format hints</text>
</a>
</g>
</g>
<!-- Node1&#45;&gt;Node16 -->
<g id="edge15" class="edge">
<title>Node1&#45;&gt;Node16</title>
<path fill="none" stroke="black" d="M113.88,-278.26C123.78,-255.28 142.83,-218.06 170,-195.5 173.64,-192.47 177.73,-189.82 182.01,-187.49"/>
<polygon fill="black" stroke="black" points="110.68,-276.85 110.12,-287.43 117.16,-279.51 110.68,-276.85"/>
</g>
<!-- Node15 -->
<g id="Node000015" class="node">
<title>Node15</title>
<g id="a_Node000015"><a xlink:href="group__lydnodehints.html" target="_top" xlink:title=" ">
<polygon fill="white" stroke="#666666" points="288,-139.75 172.25,-139.75 172.25,-121.25 288,-121.25 288,-139.75"/>
<text text-anchor="middle" x="230.12" y="-126.25" font-family="Helvetica,sans-Serif" font-size="10.00">Node type format hints</text>
</a>
</g>
</g>
<!-- Node1&#45;&gt;Node15 -->
<g id="edge14" class="edge">
<title>Node1&#45;&gt;Node15</title>
<path fill="none" stroke="black" d="M109.18,-277.64C115.2,-245.31 131.31,-183.23 170,-148.5 173.75,-145.13 178.12,-142.39 182.75,-140.17"/>
<polygon fill="black" stroke="black" points="105.76,-276.87 107.54,-287.31 112.66,-278.04 105.76,-276.87"/>
</g>
<!-- Node17 -->
<g id="Node000017" class="node">
<title>Node17</title>
<g id="a_Node000017"><a xlink:href="group__lydvalhints.html" target="_top" xlink:title=" ">
<polygon fill="white" stroke="#666666" points="279,-102.75 181.25,-102.75 181.25,-84.25 279,-84.25 279,-102.75"/>
<text text-anchor="middle" x="230.12" y="-89.25" font-family="Helvetica,sans-Serif" font-size="10.00">Value format hints.</text>
</a>
</g>
</g>
<!-- Node1&#45;&gt;Node17 -->
<g id="edge16" class="edge">
<title>Node1&#45;&gt;Node17</title>
<path fill="none" stroke="black" d="M107.25,-277.66C110.67,-239.53 123.32,-158.24 170,-112.5 173.93,-108.65 178.64,-105.58 183.66,-103.14"/>
<polygon fill="black" stroke="black" points="103.79,-277.08 106.53,-287.32 110.77,-277.61 103.79,-277.08"/>
</g>
<!-- Node7 -->
<g id="Node000007" class="node">
<title>Node7</title>
<g id="a_Node000007"><a xlink:href="group__mergeoptions.html" target="_top" xlink:title=" ">
<polygon fill="white" stroke="#666666" points="282,-65.75 178.25,-65.75 178.25,-47.25 282,-47.25 282,-65.75"/>
<text text-anchor="middle" x="230.12" y="-52.25" font-family="Helvetica,sans-Serif" font-size="10.00">Data merge options.</text>
</a>
</g>
</g>
<!-- Node1&#45;&gt;Node7 -->
<g id="edge6" class="edge">
<title>Node1&#45;&gt;Node7</title>
<path fill="none" stroke="black" d="M105.83,-277.56C106.64,-233.9 114.76,-132.51 170,-75.5 173.68,-71.71 178.11,-68.67 182.88,-66.24"/>
<polygon fill="black" stroke="black" points="102.33,-277.39 105.78,-287.41 109.33,-277.43 102.33,-277.39"/>
</g>
<!-- Node11 -->
<g id="Node000011" class="node">
<title>Node11</title>
<g id="a_Node000011"><a xlink:href="group__pathoptions.html" target="_top" xlink:title=" ">
<polygon fill="white" stroke="#666666" points="277.88,-29 182.38,-29 182.38,0 277.88,0 277.88,-29"/>
<text text-anchor="start" x="190.38" y="-15.5" font-family="Helvetica,sans-Serif" font-size="10.00">Data path creation</text>
<text text-anchor="middle" x="230.12" y="-5" font-family="Helvetica,sans-Serif" font-size="10.00"> options</text>
</a>
</g>
</g>
<!-- Node1&#45;&gt;Node11 -->
<g id="edge10" class="edge">
<title>Node1&#45;&gt;Node11</title>
<path fill="none" stroke="black" d="M105.13,-277.49C104.27,-229.22 108.84,-109.18 170,-38.5 173.41,-34.56 177.56,-31.26 182.06,-28.5"/>
<polygon fill="black" stroke="black" points="101.63,-277.45 105.42,-287.34 108.62,-277.25 101.63,-277.45"/>
</g>
<!-- Node2 -->
<g id="Node000002" class="node">
<title>Node2</title>
<g id="a_Node000002"><a xlink:href="group__trees.html" target="_top" xlink:title=" ">
<polygon fill="white" stroke="#666666" points="40,-307.75 0,-307.75 0,-289.25 40,-289.25 40,-307.75"/>
<text text-anchor="middle" x="20" y="-294.25" font-family="Helvetica,sans-Serif" font-size="10.00">Trees</text>
</a>
</g>
</g>
<!-- Node2&#45;&gt;Node1 -->
<g id="edge1" class="edge">
<title>Node2&#45;&gt;Node1</title>
<path fill="none" stroke="black" d="M51.63,-298.5C59.51,-298.5 67.96,-298.5 75.73,-298.5"/>
<polygon fill="black" stroke="black" points="51.76,-295 41.76,-298.5 51.76,-302 51.76,-295"/>
</g>
</g>
</svg>

<g id="navigator" transform="translate(0 0)" fill="#404254">
  <rect fill="#f2f5e9" fill-opacity="0.5" stroke="#606060" stroke-width=".5" x="0" y="0" width="60" height="60"/>
  <use id="zoomplus" xlink:href="#zoomPlus" x="17" y="9" onmousedown="handleZoom(evt,'in')"/>
  <use id="zoomminus" xlink:href="#zoomMin" x="42" y="9" onmousedown="handleZoom(evt,'out')"/>
  <use id="reset" xlink:href="#resetDef" x="30" y="36" onmousedown="handleReset()"/>
   <use id="arrowup" xlink:href="#arrowUp" x="0" y="0" onmousedown="handlePan(0,-1)"/>
  <use id="arrowright" xlink:href="#arrowRight" x="0" y="0" onmousedown="handlePan(1,0)"/>
  <use id="arrowdown" xlink:href="#arrowDown" x="0" y="0" onmousedown="handlePan(0,1)"/>
  <use id="arrowleft" xlink:href="#arrowLeft" x="0" y="0" onmousedown="handlePan(-1,0)"/>
</g>
<svg viewBox="0 0 15 15" width="100%" height="30px" preserveAspectRatio="xMaxYMin meet">
 <g id="arrow_out" transform="scale(0.3 0.3)">
  <a xlink:href="group__datatree_org.svg" target="_base">
   <rect id="button" ry="5" rx="5" y="6" x="6" height="38" width="38"
        fill="#f2f5e9" fill-opacity="0.5" stroke="#606060" stroke-width="1.0"/>
   <path id="arrow"
     d="M 11.500037,31.436501 C 11.940474,20.09759 22.043105,11.32322 32.158766,21.979434 L 37.068811,17.246167 C 37.068811,17.246167 37.088388,32 37.088388,32 L 22.160133,31.978069 C 22.160133,31.978069 26.997745,27.140456 26.997745,27.140456 C 18.528582,18.264221 13.291696,25.230495 11.500037,31.436501 z"
     style="fill:#404040;"/>
  </a>
 </g>
</svg>

<style type='text/css'>
<![CDATA[
[data-mouse-over-selected='false'] { opacity: 0.7; }
[data-mouse-over-selected='true']  { opacity: 1.0; }
]]>
</style>
<script type="application/ecmascript"><![CDATA[
document.addEventListener('DOMContentLoaded', (event) => {
  highlightEdges();
  highlightAdjacentNodes();
});
]]></script>
</svg>
