<?xml version="1.0" encoding="UTF-8" standalone="no"?>
<!DOCTYPE svg PUBLIC "-//W3C//DTD SVG 1.1//EN"
 "http://www.w3.org/Graphics/SVG/1.1/DTD/svg11.dtd">
<!-- Generated by graphviz version 12.1.0 (20240811.2233)
 -->
<!-- Title: Schema nodes flags Pages: 1 -->
<svg width="383pt" height="84pt"
 viewBox="0.00 0.00 383.00 84.00" xmlns="http://www.w3.org/2000/svg" xmlns:xlink="http://www.w3.org/1999/xlink">

<svg id="main" version="1.1" xmlns="http://www.w3.org/2000/svg" xmlns:xlink="http://www.w3.org/1999/xlink" xml:space="preserve">

<style type="text/css"><![CDATA[
.node, .edge {opacity: 0.7;}
.node.selected, .edge.selected {opacity: 1;}
.edge:hover path { stroke: red; }
.edge:hover polygon { stroke: red; fill: red; }
]]></style>
<script type="application/ecmascript" xlink:href="svg.min.js"/>
<svg id="graph" class="graph">
<g id="graph0" class="graph" transform="scale(1 1) rotate(0) translate(4 80)">
<title>Schema nodes flags</title>
<!-- Node2 -->
<g id="Node000002" class="node">
<title>Node2</title>
<g id="a_Node000002"><a xlink:href="group__schematree.html" target="_top" xlink:title=" ">
<polygon fill="white" stroke="#666666" points="73.75,-46.75 0,-46.75 0,-28.25 73.75,-28.25 73.75,-46.75"/>
<text text-anchor="middle" x="36.88" y="-33.25" font-family="Helvetica,sans-Serif" font-size="10.00">Schema Tree</text>
</a>
</g>
</g>
<!-- Node1 -->
<g id="Node000001" class="node">
<title>Node1</title>
<g id="a_Node000001"><a xlink:title=" ">
<polygon fill="#999999" stroke="#666666" points="215,-46.75 109.75,-46.75 109.75,-28.25 215,-28.25 215,-46.75"/>
<text text-anchor="middle" x="162.38" y="-33.25" font-family="Helvetica,sans-Serif" font-size="10.00">Schema nodes flags</text>
</a>
</g>
</g>
<!-- Node2&#45;&gt;Node1 -->
<g id="edge1" class="edge">
<title>Node2&#45;&gt;Node1</title>
<path fill="none" stroke="black" d="M85.23,-37.5C93.16,-37.5 101.41,-37.5 109.44,-37.5"/>
<polygon fill="black" stroke="black" points="85.44,-34 75.44,-37.5 85.44,-41 85.44,-34"/>
</g>
<!-- Node3 -->
<g id="Node000003" class="node">
<title>Node3</title>
<g id="a_Node000003"><a xlink:href="group__scnodeflags.html" target="_top" xlink:title=" ">
<polygon fill="white" stroke="#666666" points="375,-76 251,-76 251,-47 375,-47 375,-76"/>
<text text-anchor="start" x="259" y="-62.5" font-family="Helvetica,sans-Serif" font-size="10.00">Compiled schema nodes</text>
<text text-anchor="middle" x="313" y="-52" font-family="Helvetica,sans-Serif" font-size="10.00"> flags</text>
</a>
</g>
</g>
<!-- Node1&#45;&gt;Node3 -->
<g id="edge2" class="edge">
<title>Node1&#45;&gt;Node3</title>
<path fill="none" stroke="black" d="M226.49,-47.69C234.48,-48.98 242.65,-50.3 250.61,-51.59"/>
<polygon fill="black" stroke="black" points="227.28,-44.27 216.85,-46.14 226.17,-51.18 227.28,-44.27"/>
</g>
<!-- Node4 -->
<g id="Node000004" class="node">
<title>Node4</title>
<g id="a_Node000004"><a xlink:href="group__spnodeflags.html" target="_top" xlink:title=" ">
<polygon fill="white" stroke="#666666" points="370.12,-29 255.88,-29 255.88,0 370.12,0 370.12,-29"/>
<text text-anchor="start" x="263.88" y="-15.5" font-family="Helvetica,sans-Serif" font-size="10.00">Parsed schema nodes</text>
<text text-anchor="middle" x="313" y="-5" font-family="Helvetica,sans-Serif" font-size="10.00"> flags</text>
</a>
</g>
</g>
<!-- Node1&#45;&gt;Node4 -->
<g id="edge3" class="edge">
<title>Node1&#45;&gt;Node4</title>
<path fill="none" stroke="black" d="M226.5,-27.73C236.13,-26.24 246.02,-24.71 255.49,-23.25"/>
<polygon fill="black" stroke="black" points="226.2,-24.24 216.85,-29.22 227.27,-31.15 226.2,-24.24"/>
</g>
</g>
</svg>
</svg>

<style type='text/css'>
<![CDATA[
[data-mouse-over-selected='false'] { opacity: 0.7; }
[data-mouse-over-selected='true']  { opacity: 1.0; }
]]>
</style>
<script type="application/ecmascript"><![CDATA[
document.addEventListener('DOMContentLoaded', (event) => {
  highlightEdges();
  highlightAdjacentNodes();
});
]]></script>
</svg>
