<?xml version="1.0" encoding="UTF-8" standalone="no"?>
<!DOCTYPE svg PUBLIC "-//W3C//DTD SVG 1.1//EN"
 "http://www.w3.org/Graphics/SVG/1.1/DTD/svg11.dtd">
<!-- Generated by graphviz version 12.1.0 (20240811.2233)
 -->
<!-- Title: Compiled schema nodes flags Pages: 1 -->
<svg width="273pt" height="64pt"
 viewBox="0.00 0.00 273.25 63.50" xmlns="http://www.w3.org/2000/svg" xmlns:xlink="http://www.w3.org/1999/xlink">
<g id="graph0" class="graph" transform="scale(1 1) rotate(0) translate(4 59.5)">
<title>Compiled schema nodes flags</title>
<!-- Node2 -->
<g id="Node000002" class="node">
<title>Node2</title>
<g id="a_Node000002"><a xlink:href="group__schematree.html" target="_top" xlink:title=" ">
<polygon fill="white" stroke="#666666" points="89.5,-55.5 15.75,-55.5 15.75,-37 89.5,-37 89.5,-55.5"/>
<text text-anchor="middle" x="52.62" y="-42" font-family="Helvetica,sans-Serif" font-size="10.00">Schema Tree</text>
</a>
</g>
</g>
<!-- Node1 -->
<g id="Node000001" class="node">
<title>Node1</title>
<g id="a_Node000001"><a xlink:title=" ">
<polygon fill="#999999" stroke="#666666" points="265.25,-41.75 141.25,-41.75 141.25,-12.75 265.25,-12.75 265.25,-41.75"/>
<text text-anchor="start" x="149.25" y="-28.25" font-family="Helvetica,sans-Serif" font-size="10.00">Compiled schema nodes</text>
<text text-anchor="middle" x="203.25" y="-17.75" font-family="Helvetica,sans-Serif" font-size="10.00"> flags</text>
</a>
</g>
</g>
<!-- Node2&#45;&gt;Node1 -->
<g id="edge1" class="edge">
<title>Node2&#45;&gt;Node1</title>
<path fill="none" stroke="black" d="M101.17,-40.17C113.77,-38.56 127.56,-36.8 140.78,-35.11"/>
<polygon fill="black" stroke="black" points="100.96,-36.67 91.48,-41.41 101.85,-43.61 100.96,-36.67"/>
</g>
<!-- Node3 -->
<g id="Node000003" class="node">
<title>Node3</title>
<g id="a_Node000003"><a xlink:href="group__snodeflags.html" target="_top" xlink:title=" ">
<polygon fill="white" stroke="#666666" points="105.25,-18.5 0,-18.5 0,0 105.25,0 105.25,-18.5"/>
<text text-anchor="middle" x="52.62" y="-5" font-family="Helvetica,sans-Serif" font-size="10.00">Schema nodes flags</text>
</a>
</g>
</g>
<!-- Node3&#45;&gt;Node1 -->
<g id="edge2" class="edge">
<title>Node3&#45;&gt;Node1</title>
<path fill="none" stroke="black" d="M117.02,-16.93C124.92,-17.88 132.99,-18.86 140.86,-19.82"/>
<polygon fill="black" stroke="black" points="117.46,-13.46 107.11,-15.73 116.62,-20.4 117.46,-13.46"/>
</g>
</g>
</svg>
