<?xml version="1.0" encoding="UTF-8" standalone="no"?>
<!DOCTYPE svg PUBLIC "-//W3C//DTD SVG 1.1//EN"
 "http://www.w3.org/Graphics/SVG/1.1/DTD/svg11.dtd">
<!-- Generated by graphviz version 12.1.0 (20240811.2233)
 -->
<!-- Title: Logger Pages: 1 -->
<svg width="214pt" height="64pt"
 viewBox="0.00 0.00 214.00 63.50" xmlns="http://www.w3.org/2000/svg" xmlns:xlink="http://www.w3.org/1999/xlink">

<svg id="main" version="1.1" xmlns="http://www.w3.org/2000/svg" xmlns:xlink="http://www.w3.org/1999/xlink" xml:space="preserve">

<style type="text/css"><![CDATA[
.node, .edge {opacity: 0.7;}
.node.selected, .edge.selected {opacity: 1;}
.edge:hover path { stroke: red; }
.edge:hover polygon { stroke: red; fill: red; }
]]></style>
<script type="application/ecmascript" xlink:href="svg.min.js"/>
<svg id="graph" class="graph">
<g id="graph0" class="graph" transform="scale(1 1) rotate(0) translate(4 59.5)">
<title>Logger</title>
<!-- Node2 -->
<g id="Node000002" class="node">
<title>Node2</title>
<g id="a_Node000002"><a xlink:href="group__dbggroup.html" target="_top" xlink:title=" ">
<polygon fill="white" stroke="#666666" points="206,-55.5 81.25,-55.5 81.25,-37 206,-37 206,-55.5"/>
<text text-anchor="middle" x="143.62" y="-42" font-family="Helvetica,sans-Serif" font-size="10.00">Debug messages groups</text>
</a>
</g>
</g>
<!-- Node1 -->
<g id="Node000001" class="node">
<title>Node1</title>
<g id="a_Node000001"><a xlink:title=" ">
<polygon fill="#999999" stroke="#666666" points="45.25,-36.5 0,-36.5 0,-18 45.25,-18 45.25,-36.5"/>
<text text-anchor="middle" x="22.62" y="-23" font-family="Helvetica,sans-Serif" font-size="10.00">Logger</text>
</a>
</g>
</g>
<!-- Node1&#45;&gt;Node2 -->
<g id="edge1" class="edge">
<title>Node1&#45;&gt;Node2</title>
<path fill="none" stroke="black" d="M56.85,-32.55C64.62,-33.79 73.13,-35.15 81.68,-36.52"/>
<polygon fill="black" stroke="black" points="57.65,-29.14 47.22,-31.02 56.55,-36.05 57.65,-29.14"/>
</g>
<!-- Node3 -->
<g id="Node000003" class="node">
<title>Node3</title>
<g id="a_Node000003"><a xlink:href="group__logopts.html" target="_top" xlink:title=" ">
<polygon fill="white" stroke="#666666" points="185.75,-18.5 101.5,-18.5 101.5,0 185.75,0 185.75,-18.5"/>
<text text-anchor="middle" x="143.62" y="-5" font-family="Helvetica,sans-Serif" font-size="10.00">Logging options</text>
</a>
</g>
</g>
<!-- Node1&#45;&gt;Node3 -->
<g id="edge2" class="edge">
<title>Node1&#45;&gt;Node3</title>
<path fill="none" stroke="black" d="M56.7,-22.25C70.54,-20.15 86.77,-17.7 101.38,-15.49"/>
<polygon fill="black" stroke="black" points="56.59,-18.72 47.23,-23.68 57.64,-25.65 56.59,-18.72"/>
</g>
</g>
</svg>
</svg>

<style type='text/css'>
<![CDATA[
[data-mouse-over-selected='false'] { opacity: 0.7; }
[data-mouse-over-selected='true']  { opacity: 1.0; }
]]>
</style>
<script type="application/ecmascript"><![CDATA[
document.addEventListener('DOMContentLoaded', (event) => {
  highlightEdges();
  highlightAdjacentNodes();
});
]]></script>
</svg>
