<?xml version="1.0" encoding="UTF-8" standalone="no"?>
<!DOCTYPE svg PUBLIC "-//W3C//DTD SVG 1.1//EN"
 "http://www.w3.org/Graphics/SVG/1.1/DTD/svg11.dtd">
<!-- Generated by graphviz version 12.1.0 (20240811.2233)
 -->
<!-- Title: Plugins: Extensions Pages: 1 -->
<svg width="294pt" height="199pt"
 viewBox="0.00 0.00 294.25 199.25" xmlns="http://www.w3.org/2000/svg" xmlns:xlink="http://www.w3.org/1999/xlink">

<svg id="main" version="1.1" xmlns="http://www.w3.org/2000/svg" xmlns:xlink="http://www.w3.org/1999/xlink" xml:space="preserve">

<style type="text/css"><![CDATA[
.node, .edge {opacity: 0.7;}
.node.selected, .edge.selected {opacity: 1;}
.edge:hover path { stroke: red; }
.edge:hover polygon { stroke: red; fill: red; }
]]></style>
<script type="application/ecmascript" xlink:href="svg.min.js"/>
<svg id="graph" class="graph">
<g id="graph0" class="graph" transform="scale(1 1) rotate(0) translate(4 195.25)">
<title>Plugins: Extensions</title>
<!-- Node1 -->
<g id="Node000001" class="node">
<title>Node1</title>
<g id="a_Node000001"><a xlink:title=" ">
<polygon fill="#999999" stroke="#666666" points="103,-113 0,-113 0,-94.5 103,-94.5 103,-113"/>
<text text-anchor="middle" x="51.5" y="-99.5" font-family="Helvetica,sans-Serif" font-size="10.00">Plugins: Extensions</text>
</a>
</g>
</g>
<!-- Node2 -->
<g id="Node000002" class="node">
<title>Node2</title>
<g id="a_Node000002"><a xlink:href="group__plugins_extensions_compile.html" target="_top" xlink:title=" ">
<polygon fill="white" stroke="#666666" points="264.88,-191.25 160.38,-191.25 160.38,-162.25 264.88,-162.25 264.88,-191.25"/>
<text text-anchor="start" x="168.38" y="-177.75" font-family="Helvetica,sans-Serif" font-size="10.00">Plugins: Extensions</text>
<text text-anchor="middle" x="212.62" y="-167.25" font-family="Helvetica,sans-Serif" font-size="10.00"> compilation support</text>
</a>
</g>
</g>
<!-- Node1&#45;&gt;Node2 -->
<g id="edge1" class="edge">
<title>Node1&#45;&gt;Node2</title>
<path fill="none" stroke="black" d="M76.62,-119.6C93.57,-130.26 117.05,-144.07 139,-153.75 145.66,-156.69 152.8,-159.42 159.92,-161.91"/>
<polygon fill="black" stroke="black" points="78.57,-116.69 68.26,-114.25 74.8,-122.59 78.57,-116.69"/>
</g>
<!-- Node3 -->
<g id="Node000003" class="node">
<title>Node3</title>
<g id="a_Node000003"><a xlink:href="group__plugins_extensions_parse.html" target="_top" xlink:title=" ">
<polygon fill="white" stroke="#666666" points="264.12,-144.25 161.12,-144.25 161.12,-115.25 264.12,-115.25 264.12,-144.25"/>
<text text-anchor="start" x="169.12" y="-130.75" font-family="Helvetica,sans-Serif" font-size="10.00">Plugins: Extensions</text>
<text text-anchor="middle" x="212.62" y="-120.25" font-family="Helvetica,sans-Serif" font-size="10.00"> parsing support</text>
</a>
</g>
</g>
<!-- Node1&#45;&gt;Node3 -->
<g id="edge2" class="edge">
<title>Node1&#45;&gt;Node3</title>
<path fill="none" stroke="black" d="M114.29,-113.85C129.67,-116.36 145.99,-119.03 160.78,-121.44"/>
<polygon fill="black" stroke="black" points="115.21,-110.45 104.78,-112.29 114.08,-117.36 115.21,-110.45"/>
</g>
<!-- Node4 -->
<g id="Node000004" class="node">
<title>Node4</title>
<g id="a_Node000004"><a xlink:href="group__plugins_extensions_sprinter_info.html" target="_top" xlink:title=" ">
<polygon fill="white" stroke="#666666" points="264.12,-97.5 161.12,-97.5 161.12,-58 264.12,-58 264.12,-97.5"/>
<text text-anchor="start" x="169.12" y="-84" font-family="Helvetica,sans-Serif" font-size="10.00">Plugins: Extensions</text>
<text text-anchor="start" x="169.12" y="-73.5" font-family="Helvetica,sans-Serif" font-size="10.00"> schema info printer</text>
<text text-anchor="middle" x="212.62" y="-63" font-family="Helvetica,sans-Serif" font-size="10.00"> support</text>
</a>
</g>
</g>
<!-- Node1&#45;&gt;Node4 -->
<g id="edge3" class="edge">
<title>Node1&#45;&gt;Node4</title>
<path fill="none" stroke="black" d="M114.29,-93.65C129.67,-91.14 145.99,-88.47 160.78,-86.06"/>
<polygon fill="black" stroke="black" points="114.08,-90.14 104.78,-95.21 115.21,-97.05 114.08,-90.14"/>
</g>
<!-- Node5 -->
<g id="Node000005" class="node">
<title>Node5</title>
<g id="a_Node000005"><a xlink:href="group__plugins_extensions_sprinter_tree.html" target="_top" xlink:title=" ">
<polygon fill="white" stroke="#666666" points="286.25,-39.5 139,-39.5 139,0 286.25,0 286.25,-39.5"/>
<text text-anchor="start" x="147" y="-26" font-family="Helvetica,sans-Serif" font-size="10.00">Plugins: Extensions</text>
<text text-anchor="start" x="147" y="-15.5" font-family="Helvetica,sans-Serif" font-size="10.00"> schema parsed and compiled</text>
<text text-anchor="middle" x="212.62" y="-5" font-family="Helvetica,sans-Serif" font-size="10.00"> tree printer support</text>
</a>
</g>
</g>
<!-- Node1&#45;&gt;Node5 -->
<g id="edge4" class="edge">
<title>Node1&#45;&gt;Node5</title>
<path fill="none" stroke="black" d="M74.96,-87.83C92.03,-76.14 116.36,-60.34 139,-48.75 145.04,-45.66 151.5,-42.67 157.97,-39.85"/>
<polygon fill="black" stroke="black" points="73.28,-84.73 67.06,-93.31 77.27,-90.48 73.28,-84.73"/>
</g>
</g>
</svg>
</svg>

<style type='text/css'>
<![CDATA[
[data-mouse-over-selected='false'] { opacity: 0.7; }
[data-mouse-over-selected='true']  { opacity: 1.0; }
]]>
</style>
<script type="application/ecmascript"><![CDATA[
document.addEventListener('DOMContentLoaded', (event) => {
  highlightEdges();
  highlightAdjacentNodes();
});
]]></script>
</svg>
