<?xml version="1.0" encoding="UTF-8" standalone="no"?>
<!DOCTYPE svg PUBLIC "-//W3C//DTD SVG 1.1//EN"
 "http://www.w3.org/Graphics/SVG/1.1/DTD/svg11.dtd">
<!-- Generated by graphviz version 12.1.0 (20240811.2233)
 -->
<!-- Title: Trees Pages: 1 -->
<svg width="186pt" height="101pt"
 viewBox="0.00 0.00 185.50 100.50" xmlns="http://www.w3.org/2000/svg" xmlns:xlink="http://www.w3.org/1999/xlink">

<svg id="main" version="1.1" xmlns="http://www.w3.org/2000/svg" xmlns:xlink="http://www.w3.org/1999/xlink" xml:space="preserve">

<style type="text/css"><![CDATA[
.node, .edge {opacity: 0.7;}
.node.selected, .edge.selected {opacity: 1;}
.edge:hover path { stroke: red; }
.edge:hover polygon { stroke: red; fill: red; }
]]></style>
<script type="application/ecmascript" xlink:href="svg.min.js"/>
<svg id="graph" class="graph">
<g id="graph0" class="graph" transform="scale(1 1) rotate(0) translate(4 96.5)">
<title>Trees</title>
<!-- Node2 -->
<g id="Node000002" class="node">
<title>Node2</title>
<g id="a_Node000002"><a xlink:href="group__datatree.html" target="_top" xlink:title=" ">
<polygon fill="white" stroke="#666666" points="155.75,-92.5 97.75,-92.5 97.75,-74 155.75,-74 155.75,-92.5"/>
<text text-anchor="middle" x="126.75" y="-79" font-family="Helvetica,sans-Serif" font-size="10.00">Data Tree</text>
</a>
</g>
</g>
<!-- Node3 -->
<g id="Node000003" class="node">
<title>Node3</title>
<g id="a_Node000003"><a xlink:href="group__schematree.html" target="_top" xlink:title=" ">
<polygon fill="white" stroke="#666666" points="163.62,-55.5 89.88,-55.5 89.88,-37 163.62,-37 163.62,-55.5"/>
<text text-anchor="middle" x="126.75" y="-42" font-family="Helvetica,sans-Serif" font-size="10.00">Schema Tree</text>
</a>
</g>
</g>
<!-- Node1 -->
<g id="Node000001" class="node">
<title>Node1</title>
<g id="a_Node000001"><a xlink:title=" ">
<polygon fill="#999999" stroke="#666666" points="40,-55.5 0,-55.5 0,-37 40,-37 40,-55.5"/>
<text text-anchor="middle" x="20" y="-42" font-family="Helvetica,sans-Serif" font-size="10.00">Trees</text>
</a>
</g>
</g>
<!-- Node1&#45;&gt;Node2 -->
<g id="edge1" class="edge">
<title>Node1&#45;&gt;Node2</title>
<path fill="none" stroke="black" d="M50.94,-56.83C65.88,-62.1 83.81,-68.44 98.37,-73.58"/>
<polygon fill="black" stroke="black" points="52.23,-53.57 41.64,-53.54 49.9,-60.17 52.23,-53.57"/>
</g>
<!-- Node1&#45;&gt;Node3 -->
<g id="edge2" class="edge">
<title>Node1&#45;&gt;Node3</title>
<path fill="none" stroke="black" d="M51.44,-46.25C63.41,-46.25 77.24,-46.25 89.71,-46.25"/>
<polygon fill="black" stroke="black" points="51.73,-42.75 41.73,-46.25 51.73,-49.75 51.73,-42.75"/>
</g>
<!-- Node4 -->
<g id="Node000004" class="node">
<title>Node4</title>
<g id="a_Node000004"><a xlink:href="group__trees__edit.html" target="_top" xlink:title=" ">
<polygon fill="white" stroke="#666666" points="177.5,-18.5 76,-18.5 76,0 177.5,0 177.5,-18.5"/>
<text text-anchor="middle" x="126.75" y="-5" font-family="Helvetica,sans-Serif" font-size="10.00">Trees &#45; modification</text>
</a>
</g>
</g>
<!-- Node1&#45;&gt;Node4 -->
<g id="edge3" class="edge">
<title>Node1&#45;&gt;Node4</title>
<path fill="none" stroke="black" d="M50.94,-35.67C65.88,-30.4 83.81,-24.06 98.37,-18.92"/>
<polygon fill="black" stroke="black" points="49.9,-32.33 41.64,-38.96 52.23,-38.93 49.9,-32.33"/>
</g>
</g>
</svg>
</svg>

<style type='text/css'>
<![CDATA[
[data-mouse-over-selected='false'] { opacity: 0.7; }
[data-mouse-over-selected='true']  { opacity: 1.0; }
]]>
</style>
<script type="application/ecmascript"><![CDATA[
document.addEventListener('DOMContentLoaded', (event) => {
  highlightEdges();
  highlightAdjacentNodes();
});
]]></script>
</svg>
