<?xml version="1.0" encoding="UTF-8" standalone="no"?>
<!DOCTYPE svg PUBLIC "-//W3C//DTD SVG 1.1//EN"
 "http://www.w3.org/Graphics/SVG/1.1/DTD/svg11.dtd">
<!-- Generated by graphviz version 12.1.0 (20240811.2233)
 -->
<!-- Title: Plugins: Types Pages: 1 -->
<svg width="257pt" height="705pt"
 viewBox="0.00 0.00 256.75 705.00" xmlns="http://www.w3.org/2000/svg" xmlns:xlink="http://www.w3.org/1999/xlink">
<g id="graph0" class="graph" transform="scale(1 1) rotate(0) translate(4 701)">
<title>Plugins: Types</title>
<!-- Node1 -->
<g id="Node000001" class="node">
<title>Node1</title>
<g id="a_Node000001"><a xlink:title=" ">
<polygon fill="#999999" stroke="#666666" points="80.5,-362.75 0,-362.75 0,-344.25 80.5,-344.25 80.5,-362.75"/>
<text text-anchor="middle" x="40.25" y="-349.25" font-family="Helvetica,sans-Serif" font-size="10.00">Plugins: Types</text>
</a>
</g>
</g>
<!-- Node2 -->
<g id="Node000002" class="node">
<title>Node2</title>
<g id="a_Node000002"><a xlink:href="group__plugins_types_binary.html" target="_top" xlink:title=" ">
<polygon fill="white" stroke="#666666" points="234.5,-697 130.75,-697 130.75,-668 234.5,-668 234.5,-697"/>
<text text-anchor="start" x="138.75" y="-683.5" font-family="Helvetica,sans-Serif" font-size="10.00">Plugins: Binary built</text>
<text text-anchor="middle" x="182.62" y="-673" font-family="Helvetica,sans-Serif" font-size="10.00">&#45;in type callbacks</text>
</a>
</g>
</g>
<!-- Node1&#45;&gt;Node2 -->
<g id="edge1" class="edge">
<title>Node1&#45;&gt;Node2</title>
<path fill="none" stroke="black" d="M43.82,-374.58C51.76,-436.6 77.75,-616.73 116.5,-659.5 120.45,-663.85 125.27,-667.38 130.48,-670.25"/>
<polygon fill="black" stroke="black" points="47.3,-374.23 42.59,-364.74 40.35,-375.09 47.3,-374.23"/>
</g>
<!-- Node3 -->
<g id="Node000003" class="node">
<title>Node3</title>
<g id="a_Node000003"><a xlink:href="group__plugins_types_bits.html" target="_top" xlink:title=" ">
<polygon fill="white" stroke="#666666" points="228.88,-650 136.38,-650 136.38,-621 228.88,-621 228.88,-650"/>
<text text-anchor="start" x="144.38" y="-636.5" font-family="Helvetica,sans-Serif" font-size="10.00">Plugins: Bits built</text>
<text text-anchor="middle" x="182.62" y="-626" font-family="Helvetica,sans-Serif" font-size="10.00">&#45;in type callbacks</text>
</a>
</g>
</g>
<!-- Node1&#45;&gt;Node3 -->
<g id="edge2" class="edge">
<title>Node1&#45;&gt;Node3</title>
<path fill="none" stroke="black" d="M41.23,-374.71C42.33,-423.36 51.84,-544.07 116.5,-612.5 121.85,-618.17 128.69,-622.44 135.9,-625.66"/>
<polygon fill="black" stroke="black" points="44.73,-374.71 41.12,-364.75 37.73,-374.79 44.73,-374.71"/>
</g>
<!-- Node4 -->
<g id="Node000004" class="node">
<title>Node4</title>
<g id="a_Node000004"><a xlink:href="group__plugins_types_boolean.html" target="_top" xlink:title=" ">
<polygon fill="white" stroke="#666666" points="237.88,-603 127.38,-603 127.38,-574 237.88,-574 237.88,-603"/>
<text text-anchor="start" x="135.38" y="-589.5" font-family="Helvetica,sans-Serif" font-size="10.00">Plugins: Boolean built</text>
<text text-anchor="middle" x="182.62" y="-579" font-family="Helvetica,sans-Serif" font-size="10.00">&#45;in type callbacks</text>
</a>
</g>
</g>
<!-- Node1&#45;&gt;Node4 -->
<g id="edge3" class="edge">
<title>Node1&#45;&gt;Node4</title>
<path fill="none" stroke="black" d="M42.83,-374.5C47.1,-416.53 62.51,-511.6 116.5,-565.5 119.64,-568.63 123.23,-571.34 127.08,-573.68"/>
<polygon fill="black" stroke="black" points="46.32,-374.2 41.95,-364.55 39.34,-374.82 46.32,-374.2"/>
</g>
<!-- Node5 -->
<g id="Node000005" class="node">
<title>Node5</title>
<g id="a_Node000005"><a xlink:href="group__plugins_types_decimal64.html" target="_top" xlink:title=" ">
<polygon fill="white" stroke="#666666" points="239,-556 126.25,-556 126.25,-527 239,-527 239,-556"/>
<text text-anchor="start" x="134.25" y="-542.5" font-family="Helvetica,sans-Serif" font-size="10.00">Plugins: Decimal64</text>
<text text-anchor="middle" x="182.62" y="-532" font-family="Helvetica,sans-Serif" font-size="10.00"> built&#45;in type callbacks</text>
</a>
</g>
</g>
<!-- Node1&#45;&gt;Node5 -->
<g id="edge4" class="edge">
<title>Node1&#45;&gt;Node5</title>
<path fill="none" stroke="black" d="M45.23,-374.32C52.93,-409.01 73.06,-478.74 116.5,-518.5 119.86,-521.58 123.66,-524.25 127.69,-526.56"/>
<polygon fill="black" stroke="black" points="48.7,-373.81 43.25,-364.73 41.85,-375.23 48.7,-373.81"/>
</g>
<!-- Node6 -->
<g id="Node000006" class="node">
<title>Node6</title>
<g id="a_Node000006"><a xlink:href="group__plugins_types_empty.html" target="_top" xlink:title=" ">
<polygon fill="white" stroke="#666666" points="234.5,-509 130.75,-509 130.75,-480 234.5,-480 234.5,-509"/>
<text text-anchor="start" x="138.75" y="-495.5" font-family="Helvetica,sans-Serif" font-size="10.00">Plugins: Empty built</text>
<text text-anchor="middle" x="182.62" y="-485" font-family="Helvetica,sans-Serif" font-size="10.00">&#45;in type callbacks</text>
</a>
</g>
</g>
<!-- Node1&#45;&gt;Node6 -->
<g id="edge5" class="edge">
<title>Node1&#45;&gt;Node6</title>
<path fill="none" stroke="black" d="M49.05,-373.44C60.22,-399.53 83.17,-445.03 116.5,-471.5 120.73,-474.86 125.48,-477.74 130.44,-480.22"/>
<polygon fill="black" stroke="black" points="52.36,-372.29 45.33,-364.36 45.88,-374.94 52.36,-372.29"/>
</g>
<!-- Node7 -->
<g id="Node000007" class="node">
<title>Node7</title>
<g id="a_Node000007"><a xlink:href="group__plugins_types_enumeration.html" target="_top" xlink:title=" ">
<polygon fill="white" stroke="#666666" points="239,-462 126.25,-462 126.25,-433 239,-433 239,-462"/>
<text text-anchor="start" x="134.25" y="-448.5" font-family="Helvetica,sans-Serif" font-size="10.00">Plugins: Enumeration</text>
<text text-anchor="middle" x="182.62" y="-438" font-family="Helvetica,sans-Serif" font-size="10.00"> built&#45;in type callbacks</text>
</a>
</g>
</g>
<!-- Node1&#45;&gt;Node7 -->
<g id="edge6" class="edge">
<title>Node1&#45;&gt;Node7</title>
<path fill="none" stroke="black" d="M56.38,-371.53C70.51,-387.38 92.92,-410.11 116.5,-424.5 121.41,-427.5 126.77,-430.18 132.24,-432.56"/>
<polygon fill="black" stroke="black" points="59.25,-369.51 50.06,-364.25 53.97,-374.09 59.25,-369.51"/>
</g>
<!-- Node8 -->
<g id="Node000008" class="node">
<title>Node8</title>
<g id="a_Node000008"><a xlink:href="group__plugins_types_identityref.html" target="_top" xlink:title=" ">
<polygon fill="white" stroke="#666666" points="239,-415 126.25,-415 126.25,-386 239,-386 239,-415"/>
<text text-anchor="start" x="134.25" y="-401.5" font-family="Helvetica,sans-Serif" font-size="10.00">Plugins: Identityref</text>
<text text-anchor="middle" x="182.62" y="-391" font-family="Helvetica,sans-Serif" font-size="10.00"> built&#45;in type callbacks</text>
</a>
</g>
</g>
<!-- Node1&#45;&gt;Node8 -->
<g id="edge7" class="edge">
<title>Node1&#45;&gt;Node8</title>
<path fill="none" stroke="black" d="M80.79,-366.74C98.32,-372.61 119.02,-379.54 137.09,-385.59"/>
<polygon fill="black" stroke="black" points="82.36,-363.58 71.77,-363.72 80.14,-370.21 82.36,-363.58"/>
</g>
<!-- Node9 -->
<g id="Node000009" class="node">
<title>Node9</title>
<g id="a_Node000009"><a xlink:href="group__plugins_types_instanceid.html" target="_top" xlink:title=" ">
<polygon fill="white" stroke="#666666" points="248.75,-368 116.5,-368 116.5,-339 248.75,-339 248.75,-368"/>
<text text-anchor="start" x="124.5" y="-354.5" font-family="Helvetica,sans-Serif" font-size="10.00">Plugins: Instance&#45;identifier</text>
<text text-anchor="middle" x="182.62" y="-344" font-family="Helvetica,sans-Serif" font-size="10.00"> built&#45;in type callbacks</text>
</a>
</g>
</g>
<!-- Node1&#45;&gt;Node9 -->
<g id="edge8" class="edge">
<title>Node1&#45;&gt;Node9</title>
<path fill="none" stroke="black" d="M92.21,-353.5C99.99,-353.5 108.11,-353.5 116.14,-353.5"/>
<polygon fill="black" stroke="black" points="92.24,-350 82.24,-353.5 92.24,-357 92.24,-350"/>
</g>
<!-- Node10 -->
<g id="Node000010" class="node">
<title>Node10</title>
<g id="a_Node000010"><a xlink:href="group__plugins_types_integer.html" target="_top" xlink:title=" ">
<polygon fill="white" stroke="#666666" points="235.25,-321 130,-321 130,-292 235.25,-292 235.25,-321"/>
<text text-anchor="start" x="138" y="-307.5" font-family="Helvetica,sans-Serif" font-size="10.00">Plugins: Integer built</text>
<text text-anchor="middle" x="182.62" y="-297" font-family="Helvetica,sans-Serif" font-size="10.00">&#45;in types callbacks</text>
</a>
</g>
</g>
<!-- Node1&#45;&gt;Node10 -->
<g id="edge9" class="edge">
<title>Node1&#45;&gt;Node10</title>
<path fill="none" stroke="black" d="M80.79,-340.26C98.32,-334.39 119.02,-327.46 137.09,-321.41"/>
<polygon fill="black" stroke="black" points="80.14,-336.79 71.77,-343.28 82.36,-343.42 80.14,-336.79"/>
</g>
<!-- Node11 -->
<g id="Node000011" class="node">
<title>Node11</title>
<g id="a_Node000011"><a xlink:href="group__plugins_types_leafref.html" target="_top" xlink:title=" ">
<polygon fill="white" stroke="#666666" points="235.25,-274 130,-274 130,-245 235.25,-245 235.25,-274"/>
<text text-anchor="start" x="138" y="-260.5" font-family="Helvetica,sans-Serif" font-size="10.00">Plugins: Leafref built</text>
<text text-anchor="middle" x="182.62" y="-250" font-family="Helvetica,sans-Serif" font-size="10.00">&#45;in type callbacks</text>
</a>
</g>
</g>
<!-- Node1&#45;&gt;Node11 -->
<g id="edge10" class="edge">
<title>Node1&#45;&gt;Node11</title>
<path fill="none" stroke="black" d="M56.47,-335.81C70.67,-320.24 93.12,-297.87 116.5,-283.5 122.04,-280.09 128.15,-277.05 134.32,-274.38"/>
<polygon fill="black" stroke="black" points="54.15,-333.15 50.13,-342.95 59.39,-337.8 54.15,-333.15"/>
</g>
<!-- Node12 -->
<g id="Node000012" class="node">
<title>Node12</title>
<g id="a_Node000012"><a xlink:href="group__plugins_types_simple.html" target="_top" xlink:title=" ">
<polygon fill="white" stroke="#666666" points="239.38,-227 125.88,-227 125.88,-198 239.38,-198 239.38,-227"/>
<text text-anchor="start" x="133.88" y="-213.5" font-family="Helvetica,sans-Serif" font-size="10.00">Plugins: Simple Types</text>
<text text-anchor="middle" x="182.62" y="-203" font-family="Helvetica,sans-Serif" font-size="10.00"> Callbacks</text>
</a>
</g>
</g>
<!-- Node1&#45;&gt;Node12 -->
<g id="edge11" class="edge">
<title>Node1&#45;&gt;Node12</title>
<path fill="none" stroke="black" d="M49.32,-333.41C60.66,-307.55 83.67,-262.84 116.5,-236.5 120.82,-233.03 125.7,-230.03 130.78,-227.45"/>
<polygon fill="black" stroke="black" points="46.17,-331.86 45.52,-342.43 52.63,-334.57 46.17,-331.86"/>
</g>
<!-- Node13 -->
<g id="Node000013" class="node">
<title>Node13</title>
<g id="a_Node000013"><a xlink:href="group__plugins_types_string.html" target="_top" xlink:title=" ">
<polygon fill="white" stroke="#666666" points="233,-180 132.25,-180 132.25,-151 233,-151 233,-180"/>
<text text-anchor="start" x="140.25" y="-166.5" font-family="Helvetica,sans-Serif" font-size="10.00">Plugins: String built</text>
<text text-anchor="middle" x="182.62" y="-156" font-family="Helvetica,sans-Serif" font-size="10.00">&#45;in type callbacks</text>
</a>
</g>
</g>
<!-- Node1&#45;&gt;Node13 -->
<g id="edge12" class="edge">
<title>Node1&#45;&gt;Node13</title>
<path fill="none" stroke="black" d="M45.33,-332.87C53.17,-298.48 73.5,-229.3 116.5,-189.5 121.01,-185.33 126.31,-181.86 131.9,-178.99"/>
<polygon fill="black" stroke="black" points="41.97,-331.86 43.31,-342.37 48.81,-333.32 41.97,-331.86"/>
</g>
<!-- Node15 -->
<g id="Node000015" class="node">
<title>Node15</title>
<g id="a_Node000015"><a xlink:href="group__plugins_types_union.html" target="_top" xlink:title=" ">
<polygon fill="white" stroke="#666666" points="233,-133 132.25,-133 132.25,-104 233,-104 233,-133"/>
<text text-anchor="start" x="140.25" y="-119.5" font-family="Helvetica,sans-Serif" font-size="10.00">Plugins: Union built</text>
<text text-anchor="middle" x="182.62" y="-109" font-family="Helvetica,sans-Serif" font-size="10.00">&#45;in type callbacks</text>
</a>
</g>
</g>
<!-- Node1&#45;&gt;Node15 -->
<g id="edge14" class="edge">
<title>Node1&#45;&gt;Node15</title>
<path fill="none" stroke="black" d="M42.92,-332.66C47.36,-290.93 63.07,-196.5 116.5,-142.5 120.91,-138.05 126.21,-134.41 131.87,-131.45"/>
<polygon fill="black" stroke="black" points="39.45,-332.24 42,-342.52 46.42,-332.89 39.45,-332.24"/>
</g>
<!-- Node16 -->
<g id="Node000016" class="node">
<title>Node16</title>
<g id="a_Node000016"><a xlink:href="group__plugins_types_xpath10.html" target="_top" xlink:title=" ">
<polygon fill="white" stroke="#666666" points="234.12,-86.25 131.12,-86.25 131.12,-46.75 234.12,-46.75 234.12,-86.25"/>
<text text-anchor="start" x="139.12" y="-72.75" font-family="Helvetica,sans-Serif" font-size="10.00">Plugins: xpath1.0 </text>
<text text-anchor="start" x="139.12" y="-62.25" font-family="Helvetica,sans-Serif" font-size="10.00">&lt;tt&gt;ietf&#45;yang&#45;types</text>
<text text-anchor="middle" x="182.62" y="-51.75" font-family="Helvetica,sans-Serif" font-size="10.00">&lt;/tt&gt; type callbacks</text>
</a>
</g>
</g>
<!-- Node1&#45;&gt;Node16 -->
<g id="edge15" class="edge">
<title>Node1&#45;&gt;Node16</title>
<path fill="none" stroke="black" d="M41.63,-332.72C43.6,-284.98 54.79,-166.16 116.5,-95.5 120.57,-90.84 125.54,-86.89 130.89,-83.56"/>
<polygon fill="black" stroke="black" points="38.14,-332.35 41.34,-342.45 45.14,-332.56 38.14,-332.35"/>
</g>
<!-- Node14 -->
<g id="Node000014" class="node">
<title>Node14</title>
<g id="a_Node000014"><a xlink:href="group__plugintypestoreopts.html" target="_top" xlink:title=" ">
<polygon fill="white" stroke="#666666" points="232.62,-29 132.62,-29 132.62,0 232.62,0 232.62,-29"/>
<text text-anchor="start" x="140.62" y="-15.5" font-family="Helvetica,sans-Serif" font-size="10.00">Plugins: Type store</text>
<text text-anchor="middle" x="182.62" y="-5" font-family="Helvetica,sans-Serif" font-size="10.00"> callback options.</text>
</a>
</g>
</g>
<!-- Node1&#45;&gt;Node14 -->
<g id="edge13" class="edge">
<title>Node1&#45;&gt;Node14</title>
<path fill="none" stroke="black" d="M43.62,-332.55C51.18,-269.31 76.54,-81.92 116.5,-37.5 120.91,-32.6 126.43,-28.74 132.38,-25.7"/>
<polygon fill="black" stroke="black" points="40.17,-331.93 42.49,-342.27 47.12,-332.74 40.17,-331.93"/>
</g>
</g>
</svg>
