<?xml version="1.0" encoding="UTF-8" standalone="no"?>
<!DOCTYPE svg PUBLIC "-//W3C//DTD SVG 1.1//EN"
 "http://www.w3.org/Graphics/SVG/1.1/DTD/svg11.dtd">
<!-- Generated by graphviz version 12.1.0 (20240811.2233)
 -->
<!-- Title: Schema Tree Pages: 1 -->
<svg width="343pt" height="410pt"
 viewBox="0.00 0.00 342.50 409.75" xmlns="http://www.w3.org/2000/svg" xmlns:xlink="http://www.w3.org/1999/xlink">
<g id="graph0" class="graph" transform="scale(1 1) rotate(0) translate(4 405.75)">
<title>Schema Tree</title>
<!-- Node5 -->
<g id="Node000005" class="node">
<title>Node5</title>
<g id="a_Node000005"><a xlink:href="group__deviatetypes.html" target="_top" xlink:title=" ">
<polygon fill="white" stroke="#666666" points="298.5,-401.75 221.75,-401.75 221.75,-383.25 298.5,-383.25 298.5,-401.75"/>
<text text-anchor="middle" x="260.12" y="-388.25" font-family="Helvetica,sans-Serif" font-size="10.00">Deviate types</text>
</a>
</g>
</g>
<!-- Node3 -->
<g id="Node000003" class="node">
<title>Node3</title>
<g id="a_Node000003"><a xlink:href="group__findxpathoptions.html" target="_top" xlink:title=" ">
<polygon fill="white" stroke="#666666" points="318,-364.75 202.25,-364.75 202.25,-346.25 318,-346.25 318,-364.75"/>
<text text-anchor="middle" x="260.12" y="-351.25" font-family="Helvetica,sans-Serif" font-size="10.00">Atomize XPath options</text>
</a>
</g>
</g>
<!-- Node12 -->
<g id="Node000012" class="node">
<title>Node12</title>
<g id="a_Node000012"><a xlink:href="group__ifftokens.html" target="_top" xlink:title=" ">
<polygon fill="white" stroke="#666666" points="312.38,-328 207.88,-328 207.88,-299 312.38,-299 312.38,-328"/>
<text text-anchor="start" x="215.88" y="-314.5" font-family="Helvetica,sans-Serif" font-size="10.00">if&#45;feature expression</text>
<text text-anchor="middle" x="260.12" y="-304" font-family="Helvetica,sans-Serif" font-size="10.00"> tokens</text>
</a>
</g>
</g>
<!-- Node7 -->
<g id="Node000007" class="node">
<title>Node7</title>
<g id="a_Node000007"><a xlink:href="group__latestrevflags.html" target="_top" xlink:title=" ">
<polygon fill="white" stroke="#666666" points="334.5,-281 185.75,-281 185.75,-252 334.5,-252 334.5,-281"/>
<text text-anchor="start" x="193.75" y="-267.5" font-family="Helvetica,sans-Serif" font-size="10.00">Options for ::lys_module.latest</text>
<text text-anchor="middle" x="260.12" y="-257" font-family="Helvetica,sans-Serif" font-size="10.00">_revision.</text>
</a>
</g>
</g>
<!-- Node9 -->
<g id="Node000009" class="node">
<title>Node9</title>
<g id="a_Node000009"><a xlink:href="group__schemanodetypes.html" target="_top" xlink:title=" ">
<polygon fill="white" stroke="#666666" points="313.88,-233.75 206.38,-233.75 206.38,-215.25 313.88,-215.25 313.88,-233.75"/>
<text text-anchor="middle" x="260.12" y="-220.25" font-family="Helvetica,sans-Serif" font-size="10.00">Schema Node Types</text>
</a>
</g>
</g>
<!-- Node11 -->
<g id="Node000011" class="node">
<title>Node11</title>
<g id="a_Node000011"><a xlink:href="group__schemaprinterflags.html" target="_top" xlink:title=" ">
<polygon fill="white" stroke="#666666" points="318.38,-196.75 201.88,-196.75 201.88,-178.25 318.38,-178.25 318.38,-196.75"/>
<text text-anchor="middle" x="260.12" y="-183.25" font-family="Helvetica,sans-Serif" font-size="10.00">Schema output options</text>
</a>
</g>
</g>
<!-- Node1 -->
<g id="Node000001" class="node">
<title>Node1</title>
<g id="a_Node000001"><a xlink:title=" ">
<polygon fill="#999999" stroke="#666666" points="149.75,-214.75 76,-214.75 76,-196.25 149.75,-196.25 149.75,-214.75"/>
<text text-anchor="middle" x="112.88" y="-201.25" font-family="Helvetica,sans-Serif" font-size="10.00">Schema Tree</text>
</a>
</g>
</g>
<!-- Node1&#45;&gt;Node5 -->
<g id="edge4" class="edge">
<title>Node1&#45;&gt;Node5</title>
<path fill="none" stroke="black" d="M116.75,-226.11C122.82,-261.67 140.34,-334.47 185.75,-373.5 195.63,-381.99 208.84,-386.76 221.33,-389.41"/>
<polygon fill="black" stroke="black" points="120.28,-226.04 115.28,-216.7 113.36,-227.12 120.28,-226.04"/>
</g>
<!-- Node1&#45;&gt;Node3 -->
<g id="edge2" class="edge">
<title>Node1&#45;&gt;Node3</title>
<path fill="none" stroke="black" d="M119.37,-226.22C128.27,-255.59 148.67,-308.94 185.75,-337.5 190.63,-341.26 196.2,-344.25 202.03,-346.62"/>
<polygon fill="black" stroke="black" points="122.77,-225.36 116.66,-216.7 116.03,-227.27 122.77,-225.36"/>
</g>
<!-- Node1&#45;&gt;Node12 -->
<g id="edge11" class="edge">
<title>Node1&#45;&gt;Node12</title>
<path fill="none" stroke="black" d="M125.48,-224.76C138.04,-244.05 159.81,-273.27 185.75,-290.5 192.42,-294.93 200,-298.55 207.69,-301.49"/>
<polygon fill="black" stroke="black" points="128.57,-223.09 120.28,-216.49 122.64,-226.82 128.57,-223.09"/>
</g>
<!-- Node1&#45;&gt;Node7 -->
<g id="edge6" class="edge">
<title>Node1&#45;&gt;Node7</title>
<path fill="none" stroke="black" d="M140.57,-220.53C153.9,-227.7 170.42,-236.1 185.75,-242.5 193.42,-245.7 201.67,-248.76 209.79,-251.56"/>
<polygon fill="black" stroke="black" points="142.43,-217.56 131.98,-215.83 139.07,-223.7 142.43,-217.56"/>
</g>
<!-- Node1&#45;&gt;Node9 -->
<g id="edge8" class="edge">
<title>Node1&#45;&gt;Node9</title>
<path fill="none" stroke="black" d="M161.26,-211.7C175.58,-213.57 191.38,-215.64 206.04,-217.56"/>
<polygon fill="black" stroke="black" points="162.02,-208.27 151.65,-210.44 161.12,-215.21 162.02,-208.27"/>
</g>
<!-- Node1&#45;&gt;Node11 -->
<g id="edge10" class="edge">
<title>Node1&#45;&gt;Node11</title>
<path fill="none" stroke="black" d="M161.52,-199.6C174.32,-198.01 188.3,-196.28 201.58,-194.63"/>
<polygon fill="black" stroke="black" points="161.15,-196.11 151.66,-200.82 162.01,-203.06 161.15,-196.11"/>
</g>
<!-- Node4 -->
<g id="Node000004" class="node">
<title>Node4</title>
<g id="a_Node000004"><a xlink:href="group__scnodeflags.html" target="_top" xlink:title=" ">
<polygon fill="white" stroke="#666666" points="322.12,-160 198.12,-160 198.12,-131 322.12,-131 322.12,-160"/>
<text text-anchor="start" x="206.12" y="-146.5" font-family="Helvetica,sans-Serif" font-size="10.00">Compiled schema nodes</text>
<text text-anchor="middle" x="260.12" y="-136" font-family="Helvetica,sans-Serif" font-size="10.00"> flags</text>
</a>
</g>
</g>
<!-- Node1&#45;&gt;Node4 -->
<g id="edge3" class="edge">
<title>Node1&#45;&gt;Node4</title>
<path fill="none" stroke="black" d="M141.15,-190.64C154.4,-183.73 170.68,-175.7 185.75,-169.5 193.56,-166.29 201.97,-163.2 210.21,-160.38"/>
<polygon fill="black" stroke="black" points="139.8,-187.4 132.6,-195.17 143.07,-193.58 139.8,-187.4"/>
</g>
<!-- Node6 -->
<g id="Node000006" class="node">
<title>Node6</title>
<g id="a_Node000006"><a xlink:href="group__sgetnextflags.html" target="_top" xlink:title=" ">
<polygon fill="white" stroke="#666666" points="323.62,-113 196.62,-113 196.62,-84 323.62,-84 323.62,-113"/>
<text text-anchor="start" x="204.62" y="-99.5" font-family="Helvetica,sans-Serif" font-size="10.00">Options for ::lys_getnext</text>
<text text-anchor="middle" x="260.12" y="-89" font-family="Helvetica,sans-Serif" font-size="10.00">() and ::lys_getnext_ext().</text>
</a>
</g>
</g>
<!-- Node1&#45;&gt;Node6 -->
<g id="edge5" class="edge">
<title>Node1&#45;&gt;Node6</title>
<path fill="none" stroke="black" d="M125.53,-186.47C138.14,-167.41 159.93,-138.54 185.75,-121.5 190.43,-118.41 195.55,-115.72 200.84,-113.37"/>
<polygon fill="black" stroke="black" points="122.75,-184.32 120.32,-194.63 128.65,-188.09 122.75,-184.32"/>
</g>
<!-- Node10 -->
<g id="Node000010" class="node">
<title>Node10</title>
<g id="a_Node000010"><a xlink:href="group__snodeflags.html" target="_top" xlink:title=" ">
<polygon fill="white" stroke="#666666" points="312.75,-65.75 207.5,-65.75 207.5,-47.25 312.75,-47.25 312.75,-65.75"/>
<text text-anchor="middle" x="260.12" y="-52.25" font-family="Helvetica,sans-Serif" font-size="10.00">Schema nodes flags</text>
</a>
</g>
</g>
<!-- Node1&#45;&gt;Node10 -->
<g id="edge9" class="edge">
<title>Node1&#45;&gt;Node10</title>
<path fill="none" stroke="black" d="M119.42,-184.93C128.37,-155.78 148.84,-102.84 185.75,-74.5 192.1,-69.63 199.58,-66.06 207.31,-63.44"/>
<polygon fill="black" stroke="black" points="116.1,-183.8 116.69,-194.38 122.83,-185.74 116.1,-183.8"/>
</g>
<!-- Node8 -->
<g id="Node000008" class="node">
<title>Node8</title>
<g id="a_Node000008"><a xlink:href="group__spnodeflags.html" target="_top" xlink:title=" ">
<polygon fill="white" stroke="#666666" points="317.25,-29 203,-29 203,0 317.25,0 317.25,-29"/>
<text text-anchor="start" x="211" y="-15.5" font-family="Helvetica,sans-Serif" font-size="10.00">Parsed schema nodes</text>
<text text-anchor="middle" x="260.12" y="-5" font-family="Helvetica,sans-Serif" font-size="10.00"> flags</text>
</a>
</g>
</g>
<!-- Node1&#45;&gt;Node8 -->
<g id="edge7" class="edge">
<title>Node1&#45;&gt;Node8</title>
<path fill="none" stroke="black" d="M117.13,-184.84C123.73,-149.77 141.96,-78.51 185.75,-38.5 190.7,-33.98 196.51,-30.31 202.66,-27.33"/>
<polygon fill="black" stroke="black" points="113.71,-184.06 115.46,-194.51 120.61,-185.25 113.71,-184.06"/>
</g>
<!-- Node2 -->
<g id="Node000002" class="node">
<title>Node2</title>
<g id="a_Node000002"><a xlink:href="group__trees.html" target="_top" xlink:title=" ">
<polygon fill="white" stroke="#666666" points="40,-214.75 0,-214.75 0,-196.25 40,-196.25 40,-214.75"/>
<text text-anchor="middle" x="20" y="-201.25" font-family="Helvetica,sans-Serif" font-size="10.00">Trees</text>
</a>
</g>
</g>
<!-- Node2&#45;&gt;Node1 -->
<g id="edge1" class="edge">
<title>Node2&#45;&gt;Node1</title>
<path fill="none" stroke="black" d="M51.73,-205.5C59.45,-205.5 67.8,-205.5 75.75,-205.5"/>
<polygon fill="black" stroke="black" points="51.79,-202 41.79,-205.5 51.79,-209 51.79,-202"/>
</g>
</g>
</svg>
