<?xml version="1.0" encoding="UTF-8" standalone="no"?>
<!DOCTYPE svg PUBLIC "-//W3C//DTD SVG 1.1//EN"
 "http://www.w3.org/Graphics/SVG/1.1/DTD/svg11.dtd">
<!-- Generated by graphviz version 12.1.0 (20240811.2233)
 -->
<!-- Title: Plugins: Extensions compilation support Pages: 1 -->
<svg width="400pt" height="37pt"
 viewBox="0.00 0.00 400.25 37.00" xmlns="http://www.w3.org/2000/svg" xmlns:xlink="http://www.w3.org/1999/xlink">
<g id="graph0" class="graph" transform="scale(1 1) rotate(0) translate(4 33)">
<title>Plugins: Extensions compilation support</title>
<!-- Node2 -->
<g id="Node000002" class="node">
<title>Node2</title>
<g id="a_Node000002"><a xlink:href="group__plugins_extensions.html" target="_top" xlink:title=" ">
<polygon fill="white" stroke="#666666" points="103,-23.75 0,-23.75 0,-5.25 103,-5.25 103,-23.75"/>
<text text-anchor="middle" x="51.5" y="-10.25" font-family="Helvetica,sans-Serif" font-size="10.00">Plugins: Extensions</text>
</a>
</g>
</g>
<!-- Node1 -->
<g id="Node000001" class="node">
<title>Node1</title>
<g id="a_Node000001"><a xlink:title=" ">
<polygon fill="#999999" stroke="#666666" points="243.5,-29 139,-29 139,0 243.5,0 243.5,-29"/>
<text text-anchor="start" x="147" y="-15.5" font-family="Helvetica,sans-Serif" font-size="10.00">Plugins: Extensions</text>
<text text-anchor="middle" x="191.25" y="-5" font-family="Helvetica,sans-Serif" font-size="10.00"> compilation support</text>
</a>
</g>
</g>
<!-- Node2&#45;&gt;Node1 -->
<g id="edge1" class="edge">
<title>Node2&#45;&gt;Node1</title>
<path fill="none" stroke="black" d="M114.9,-14.5C122.84,-14.5 130.89,-14.5 138.64,-14.5"/>
<polygon fill="black" stroke="black" points="114.92,-11 104.92,-14.5 114.92,-18 114.92,-11"/>
</g>
<!-- Node3 -->
<g id="Node000003" class="node">
<title>Node3</title>
<g id="a_Node000003"><a xlink:href="group__scflags.html" target="_top" xlink:title=" ">
<polygon fill="white" stroke="#666666" points="392.25,-23.75 279.5,-23.75 279.5,-5.25 392.25,-5.25 392.25,-23.75"/>
<text text-anchor="middle" x="335.88" y="-10.25" font-family="Helvetica,sans-Serif" font-size="10.00">Schema compile flags</text>
</a>
</g>
</g>
<!-- Node1&#45;&gt;Node3 -->
<g id="edge2" class="edge">
<title>Node1&#45;&gt;Node3</title>
<path fill="none" stroke="black" d="M255.25,-14.5C263.2,-14.5 271.29,-14.5 279.12,-14.5"/>
<polygon fill="black" stroke="black" points="255.25,-11 245.25,-14.5 255.25,-18 255.25,-11"/>
</g>
</g>
</svg>
