<?xml version="1.0" encoding="UTF-8" standalone="no"?>
<!DOCTYPE svg PUBLIC "-//W3C//DTD SVG 1.1//EN"
 "http://www.w3.org/Graphics/SVG/1.1/DTD/svg11.dtd">
<!-- Generated by graphviz version 12.1.0 (20240811.2233)
 -->
<!-- Title: src/hash_table.h Pages: 1 -->
<svg width="179pt" height="136pt"
 viewBox="0.00 0.00 178.50 135.50" xmlns="http://www.w3.org/2000/svg" xmlns:xlink="http://www.w3.org/1999/xlink">
<g id="graph0" class="graph" transform="scale(1 1) rotate(0) translate(4 131.5)">
<title>src/hash_table.h</title>
<!-- Node1 -->
<g id="Node000001" class="node">
<title>Node1</title>
<g id="a_Node000001"><a xlink:title="libyang hash table">
<polygon fill="#999999" stroke="#666666" points="122.25,-127.5 34.25,-127.5 34.25,-109 122.25,-109 122.25,-127.5"/>
<text text-anchor="middle" x="78.25" y="-114" font-family="Helvetica,sans-Serif" font-size="10.00">src/hash_table.h</text>
</a>
</g>
</g>
<!-- Node2 -->
<g id="Node000002" class="node">
<title>Node2</title>
<g id="a_Node000002"><a xlink:title=" ">
<polygon fill="#e0e0e0" stroke="#999999" points="50.5,-73 0,-73 0,-54.5 50.5,-54.5 50.5,-73"/>
<text text-anchor="middle" x="25.25" y="-59.5" font-family="Helvetica,sans-Serif" font-size="10.00">stddef.h</text>
</a>
</g>
</g>
<!-- Node1&#45;&gt;Node2 -->
<g id="edge1_Node000001_Node000002" class="edge">
<title>Node1&#45;&gt;Node2</title>
<g id="a_edge1_Node000001_Node000002"><a xlink:title=" ">
<path fill="none" stroke="#63b8ff" d="M69.5,-108.58C62.01,-101.17 51.03,-90.28 41.88,-81.22"/>
<polygon fill="#63b8ff" stroke="#63b8ff" points="44.48,-78.87 34.91,-74.32 39.56,-83.85 44.48,-78.87"/>
</a>
</g>
</g>
<!-- Node3 -->
<g id="Node000003" class="node">
<title>Node3</title>
<g id="a_Node000003"><a xlink:title=" ">
<polygon fill="#e0e0e0" stroke="#999999" points="102,-18.5 54.5,-18.5 54.5,0 102,0 102,-18.5"/>
<text text-anchor="middle" x="78.25" y="-5" font-family="Helvetica,sans-Serif" font-size="10.00">stdint.h</text>
</a>
</g>
</g>
<!-- Node1&#45;&gt;Node3 -->
<g id="edge2_Node000001_Node000003" class="edge">
<title>Node1&#45;&gt;Node3</title>
<g id="a_edge2_Node000001_Node000003"><a xlink:title=" ">
<path fill="none" stroke="#63b8ff" d="M78.25,-108.85C78.25,-92.06 78.25,-53.92 78.25,-30.3"/>
<polygon fill="#63b8ff" stroke="#63b8ff" points="81.75,-30.42 78.25,-20.42 74.75,-30.42 81.75,-30.42"/>
</a>
</g>
</g>
<!-- Node4 -->
<g id="Node000004" class="node">
<title>Node4</title>
<g id="a_Node000004"><a xlink:href="log_8h.html" target="_top" xlink:title="Logger manipulation routines and error definitions.">
<polygon fill="white" stroke="#666666" points="143.75,-73 106.75,-73 106.75,-54.5 143.75,-54.5 143.75,-73"/>
<text text-anchor="middle" x="125.25" y="-59.5" font-family="Helvetica,sans-Serif" font-size="10.00">log.h</text>
</a>
</g>
</g>
<!-- Node1&#45;&gt;Node4 -->
<g id="edge3_Node000001_Node000004" class="edge">
<title>Node1&#45;&gt;Node4</title>
<g id="a_edge3_Node000001_Node000004"><a xlink:title=" ">
<path fill="none" stroke="#63b8ff" d="M86.01,-108.58C92.51,-101.32 101.99,-90.73 110,-81.78"/>
<polygon fill="#63b8ff" stroke="#63b8ff" points="112.56,-84.17 116.62,-74.39 107.35,-79.5 112.56,-84.17"/>
</a>
</g>
</g>
<!-- Node4&#45;&gt;Node3 -->
<g id="edge4_Node000004_Node000003" class="edge">
<title>Node4&#45;&gt;Node3</title>
<g id="a_edge4_Node000004_Node000003"><a xlink:title=" ">
<path fill="none" stroke="#63b8ff" d="M117.49,-54.08C110.99,-46.82 101.51,-36.23 93.5,-27.28"/>
<polygon fill="#63b8ff" stroke="#63b8ff" points="96.15,-25 86.88,-19.89 90.94,-29.67 96.15,-25"/>
</a>
</g>
</g>
<!-- Node5 -->
<g id="Node000005" class="node">
<title>Node5</title>
<g id="a_Node000005"><a xlink:title=" ">
<polygon fill="#e0e0e0" stroke="#999999" points="170.5,-18.5 120,-18.5 120,0 170.5,0 170.5,-18.5"/>
<text text-anchor="middle" x="145.25" y="-5" font-family="Helvetica,sans-Serif" font-size="10.00">config.h</text>
</a>
</g>
</g>
<!-- Node4&#45;&gt;Node5 -->
<g id="edge5_Node000004_Node000005" class="edge">
<title>Node4&#45;&gt;Node5</title>
<g id="a_edge5_Node000004_Node000005"><a xlink:title=" ">
<path fill="none" stroke="#63b8ff" d="M128.55,-54.08C131.12,-47.35 134.76,-37.77 138,-29.29"/>
<polygon fill="#63b8ff" stroke="#63b8ff" points="141.18,-30.76 141.47,-20.17 134.64,-28.27 141.18,-30.76"/>
</a>
</g>
</g>
</g>
</svg>
