<?xml version="1.0" encoding="UTF-8" standalone="no"?>
<!DOCTYPE svg PUBLIC "-//W3C//DTD SVG 1.1//EN"
 "http://www.w3.org/Graphics/SVG/1.1/DTD/svg11.dtd">
<!-- Generated by graphviz version 12.1.0 (20240811.2233)
 -->
<!-- Title: src/in.h Pages: 1 -->
<svg width="148pt" height="136pt"
 viewBox="0.00 0.00 147.88 135.50" xmlns="http://www.w3.org/2000/svg" xmlns:xlink="http://www.w3.org/1999/xlink">
<g id="graph0" class="graph" transform="scale(1 1) rotate(0) translate(4 131.5)">
<title>src/in.h</title>
<!-- Node1 -->
<g id="Node000001" class="node">
<title>Node1</title>
<g id="a_Node000001"><a xlink:title="libyang input structures and functions">
<polygon fill="#999999" stroke="#666666" points="75.75,-127.5 27.5,-127.5 27.5,-109 75.75,-109 75.75,-127.5"/>
<text text-anchor="middle" x="51.62" y="-114" font-family="Helvetica,sans-Serif" font-size="10.00">src/in.h</text>
</a>
</g>
</g>
<!-- Node2 -->
<g id="Node000002" class="node">
<title>Node2</title>
<g id="a_Node000002"><a xlink:title=" ">
<polygon fill="#e0e0e0" stroke="#999999" points="45.25,-73 0,-73 0,-54.5 45.25,-54.5 45.25,-73"/>
<text text-anchor="middle" x="22.62" y="-59.5" font-family="Helvetica,sans-Serif" font-size="10.00">stdio.h</text>
</a>
</g>
</g>
<!-- Node1&#45;&gt;Node2 -->
<g id="edge1_Node000001_Node000002" class="edge">
<title>Node1&#45;&gt;Node2</title>
<g id="a_edge1_Node000001_Node000002"><a xlink:title=" ">
<path fill="none" stroke="#63b8ff" d="M46.84,-108.58C43.04,-101.7 37.59,-91.84 32.82,-83.21"/>
<polygon fill="#63b8ff" stroke="#63b8ff" points="35.96,-81.64 28.06,-74.58 29.83,-85.03 35.96,-81.64"/>
</a>
</g>
</g>
<!-- Node3 -->
<g id="Node000003" class="node">
<title>Node3</title>
<g id="a_Node000003"><a xlink:href="log_8h.html" target="_top" xlink:title="Logger manipulation routines and error definitions.">
<polygon fill="white" stroke="#666666" points="100.12,-73 63.12,-73 63.12,-54.5 100.12,-54.5 100.12,-73"/>
<text text-anchor="middle" x="81.62" y="-59.5" font-family="Helvetica,sans-Serif" font-size="10.00">log.h</text>
</a>
</g>
</g>
<!-- Node1&#45;&gt;Node3 -->
<g id="edge2_Node000001_Node000003" class="edge">
<title>Node1&#45;&gt;Node3</title>
<g id="a_edge2_Node000001_Node000003"><a xlink:title=" ">
<path fill="none" stroke="#63b8ff" d="M56.58,-108.58C60.51,-101.7 66.15,-91.84 71.08,-83.21"/>
<polygon fill="#63b8ff" stroke="#63b8ff" points="74.09,-84.99 76.01,-74.57 68.01,-81.52 74.09,-84.99"/>
</a>
</g>
</g>
<!-- Node4 -->
<g id="Node000004" class="node">
<title>Node4</title>
<g id="a_Node000004"><a xlink:title=" ">
<polygon fill="#e0e0e0" stroke="#999999" points="71.38,-18.5 23.88,-18.5 23.88,0 71.38,0 71.38,-18.5"/>
<text text-anchor="middle" x="47.62" y="-5" font-family="Helvetica,sans-Serif" font-size="10.00">stdint.h</text>
</a>
</g>
</g>
<!-- Node3&#45;&gt;Node4 -->
<g id="edge3_Node000003_Node000004" class="edge">
<title>Node3&#45;&gt;Node4</title>
<g id="a_edge3_Node000003_Node000004"><a xlink:title=" ">
<path fill="none" stroke="#63b8ff" d="M76.01,-54.08C71.51,-47.12 65.02,-37.12 59.39,-28.42"/>
<polygon fill="#63b8ff" stroke="#63b8ff" points="62.33,-26.52 53.96,-20.03 56.46,-30.32 62.33,-26.52"/>
</a>
</g>
</g>
<!-- Node5 -->
<g id="Node000005" class="node">
<title>Node5</title>
<g id="a_Node000005"><a xlink:title=" ">
<polygon fill="#e0e0e0" stroke="#999999" points="139.88,-18.5 89.38,-18.5 89.38,0 139.88,0 139.88,-18.5"/>
<text text-anchor="middle" x="114.62" y="-5" font-family="Helvetica,sans-Serif" font-size="10.00">config.h</text>
</a>
</g>
</g>
<!-- Node3&#45;&gt;Node5 -->
<g id="edge4_Node000003_Node000005" class="edge">
<title>Node3&#45;&gt;Node5</title>
<g id="a_edge4_Node000003_Node000005"><a xlink:title=" ">
<path fill="none" stroke="#63b8ff" d="M87.07,-54.08C91.45,-47.12 97.74,-37.12 103.2,-28.42"/>
<polygon fill="#63b8ff" stroke="#63b8ff" points="106.11,-30.37 108.47,-20.04 100.19,-26.64 106.11,-30.37"/>
</a>
</g>
</g>
</g>
</svg>
