<?xml version="1.0" encoding="UTF-8" standalone="no"?>
<!DOCTYPE svg PUBLIC "-//W3C//DTD SVG 1.1//EN"
 "http://www.w3.org/Graphics/SVG/1.1/DTD/svg11.dtd">
<!-- Generated by graphviz version 12.1.0 (20240811.2233)
 -->
<!-- Title: src/libyang.h Pages: 1 -->
<svg width="1290pt" height="408pt"
 viewBox="0.00 0.00 1290.00 408.00" xmlns="http://www.w3.org/2000/svg" xmlns:xlink="http://www.w3.org/1999/xlink">
<g id="graph0" class="graph" transform="scale(1 1) rotate(0) translate(4 404)">
<title>src/libyang.h</title>
<!-- Node1 -->
<g id="Node000001" class="node">
<title>Node1</title>
<g id="a_Node000001"><a xlink:title="The main libyang public header.">
<polygon fill="#999999" stroke="#666666" points="704.38,-400 633.62,-400 633.62,-381.5 704.38,-381.5 704.38,-400"/>
<text text-anchor="middle" x="669" y="-386.5" font-family="Helvetica,sans-Serif" font-size="10.00">src/libyang.h</text>
</a>
</g>
</g>
<!-- Node2 -->
<g id="Node000002" class="node">
<title>Node2</title>
<g id="a_Node000002"><a xlink:title=" ">
<polygon fill="#e0e0e0" stroke="#999999" points="858.75,-18.5 811.25,-18.5 811.25,0 858.75,0 858.75,-18.5"/>
<text text-anchor="middle" x="835" y="-5" font-family="Helvetica,sans-Serif" font-size="10.00">stdint.h</text>
</a>
</g>
</g>
<!-- Node1&#45;&gt;Node2 -->
<g id="edge1_Node000001_Node000002" class="edge">
<title>Node1&#45;&gt;Node2</title>
<g id="a_edge1_Node000001_Node000002"><a xlink:title=" ">
<path fill="none" stroke="#63b8ff" d="M704.74,-388.35C803.08,-384.22 1076.04,-370.75 1162,-345.5 1219.75,-328.54 1282,-342.94 1282,-282.75 1282,-282.75 1282,-282.75 1282,-117.25 1282,-79.57 1258.54,-71.67 1225,-54.5 1163.5,-23.01 954.73,-13.65 870.59,-11.11"/>
<polygon fill="#63b8ff" stroke="#63b8ff" points="870.72,-7.61 860.62,-10.83 870.52,-14.61 870.72,-7.61"/>
</a>
</g>
</g>
<!-- Node3 -->
<g id="Node000003" class="node">
<title>Node3</title>
<g id="a_Node000003"><a xlink:href="context_8h.html" target="_top" xlink:title="internal context structures and functions">
<polygon fill="white" stroke="#666666" points="580.88,-236.5 525.12,-236.5 525.12,-218 580.88,-218 580.88,-236.5"/>
<text text-anchor="middle" x="553" y="-223" font-family="Helvetica,sans-Serif" font-size="10.00">context.h</text>
</a>
</g>
</g>
<!-- Node1&#45;&gt;Node3 -->
<g id="edge2_Node000001_Node000003" class="edge">
<title>Node1&#45;&gt;Node3</title>
<g id="a_edge2_Node000001_Node000003"><a xlink:title=" ">
<path fill="none" stroke="#63b8ff" d="M649.39,-381.04C634.38,-373.51 614.11,-361.34 601,-345.5 576.76,-316.2 563.37,-273.01 557.23,-248.05"/>
<polygon fill="#63b8ff" stroke="#63b8ff" points="560.64,-247.26 555,-238.3 553.82,-248.83 560.64,-247.26"/>
</a>
</g>
</g>
<!-- Node4 -->
<g id="Node000004" class="node">
<title>Node4</title>
<g id="a_Node000004"><a xlink:href="log_8h.html" target="_top" xlink:title="Logger manipulation routines and error definitions.">
<polygon fill="white" stroke="#666666" points="643.5,-73 606.5,-73 606.5,-54.5 643.5,-54.5 643.5,-73"/>
<text text-anchor="middle" x="625" y="-59.5" font-family="Helvetica,sans-Serif" font-size="10.00">log.h</text>
</a>
</g>
</g>
<!-- Node1&#45;&gt;Node4 -->
<g id="edge33_Node000001_Node000004" class="edge">
<title>Node1&#45;&gt;Node4</title>
<g id="a_edge33_Node000001_Node000004"><a xlink:title=" ">
<path fill="none" stroke="#63b8ff" d="M669,-381.15C669,-362.98 669,-319.35 669,-282.75 669,-282.75 669,-282.75 669,-226.25 669,-211.93 642.91,-123.89 630.91,-84.17"/>
<polygon fill="#63b8ff" stroke="#63b8ff" points="634.31,-83.32 628.06,-74.77 627.61,-85.36 634.31,-83.32"/>
</a>
</g>
</g>
<!-- Node6 -->
<g id="Node000006" class="node">
<title>Node6</title>
<g id="a_Node000006"><a xlink:href="parser__schema_8h.html" target="_top" xlink:title="Schema parsers for libyang.">
<polygon fill="white" stroke="#666666" points="640.88,-182 549.12,-182 549.12,-163.5 640.88,-163.5 640.88,-182"/>
<text text-anchor="middle" x="595" y="-168.5" font-family="Helvetica,sans-Serif" font-size="10.00">parser_schema.h</text>
</a>
</g>
</g>
<!-- Node1&#45;&gt;Node6 -->
<g id="edge51_Node000001_Node000006" class="edge">
<title>Node1&#45;&gt;Node6</title>
<g id="a_edge51_Node000001_Node000006"><a xlink:title=" ">
<path fill="none" stroke="#63b8ff" d="M666.01,-381.02C655.06,-349.06 617.02,-238.03 601.59,-192.98"/>
<polygon fill="#63b8ff" stroke="#63b8ff" points="604.99,-192.11 598.44,-183.79 598.37,-194.38 604.99,-192.11"/>
</a>
</g>
</g>
<!-- Node7 -->
<g id="Node000007" class="node">
<title>Node7</title>
<g id="a_Node000007"><a xlink:href="tree__data_8h.html" target="_top" xlink:title="libyang representation of YANG data trees.">
<polygon fill="white" stroke="#666666" points="426.38,-182 361.62,-182 361.62,-163.5 426.38,-163.5 426.38,-182"/>
<text text-anchor="middle" x="394" y="-168.5" font-family="Helvetica,sans-Serif" font-size="10.00">tree_data.h</text>
</a>
</g>
</g>
<!-- Node1&#45;&gt;Node7 -->
<g id="edge67_Node000001_Node000007" class="edge">
<title>Node1&#45;&gt;Node7</title>
<g id="a_edge67_Node000001_Node000007"><a xlink:title=" ">
<path fill="none" stroke="#63b8ff" d="M648.94,-381.08C631.18,-373 604.9,-360.03 584,-345.5 513.25,-296.32 440.74,-223.18 409.68,-190.54"/>
<polygon fill="#63b8ff" stroke="#63b8ff" points="412.5,-188.43 403.09,-183.56 407.41,-193.23 412.5,-188.43"/>
</a>
</g>
</g>
<!-- Node11 -->
<g id="Node000011" class="node">
<title>Node11</title>
<g id="a_Node000011"><a xlink:href="tree_8h.html" target="_top" xlink:title="libyang generic macros and functions to work with YANG schema or data trees.">
<polygon fill="white" stroke="#666666" points="64.38,-73 23.62,-73 23.62,-54.5 64.38,-54.5 64.38,-73"/>
<text text-anchor="middle" x="44" y="-59.5" font-family="Helvetica,sans-Serif" font-size="10.00">tree.h</text>
</a>
</g>
</g>
<!-- Node1&#45;&gt;Node11 -->
<g id="edge66_Node000001_Node000011" class="edge">
<title>Node1&#45;&gt;Node11</title>
<g id="a_edge66_Node000001_Node000011"><a xlink:title=" ">
<path fill="none" stroke="#63b8ff" d="M633.47,-388.61C528.67,-384.97 222.13,-372.28 126,-345.5 65.73,-328.71 0,-345.31 0,-282.75 0,-282.75 0,-282.75 0,-171.75 0,-138.4 18.51,-103.29 31.52,-82.74"/>
<polygon fill="#63b8ff" stroke="#63b8ff" points="34.26,-84.94 36.86,-74.67 28.42,-81.08 34.26,-84.94"/>
</a>
</g>
</g>
<!-- Node13 -->
<g id="Node000013" class="node">
<title>Node13</title>
<g id="a_Node000013"><a xlink:href="tree__schema_8h.html" target="_top" xlink:title="libyang representation of YANG schema trees.">
<polygon fill="white" stroke="#666666" points="152.25,-127.5 71.75,-127.5 71.75,-109 152.25,-109 152.25,-127.5"/>
<text text-anchor="middle" x="112" y="-114" font-family="Helvetica,sans-Serif" font-size="10.00">tree_schema.h</text>
</a>
</g>
</g>
<!-- Node1&#45;&gt;Node13 -->
<g id="edge68_Node000001_Node000013" class="edge">
<title>Node1&#45;&gt;Node13</title>
<g id="a_edge68_Node000001_Node000013"><a xlink:title=" ">
<path fill="none" stroke="#63b8ff" d="M633.27,-387.5C499.78,-378.64 38,-343.58 38,-282.75 38,-282.75 38,-282.75 38,-226.25 38,-188.31 69.87,-154.08 91.78,-135.04"/>
<polygon fill="#63b8ff" stroke="#63b8ff" points="93.82,-137.89 99.27,-128.81 89.35,-132.51 93.82,-137.89"/>
</a>
</g>
</g>
<!-- Node16 -->
<g id="Node000016" class="node">
<title>Node16</title>
<g id="a_Node000016"><a xlink:href="dict_8h.html" target="_top" xlink:title="libyang dictionary">
<polygon fill="white" stroke="#666666" points="750.62,-182 711.38,-182 711.38,-163.5 750.62,-163.5 750.62,-182"/>
<text text-anchor="middle" x="731" y="-168.5" font-family="Helvetica,sans-Serif" font-size="10.00">dict.h</text>
</a>
</g>
</g>
<!-- Node1&#45;&gt;Node16 -->
<g id="edge25_Node000001_Node000016" class="edge">
<title>Node1&#45;&gt;Node16</title>
<g id="a_edge25_Node000001_Node000016"><a xlink:title=" ">
<path fill="none" stroke="#63b8ff" d="M671.77,-381.29C674.66,-372.41 679.27,-358.01 683,-345.5 699.38,-290.49 717.21,-225.08 725.8,-193.19"/>
<polygon fill="#63b8ff" stroke="#63b8ff" points="729.1,-194.38 728.31,-183.82 722.34,-192.57 729.1,-194.38"/>
</a>
</g>
</g>
<!-- Node18 -->
<g id="Node000018" class="node">
<title>Node18</title>
<g id="a_Node000018"><a xlink:href="in_8h.html" target="_top" xlink:title="libyang input structures and functions">
<polygon fill="white" stroke="#666666" points="1025.88,-127.5 994.12,-127.5 994.12,-109 1025.88,-109 1025.88,-127.5"/>
<text text-anchor="middle" x="1010" y="-114" font-family="Helvetica,sans-Serif" font-size="10.00">in.h</text>
</a>
</g>
</g>
<!-- Node1&#45;&gt;Node18 -->
<g id="edge30_Node000001_Node000018" class="edge">
<title>Node1&#45;&gt;Node18</title>
<g id="a_edge30_Node000001_Node000018"><a xlink:title=" ">
<path fill="none" stroke="#63b8ff" d="M704.65,-383.72C779.46,-370.07 946,-333.92 946,-282.75 946,-282.75 946,-282.75 946,-226.25 946,-190.02 973.36,-155.43 992.3,-135.82"/>
<polygon fill="#63b8ff" stroke="#63b8ff" points="994.56,-138.5 999.2,-128.98 989.64,-133.53 994.56,-138.5"/>
</a>
</g>
</g>
<!-- Node19 -->
<g id="Node000019" class="node">
<title>Node19</title>
<g id="a_Node000019"><a xlink:href="metadata_8h.html" target="_top" xlink:title="ietf&#45;yang&#45;metadata API">
<polygon fill="white" stroke="#666666" points="469.38,-345.5 404.62,-345.5 404.62,-327 469.38,-327 469.38,-345.5"/>
<text text-anchor="middle" x="437" y="-332" font-family="Helvetica,sans-Serif" font-size="10.00">metadata.h</text>
</a>
</g>
</g>
<!-- Node1&#45;&gt;Node19 -->
<g id="edge34_Node000001_Node000019" class="edge">
<title>Node1&#45;&gt;Node19</title>
<g id="a_edge34_Node000001_Node000019"><a xlink:title=" ">
<path fill="none" stroke="#63b8ff" d="M633.26,-381.66C592.22,-372.37 524.89,-357.14 480.75,-347.15"/>
<polygon fill="#63b8ff" stroke="#63b8ff" points="481.78,-343.8 471.26,-345 480.24,-350.62 481.78,-343.8"/>
</a>
</g>
</g>
<!-- Node21 -->
<g id="Node000021" class="node">
<title>Node21</title>
<g id="a_Node000021"><a xlink:href="parser__data_8h.html" target="_top" xlink:title="Data parsers for libyang.">
<polygon fill="white" stroke="#666666" points="410,-236.5 334,-236.5 334,-218 410,-218 410,-236.5"/>
<text text-anchor="middle" x="372" y="-223" font-family="Helvetica,sans-Serif" font-size="10.00">parser_data.h</text>
</a>
</g>
</g>
<!-- Node1&#45;&gt;Node21 -->
<g id="edge50_Node000001_Node000021" class="edge">
<title>Node1&#45;&gt;Node21</title>
<g id="a_edge50_Node000001_Node000021"><a xlink:title=" ">
<path fill="none" stroke="#63b8ff" d="M633.35,-388.85C567.26,-386.42 429.39,-377.54 396,-345.5 369.71,-320.27 368.18,-274.58 369.82,-248.31"/>
<polygon fill="#63b8ff" stroke="#63b8ff" points="373.3,-248.62 370.69,-238.35 366.33,-248.01 373.3,-248.62"/>
</a>
</g>
</g>
<!-- Node25 -->
<g id="Node000025" class="node">
<title>Node25</title>
<g id="a_Node000025"><a xlink:href="out_8h.html" target="_top" xlink:title="libyang output structures and functions">
<polygon fill="white" stroke="#666666" points="1195.5,-127.5 1158.5,-127.5 1158.5,-109 1195.5,-109 1195.5,-127.5"/>
<text text-anchor="middle" x="1177" y="-114" font-family="Helvetica,sans-Serif" font-size="10.00">out.h</text>
</a>
</g>
</g>
<!-- Node1&#45;&gt;Node25 -->
<g id="edge46_Node000001_Node000025" class="edge">
<title>Node1&#45;&gt;Node25</title>
<g id="a_edge46_Node000001_Node000025"><a xlink:title=" ">
<path fill="none" stroke="#63b8ff" d="M704.71,-388.77C775.88,-386.19 940.09,-377.03 1074,-345.5 1152.4,-327.04 1244,-363.29 1244,-282.75 1244,-282.75 1244,-282.75 1244,-226.25 1244,-189.57 1215.36,-155.11 1195.53,-135.66"/>
<polygon fill="#63b8ff" stroke="#63b8ff" points="1197.97,-133.14 1188.28,-128.85 1193.18,-138.25 1197.97,-133.14"/>
</a>
</g>
</g>
<!-- Node27 -->
<g id="Node000027" class="node">
<title>Node27</title>
<g id="a_Node000027"><a xlink:href="printer__data_8h.html" target="_top" xlink:title="Data printers for libyang.">
<polygon fill="white" stroke="#666666" points="1153.62,-236.5 1078.38,-236.5 1078.38,-218 1153.62,-218 1153.62,-236.5"/>
<text text-anchor="middle" x="1116" y="-223" font-family="Helvetica,sans-Serif" font-size="10.00">printer_data.h</text>
</a>
</g>
</g>
<!-- Node1&#45;&gt;Node27 -->
<g id="edge52_Node000001_Node000027" class="edge">
<title>Node1&#45;&gt;Node27</title>
<g id="a_edge52_Node000001_Node000027"><a xlink:title=" ">
<path fill="none" stroke="#63b8ff" d="M704.61,-389.65C788.14,-388.79 993.86,-382.84 1050,-345.5 1084.59,-322.5 1102.97,-274.87 1110.97,-247.93"/>
<polygon fill="#63b8ff" stroke="#63b8ff" points="1114.34,-248.9 1113.61,-238.33 1107.59,-247.04 1114.34,-248.9"/>
</a>
</g>
</g>
<!-- Node28 -->
<g id="Node000028" class="node">
<title>Node28</title>
<g id="a_Node000028"><a xlink:href="printer__schema_8h.html" target="_top" xlink:title="Schema printers for libyang.">
<polygon fill="white" stroke="#666666" points="1099.5,-182 1008.5,-182 1008.5,-163.5 1099.5,-163.5 1099.5,-182"/>
<text text-anchor="middle" x="1054" y="-168.5" font-family="Helvetica,sans-Serif" font-size="10.00">printer_schema.h</text>
</a>
</g>
</g>
<!-- Node1&#45;&gt;Node28 -->
<g id="edge58_Node000001_Node000028" class="edge">
<title>Node1&#45;&gt;Node28</title>
<g id="a_edge58_Node000001_Node000028"><a xlink:title=" ">
<path fill="none" stroke="#63b8ff" d="M704.79,-388.22C773.21,-384.68 919.38,-373.92 960,-345.5 1013.57,-308.02 1039.7,-229.92 1049.39,-193.39"/>
<polygon fill="#63b8ff" stroke="#63b8ff" points="1052.76,-194.35 1051.78,-183.8 1045.96,-192.65 1052.76,-194.35"/>
</a>
</g>
</g>
<!-- Node29 -->
<g id="Node000029" class="node">
<title>Node29</title>
<g id="a_Node000029"><a xlink:href="set_8h.html" target="_top" xlink:title="Generic set structure and manipulation routines.">
<polygon fill="white" stroke="#666666" points="976.5,-127.5 939.5,-127.5 939.5,-109 976.5,-109 976.5,-127.5"/>
<text text-anchor="middle" x="958" y="-114" font-family="Helvetica,sans-Serif" font-size="10.00">set.h</text>
</a>
</g>
</g>
<!-- Node1&#45;&gt;Node29 -->
<g id="edge63_Node000001_Node000029" class="edge">
<title>Node1&#45;&gt;Node29</title>
<g id="a_edge63_Node000001_Node000029"><a xlink:title=" ">
<path fill="none" stroke="#63b8ff" d="M699.63,-381.03C740.28,-367.36 807,-336.71 807,-282.75 807,-282.75 807,-282.75 807,-226.25 807,-167.41 884.27,-138 928.26,-126.02"/>
<polygon fill="#63b8ff" stroke="#63b8ff" points="928.9,-129.47 937.72,-123.59 927.16,-122.69 928.9,-129.47"/>
</a>
</g>
</g>
<!-- Node3&#45;&gt;Node2 -->
<g id="edge3_Node000003_Node000002" class="edge">
<title>Node3&#45;&gt;Node2</title>
<g id="a_edge3_Node000003_Node000002"><a xlink:title=" ">
<path fill="none" stroke="#63b8ff" d="M547.66,-217.85C540.74,-205.94 529.98,-183.36 534,-163.5 545.14,-108.44 550.26,-84.11 598,-54.5 631.21,-33.9 742.05,-19.81 799.62,-13.69"/>
<polygon fill="#63b8ff" stroke="#63b8ff" points="799.95,-17.18 809.54,-12.66 799.23,-10.21 799.95,-17.18"/>
</a>
</g>
</g>
<!-- Node3&#45;&gt;Node4 -->
<g id="edge4_Node000003_Node000004" class="edge">
<title>Node3&#45;&gt;Node4</title>
<g id="a_edge4_Node000003_Node000004"><a xlink:title=" ">
<path fill="none" stroke="#63b8ff" d="M548.4,-217.91C542.29,-205.67 533.03,-182.27 540,-163.5 552.9,-128.74 584.12,-98.01 604.92,-80.4"/>
<polygon fill="#63b8ff" stroke="#63b8ff" points="606.94,-83.27 612.47,-74.22 602.51,-77.85 606.94,-83.27"/>
</a>
</g>
</g>
<!-- Node3&#45;&gt;Node6 -->
<g id="edge7_Node000003_Node000006" class="edge">
<title>Node3&#45;&gt;Node6</title>
<g id="a_edge7_Node000003_Node000006"><a xlink:title=" ">
<path fill="none" stroke="#63b8ff" d="M559.94,-217.58C565.68,-210.39 574.04,-199.95 581.15,-191.07"/>
<polygon fill="#63b8ff" stroke="#63b8ff" points="583.73,-193.44 587.25,-183.44 578.27,-189.06 583.73,-193.44"/>
</a>
</g>
</g>
<!-- Node3&#45;&gt;Node7 -->
<g id="edge9_Node000003_Node000007" class="edge">
<title>Node3&#45;&gt;Node7</title>
<g id="a_edge9_Node000003_Node000007"><a xlink:title=" ">
<path fill="none" stroke="#63b8ff" d="M526.74,-217.58C500.62,-208.96 460.3,-195.64 430.95,-185.95"/>
<polygon fill="#63b8ff" stroke="#63b8ff" points="432.33,-182.72 421.73,-182.91 430.13,-189.37 432.33,-182.72"/>
</a>
</g>
</g>
<!-- Node4&#45;&gt;Node2 -->
<g id="edge5_Node000004_Node000002" class="edge">
<title>Node4&#45;&gt;Node2</title>
<g id="a_edge5_Node000004_Node000002"><a xlink:title=" ">
<path fill="none" stroke="#63b8ff" d="M643.64,-58.09C678.73,-49.32 755.11,-30.22 800.04,-18.99"/>
<polygon fill="#63b8ff" stroke="#63b8ff" points="800.69,-22.44 809.54,-16.62 798.99,-15.65 800.69,-22.44"/>
</a>
</g>
</g>
<!-- Node5 -->
<g id="Node000005" class="node">
<title>Node5</title>
<g id="a_Node000005"><a xlink:title=" ">
<polygon fill="#e0e0e0" stroke="#999999" points="281.25,-18.5 230.75,-18.5 230.75,0 281.25,0 281.25,-18.5"/>
<text text-anchor="middle" x="256" y="-5" font-family="Helvetica,sans-Serif" font-size="10.00">config.h</text>
</a>
</g>
</g>
<!-- Node4&#45;&gt;Node5 -->
<g id="edge6_Node000004_Node000005" class="edge">
<title>Node4&#45;&gt;Node5</title>
<g id="a_edge6_Node000004_Node000005"><a xlink:title=" ">
<path fill="none" stroke="#63b8ff" d="M606.19,-60.07C548.01,-51.8 370.21,-26.5 292.73,-15.48"/>
<polygon fill="#63b8ff" stroke="#63b8ff" points="293.51,-12.05 283.12,-14.11 292.53,-18.98 293.51,-12.05"/>
</a>
</g>
</g>
<!-- Node6&#45;&gt;Node4 -->
<g id="edge8_Node000006_Node000004" class="edge">
<title>Node6&#45;&gt;Node4</title>
<g id="a_edge8_Node000006_Node000004"><a xlink:title=" ">
<path fill="none" stroke="#63b8ff" d="M597.02,-163.18C599.92,-151.06 605.51,-128.24 611,-109 613.35,-100.76 616.16,-91.74 618.65,-84"/>
<polygon fill="#63b8ff" stroke="#63b8ff" points="621.93,-85.22 621.7,-74.63 615.28,-83.05 621.93,-85.22"/>
</a>
</g>
</g>
<!-- Node7&#45;&gt;Node2 -->
<g id="edge12_Node000007_Node000002" class="edge">
<title>Node7&#45;&gt;Node2</title>
<g id="a_edge12_Node000007_Node000002"><a xlink:title=" ">
<path fill="none" stroke="#63b8ff" d="M398.19,-163.16C410.9,-137.27 448.76,-61.37 459,-54.5 514.21,-17.46 716.97,-11.33 799.6,-10.39"/>
<polygon fill="#63b8ff" stroke="#63b8ff" points="799.4,-13.89 809.37,-10.29 799.34,-6.89 799.4,-13.89"/>
</a>
</g>
</g>
<!-- Node7&#45;&gt;Node4 -->
<g id="edge15_Node000007_Node000004" class="edge">
<title>Node7&#45;&gt;Node4</title>
<g id="a_edge15_Node000007_Node000004"><a xlink:title=" ">
<path fill="none" stroke="#63b8ff" d="M412.51,-163.17C452.64,-144.59 547.89,-100.47 596.05,-78.16"/>
<polygon fill="#63b8ff" stroke="#63b8ff" points="597.42,-81.38 605.03,-74 594.48,-75.03 597.42,-81.38"/>
</a>
</g>
</g>
<!-- Node7&#45;&gt;Node5 -->
<g id="edge14_Node000007_Node000005" class="edge">
<title>Node7&#45;&gt;Node5</title>
<g id="a_edge14_Node000007_Node000005"><a xlink:title=" ">
<path fill="none" stroke="#63b8ff" d="M361.3,-168.55C333.98,-164.06 296.2,-153.3 275,-127.5 252.26,-99.82 251.63,-55.71 253.58,-30.22"/>
<polygon fill="#63b8ff" stroke="#63b8ff" points="257.06,-30.58 254.58,-20.28 250.1,-29.88 257.06,-30.58"/>
</a>
</g>
</g>
<!-- Node8 -->
<g id="Node000008" class="node">
<title>Node8</title>
<g id="a_Node000008"><a xlink:title=" ">
<polygon fill="#e0e0e0" stroke="#999999" points="406.88,-127.5 345.12,-127.5 345.12,-109 406.88,-109 406.88,-127.5"/>
<text text-anchor="middle" x="376" y="-114" font-family="Helvetica,sans-Serif" font-size="10.00">arpa/inet.h</text>
</a>
</g>
</g>
<!-- Node7&#45;&gt;Node8 -->
<g id="edge10_Node000007_Node000008" class="edge">
<title>Node7&#45;&gt;Node8</title>
<g id="a_edge10_Node000007_Node000008"><a xlink:title=" ">
<path fill="none" stroke="#63b8ff" d="M391.03,-163.08C388.75,-156.43 385.51,-146.99 382.63,-138.58"/>
<polygon fill="#63b8ff" stroke="#63b8ff" points="385.96,-137.51 379.41,-129.19 379.34,-139.78 385.96,-137.51"/>
</a>
</g>
</g>
<!-- Node9 -->
<g id="Node000009" class="node">
<title>Node9</title>
<g id="a_Node000009"><a xlink:title=" ">
<polygon fill="#e0e0e0" stroke="#999999" points="703.25,-127.5 652.75,-127.5 652.75,-109 703.25,-109 703.25,-127.5"/>
<text text-anchor="middle" x="678" y="-114" font-family="Helvetica,sans-Serif" font-size="10.00">stddef.h</text>
</a>
</g>
</g>
<!-- Node7&#45;&gt;Node9 -->
<g id="edge11_Node000007_Node000009" class="edge">
<title>Node7&#45;&gt;Node9</title>
<g id="a_edge11_Node000007_Node000009"><a xlink:title=" ">
<path fill="none" stroke="#63b8ff" d="M426.86,-165.68C480.29,-155.8 585.65,-136.32 641.4,-126.02"/>
<polygon fill="#63b8ff" stroke="#63b8ff" points="641.83,-129.5 651.02,-124.24 640.55,-122.61 641.83,-129.5"/>
</a>
</g>
</g>
<!-- Node10 -->
<g id="Node000010" class="node">
<title>Node10</title>
<g id="a_Node000010"><a xlink:title=" ">
<polygon fill="#e0e0e0" stroke="#999999" points="327.5,-127.5 284.5,-127.5 284.5,-109 327.5,-109 327.5,-127.5"/>
<text text-anchor="middle" x="306" y="-114" font-family="Helvetica,sans-Serif" font-size="10.00">time.h</text>
</a>
</g>
</g>
<!-- Node7&#45;&gt;Node10 -->
<g id="edge13_Node000007_Node000010" class="edge">
<title>Node7&#45;&gt;Node10</title>
<g id="a_edge13_Node000007_Node000010"><a xlink:title=" ">
<path fill="none" stroke="#63b8ff" d="M379.47,-163.08C366.09,-155.1 345.99,-143.11 330.2,-133.69"/>
<polygon fill="#63b8ff" stroke="#63b8ff" points="332.23,-130.83 321.85,-128.71 328.65,-136.84 332.23,-130.83"/>
</a>
</g>
</g>
<!-- Node7&#45;&gt;Node11 -->
<g id="edge16_Node000007_Node000011" class="edge">
<title>Node7&#45;&gt;Node11</title>
<g id="a_edge16_Node000007_Node000011"><a xlink:title=" ">
<path fill="none" stroke="#63b8ff" d="M361.15,-171.73C286.57,-171.01 107.44,-165.3 63,-127.5 50.65,-117 46.16,-98.76 44.61,-84.65"/>
<polygon fill="#63b8ff" stroke="#63b8ff" points="48.1,-84.45 43.97,-74.69 41.12,-84.9 48.1,-84.45"/>
</a>
</g>
</g>
<!-- Node7&#45;&gt;Node13 -->
<g id="edge18_Node000007_Node000013" class="edge">
<title>Node7&#45;&gt;Node13</title>
<g id="a_edge18_Node000007_Node000013"><a xlink:title=" ">
<path fill="none" stroke="#63b8ff" d="M361.38,-165.68C312.85,-156.64 221.21,-139.58 163.55,-128.85"/>
<polygon fill="#63b8ff" stroke="#63b8ff" points="164.46,-125.46 153.98,-127.07 163.17,-132.34 164.46,-125.46"/>
</a>
</g>
</g>
<!-- Node12 -->
<g id="Node000012" class="node">
<title>Node12</title>
<g id="a_Node000012"><a xlink:title=" ">
<polygon fill="#e0e0e0" stroke="#999999" points="73.38,-18.5 14.62,-18.5 14.62,0 73.38,0 73.38,-18.5"/>
<text text-anchor="middle" x="44" y="-5" font-family="Helvetica,sans-Serif" font-size="10.00">inttypes.h</text>
</a>
</g>
</g>
<!-- Node11&#45;&gt;Node12 -->
<g id="edge17_Node000011_Node000012" class="edge">
<title>Node11&#45;&gt;Node12</title>
<g id="a_edge17_Node000011_Node000012"><a xlink:title=" ">
<path fill="none" stroke="#63b8ff" d="M44,-54.08C44,-47.58 44,-38.42 44,-30.16"/>
<polygon fill="#63b8ff" stroke="#63b8ff" points="47.5,-30.27 44,-20.27 40.5,-30.27 47.5,-30.27"/>
</a>
</g>
</g>
<!-- Node13&#45;&gt;Node2 -->
<g id="edge20_Node000013_Node000002" class="edge">
<title>Node13&#45;&gt;Node2</title>
<g id="a_edge20_Node000013_Node000002"><a xlink:title=" ">
<path fill="none" stroke="#63b8ff" d="M148.9,-108.59C206.64,-95.3 322,-69.81 421,-54.5 560.45,-32.94 727.95,-18.53 799.64,-12.9"/>
<polygon fill="#63b8ff" stroke="#63b8ff" points="799.89,-16.39 809.59,-12.13 799.35,-9.42 799.89,-16.39"/>
</a>
</g>
</g>
<!-- Node13&#45;&gt;Node4 -->
<g id="edge23_Node000013_Node000004" class="edge">
<title>Node13&#45;&gt;Node4</title>
<g id="a_edge23_Node000013_Node000004"><a xlink:title=" ">
<path fill="none" stroke="#63b8ff" d="M152.66,-110.79C157.15,-110.15 161.67,-109.54 166,-109 327.42,-88.9 521.76,-72.83 595.07,-67.06"/>
<polygon fill="#63b8ff" stroke="#63b8ff" points="594.95,-70.58 604.65,-66.31 594.41,-63.6 594.95,-70.58"/>
</a>
</g>
</g>
<!-- Node13&#45;&gt;Node5 -->
<g id="edge22_Node000013_Node000005" class="edge">
<title>Node13&#45;&gt;Node5</title>
<g id="a_edge22_Node000013_Node000005"><a xlink:title=" ">
<path fill="none" stroke="#63b8ff" d="M112.23,-108.75C113.05,-95.44 116.54,-69.65 131,-54.5 154.09,-30.32 191.22,-19.33 219.02,-14.35"/>
<polygon fill="#63b8ff" stroke="#63b8ff" points="219.48,-17.82 228.8,-12.8 218.38,-10.91 219.48,-17.82"/>
</a>
</g>
</g>
<!-- Node13&#45;&gt;Node11 -->
<g id="edge24_Node000013_Node000011" class="edge">
<title>Node13&#45;&gt;Node11</title>
<g id="a_edge24_Node000013_Node000011"><a xlink:title=" ">
<path fill="none" stroke="#63b8ff" d="M100.77,-108.58C90.77,-100.86 75.9,-89.38 63.89,-80.11"/>
<polygon fill="#63b8ff" stroke="#63b8ff" points="66.27,-77.52 56.22,-74.18 61.99,-83.06 66.27,-77.52"/>
</a>
</g>
</g>
<!-- Node14 -->
<g id="Node000014" class="node">
<title>Node14</title>
<g id="a_Node000014"><a xlink:title=" ">
<polygon fill="#e0e0e0" stroke="#999999" points="188.12,-73 139.88,-73 139.88,-54.5 188.12,-54.5 188.12,-73"/>
<text text-anchor="middle" x="164" y="-59.5" font-family="Helvetica,sans-Serif" font-size="10.00">pcre2.h</text>
</a>
</g>
</g>
<!-- Node13&#45;&gt;Node14 -->
<g id="edge19_Node000013_Node000014" class="edge">
<title>Node13&#45;&gt;Node14</title>
<g id="a_edge19_Node000013_Node000014"><a xlink:title=" ">
<path fill="none" stroke="#63b8ff" d="M120.59,-108.58C127.93,-101.17 138.71,-90.28 147.69,-81.22"/>
<polygon fill="#63b8ff" stroke="#63b8ff" points="149.96,-83.9 154.51,-74.33 144.98,-78.98 149.96,-83.9"/>
</a>
</g>
</g>
<!-- Node15 -->
<g id="Node000015" class="node">
<title>Node15</title>
<g id="a_Node000015"><a xlink:title=" ">
<polygon fill="#e0e0e0" stroke="#999999" points="1113.62,-73 1068.38,-73 1068.38,-54.5 1113.62,-54.5 1113.62,-73"/>
<text text-anchor="middle" x="1091" y="-59.5" font-family="Helvetica,sans-Serif" font-size="10.00">stdio.h</text>
</a>
</g>
</g>
<!-- Node13&#45;&gt;Node15 -->
<g id="edge21_Node000013_Node000015" class="edge">
<title>Node13&#45;&gt;Node15</title>
<g id="a_edge21_Node000013_Node000015"><a xlink:title=" ">
<path fill="none" stroke="#63b8ff" d="M152.51,-115.08C313.77,-106.43 908.52,-74.54 1057.16,-66.56"/>
<polygon fill="#63b8ff" stroke="#63b8ff" points="1056.93,-70.08 1066.73,-66.05 1056.55,-63.09 1056.93,-70.08"/>
</a>
</g>
</g>
<!-- Node16&#45;&gt;Node2 -->
<g id="edge27_Node000016_Node000002" class="edge">
<title>Node16&#45;&gt;Node2</title>
<g id="a_edge27_Node000016_Node000002"><a xlink:title=" ">
<path fill="none" stroke="#63b8ff" d="M750.95,-166.96C770.74,-161.12 800.31,-149.21 816,-127.5 836.88,-98.61 838.22,-55.27 836.9,-30.17"/>
<polygon fill="#63b8ff" stroke="#63b8ff" points="840.4,-30.1 836.16,-20.39 833.42,-30.63 840.4,-30.1"/>
</a>
</g>
</g>
<!-- Node16&#45;&gt;Node4 -->
<g id="edge29_Node000016_Node000004" class="edge">
<title>Node16&#45;&gt;Node4</title>
<g id="a_edge29_Node000016_Node000004"><a xlink:title=" ">
<path fill="none" stroke="#63b8ff" d="M730.49,-163.03C729.29,-149.9 725.3,-124.88 712,-109 697.15,-91.27 673.42,-79.87 654.49,-73.09"/>
<polygon fill="#63b8ff" stroke="#63b8ff" points="655.75,-69.82 645.16,-70.01 653.55,-76.47 655.75,-69.82"/>
</a>
</g>
</g>
<!-- Node16&#45;&gt;Node9 -->
<g id="edge26_Node000016_Node000009" class="edge">
<title>Node16&#45;&gt;Node9</title>
<g id="a_edge26_Node000016_Node000009"><a xlink:title=" ">
<path fill="none" stroke="#63b8ff" d="M722.25,-163.08C714.76,-155.67 703.78,-144.78 694.63,-135.72"/>
<polygon fill="#63b8ff" stroke="#63b8ff" points="697.23,-133.37 687.66,-128.82 692.31,-138.35 697.23,-133.37"/>
</a>
</g>
</g>
<!-- Node17 -->
<g id="Node000017" class="node">
<title>Node17</title>
<g id="a_Node000017"><a xlink:title=" ">
<polygon fill="#e0e0e0" stroke="#999999" points="807.12,-127.5 758.88,-127.5 758.88,-109 807.12,-109 807.12,-127.5"/>
<text text-anchor="middle" x="783" y="-114" font-family="Helvetica,sans-Serif" font-size="10.00">string.h</text>
</a>
</g>
</g>
<!-- Node16&#45;&gt;Node17 -->
<g id="edge28_Node000016_Node000017" class="edge">
<title>Node16&#45;&gt;Node17</title>
<g id="a_edge28_Node000016_Node000017"><a xlink:title=" ">
<path fill="none" stroke="#63b8ff" d="M739.59,-163.08C746.93,-155.67 757.71,-144.78 766.69,-135.72"/>
<polygon fill="#63b8ff" stroke="#63b8ff" points="768.96,-138.4 773.51,-128.83 763.98,-133.48 768.96,-138.4"/>
</a>
</g>
</g>
<!-- Node18&#45;&gt;Node4 -->
<g id="edge32_Node000018_Node000004" class="edge">
<title>Node18&#45;&gt;Node4</title>
<g id="a_edge32_Node000018_Node000004"><a xlink:title=" ">
<path fill="none" stroke="#63b8ff" d="M993.87,-111.19C991.26,-110.36 988.58,-109.59 986,-109 865.15,-81.15 717.25,-69.99 654.93,-66.3"/>
<polygon fill="#63b8ff" stroke="#63b8ff" points="655.34,-62.82 645.16,-65.74 654.94,-69.81 655.34,-62.82"/>
</a>
</g>
</g>
<!-- Node18&#45;&gt;Node15 -->
<g id="edge31_Node000018_Node000015" class="edge">
<title>Node18&#45;&gt;Node15</title>
<g id="a_edge31_Node000018_Node000015"><a xlink:title=" ">
<path fill="none" stroke="#63b8ff" d="M1023.38,-108.58C1035.57,-100.68 1053.83,-88.84 1068.31,-79.46"/>
<polygon fill="#63b8ff" stroke="#63b8ff" points="1069.85,-82.63 1076.33,-74.26 1066.04,-76.76 1069.85,-82.63"/>
</a>
</g>
</g>
<!-- Node19&#45;&gt;Node7 -->
<g id="edge45_Node000019_Node000007" class="edge">
<title>Node19&#45;&gt;Node7</title>
<g id="a_edge45_Node000019_Node000007"><a xlink:title=" ">
<path fill="none" stroke="#63b8ff" d="M436.74,-326.76C435.92,-307.09 432.54,-257.12 419,-218 415.9,-209.05 411,-199.82 406.36,-192.12"/>
<polygon fill="#63b8ff" stroke="#63b8ff" points="409.33,-190.27 401,-183.72 403.43,-194.03 409.33,-190.27"/>
</a>
</g>
</g>
<!-- Node20 -->
<g id="Node000020" class="node">
<title>Node20</title>
<g id="a_Node000020"><a xlink:href="plugins__exts_8h.html" target="_top" xlink:title="libyang support for YANG extensions implementation.">
<polygon fill="white" stroke="#666666" points="289.5,-291 210.5,-291 210.5,-272.5 289.5,-272.5 289.5,-291"/>
<text text-anchor="middle" x="250" y="-277.5" font-family="Helvetica,sans-Serif" font-size="10.00">plugins_exts.h</text>
</a>
</g>
</g>
<!-- Node19&#45;&gt;Node20 -->
<g id="edge35_Node000019_Node000020" class="edge">
<title>Node19&#45;&gt;Node20</title>
<g id="a_edge35_Node000019_Node000020"><a xlink:title=" ">
<path fill="none" stroke="#63b8ff" d="M406.12,-326.58C374.86,-317.8 326.3,-304.17 291.65,-294.44"/>
<polygon fill="#63b8ff" stroke="#63b8ff" points="292.96,-291.17 282.38,-291.84 291.06,-297.91 292.96,-291.17"/>
</a>
</g>
</g>
<!-- Node20&#45;&gt;Node4 -->
<g id="edge36_Node000020_Node000004" class="edge">
<title>Node20&#45;&gt;Node4</title>
<g id="a_edge36_Node000020_Node000004"><a xlink:title=" ">
<path fill="none" stroke="#63b8ff" d="M239.57,-272.18C230.58,-264.06 218.26,-251 213,-236.5 195.88,-189.33 209.96,-145.01 257,-109 309.74,-68.62 516.76,-64.59 594.91,-64.54"/>
<polygon fill="#63b8ff" stroke="#63b8ff" points="594.78,-68.04 604.79,-64.56 594.8,-61.04 594.78,-68.04"/>
</a>
</g>
</g>
<!-- Node20&#45;&gt;Node7 -->
<g id="edge41_Node000020_Node000007" class="edge">
<title>Node20&#45;&gt;Node7</title>
<g id="a_edge41_Node000020_Node000007"><a xlink:title=" ">
<path fill="none" stroke="#63b8ff" d="M259.39,-272.23C273.3,-259.76 300.37,-236.09 325,-218 339.44,-207.39 356.37,-196.52 369.84,-188.2"/>
<polygon fill="#63b8ff" stroke="#63b8ff" points="371.37,-191.37 378.08,-183.18 367.72,-185.39 371.37,-191.37"/>
</a>
</g>
</g>
<!-- Node20&#45;&gt;Node13 -->
<g id="edge44_Node000020_Node000013" class="edge">
<title>Node20&#45;&gt;Node13</title>
<g id="a_edge44_Node000020_Node000013"><a xlink:title=" ">
<path fill="none" stroke="#63b8ff" d="M210.06,-274.87C168.91,-267.91 108.86,-254.87 95,-236.5 73.19,-207.59 89.42,-163 101.68,-137.96"/>
<polygon fill="#63b8ff" stroke="#63b8ff" points="104.67,-139.79 106.18,-129.3 98.46,-136.56 104.67,-139.79"/>
</a>
</g>
</g>
<!-- Node20&#45;&gt;Node21 -->
<g id="edge37_Node000020_Node000021" class="edge">
<title>Node20&#45;&gt;Node21</title>
<g id="a_edge37_Node000020_Node000021"><a xlink:title=" ">
<path fill="none" stroke="#63b8ff" d="M270.15,-272.08C289.57,-263.72 319.23,-250.96 341.54,-241.36"/>
<polygon fill="#63b8ff" stroke="#63b8ff" points="342.63,-244.7 350.43,-237.53 339.86,-238.27 342.63,-244.7"/>
</a>
</g>
</g>
<!-- Node22 -->
<g id="Node000022" class="node">
<title>Node22</title>
<g id="a_Node000022"><a xlink:href="plugins_8h.html" target="_top" xlink:title="Plugins manipulation.">
<polygon fill="white" stroke="#666666" points="277.5,-236.5 222.5,-236.5 222.5,-218 277.5,-218 277.5,-236.5"/>
<text text-anchor="middle" x="250" y="-223" font-family="Helvetica,sans-Serif" font-size="10.00">plugins.h</text>
</a>
</g>
</g>
<!-- Node20&#45;&gt;Node22 -->
<g id="edge39_Node000020_Node000022" class="edge">
<title>Node20&#45;&gt;Node22</title>
<g id="a_edge39_Node000020_Node000022"><a xlink:title=" ">
<path fill="none" stroke="#63b8ff" d="M250,-272.08C250,-265.58 250,-256.42 250,-248.16"/>
<polygon fill="#63b8ff" stroke="#63b8ff" points="253.5,-248.27 250,-238.27 246.5,-248.27 253.5,-248.27"/>
</a>
</g>
</g>
<!-- Node23 -->
<g id="Node000023" class="node">
<title>Node23</title>
<g id="a_Node000023"><a xlink:href="tree__edit_8h.html" target="_top" xlink:title="libyang generic macros and functions to modify YANG schema or data trees. Intended for internal use a...">
<polygon fill="white" stroke="#666666" points="165.5,-236.5 104.5,-236.5 104.5,-218 165.5,-218 165.5,-236.5"/>
<text text-anchor="middle" x="135" y="-223" font-family="Helvetica,sans-Serif" font-size="10.00">tree_edit.h</text>
</a>
</g>
</g>
<!-- Node20&#45;&gt;Node23 -->
<g id="edge42_Node000020_Node000023" class="edge">
<title>Node20&#45;&gt;Node23</title>
<g id="a_edge42_Node000020_Node000023"><a xlink:title=" ">
<path fill="none" stroke="#63b8ff" d="M231.01,-272.08C212.87,-263.8 185.25,-251.19 164.29,-241.62"/>
<polygon fill="#63b8ff" stroke="#63b8ff" points="165.95,-238.53 155.39,-237.56 163.04,-244.9 165.95,-238.53"/>
</a>
</g>
</g>
<!-- Node21&#45;&gt;Node7 -->
<g id="edge38_Node000021_Node000007" class="edge">
<title>Node21&#45;&gt;Node7</title>
<g id="a_edge38_Node000021_Node000007"><a xlink:title=" ">
<path fill="none" stroke="#63b8ff" d="M375.63,-217.58C378.45,-210.85 382.47,-201.27 386.02,-192.79"/>
<polygon fill="#63b8ff" stroke="#63b8ff" points="389.21,-194.23 389.85,-183.65 382.76,-191.52 389.21,-194.23"/>
</a>
</g>
</g>
<!-- Node22&#45;&gt;Node4 -->
<g id="edge40_Node000022_Node000004" class="edge">
<title>Node22&#45;&gt;Node4</title>
<g id="a_edge40_Node000022_Node000004"><a xlink:title=" ">
<path fill="none" stroke="#63b8ff" d="M248.84,-217.58C246.45,-195.69 243.58,-137.87 275,-109 321.34,-66.41 518.83,-63.68 594.93,-64.27"/>
<polygon fill="#63b8ff" stroke="#63b8ff" points="594.51,-67.76 604.55,-64.37 594.58,-60.76 594.51,-67.76"/>
</a>
</g>
</g>
<!-- Node24 -->
<g id="Node000024" class="node">
<title>Node24</title>
<g id="a_Node000024"><a xlink:title=" ">
<polygon fill="#e0e0e0" stroke="#999999" points="151.75,-182 104.25,-182 104.25,-163.5 151.75,-163.5 151.75,-182"/>
<text text-anchor="middle" x="128" y="-168.5" font-family="Helvetica,sans-Serif" font-size="10.00">stdlib.h</text>
</a>
</g>
</g>
<!-- Node23&#45;&gt;Node24 -->
<g id="edge43_Node000023_Node000024" class="edge">
<title>Node23&#45;&gt;Node24</title>
<g id="a_edge43_Node000023_Node000024"><a xlink:title=" ">
<path fill="none" stroke="#63b8ff" d="M133.84,-217.58C132.98,-211.08 131.76,-201.92 130.65,-193.66"/>
<polygon fill="#63b8ff" stroke="#63b8ff" points="134.13,-193.21 129.33,-183.76 127.19,-194.13 134.13,-193.21"/>
</a>
</g>
</g>
<!-- Node25&#45;&gt;Node4 -->
<g id="edge49_Node000025_Node000004" class="edge">
<title>Node25&#45;&gt;Node4</title>
<g id="a_edge49_Node000025_Node000004"><a xlink:title=" ">
<path fill="none" stroke="#63b8ff" d="M1158.32,-115.47C1077.32,-107.77 756.12,-77.22 655.38,-67.64"/>
<polygon fill="#63b8ff" stroke="#63b8ff" points="655.75,-64.16 645.47,-66.7 655.09,-71.13 655.75,-64.16"/>
</a>
</g>
</g>
<!-- Node25&#45;&gt;Node15 -->
<g id="edge47_Node000025_Node000015" class="edge">
<title>Node25&#45;&gt;Node15</title>
<g id="a_edge47_Node000025_Node000015"><a xlink:title=" ">
<path fill="none" stroke="#63b8ff" d="M1162.8,-108.58C1149.73,-100.6 1130.09,-88.61 1114.65,-79.19"/>
<polygon fill="#63b8ff" stroke="#63b8ff" points="1116.87,-76.44 1106.51,-74.22 1113.23,-82.42 1116.87,-76.44"/>
</a>
</g>
</g>
<!-- Node26 -->
<g id="Node000026" class="node">
<title>Node26</title>
<g id="a_Node000026"><a xlink:title=" ">
<polygon fill="#e0e0e0" stroke="#999999" points="1196.75,-73 1131.25,-73 1131.25,-54.5 1196.75,-54.5 1196.75,-73"/>
<text text-anchor="middle" x="1164" y="-59.5" font-family="Helvetica,sans-Serif" font-size="10.00">sys/types.h</text>
</a>
</g>
</g>
<!-- Node25&#45;&gt;Node26 -->
<g id="edge48_Node000025_Node000026" class="edge">
<title>Node25&#45;&gt;Node26</title>
<g id="a_edge48_Node000025_Node000026"><a xlink:title=" ">
<path fill="none" stroke="#63b8ff" d="M1174.85,-108.58C1173.23,-102.01 1170.92,-92.71 1168.86,-84.37"/>
<polygon fill="#63b8ff" stroke="#63b8ff" points="1172.27,-83.59 1166.47,-74.73 1165.48,-85.28 1172.27,-83.59"/>
</a>
</g>
</g>
<!-- Node27&#45;&gt;Node2 -->
<g id="edge53_Node000027_Node000002" class="edge">
<title>Node27&#45;&gt;Node2</title>
<g id="a_edge53_Node000027_Node000002"><a xlink:title=" ">
<path fill="none" stroke="#63b8ff" d="M1127.26,-217.5C1160.57,-190.63 1253.38,-107.87 1206,-54.5 1183.9,-29.6 958.62,-16.18 870.27,-11.84"/>
<polygon fill="#63b8ff" stroke="#63b8ff" points="870.66,-8.35 860.5,-11.37 870.33,-15.35 870.66,-8.35"/>
</a>
</g>
</g>
<!-- Node27&#45;&gt;Node4 -->
<g id="edge55_Node000027_Node000004" class="edge">
<title>Node27&#45;&gt;Node4</title>
<g id="a_edge55_Node000027_Node000004"><a xlink:title=" ">
<path fill="none" stroke="#63b8ff" d="M1092.86,-217.52C1069.42,-208.66 1032.14,-194.51 1000,-182 918.01,-150.1 899.98,-135.22 816,-109 760.15,-91.56 693.19,-77.59 655.22,-70.29"/>
<polygon fill="#63b8ff" stroke="#63b8ff" points="655.92,-66.86 645.44,-68.44 654.62,-73.74 655.92,-66.86"/>
</a>
</g>
</g>
<!-- Node27&#45;&gt;Node7 -->
<g id="edge57_Node000027_Node000007" class="edge">
<title>Node27&#45;&gt;Node7</title>
<g id="a_edge57_Node000027_Node000007"><a xlink:title=" ">
<path fill="none" stroke="#63b8ff" d="M1077.95,-223.48C954.99,-214.54 568.81,-186.46 437.9,-176.94"/>
<polygon fill="#63b8ff" stroke="#63b8ff" points="438.5,-173.48 428.27,-176.24 437.99,-180.46 438.5,-173.48"/>
</a>
</g>
</g>
<!-- Node27&#45;&gt;Node15 -->
<g id="edge54_Node000027_Node000015" class="edge">
<title>Node27&#45;&gt;Node15</title>
<g id="a_edge54_Node000027_Node000015"><a xlink:title=" ">
<path fill="none" stroke="#63b8ff" d="M1115.24,-217.7C1114.11,-205.6 1111.83,-182.81 1109,-163.5 1104.97,-136.06 1099,-104.58 1095.05,-84.68"/>
<polygon fill="#63b8ff" stroke="#63b8ff" points="1098.49,-84.03 1093.09,-74.92 1091.63,-85.41 1098.49,-84.03"/>
</a>
</g>
</g>
<!-- Node27&#45;&gt;Node25 -->
<g id="edge56_Node000027_Node000025" class="edge">
<title>Node27&#45;&gt;Node25</title>
<g id="a_edge56_Node000027_Node000025"><a xlink:title=" ">
<path fill="none" stroke="#63b8ff" d="M1121.79,-217.56C1127.6,-208.73 1136.72,-194.59 1144,-182 1152.4,-167.48 1161.2,-150.63 1167.61,-138.06"/>
<polygon fill="#63b8ff" stroke="#63b8ff" points="1170.67,-139.75 1172.05,-129.25 1164.42,-136.6 1170.67,-139.75"/>
</a>
</g>
</g>
<!-- Node28&#45;&gt;Node2 -->
<g id="edge59_Node000028_Node000002" class="edge">
<title>Node28&#45;&gt;Node2</title>
<g id="a_edge59_Node000028_Node000002"><a xlink:title=" ">
<path fill="none" stroke="#63b8ff" d="M1053.51,-163.01C1052.35,-149.85 1048.39,-124.8 1035,-109 991.47,-57.64 914.81,-30.49 870.11,-18.36"/>
<polygon fill="#63b8ff" stroke="#63b8ff" points="871.23,-15.04 860.67,-15.91 869.47,-21.81 871.23,-15.04"/>
</a>
</g>
</g>
<!-- Node28&#45;&gt;Node4 -->
<g id="edge61_Node000028_Node000004" class="edge">
<title>Node28&#45;&gt;Node4</title>
<g id="a_edge61_Node000028_Node000004"><a xlink:title=" ">
<path fill="none" stroke="#63b8ff" d="M1028.89,-163.15C1003.93,-154.5 964.62,-140.6 931,-127.5 911.23,-119.8 907.37,-114.92 887,-109 804.91,-85.16 704.39,-72.65 655.13,-67.56"/>
<polygon fill="#63b8ff" stroke="#63b8ff" points="655.56,-64.08 645.26,-66.57 654.86,-71.05 655.56,-64.08"/>
</a>
</g>
</g>
<!-- Node28&#45;&gt;Node15 -->
<g id="edge60_Node000028_Node000015" class="edge">
<title>Node28&#45;&gt;Node15</title>
<g id="a_edge60_Node000028_Node000015"><a xlink:title=" ">
<path fill="none" stroke="#63b8ff" d="M1056.9,-163.35C1062.76,-146.4 1076.14,-107.71 1084.29,-84.15"/>
<polygon fill="#63b8ff" stroke="#63b8ff" points="1087.55,-85.43 1087.51,-74.83 1080.94,-83.14 1087.55,-85.43"/>
</a>
</g>
</g>
<!-- Node28&#45;&gt;Node25 -->
<g id="edge62_Node000028_Node000025" class="edge">
<title>Node28&#45;&gt;Node25</title>
<g id="a_edge62_Node000028_Node000025"><a xlink:title=" ">
<path fill="none" stroke="#63b8ff" d="M1074.31,-163.08C1094.37,-154.52 1125.23,-141.35 1147.89,-131.67"/>
<polygon fill="#63b8ff" stroke="#63b8ff" points="1149.06,-134.98 1156.88,-127.84 1146.31,-128.54 1149.06,-134.98"/>
</a>
</g>
</g>
<!-- Node29&#45;&gt;Node2 -->
<g id="edge64_Node000029_Node000002" class="edge">
<title>Node29&#45;&gt;Node2</title>
<g id="a_edge64_Node000029_Node000002"><a xlink:title=" ">
<path fill="none" stroke="#63b8ff" d="M948.35,-108.85C927.88,-91.05 879.84,-49.25 853.34,-26.21"/>
<polygon fill="#63b8ff" stroke="#63b8ff" points="855.93,-23.82 846.09,-19.9 851.34,-29.1 855.93,-23.82"/>
</a>
</g>
</g>
<!-- Node29&#45;&gt;Node4 -->
<g id="edge65_Node000029_Node000004" class="edge">
<title>Node29&#45;&gt;Node4</title>
<g id="a_edge65_Node000029_Node000004"><a xlink:title=" ">
<path fill="none" stroke="#63b8ff" d="M939.22,-112.22C934.59,-111.07 929.63,-109.92 925,-109 826.82,-89.54 709,-74.58 654.87,-68.17"/>
<polygon fill="#63b8ff" stroke="#63b8ff" points="655.56,-64.72 645.22,-67.04 654.74,-71.68 655.56,-64.72"/>
</a>
</g>
</g>
</g>
</svg>
