<?xml version="1.0" encoding="UTF-8" standalone="no"?>
<!DOCTYPE svg PUBLIC "-//W3C//DTD SVG 1.1//EN"
 "http://www.w3.org/Graphics/SVG/1.1/DTD/svg11.dtd">
<!-- Generated by graphviz version 12.1.0 (20240811.2233)
 -->
<!-- Title: src/plugins_exts/metadata.h Pages: 1 -->
<!--zoomable 354 -->

<svg id="main" version="1.1" xmlns="http://www.w3.org/2000/svg" xmlns:xlink="http://www.w3.org/1999/xlink" xml:space="preserve" onload="init(evt)">

<style type="text/css"><![CDATA[
.node, .edge {opacity: 0.7;}
.node.selected, .edge.selected {opacity: 1;}
.edge:hover path { stroke: red; }
.edge:hover polygon { stroke: red; fill: red; }
]]></style>

<defs>
  <circle id="rim" cx="0" cy="0" r="7"/>
  <circle id="rim2" cx="0" cy="0" r="3.5"/>
  <g id="zoomPlus">
    <use xlink:href="#rim" fill="#404040"><set attributeName="fill" to="#808080" begin="zoomplus.mouseover" end="zoomplus.mouseout"/></use>
    <path d="M-4,0h8M0,-4v8" fill="none" stroke="white" stroke-width="1.5" pointer-events="none"/>
  </g>
  <g id="zoomMin">
    <use xlink:href="#rim" fill="#404040"><set attributeName="fill" to="#808080" begin="zoomminus.mouseover" end="zoomminus.mouseout"/></use>
    <path d="M-4,0h8" fill="none" stroke="white" stroke-width="1.5" pointer-events="none"/>
  </g>
  <g id="arrowUp" transform="translate(30 24)">
    <use xlink:href="#rim"/>
    <path pointer-events="none" fill="none" stroke="white" stroke-width="1.5" d="M0,-3.0v7 M-2.5,-0.5L0,-3.0L2.5,-0.5"/>
  </g>
  <g id="arrowRight" transform="rotate(90) translate(36 -43)">
    <use xlink:href="#rim"/>
    <path pointer-events="none" fill="none" stroke="white" stroke-width="1.5" d="M0,-3.0v7 M-2.5,-0.5L0,-3.0L2.5,-0.5"/>
  </g>
  <g id="arrowDown" transform="rotate(180) translate(-30 -48)">
    <use xlink:href="#rim"/>
    <path pointer-events="none" fill="none" stroke="white" stroke-width="1.5" d="M0,-3.0v7 M-2.5,-0.5L0,-3.0L2.5,-0.5"/>
  </g>
  <g id="arrowLeft" transform="rotate(270) translate(-36 17)">
    <use xlink:href="#rim"/>
    <path pointer-events="none" fill="none" stroke="white" stroke-width="1.5" d="M0,-3.0v7 M-2.5,-0.5L0,-3.0L2.5,-0.5"/>
  </g>
  <g id="resetDef">
    <use xlink:href="#rim2" fill="#404040"><set attributeName="fill" to="#808080" begin="reset.mouseover" end="reset.mouseout"/></use>
  </g>
</defs>
<script type="application/ecmascript">
var viewWidth = 552;
var viewHeight = 354;
var sectionId = 'dynsection-0';
</script>
<script type="application/ecmascript" xlink:href="svg.min.js"/>
<svg id="graph" class="graph">
<g id="viewport">
<title>src/plugins_exts/metadata.h</title>
<!-- Node1 -->
<g id="Node000001" class="node">
<title>Node1</title>
<g id="a_Node000001"><a xlink:title="ietf&#45;yang&#45;metadata API">
<polygon fill="#999999" stroke="#666666" points="337.58,-345.5 198.58,-345.5 198.58,-327 337.58,-327 337.58,-345.5"/>
<text text-anchor="middle" x="268.08" y="-332" font-family="Helvetica,sans-Serif" font-size="10.00">src/plugins_exts/metadata.h</text>
</a>
</g>
</g>
<!-- Node2 -->
<g id="Node000002" class="node">
<title>Node2</title>
<g id="a_Node000002"><a xlink:href="plugins__exts_8h.html" target="_top" xlink:title="libyang support for YANG extensions implementation.">
<polygon fill="white" stroke="#666666" points="392.58,-291 313.58,-291 313.58,-272.5 392.58,-272.5 392.58,-291"/>
<text text-anchor="middle" x="353.08" y="-277.5" font-family="Helvetica,sans-Serif" font-size="10.00">plugins_exts.h</text>
</a>
</g>
</g>
<!-- Node1&#45;&gt;Node2 -->
<g id="edge1_Node000001_Node000002" class="edge">
<title>Node1&#45;&gt;Node2</title>
<g id="a_edge1_Node000001_Node000002"><a xlink:title=" ">
<path fill="none" stroke="#63b8ff" d="M282.12,-326.58C294.92,-318.68 314.08,-306.84 329.27,-297.46"/>
<polygon fill="#63b8ff" stroke="#63b8ff" points="331.07,-300.46 337.74,-292.23 327.39,-294.5 331.07,-300.46"/>
</a>
</g>
</g>
<!-- Node7 -->
<g id="Node000007" class="node">
<title>Node7</title>
<g id="a_Node000007"><a xlink:href="tree__data_8h.html" target="_top" xlink:title="libyang representation of YANG data trees.">
<polygon fill="white" stroke="#666666" points="266.46,-182 201.71,-182 201.71,-163.5 266.46,-163.5 266.46,-182"/>
<text text-anchor="middle" x="234.08" y="-168.5" font-family="Helvetica,sans-Serif" font-size="10.00">tree_data.h</text>
</a>
</g>
</g>
<!-- Node1&#45;&gt;Node7 -->
<g id="edge28_Node000001_Node000007" class="edge">
<title>Node1&#45;&gt;Node7</title>
<g id="a_edge28_Node000001_Node000007"><a xlink:title=" ">
<path fill="none" stroke="#63b8ff" d="M259.69,-326.67C244.63,-310.61 213.52,-274.19 202.08,-236.5 197.1,-220.09 207.18,-202.82 217.32,-190.57"/>
<polygon fill="#63b8ff" stroke="#63b8ff" points="219.7,-193.15 223.82,-183.39 214.51,-188.46 219.7,-193.15"/>
</a>
</g>
</g>
<!-- Node3 -->
<g id="Node000003" class="node">
<title>Node3</title>
<g id="a_Node000003"><a xlink:href="log_8h.html" target="_top" xlink:title="Logger manipulation routines and error definitions.">
<polygon fill="white" stroke="#666666" points="543.58,-73 506.58,-73 506.58,-54.5 543.58,-54.5 543.58,-73"/>
<text text-anchor="middle" x="525.08" y="-59.5" font-family="Helvetica,sans-Serif" font-size="10.00">log.h</text>
</a>
</g>
</g>
<!-- Node2&#45;&gt;Node3 -->
<g id="edge2_Node000002_Node000003" class="edge">
<title>Node2&#45;&gt;Node3</title>
<g id="a_edge2_Node000002_Node000003"><a xlink:title=" ">
<path fill="none" stroke="#63b8ff" d="M392.99,-281.36C429.44,-279.57 481.82,-270.64 510.08,-236.5 546.47,-192.56 536.99,-118.85 529.77,-84.05"/>
<polygon fill="#63b8ff" stroke="#63b8ff" points="533.25,-83.58 527.64,-74.59 526.42,-85.12 533.25,-83.58"/>
</a>
</g>
</g>
<!-- Node6 -->
<g id="Node000006" class="node">
<title>Node6</title>
<g id="a_Node000006"><a xlink:href="parser__data_8h.html" target="_top" xlink:title="Data parsers for libyang.">
<polygon fill="white" stroke="#666666" points="287.08,-236.5 211.08,-236.5 211.08,-218 287.08,-218 287.08,-236.5"/>
<text text-anchor="middle" x="249.08" y="-223" font-family="Helvetica,sans-Serif" font-size="10.00">parser_data.h</text>
</a>
</g>
</g>
<!-- Node2&#45;&gt;Node6 -->
<g id="edge5_Node000002_Node000006" class="edge">
<title>Node2&#45;&gt;Node6</title>
<g id="a_edge5_Node000002_Node000006"><a xlink:title=" ">
<path fill="none" stroke="#63b8ff" d="M335.91,-272.08C319.73,-263.91 295.21,-251.54 276.36,-242.02"/>
<polygon fill="#63b8ff" stroke="#63b8ff" points="278.14,-239 267.63,-237.61 274.98,-245.25 278.14,-239"/>
</a>
</g>
</g>
<!-- Node2&#45;&gt;Node7 -->
<g id="edge24_Node000002_Node000007" class="edge">
<title>Node2&#45;&gt;Node7</title>
<g id="a_edge24_Node000002_Node000007"><a xlink:title=" ">
<path fill="none" stroke="#63b8ff" d="M346.23,-272.1C336.02,-259.47 315.88,-235.6 296.08,-218 284.04,-207.29 269.41,-196.75 257.39,-188.64"/>
<polygon fill="#63b8ff" stroke="#63b8ff" points="259.55,-185.88 249.28,-183.29 255.7,-191.72 259.55,-185.88"/>
</a>
</g>
</g>
<!-- Node13 -->
<g id="Node000013" class="node">
<title>Node13</title>
<g id="a_Node000013"><a xlink:href="tree__schema_8h.html" target="_top" xlink:title="libyang representation of YANG schema trees.">
<polygon fill="white" stroke="#666666" points="397.33,-127.5 316.83,-127.5 316.83,-109 397.33,-109 397.33,-127.5"/>
<text text-anchor="middle" x="357.08" y="-114" font-family="Helvetica,sans-Serif" font-size="10.00">tree_schema.h</text>
</a>
</g>
</g>
<!-- Node2&#45;&gt;Node13 -->
<g id="edge27_Node000002_Node000013" class="edge">
<title>Node2&#45;&gt;Node13</title>
<g id="a_edge27_Node000002_Node000013"><a xlink:title=" ">
<path fill="none" stroke="#63b8ff" d="M353.3,-272.07C353.92,-247.09 355.71,-174.6 356.59,-139.19"/>
<polygon fill="#63b8ff" stroke="#63b8ff" points="360.08,-139.57 356.83,-129.49 353.08,-139.4 360.08,-139.57"/>
</a>
</g>
</g>
<!-- Node16 -->
<g id="Node000016" class="node">
<title>Node16</title>
<g id="a_Node000016"><a xlink:href="plugins_8h.html" target="_top" xlink:title="Plugins manipulation.">
<polygon fill="white" stroke="#666666" points="436.58,-182 381.58,-182 381.58,-163.5 436.58,-163.5 436.58,-182"/>
<text text-anchor="middle" x="409.08" y="-168.5" font-family="Helvetica,sans-Serif" font-size="10.00">plugins.h</text>
</a>
</g>
</g>
<!-- Node2&#45;&gt;Node16 -->
<g id="edge22_Node000002_Node000016" class="edge">
<title>Node2&#45;&gt;Node16</title>
<g id="a_edge22_Node000002_Node000016"><a xlink:title=" ">
<path fill="none" stroke="#63b8ff" d="M357.48,-272.35C366.43,-255.25 386.97,-216 399.27,-192.51"/>
<polygon fill="#63b8ff" stroke="#63b8ff" points="402.32,-194.23 403.85,-183.75 396.11,-190.98 402.32,-194.23"/>
</a>
</g>
</g>
<!-- Node17 -->
<g id="Node000017" class="node">
<title>Node17</title>
<g id="a_Node000017"><a xlink:href="tree__edit_8h.html" target="_top" xlink:title="libyang generic macros and functions to modify YANG schema or data trees. Intended for internal use a...">
<polygon fill="white" stroke="#666666" points="500.58,-236.5 439.58,-236.5 439.58,-218 500.58,-218 500.58,-236.5"/>
<text text-anchor="middle" x="470.08" y="-223" font-family="Helvetica,sans-Serif" font-size="10.00">tree_edit.h</text>
</a>
</g>
</g>
<!-- Node2&#45;&gt;Node17 -->
<g id="edge25_Node000002_Node000017" class="edge">
<title>Node2&#45;&gt;Node17</title>
<g id="a_edge25_Node000002_Node000017"><a xlink:title=" ">
<path fill="none" stroke="#63b8ff" d="M372.4,-272.08C390.86,-263.8 418.96,-251.19 440.29,-241.62"/>
<polygon fill="#63b8ff" stroke="#63b8ff" points="441.66,-244.84 449.35,-237.55 438.8,-238.45 441.66,-244.84"/>
</a>
</g>
</g>
<!-- Node4 -->
<g id="Node000004" class="node">
<title>Node4</title>
<g id="a_Node000004"><a xlink:title=" ">
<polygon fill="#e0e0e0" stroke="#999999" points="333.83,-18.5 286.33,-18.5 286.33,0 333.83,0 333.83,-18.5"/>
<text text-anchor="middle" x="310.08" y="-5" font-family="Helvetica,sans-Serif" font-size="10.00">stdint.h</text>
</a>
</g>
</g>
<!-- Node3&#45;&gt;Node4 -->
<g id="edge3_Node000003_Node000004" class="edge">
<title>Node3&#45;&gt;Node4</title>
<g id="a_edge3_Node000003_Node000004"><a xlink:title=" ">
<path fill="none" stroke="#63b8ff" d="M506.38,-58.18C470.4,-49.4 391.05,-30.02 345.01,-18.78"/>
<polygon fill="#63b8ff" stroke="#63b8ff" points="346.09,-15.44 335.54,-16.47 344.43,-22.24 346.09,-15.44"/>
</a>
</g>
</g>
<!-- Node5 -->
<g id="Node000005" class="node">
<title>Node5</title>
<g id="a_Node000005"><a xlink:title=" ">
<polygon fill="#e0e0e0" stroke="#999999" points="503.33,-18.5 452.83,-18.5 452.83,0 503.33,0 503.33,-18.5"/>
<text text-anchor="middle" x="478.08" y="-5" font-family="Helvetica,sans-Serif" font-size="10.00">config.h</text>
</a>
</g>
</g>
<!-- Node3&#45;&gt;Node5 -->
<g id="edge4_Node000003_Node000005" class="edge">
<title>Node3&#45;&gt;Node5</title>
<g id="a_edge4_Node000003_Node000005"><a xlink:title=" ">
<path fill="none" stroke="#63b8ff" d="M517.32,-54.08C510.82,-46.82 501.34,-36.23 493.33,-27.28"/>
<polygon fill="#63b8ff" stroke="#63b8ff" points="495.99,-25 486.71,-19.89 490.77,-29.67 495.99,-25"/>
</a>
</g>
</g>
<!-- Node6&#45;&gt;Node7 -->
<g id="edge6_Node000006_Node000007" class="edge">
<title>Node6&#45;&gt;Node7</title>
<g id="a_edge6_Node000006_Node000007"><a xlink:title=" ">
<path fill="none" stroke="#63b8ff" d="M246.61,-217.58C244.71,-210.93 242.01,-201.49 239.61,-193.08"/>
<polygon fill="#63b8ff" stroke="#63b8ff" points="243.04,-192.37 236.93,-183.71 236.31,-194.29 243.04,-192.37"/>
</a>
</g>
</g>
<!-- Node7&#45;&gt;Node3 -->
<g id="edge12_Node000007_Node000003" class="edge">
<title>Node7&#45;&gt;Node3</title>
<g id="a_edge12_Node000007_Node000003"><a xlink:title=" ">
<path fill="none" stroke="#63b8ff" d="M266.8,-165.71C301.94,-158.67 359.06,-145.66 406.08,-127.5 440.66,-114.15 478.1,-93.24 501.56,-79.27"/>
<polygon fill="#63b8ff" stroke="#63b8ff" points="503.25,-82.34 510,-74.17 499.63,-76.34 503.25,-82.34"/>
</a>
</g>
</g>
<!-- Node7&#45;&gt;Node4 -->
<g id="edge9_Node000007_Node000004" class="edge">
<title>Node7&#45;&gt;Node4</title>
<g id="a_edge9_Node000007_Node000004"><a xlink:title=" ">
<path fill="none" stroke="#63b8ff" d="M233.99,-163.12C234.13,-142.75 236.73,-90.63 258.08,-54.5 264.94,-42.9 275.96,-32.88 286.09,-25.32"/>
<polygon fill="#63b8ff" stroke="#63b8ff" points="287.93,-28.31 294.13,-19.72 283.93,-22.56 287.93,-28.31"/>
</a>
</g>
</g>
<!-- Node7&#45;&gt;Node5 -->
<g id="edge11_Node000007_Node000005" class="edge">
<title>Node7&#45;&gt;Node5</title>
<g id="a_edge11_Node000007_Node000005"><a xlink:title=" ">
<path fill="none" stroke="#63b8ff" d="M238.58,-163.2C250.37,-141.58 284.43,-84.35 329.08,-54.5 363.25,-31.66 409.5,-20.33 441.36,-14.91"/>
<polygon fill="#63b8ff" stroke="#63b8ff" points="441.57,-18.42 450.9,-13.4 440.48,-11.5 441.57,-18.42"/>
</a>
</g>
</g>
<!-- Node8 -->
<g id="Node000008" class="node">
<title>Node8</title>
<g id="a_Node000008"><a xlink:title=" ">
<polygon fill="#e0e0e0" stroke="#999999" points="75.96,-127.5 14.21,-127.5 14.21,-109 75.96,-109 75.96,-127.5"/>
<text text-anchor="middle" x="45.08" y="-114" font-family="Helvetica,sans-Serif" font-size="10.00">arpa/inet.h</text>
</a>
</g>
</g>
<!-- Node7&#45;&gt;Node8 -->
<g id="edge7_Node000007_Node000008" class="edge">
<title>Node7&#45;&gt;Node8</title>
<g id="a_edge7_Node000007_Node000008"><a xlink:title=" ">
<path fill="none" stroke="#63b8ff" d="M202.87,-163.08C171.28,-154.3 122.2,-140.67 87.18,-130.94"/>
<polygon fill="#63b8ff" stroke="#63b8ff" points="88.37,-127.64 77.8,-128.34 86.5,-134.39 88.37,-127.64"/>
</a>
</g>
</g>
<!-- Node9 -->
<g id="Node000009" class="node">
<title>Node9</title>
<g id="a_Node000009"><a xlink:title=" ">
<polygon fill="#e0e0e0" stroke="#999999" points="144.33,-127.5 93.83,-127.5 93.83,-109 144.33,-109 144.33,-127.5"/>
<text text-anchor="middle" x="119.08" y="-114" font-family="Helvetica,sans-Serif" font-size="10.00">stddef.h</text>
</a>
</g>
</g>
<!-- Node7&#45;&gt;Node9 -->
<g id="edge8_Node000007_Node000009" class="edge">
<title>Node7&#45;&gt;Node9</title>
<g id="a_edge8_Node000007_Node000009"><a xlink:title=" ">
<path fill="none" stroke="#63b8ff" d="M215.09,-163.08C196.95,-154.8 169.34,-142.19 148.37,-132.62"/>
<polygon fill="#63b8ff" stroke="#63b8ff" points="150.03,-129.53 139.48,-128.56 147.12,-135.9 150.03,-129.53"/>
</a>
</g>
</g>
<!-- Node10 -->
<g id="Node000010" class="node">
<title>Node10</title>
<g id="a_Node000010"><a xlink:title=" ">
<polygon fill="#e0e0e0" stroke="#999999" points="205.58,-127.5 162.58,-127.5 162.58,-109 205.58,-109 205.58,-127.5"/>
<text text-anchor="middle" x="184.08" y="-114" font-family="Helvetica,sans-Serif" font-size="10.00">time.h</text>
</a>
</g>
</g>
<!-- Node7&#45;&gt;Node10 -->
<g id="edge10_Node000007_Node000010" class="edge">
<title>Node7&#45;&gt;Node10</title>
<g id="a_edge10_Node000007_Node000010"><a xlink:title=" ">
<path fill="none" stroke="#63b8ff" d="M225.83,-163.08C218.84,-155.74 208.62,-145.01 200.04,-136"/>
<polygon fill="#63b8ff" stroke="#63b8ff" points="202.66,-133.68 193.23,-128.85 197.59,-138.51 202.66,-133.68"/>
</a>
</g>
</g>
<!-- Node11 -->
<g id="Node000011" class="node">
<title>Node11</title>
<g id="a_Node000011"><a xlink:href="tree_8h.html" target="_top" xlink:title="libyang generic macros and functions to work with YANG schema or data trees.">
<polygon fill="white" stroke="#666666" points="106.46,-73 65.71,-73 65.71,-54.5 106.46,-54.5 106.46,-73"/>
<text text-anchor="middle" x="86.08" y="-59.5" font-family="Helvetica,sans-Serif" font-size="10.00">tree.h</text>
</a>
</g>
</g>
<!-- Node7&#45;&gt;Node11 -->
<g id="edge13_Node000007_Node000011" class="edge">
<title>Node7&#45;&gt;Node11</title>
<g id="a_edge13_Node000007_Node000011"><a xlink:title=" ">
<path fill="none" stroke="#63b8ff" d="M201.6,-170.38C144.45,-167.23 29.63,-157.25 5.08,-127.5 -13.47,-105.02 24.92,-85.6 54.96,-74.55"/>
<polygon fill="#63b8ff" stroke="#63b8ff" points="55.8,-77.96 64.09,-71.36 53.5,-71.35 55.8,-77.96"/>
</a>
</g>
</g>
<!-- Node7&#45;&gt;Node13 -->
<g id="edge15_Node000007_Node000013" class="edge">
<title>Node7&#45;&gt;Node13</title>
<g id="a_edge15_Node000007_Node000013"><a xlink:title=" ">
<path fill="none" stroke="#63b8ff" d="M254.39,-163.08C273.98,-154.72 303.88,-141.96 326.37,-132.36"/>
<polygon fill="#63b8ff" stroke="#63b8ff" points="327.53,-135.67 335.35,-128.53 324.78,-129.23 327.53,-135.67"/>
</a>
</g>
</g>
<!-- Node12 -->
<g id="Node000012" class="node">
<title>Node12</title>
<g id="a_Node000012"><a xlink:title=" ">
<polygon fill="#e0e0e0" stroke="#999999" points="115.46,-18.5 56.71,-18.5 56.71,0 115.46,0 115.46,-18.5"/>
<text text-anchor="middle" x="86.08" y="-5" font-family="Helvetica,sans-Serif" font-size="10.00">inttypes.h</text>
</a>
</g>
</g>
<!-- Node11&#45;&gt;Node12 -->
<g id="edge14_Node000011_Node000012" class="edge">
<title>Node11&#45;&gt;Node12</title>
<g id="a_edge14_Node000011_Node000012"><a xlink:title=" ">
<path fill="none" stroke="#63b8ff" d="M86.08,-54.08C86.08,-47.58 86.08,-38.42 86.08,-30.16"/>
<polygon fill="#63b8ff" stroke="#63b8ff" points="89.58,-30.27 86.08,-20.27 82.58,-30.27 89.58,-30.27"/>
</a>
</g>
</g>
<!-- Node13&#45;&gt;Node3 -->
<g id="edge20_Node000013_Node000003" class="edge">
<title>Node13&#45;&gt;Node3</title>
<g id="a_edge20_Node000013_Node000003"><a xlink:title=" ">
<path fill="none" stroke="#63b8ff" d="M384.83,-108.58C415.37,-99.04 464.28,-83.75 495.53,-73.98"/>
<polygon fill="#63b8ff" stroke="#63b8ff" points="496.23,-77.43 504.73,-71.11 494.15,-70.75 496.23,-77.43"/>
</a>
</g>
</g>
<!-- Node13&#45;&gt;Node4 -->
<g id="edge17_Node000013_Node000004" class="edge">
<title>Node13&#45;&gt;Node4</title>
<g id="a_edge17_Node000013_Node000004"><a xlink:title=" ">
<path fill="none" stroke="#63b8ff" d="M350.54,-108.5C344.32,-99.86 335.06,-86.06 329.08,-73 322.69,-59.03 317.76,-42.34 314.52,-29.69"/>
<polygon fill="#63b8ff" stroke="#63b8ff" points="317.96,-29.01 312.21,-20.1 311.15,-30.64 317.96,-29.01"/>
</a>
</g>
</g>
<!-- Node13&#45;&gt;Node5 -->
<g id="edge19_Node000013_Node000005" class="edge">
<title>Node13&#45;&gt;Node5</title>
<g id="a_edge19_Node000013_Node000005"><a xlink:title=" ">
<path fill="none" stroke="#63b8ff" d="M397.27,-108.5C418.34,-101.99 443.03,-91.02 459.08,-73 469.64,-61.15 474.33,-43.59 476.42,-30.06"/>
<polygon fill="#63b8ff" stroke="#63b8ff" points="479.9,-30.47 477.55,-20.14 472.94,-29.68 479.9,-30.47"/>
</a>
</g>
</g>
<!-- Node13&#45;&gt;Node11 -->
<g id="edge21_Node000013_Node000011" class="edge">
<title>Node13&#45;&gt;Node11</title>
<g id="a_edge21_Node000013_Node000011"><a xlink:title=" ">
<path fill="none" stroke="#63b8ff" d="M316.51,-109.39C262.36,-98.9 167.55,-80.53 118.12,-70.96"/>
<polygon fill="#63b8ff" stroke="#63b8ff" points="118.83,-67.53 108.35,-69.06 117.5,-74.4 118.83,-67.53"/>
</a>
</g>
</g>
<!-- Node14 -->
<g id="Node000014" class="node">
<title>Node14</title>
<g id="a_Node000014"><a xlink:title=" ">
<polygon fill="#e0e0e0" stroke="#999999" points="450.21,-73 401.96,-73 401.96,-54.5 450.21,-54.5 450.21,-73"/>
<text text-anchor="middle" x="426.08" y="-59.5" font-family="Helvetica,sans-Serif" font-size="10.00">pcre2.h</text>
</a>
</g>
</g>
<!-- Node13&#45;&gt;Node14 -->
<g id="edge16_Node000013_Node000014" class="edge">
<title>Node13&#45;&gt;Node14</title>
<g id="a_edge16_Node000013_Node000014"><a xlink:title=" ">
<path fill="none" stroke="#63b8ff" d="M368.48,-108.58C378.63,-100.86 393.71,-89.38 405.9,-80.11"/>
<polygon fill="#63b8ff" stroke="#63b8ff" points="407.86,-83.02 413.7,-74.17 403.62,-77.44 407.86,-83.02"/>
</a>
</g>
</g>
<!-- Node15 -->
<g id="Node000015" class="node">
<title>Node15</title>
<g id="a_Node000015"><a xlink:title=" ">
<polygon fill="#e0e0e0" stroke="#999999" points="383.71,-73 338.46,-73 338.46,-54.5 383.71,-54.5 383.71,-73"/>
<text text-anchor="middle" x="361.08" y="-59.5" font-family="Helvetica,sans-Serif" font-size="10.00">stdio.h</text>
</a>
</g>
</g>
<!-- Node13&#45;&gt;Node15 -->
<g id="edge18_Node000013_Node000015" class="edge">
<title>Node13&#45;&gt;Node15</title>
<g id="a_edge18_Node000013_Node000015"><a xlink:title=" ">
<path fill="none" stroke="#63b8ff" d="M357.74,-108.58C358.24,-102.08 358.94,-92.92 359.57,-84.66"/>
<polygon fill="#63b8ff" stroke="#63b8ff" points="363.05,-85 360.32,-74.77 356.07,-84.47 363.05,-85"/>
</a>
</g>
</g>
<!-- Node16&#45;&gt;Node3 -->
<g id="edge23_Node000016_Node000003" class="edge">
<title>Node16&#45;&gt;Node3</title>
<g id="a_edge23_Node000016_Node000003"><a xlink:title=" ">
<path fill="none" stroke="#63b8ff" d="M418.19,-163.35C437.4,-145.63 482.4,-104.12 507.46,-81.01"/>
<polygon fill="#63b8ff" stroke="#63b8ff" points="509.61,-83.78 514.59,-74.43 504.87,-78.64 509.61,-83.78"/>
</a>
</g>
</g>
<!-- Node18 -->
<g id="Node000018" class="node">
<title>Node18</title>
<g id="a_Node000018"><a xlink:title=" ">
<polygon fill="#e0e0e0" stroke="#999999" points="501.83,-182 454.33,-182 454.33,-163.5 501.83,-163.5 501.83,-182"/>
<text text-anchor="middle" x="478.08" y="-168.5" font-family="Helvetica,sans-Serif" font-size="10.00">stdlib.h</text>
</a>
</g>
</g>
<!-- Node17&#45;&gt;Node18 -->
<g id="edge26_Node000017_Node000018" class="edge">
<title>Node17&#45;&gt;Node18</title>
<g id="a_edge26_Node000017_Node000018"><a xlink:title=" ">
<path fill="none" stroke="#63b8ff" d="M471.4,-217.58C472.41,-211.01 473.82,-201.71 475.09,-193.37"/>
<polygon fill="#63b8ff" stroke="#63b8ff" points="478.51,-194.17 476.56,-183.75 471.59,-193.11 478.51,-194.17"/>
</a>
</g>
</g>
</g>
</svg>

<g id="navigator" transform="translate(0 0)" fill="#404254">
  <rect fill="#f2f5e9" fill-opacity="0.5" stroke="#606060" stroke-width=".5" x="0" y="0" width="60" height="60"/>
  <use id="zoomplus" xlink:href="#zoomPlus" x="17" y="9" onmousedown="handleZoom(evt,'in')"/>
  <use id="zoomminus" xlink:href="#zoomMin" x="42" y="9" onmousedown="handleZoom(evt,'out')"/>
  <use id="reset" xlink:href="#resetDef" x="30" y="36" onmousedown="handleReset()"/>
   <use id="arrowup" xlink:href="#arrowUp" x="0" y="0" onmousedown="handlePan(0,-1)"/>
  <use id="arrowright" xlink:href="#arrowRight" x="0" y="0" onmousedown="handlePan(1,0)"/>
  <use id="arrowdown" xlink:href="#arrowDown" x="0" y="0" onmousedown="handlePan(0,1)"/>
  <use id="arrowleft" xlink:href="#arrowLeft" x="0" y="0" onmousedown="handlePan(-1,0)"/>
</g>
<svg viewBox="0 0 15 15" width="100%" height="30px" preserveAspectRatio="xMaxYMin meet">
 <g id="arrow_out" transform="scale(0.3 0.3)">
  <a xlink:href="metadata_8h__incl_org.svg" target="_base">
   <rect id="button" ry="5" rx="5" y="6" x="6" height="38" width="38"
        fill="#f2f5e9" fill-opacity="0.5" stroke="#606060" stroke-width="1.0"/>
   <path id="arrow"
     d="M 11.500037,31.436501 C 11.940474,20.09759 22.043105,11.32322 32.158766,21.979434 L 37.068811,17.246167 C 37.068811,17.246167 37.088388,32 37.088388,32 L 22.160133,31.978069 C 22.160133,31.978069 26.997745,27.140456 26.997745,27.140456 C 18.528582,18.264221 13.291696,25.230495 11.500037,31.436501 z"
     style="fill:#404040;"/>
  </a>
 </g>
</svg>

<style type='text/css'>
<![CDATA[
[data-mouse-over-selected='false'] { opacity: 0.7; }
[data-mouse-over-selected='true']  { opacity: 1.0; }
]]>
</style>
<script type="application/ecmascript"><![CDATA[
document.addEventListener('DOMContentLoaded', (event) => {
  highlightEdges();
  highlightAdjacentNodes();
});
]]></script>
</svg>
