<?xml version="1.0" encoding="UTF-8" standalone="no"?>
<!DOCTYPE svg PUBLIC "-//W3C//DTD SVG 1.1//EN"
 "http://www.w3.org/Graphics/SVG/1.1/DTD/svg11.dtd">
<!-- Generated by graphviz version 12.1.0 (20240811.2233)
 -->
<!-- Title: src/out.h Pages: 1 -->
<svg width="231pt" height="136pt"
 viewBox="0.00 0.00 230.88 135.50" xmlns="http://www.w3.org/2000/svg" xmlns:xlink="http://www.w3.org/1999/xlink">

<svg id="main" version="1.1" xmlns="http://www.w3.org/2000/svg" xmlns:xlink="http://www.w3.org/1999/xlink" xml:space="preserve">

<style type="text/css"><![CDATA[
.node, .edge {opacity: 0.7;}
.node.selected, .edge.selected {opacity: 1;}
.edge:hover path { stroke: red; }
.edge:hover polygon { stroke: red; fill: red; }
]]></style>
<script type="application/ecmascript" xlink:href="svg.min.js"/>
<svg id="graph" class="graph">
<g id="graph0" class="graph" transform="scale(1 1) rotate(0) translate(4 131.5)">
<title>src/out.h</title>
<!-- Node1 -->
<g id="Node000001" class="node">
<title>Node1</title>
<g id="a_Node000001"><a xlink:title="libyang output structures and functions">
<polygon fill="#999999" stroke="#666666" points="122.38,-127.5 68.88,-127.5 68.88,-109 122.38,-109 122.38,-127.5"/>
<text text-anchor="middle" x="95.62" y="-114" font-family="Helvetica,sans-Serif" font-size="10.00">src/out.h</text>
</a>
</g>
</g>
<!-- Node2 -->
<g id="Node000002" class="node">
<title>Node2</title>
<g id="a_Node000002"><a xlink:title=" ">
<polygon fill="#e0e0e0" stroke="#999999" points="45.25,-73 0,-73 0,-54.5 45.25,-54.5 45.25,-73"/>
<text text-anchor="middle" x="22.62" y="-59.5" font-family="Helvetica,sans-Serif" font-size="10.00">stdio.h</text>
</a>
</g>
</g>
<!-- Node1&#45;&gt;Node2 -->
<g id="edge1_Node000001_Node000002" class="edge">
<title>Node1&#45;&gt;Node2</title>
<g id="a_edge1_Node000001_Node000002"><a xlink:title=" ">
<path fill="none" stroke="#63b8ff" d="M83.57,-108.58C72.73,-100.78 56.56,-89.15 43.6,-79.83"/>
<polygon fill="#63b8ff" stroke="#63b8ff" points="45.85,-77.14 35.68,-74.14 41.76,-82.82 45.85,-77.14"/>
</a>
</g>
</g>
<!-- Node3 -->
<g id="Node000003" class="node">
<title>Node3</title>
<g id="a_Node000003"><a xlink:title=" ">
<polygon fill="#e0e0e0" stroke="#999999" points="128.38,-73 62.88,-73 62.88,-54.5 128.38,-54.5 128.38,-73"/>
<text text-anchor="middle" x="95.62" y="-59.5" font-family="Helvetica,sans-Serif" font-size="10.00">sys/types.h</text>
</a>
</g>
</g>
<!-- Node1&#45;&gt;Node3 -->
<g id="edge2_Node000001_Node000003" class="edge">
<title>Node1&#45;&gt;Node3</title>
<g id="a_edge2_Node000001_Node000003"><a xlink:title=" ">
<path fill="none" stroke="#63b8ff" d="M95.62,-108.58C95.62,-102.08 95.62,-92.92 95.62,-84.66"/>
<polygon fill="#63b8ff" stroke="#63b8ff" points="99.13,-84.77 95.63,-74.77 92.13,-84.77 99.13,-84.77"/>
</a>
</g>
</g>
<!-- Node4 -->
<g id="Node000004" class="node">
<title>Node4</title>
<g id="a_Node000004"><a xlink:href="log_8h.html" target="_top" xlink:title="Logger manipulation routines and error definitions.">
<polygon fill="white" stroke="#666666" points="183.12,-73 146.12,-73 146.12,-54.5 183.12,-54.5 183.12,-73"/>
<text text-anchor="middle" x="164.62" y="-59.5" font-family="Helvetica,sans-Serif" font-size="10.00">log.h</text>
</a>
</g>
</g>
<!-- Node1&#45;&gt;Node4 -->
<g id="edge3_Node000001_Node000004" class="edge">
<title>Node1&#45;&gt;Node4</title>
<g id="a_edge3_Node000001_Node000004"><a xlink:title=" ">
<path fill="none" stroke="#63b8ff" d="M107.02,-108.58C117.17,-100.86 132.25,-89.38 144.44,-80.11"/>
<polygon fill="#63b8ff" stroke="#63b8ff" points="146.4,-83.02 152.24,-74.17 142.16,-77.44 146.4,-83.02"/>
</a>
</g>
</g>
<!-- Node5 -->
<g id="Node000005" class="node">
<title>Node5</title>
<g id="a_Node000005"><a xlink:title=" ">
<polygon fill="#e0e0e0" stroke="#999999" points="154.38,-18.5 106.88,-18.5 106.88,0 154.38,0 154.38,-18.5"/>
<text text-anchor="middle" x="130.62" y="-5" font-family="Helvetica,sans-Serif" font-size="10.00">stdint.h</text>
</a>
</g>
</g>
<!-- Node4&#45;&gt;Node5 -->
<g id="edge4_Node000004_Node000005" class="edge">
<title>Node4&#45;&gt;Node5</title>
<g id="a_edge4_Node000004_Node000005"><a xlink:title=" ">
<path fill="none" stroke="#63b8ff" d="M159.01,-54.08C154.51,-47.12 148.02,-37.12 142.39,-28.42"/>
<polygon fill="#63b8ff" stroke="#63b8ff" points="145.33,-26.52 136.96,-20.03 139.46,-30.32 145.33,-26.52"/>
</a>
</g>
</g>
<!-- Node6 -->
<g id="Node000006" class="node">
<title>Node6</title>
<g id="a_Node000006"><a xlink:title=" ">
<polygon fill="#e0e0e0" stroke="#999999" points="222.88,-18.5 172.38,-18.5 172.38,0 222.88,0 222.88,-18.5"/>
<text text-anchor="middle" x="197.62" y="-5" font-family="Helvetica,sans-Serif" font-size="10.00">config.h</text>
</a>
</g>
</g>
<!-- Node4&#45;&gt;Node6 -->
<g id="edge5_Node000004_Node000006" class="edge">
<title>Node4&#45;&gt;Node6</title>
<g id="a_edge5_Node000004_Node000006"><a xlink:title=" ">
<path fill="none" stroke="#63b8ff" d="M170.07,-54.08C174.45,-47.12 180.74,-37.12 186.2,-28.42"/>
<polygon fill="#63b8ff" stroke="#63b8ff" points="189.11,-30.37 191.47,-20.04 183.19,-26.64 189.11,-30.37"/>
</a>
</g>
</g>
</g>
</svg>
</svg>

<style type='text/css'>
<![CDATA[
[data-mouse-over-selected='false'] { opacity: 0.7; }
[data-mouse-over-selected='true']  { opacity: 1.0; }
]]>
</style>
<script type="application/ecmascript"><![CDATA[
document.addEventListener('DOMContentLoaded', (event) => {
  highlightEdges();
  highlightAdjacentNodes();
});
]]></script>
</svg>
