<?xml version="1.0" encoding="UTF-8" standalone="no"?>
<!DOCTYPE svg PUBLIC "-//W3C//DTD SVG 1.1//EN"
 "http://www.w3.org/Graphics/SVG/1.1/DTD/svg11.dtd">
<!-- Generated by graphviz version 12.1.0 (20240811.2233)
 -->
<!-- Title: src/parser_schema.h Pages: 1 -->
<svg width="124pt" height="136pt"
 viewBox="0.00 0.00 124.00 135.50" xmlns="http://www.w3.org/2000/svg" xmlns:xlink="http://www.w3.org/1999/xlink">
<g id="graph0" class="graph" transform="scale(1 1) rotate(0) translate(4 131.5)">
<title>src/parser_schema.h</title>
<!-- Node1 -->
<g id="Node000001" class="node">
<title>Node1</title>
<g id="a_Node000001"><a xlink:title="Schema parsers for libyang.">
<polygon fill="#999999" stroke="#666666" points="110.88,-127.5 2.62,-127.5 2.62,-109 110.88,-109 110.88,-127.5"/>
<text text-anchor="middle" x="56.75" y="-114" font-family="Helvetica,sans-Serif" font-size="10.00">src/parser_schema.h</text>
</a>
</g>
</g>
<!-- Node2 -->
<g id="Node000002" class="node">
<title>Node2</title>
<g id="a_Node000002"><a xlink:href="log_8h.html" target="_top" xlink:title="Logger manipulation routines and error definitions.">
<polygon fill="white" stroke="#666666" points="75.25,-73 38.25,-73 38.25,-54.5 75.25,-54.5 75.25,-73"/>
<text text-anchor="middle" x="56.75" y="-59.5" font-family="Helvetica,sans-Serif" font-size="10.00">log.h</text>
</a>
</g>
</g>
<!-- Node1&#45;&gt;Node2 -->
<g id="edge1_Node000001_Node000002" class="edge">
<title>Node1&#45;&gt;Node2</title>
<g id="a_edge1_Node000001_Node000002"><a xlink:title=" ">
<path fill="none" stroke="#63b8ff" d="M56.75,-108.58C56.75,-102.08 56.75,-92.92 56.75,-84.66"/>
<polygon fill="#63b8ff" stroke="#63b8ff" points="60.25,-84.77 56.75,-74.77 53.25,-84.77 60.25,-84.77"/>
</a>
</g>
</g>
<!-- Node3 -->
<g id="Node000003" class="node">
<title>Node3</title>
<g id="a_Node000003"><a xlink:title=" ">
<polygon fill="#e0e0e0" stroke="#999999" points="47.5,-18.5 0,-18.5 0,0 47.5,0 47.5,-18.5"/>
<text text-anchor="middle" x="23.75" y="-5" font-family="Helvetica,sans-Serif" font-size="10.00">stdint.h</text>
</a>
</g>
</g>
<!-- Node2&#45;&gt;Node3 -->
<g id="edge2_Node000002_Node000003" class="edge">
<title>Node2&#45;&gt;Node3</title>
<g id="a_edge2_Node000002_Node000003"><a xlink:title=" ">
<path fill="none" stroke="#63b8ff" d="M51.3,-54.08C46.93,-47.12 40.64,-37.12 35.17,-28.42"/>
<polygon fill="#63b8ff" stroke="#63b8ff" points="38.19,-26.64 29.9,-20.04 32.26,-30.37 38.19,-26.64"/>
</a>
</g>
</g>
<!-- Node4 -->
<g id="Node000004" class="node">
<title>Node4</title>
<g id="a_Node000004"><a xlink:title=" ">
<polygon fill="#e0e0e0" stroke="#999999" points="116,-18.5 65.5,-18.5 65.5,0 116,0 116,-18.5"/>
<text text-anchor="middle" x="90.75" y="-5" font-family="Helvetica,sans-Serif" font-size="10.00">config.h</text>
</a>
</g>
</g>
<!-- Node2&#45;&gt;Node4 -->
<g id="edge3_Node000002_Node000004" class="edge">
<title>Node2&#45;&gt;Node4</title>
<g id="a_edge3_Node000002_Node000004"><a xlink:title=" ">
<path fill="none" stroke="#63b8ff" d="M62.36,-54.08C66.87,-47.12 73.35,-37.12 78.98,-28.42"/>
<polygon fill="#63b8ff" stroke="#63b8ff" points="81.92,-30.32 84.42,-20.03 76.04,-26.52 81.92,-30.32"/>
</a>
</g>
</g>
</g>
</svg>
