<?xml version="1.0" encoding="UTF-8" standalone="no"?>
<!DOCTYPE svg PUBLIC "-//W3C//DTD SVG 1.1//EN"
 "http://www.w3.org/Graphics/SVG/1.1/DTD/svg11.dtd">
<!-- Generated by graphviz version 12.1.0 (20240811.2233)
 -->
<!-- Title: src/plugins_exts.h Pages: 1 -->
<!--zoomable 299 -->

<svg id="main" version="1.1" xmlns="http://www.w3.org/2000/svg" xmlns:xlink="http://www.w3.org/1999/xlink" xml:space="preserve" onload="init(evt)">

<style type="text/css"><![CDATA[
.node, .edge {opacity: 0.7;}
.node.selected, .edge.selected {opacity: 1;}
.edge:hover path { stroke: red; }
.edge:hover polygon { stroke: red; fill: red; }
]]></style>

<defs>
  <circle id="rim" cx="0" cy="0" r="7"/>
  <circle id="rim2" cx="0" cy="0" r="3.5"/>
  <g id="zoomPlus">
    <use xlink:href="#rim" fill="#404040"><set attributeName="fill" to="#808080" begin="zoomplus.mouseover" end="zoomplus.mouseout"/></use>
    <path d="M-4,0h8M0,-4v8" fill="none" stroke="white" stroke-width="1.5" pointer-events="none"/>
  </g>
  <g id="zoomMin">
    <use xlink:href="#rim" fill="#404040"><set attributeName="fill" to="#808080" begin="zoomminus.mouseover" end="zoomminus.mouseout"/></use>
    <path d="M-4,0h8" fill="none" stroke="white" stroke-width="1.5" pointer-events="none"/>
  </g>
  <g id="arrowUp" transform="translate(30 24)">
    <use xlink:href="#rim"/>
    <path pointer-events="none" fill="none" stroke="white" stroke-width="1.5" d="M0,-3.0v7 M-2.5,-0.5L0,-3.0L2.5,-0.5"/>
  </g>
  <g id="arrowRight" transform="rotate(90) translate(36 -43)">
    <use xlink:href="#rim"/>
    <path pointer-events="none" fill="none" stroke="white" stroke-width="1.5" d="M0,-3.0v7 M-2.5,-0.5L0,-3.0L2.5,-0.5"/>
  </g>
  <g id="arrowDown" transform="rotate(180) translate(-30 -48)">
    <use xlink:href="#rim"/>
    <path pointer-events="none" fill="none" stroke="white" stroke-width="1.5" d="M0,-3.0v7 M-2.5,-0.5L0,-3.0L2.5,-0.5"/>
  </g>
  <g id="arrowLeft" transform="rotate(270) translate(-36 17)">
    <use xlink:href="#rim"/>
    <path pointer-events="none" fill="none" stroke="white" stroke-width="1.5" d="M0,-3.0v7 M-2.5,-0.5L0,-3.0L2.5,-0.5"/>
  </g>
  <g id="resetDef">
    <use xlink:href="#rim2" fill="#404040"><set attributeName="fill" to="#808080" begin="reset.mouseover" end="reset.mouseout"/></use>
  </g>
</defs>
<script type="application/ecmascript">
var viewWidth = 505;
var viewHeight = 299;
var sectionId = 'dynsection-0';
</script>
<script type="application/ecmascript" xlink:href="svg.min.js"/>
<svg id="graph" class="graph">
<g id="viewport">
<title>src/plugins_exts.h</title>
<!-- Node1 -->
<g id="Node000001" class="node">
<title>Node1</title>
<g id="a_Node000001"><a xlink:title="libyang support for YANG extensions implementation.">
<polygon fill="#999999" stroke="#666666" points="172.25,-291 76.75,-291 76.75,-272.5 172.25,-272.5 172.25,-291"/>
<text text-anchor="middle" x="124.5" y="-277.5" font-family="Helvetica,sans-Serif" font-size="10.00">src/plugins_exts.h</text>
</a>
</g>
</g>
<!-- Node2 -->
<g id="Node000002" class="node">
<title>Node2</title>
<g id="a_Node000002"><a xlink:href="log_8h.html" target="_top" xlink:title="Logger manipulation routines and error definitions.">
<polygon fill="white" stroke="#666666" points="37,-73 0,-73 0,-54.5 37,-54.5 37,-73"/>
<text text-anchor="middle" x="18.5" y="-59.5" font-family="Helvetica,sans-Serif" font-size="10.00">log.h</text>
</a>
</g>
</g>
<!-- Node1&#45;&gt;Node2 -->
<g id="edge1_Node000001_Node000002" class="edge">
<title>Node1&#45;&gt;Node2</title>
<g id="a_edge1_Node000001_Node000002"><a xlink:title=" ">
<path fill="none" stroke="#63b8ff" d="M112,-272.16C100.94,-264.03 84.97,-250.96 74.5,-236.5 43.56,-193.77 41.81,-178.28 27.5,-127.5 23.55,-113.51 21.28,-97.24 20.01,-84.78"/>
<polygon fill="#63b8ff" stroke="#63b8ff" points="23.51,-84.59 19.15,-74.93 16.53,-85.2 23.51,-84.59"/>
</a>
</g>
</g>
<!-- Node5 -->
<g id="Node000005" class="node">
<title>Node5</title>
<g id="a_Node000005"><a xlink:href="parser__data_8h.html" target="_top" xlink:title="Data parsers for libyang.">
<polygon fill="white" stroke="#666666" points="247.5,-236.5 171.5,-236.5 171.5,-218 247.5,-218 247.5,-236.5"/>
<text text-anchor="middle" x="209.5" y="-223" font-family="Helvetica,sans-Serif" font-size="10.00">parser_data.h</text>
</a>
</g>
</g>
<!-- Node1&#45;&gt;Node5 -->
<g id="edge4_Node000001_Node000005" class="edge">
<title>Node1&#45;&gt;Node5</title>
<g id="a_edge4_Node000001_Node000005"><a xlink:title=" ">
<path fill="none" stroke="#63b8ff" d="M138.54,-272.08C151.33,-264.18 170.5,-252.34 185.69,-242.96"/>
<polygon fill="#63b8ff" stroke="#63b8ff" points="187.49,-245.96 194.16,-237.73 183.81,-240 187.49,-245.96"/>
</a>
</g>
</g>
<!-- Node6 -->
<g id="Node000006" class="node">
<title>Node6</title>
<g id="a_Node000006"><a xlink:href="tree__data_8h.html" target="_top" xlink:title="libyang representation of YANG data trees.">
<polygon fill="white" stroke="#666666" points="241.88,-182 177.12,-182 177.12,-163.5 241.88,-163.5 241.88,-182"/>
<text text-anchor="middle" x="209.5" y="-168.5" font-family="Helvetica,sans-Serif" font-size="10.00">tree_data.h</text>
</a>
</g>
</g>
<!-- Node1&#45;&gt;Node6 -->
<g id="edge23_Node000001_Node000006" class="edge">
<title>Node1&#45;&gt;Node6</title>
<g id="a_edge23_Node000001_Node000006"><a xlink:title=" ">
<path fill="none" stroke="#63b8ff" d="M128.75,-272.16C135.15,-259.61 148.08,-235.83 162.5,-218 170.76,-207.78 181.32,-197.64 190.33,-189.65"/>
<polygon fill="#63b8ff" stroke="#63b8ff" points="192.56,-192.35 197.86,-183.17 187.99,-187.04 192.56,-192.35"/>
</a>
</g>
</g>
<!-- Node12 -->
<g id="Node000012" class="node">
<title>Node12</title>
<g id="a_Node000012"><a xlink:href="tree__schema_8h.html" target="_top" xlink:title="libyang representation of YANG schema trees.">
<polygon fill="white" stroke="#666666" points="249.75,-127.5 169.25,-127.5 169.25,-109 249.75,-109 249.75,-127.5"/>
<text text-anchor="middle" x="209.5" y="-114" font-family="Helvetica,sans-Serif" font-size="10.00">tree_schema.h</text>
</a>
</g>
</g>
<!-- Node1&#45;&gt;Node12 -->
<g id="edge26_Node000001_Node000012" class="edge">
<title>Node1&#45;&gt;Node12</title>
<g id="a_edge26_Node000001_Node000012"><a xlink:title=" ">
<path fill="none" stroke="#63b8ff" d="M115.79,-272.09C96.28,-251.64 52.74,-199.38 78.5,-163.5 96.54,-138.36 129.62,-127.32 158.03,-122.55"/>
<polygon fill="#63b8ff" stroke="#63b8ff" points="158.15,-126.07 167.55,-121.18 157.15,-119.14 158.15,-126.07"/>
</a>
</g>
</g>
<!-- Node15 -->
<g id="Node000015" class="node">
<title>Node15</title>
<g id="a_Node000015"><a xlink:href="plugins_8h.html" target="_top" xlink:title="Plugins manipulation.">
<polygon fill="white" stroke="#666666" points="142,-182 87,-182 87,-163.5 142,-163.5 142,-182"/>
<text text-anchor="middle" x="114.5" y="-168.5" font-family="Helvetica,sans-Serif" font-size="10.00">plugins.h</text>
</a>
</g>
</g>
<!-- Node1&#45;&gt;Node15 -->
<g id="edge21_Node000001_Node000015" class="edge">
<title>Node1&#45;&gt;Node15</title>
<g id="a_edge21_Node000001_Node000015"><a xlink:title=" ">
<path fill="none" stroke="#63b8ff" d="M123.72,-272.35C122.15,-255.56 118.58,-217.42 116.37,-193.8"/>
<polygon fill="#63b8ff" stroke="#63b8ff" points="119.87,-193.54 115.45,-183.91 112.9,-194.19 119.87,-193.54"/>
</a>
</g>
</g>
<!-- Node16 -->
<g id="Node000016" class="node">
<title>Node16</title>
<g id="a_Node000016"><a xlink:href="tree__edit_8h.html" target="_top" xlink:title="libyang generic macros and functions to modify YANG schema or data trees. Intended for internal use a...">
<polygon fill="white" stroke="#666666" points="327,-236.5 266,-236.5 266,-218 327,-218 327,-236.5"/>
<text text-anchor="middle" x="296.5" y="-223" font-family="Helvetica,sans-Serif" font-size="10.00">tree_edit.h</text>
</a>
</g>
</g>
<!-- Node1&#45;&gt;Node16 -->
<g id="edge24_Node000001_Node000016" class="edge">
<title>Node1&#45;&gt;Node16</title>
<g id="a_edge24_Node000001_Node000016"><a xlink:title=" ">
<path fill="none" stroke="#63b8ff" d="M152.9,-272.08C181.41,-263.38 225.54,-249.91 257.36,-240.2"/>
<polygon fill="#63b8ff" stroke="#63b8ff" points="258.07,-243.64 266.61,-237.37 256.02,-236.95 258.07,-243.64"/>
</a>
</g>
</g>
<!-- Node3 -->
<g id="Node000003" class="node">
<title>Node3</title>
<g id="a_Node000003"><a xlink:title=" ">
<polygon fill="#e0e0e0" stroke="#999999" points="89.25,-18.5 41.75,-18.5 41.75,0 89.25,0 89.25,-18.5"/>
<text text-anchor="middle" x="65.5" y="-5" font-family="Helvetica,sans-Serif" font-size="10.00">stdint.h</text>
</a>
</g>
</g>
<!-- Node2&#45;&gt;Node3 -->
<g id="edge2_Node000002_Node000003" class="edge">
<title>Node2&#45;&gt;Node3</title>
<g id="a_edge2_Node000002_Node000003"><a xlink:title=" ">
<path fill="none" stroke="#63b8ff" d="M26.26,-54.08C32.76,-46.82 42.24,-36.23 50.25,-27.28"/>
<polygon fill="#63b8ff" stroke="#63b8ff" points="52.81,-29.67 56.87,-19.89 47.6,-25 52.81,-29.67"/>
</a>
</g>
</g>
<!-- Node4 -->
<g id="Node000004" class="node">
<title>Node4</title>
<g id="a_Node000004"><a xlink:title=" ">
<polygon fill="#e0e0e0" stroke="#999999" points="166.75,-18.5 116.25,-18.5 116.25,0 166.75,0 166.75,-18.5"/>
<text text-anchor="middle" x="141.5" y="-5" font-family="Helvetica,sans-Serif" font-size="10.00">config.h</text>
</a>
</g>
</g>
<!-- Node2&#45;&gt;Node4 -->
<g id="edge3_Node000002_Node000004" class="edge">
<title>Node2&#45;&gt;Node4</title>
<g id="a_edge3_Node000002_Node000004"><a xlink:title=" ">
<path fill="none" stroke="#63b8ff" d="M37.45,-54.66C57,-46.32 87.79,-33.17 110.82,-23.35"/>
<polygon fill="#63b8ff" stroke="#63b8ff" points="111.88,-26.7 119.7,-19.55 109.13,-20.26 111.88,-26.7"/>
</a>
</g>
</g>
<!-- Node5&#45;&gt;Node6 -->
<g id="edge5_Node000005_Node000006" class="edge">
<title>Node5&#45;&gt;Node6</title>
<g id="a_edge5_Node000005_Node000006"><a xlink:title=" ">
<path fill="none" stroke="#63b8ff" d="M209.5,-217.58C209.5,-211.08 209.5,-201.92 209.5,-193.66"/>
<polygon fill="#63b8ff" stroke="#63b8ff" points="213,-193.77 209.5,-183.77 206,-193.77 213,-193.77"/>
</a>
</g>
</g>
<!-- Node6&#45;&gt;Node2 -->
<g id="edge11_Node000006_Node000002" class="edge">
<title>Node6&#45;&gt;Node2</title>
<g id="a_edge11_Node000006_Node000002"><a xlink:title=" ">
<path fill="none" stroke="#63b8ff" d="M176.66,-164.92C149.43,-158.26 110.47,-146.33 80.5,-127.5 61.11,-115.32 43.22,-95.97 31.7,-81.97"/>
<polygon fill="#63b8ff" stroke="#63b8ff" points="34.7,-80.12 25.73,-74.48 29.22,-84.48 34.7,-80.12"/>
</a>
</g>
</g>
<!-- Node6&#45;&gt;Node3 -->
<g id="edge8_Node000006_Node000003" class="edge">
<title>Node6&#45;&gt;Node3</title>
<g id="a_edge8_Node000006_Node000003"><a xlink:title=" ">
<path fill="none" stroke="#63b8ff" d="M195.18,-163.03C182.37,-154.82 163.5,-141.69 149.5,-127.5 118.7,-96.27 90.72,-52.88 76.12,-28.59"/>
<polygon fill="#63b8ff" stroke="#63b8ff" points="79.26,-27.03 71.16,-20.2 73.23,-30.59 79.26,-27.03"/>
</a>
</g>
</g>
<!-- Node6&#45;&gt;Node4 -->
<g id="edge10_Node000006_Node000004" class="edge">
<title>Node6&#45;&gt;Node4</title>
<g id="a_edge10_Node000006_Node000004"><a xlink:title=" ">
<path fill="none" stroke="#63b8ff" d="M195.48,-163.04C184.13,-155.2 168.72,-142.6 160.5,-127.5 143.62,-96.49 140.82,-54.51 140.82,-30.1"/>
<polygon fill="#63b8ff" stroke="#63b8ff" points="144.31,-30.39 140.99,-20.33 137.31,-30.26 144.31,-30.39"/>
</a>
</g>
</g>
<!-- Node7 -->
<g id="Node000007" class="node">
<title>Node7</title>
<g id="a_Node000007"><a xlink:title=" ">
<polygon fill="#e0e0e0" stroke="#999999" points="367.38,-127.5 305.62,-127.5 305.62,-109 367.38,-109 367.38,-127.5"/>
<text text-anchor="middle" x="336.5" y="-114" font-family="Helvetica,sans-Serif" font-size="10.00">arpa/inet.h</text>
</a>
</g>
</g>
<!-- Node6&#45;&gt;Node7 -->
<g id="edge6_Node000006_Node000007" class="edge">
<title>Node6&#45;&gt;Node7</title>
<g id="a_edge6_Node000006_Node000007"><a xlink:title=" ">
<path fill="none" stroke="#63b8ff" d="M230.47,-163.08C250.79,-154.68 281.85,-141.84 305.11,-132.23"/>
<polygon fill="#63b8ff" stroke="#63b8ff" points="306.19,-135.57 314.1,-128.51 303.52,-129.1 306.19,-135.57"/>
</a>
</g>
</g>
<!-- Node8 -->
<g id="Node000008" class="node">
<title>Node8</title>
<g id="a_Node000008"><a xlink:title=" ">
<polygon fill="#e0e0e0" stroke="#999999" points="435.75,-127.5 385.25,-127.5 385.25,-109 435.75,-109 435.75,-127.5"/>
<text text-anchor="middle" x="410.5" y="-114" font-family="Helvetica,sans-Serif" font-size="10.00">stddef.h</text>
</a>
</g>
</g>
<!-- Node6&#45;&gt;Node8 -->
<g id="edge7_Node000006_Node000008" class="edge">
<title>Node6&#45;&gt;Node8</title>
<g id="a_edge7_Node000006_Node000008"><a xlink:title=" ">
<path fill="none" stroke="#63b8ff" d="M242.24,-163.2C278.33,-153.77 336.25,-138.64 373.83,-128.83"/>
<polygon fill="#63b8ff" stroke="#63b8ff" points="374.54,-132.26 383.33,-126.35 372.77,-125.49 374.54,-132.26"/>
</a>
</g>
</g>
<!-- Node9 -->
<g id="Node000009" class="node">
<title>Node9</title>
<g id="a_Node000009"><a xlink:title=" ">
<polygon fill="#e0e0e0" stroke="#999999" points="497,-127.5 454,-127.5 454,-109 497,-109 497,-127.5"/>
<text text-anchor="middle" x="475.5" y="-114" font-family="Helvetica,sans-Serif" font-size="10.00">time.h</text>
</a>
</g>
</g>
<!-- Node6&#45;&gt;Node9 -->
<g id="edge9_Node000006_Node000009" class="edge">
<title>Node6&#45;&gt;Node9</title>
<g id="a_edge9_Node000006_Node000009"><a xlink:title=" ">
<path fill="none" stroke="#63b8ff" d="M242.35,-166.35C285.88,-159.03 365.29,-145.09 442.64,-127.78"/>
<polygon fill="#63b8ff" stroke="#63b8ff" points="443.08,-131.26 452.06,-125.64 441.53,-124.44 443.08,-131.26"/>
</a>
</g>
</g>
<!-- Node10 -->
<g id="Node000010" class="node">
<title>Node10</title>
<g id="a_Node000010"><a xlink:href="tree_8h.html" target="_top" xlink:title="libyang generic macros and functions to work with YANG schema or data trees.">
<polygon fill="white" stroke="#666666" points="377.88,-73 337.12,-73 337.12,-54.5 377.88,-54.5 377.88,-73"/>
<text text-anchor="middle" x="357.5" y="-59.5" font-family="Helvetica,sans-Serif" font-size="10.00">tree.h</text>
</a>
</g>
</g>
<!-- Node6&#45;&gt;Node10 -->
<g id="edge12_Node000006_Node000010" class="edge">
<title>Node6&#45;&gt;Node10</title>
<g id="a_edge12_Node000006_Node000010"><a xlink:title=" ">
<path fill="none" stroke="#63b8ff" d="M221.36,-163.17C246.37,-145.1 304.78,-102.87 336.35,-80.04"/>
<polygon fill="#63b8ff" stroke="#63b8ff" points="338.3,-82.95 344.36,-74.25 334.2,-77.28 338.3,-82.95"/>
</a>
</g>
</g>
<!-- Node6&#45;&gt;Node12 -->
<g id="edge14_Node000006_Node000012" class="edge">
<title>Node6&#45;&gt;Node12</title>
<g id="a_edge14_Node000006_Node000012"><a xlink:title=" ">
<path fill="none" stroke="#63b8ff" d="M209.5,-163.08C209.5,-156.58 209.5,-147.42 209.5,-139.16"/>
<polygon fill="#63b8ff" stroke="#63b8ff" points="213,-139.27 209.5,-129.27 206,-139.27 213,-139.27"/>
</a>
</g>
</g>
<!-- Node11 -->
<g id="Node000011" class="node">
<title>Node11</title>
<g id="a_Node000011"><a xlink:title=" ">
<polygon fill="#e0e0e0" stroke="#999999" points="386.88,-18.5 328.12,-18.5 328.12,0 386.88,0 386.88,-18.5"/>
<text text-anchor="middle" x="357.5" y="-5" font-family="Helvetica,sans-Serif" font-size="10.00">inttypes.h</text>
</a>
</g>
</g>
<!-- Node10&#45;&gt;Node11 -->
<g id="edge13_Node000010_Node000011" class="edge">
<title>Node10&#45;&gt;Node11</title>
<g id="a_edge13_Node000010_Node000011"><a xlink:title=" ">
<path fill="none" stroke="#63b8ff" d="M357.5,-54.08C357.5,-47.58 357.5,-38.42 357.5,-30.16"/>
<polygon fill="#63b8ff" stroke="#63b8ff" points="361,-30.27 357.5,-20.27 354,-30.27 361,-30.27"/>
</a>
</g>
</g>
<!-- Node12&#45;&gt;Node2 -->
<g id="edge19_Node000012_Node000002" class="edge">
<title>Node12&#45;&gt;Node2</title>
<g id="a_edge19_Node000012_Node000002"><a xlink:title=" ">
<path fill="none" stroke="#63b8ff" d="M177.96,-108.58C141.98,-98.69 83.57,-82.64 48.32,-72.95"/>
<polygon fill="#63b8ff" stroke="#63b8ff" points="49.35,-69.6 38.78,-70.32 47.49,-76.35 49.35,-69.6"/>
</a>
</g>
</g>
<!-- Node12&#45;&gt;Node3 -->
<g id="edge16_Node000012_Node000003" class="edge">
<title>Node12&#45;&gt;Node3</title>
<g id="a_edge16_Node000012_Node000003"><a xlink:title=" ">
<path fill="none" stroke="#63b8ff" d="M198.2,-108.85C174.03,-90.89 117.01,-48.52 86.17,-25.61"/>
<polygon fill="#63b8ff" stroke="#63b8ff" points="88.48,-22.96 78.36,-19.81 84.3,-28.58 88.48,-22.96"/>
</a>
</g>
</g>
<!-- Node12&#45;&gt;Node4 -->
<g id="edge18_Node000012_Node000004" class="edge">
<title>Node12&#45;&gt;Node4</title>
<g id="a_edge18_Node000012_Node000004"><a xlink:title=" ">
<path fill="none" stroke="#63b8ff" d="M204.16,-108.85C193.2,-91.59 167.9,-51.79 153.02,-28.37"/>
<polygon fill="#63b8ff" stroke="#63b8ff" points="156.13,-26.74 147.81,-20.18 150.22,-30.5 156.13,-26.74"/>
</a>
</g>
</g>
<!-- Node12&#45;&gt;Node10 -->
<g id="edge20_Node000012_Node000010" class="edge">
<title>Node12&#45;&gt;Node10</title>
<g id="a_edge20_Node000012_Node000010"><a xlink:title=" ">
<path fill="none" stroke="#63b8ff" d="M233.94,-108.58C259.2,-99.62 298.71,-85.61 326.23,-75.84"/>
<polygon fill="#63b8ff" stroke="#63b8ff" points="327.17,-79.22 335.42,-72.58 324.83,-72.63 327.17,-79.22"/>
</a>
</g>
</g>
<!-- Node13 -->
<g id="Node000013" class="node">
<title>Node13</title>
<g id="a_Node000013"><a xlink:title=" ">
<polygon fill="#e0e0e0" stroke="#999999" points="255.62,-73 207.38,-73 207.38,-54.5 255.62,-54.5 255.62,-73"/>
<text text-anchor="middle" x="231.5" y="-59.5" font-family="Helvetica,sans-Serif" font-size="10.00">pcre2.h</text>
</a>
</g>
</g>
<!-- Node12&#45;&gt;Node13 -->
<g id="edge15_Node000012_Node000013" class="edge">
<title>Node12&#45;&gt;Node13</title>
<g id="a_edge15_Node000012_Node000013"><a xlink:title=" ">
<path fill="none" stroke="#63b8ff" d="M213.13,-108.58C215.95,-101.85 219.97,-92.27 223.52,-83.79"/>
<polygon fill="#63b8ff" stroke="#63b8ff" points="226.71,-85.23 227.35,-74.65 220.26,-82.52 226.71,-85.23"/>
</a>
</g>
</g>
<!-- Node14 -->
<g id="Node000014" class="node">
<title>Node14</title>
<g id="a_Node000014"><a xlink:title=" ">
<polygon fill="#e0e0e0" stroke="#999999" points="319.12,-73 273.88,-73 273.88,-54.5 319.12,-54.5 319.12,-73"/>
<text text-anchor="middle" x="296.5" y="-59.5" font-family="Helvetica,sans-Serif" font-size="10.00">stdio.h</text>
</a>
</g>
</g>
<!-- Node12&#45;&gt;Node14 -->
<g id="edge17_Node000012_Node000014" class="edge">
<title>Node12&#45;&gt;Node14</title>
<g id="a_edge17_Node000012_Node000014"><a xlink:title=" ">
<path fill="none" stroke="#63b8ff" d="M223.87,-108.58C237.09,-100.6 256.96,-88.61 272.58,-79.19"/>
<polygon fill="#63b8ff" stroke="#63b8ff" points="274.06,-82.38 280.82,-74.21 270.45,-76.38 274.06,-82.38"/>
</a>
</g>
</g>
<!-- Node15&#45;&gt;Node2 -->
<g id="edge22_Node000015_Node000002" class="edge">
<title>Node15&#45;&gt;Node2</title>
<g id="a_edge22_Node000015_Node000002"><a xlink:title=" ">
<path fill="none" stroke="#63b8ff" d="M92.96,-163.09C77.08,-155.73 55.99,-143.76 42.5,-127.5 32.12,-114.99 25.93,-97.51 22.44,-84.17"/>
<polygon fill="#63b8ff" stroke="#63b8ff" points="25.95,-83.79 20.3,-74.83 19.13,-85.36 25.95,-83.79"/>
</a>
</g>
</g>
<!-- Node17 -->
<g id="Node000017" class="node">
<title>Node17</title>
<g id="a_Node000017"><a xlink:title=" ">
<polygon fill="#e0e0e0" stroke="#999999" points="320.25,-182 272.75,-182 272.75,-163.5 320.25,-163.5 320.25,-182"/>
<text text-anchor="middle" x="296.5" y="-168.5" font-family="Helvetica,sans-Serif" font-size="10.00">stdlib.h</text>
</a>
</g>
</g>
<!-- Node16&#45;&gt;Node17 -->
<g id="edge25_Node000016_Node000017" class="edge">
<title>Node16&#45;&gt;Node17</title>
<g id="a_edge25_Node000016_Node000017"><a xlink:title=" ">
<path fill="none" stroke="#63b8ff" d="M296.5,-217.58C296.5,-211.08 296.5,-201.92 296.5,-193.66"/>
<polygon fill="#63b8ff" stroke="#63b8ff" points="300,-193.77 296.5,-183.77 293,-193.77 300,-193.77"/>
</a>
</g>
</g>
</g>
</svg>

<g id="navigator" transform="translate(0 0)" fill="#404254">
  <rect fill="#f2f5e9" fill-opacity="0.5" stroke="#606060" stroke-width=".5" x="0" y="0" width="60" height="60"/>
  <use id="zoomplus" xlink:href="#zoomPlus" x="17" y="9" onmousedown="handleZoom(evt,'in')"/>
  <use id="zoomminus" xlink:href="#zoomMin" x="42" y="9" onmousedown="handleZoom(evt,'out')"/>
  <use id="reset" xlink:href="#resetDef" x="30" y="36" onmousedown="handleReset()"/>
   <use id="arrowup" xlink:href="#arrowUp" x="0" y="0" onmousedown="handlePan(0,-1)"/>
  <use id="arrowright" xlink:href="#arrowRight" x="0" y="0" onmousedown="handlePan(1,0)"/>
  <use id="arrowdown" xlink:href="#arrowDown" x="0" y="0" onmousedown="handlePan(0,1)"/>
  <use id="arrowleft" xlink:href="#arrowLeft" x="0" y="0" onmousedown="handlePan(-1,0)"/>
</g>
<svg viewBox="0 0 15 15" width="100%" height="30px" preserveAspectRatio="xMaxYMin meet">
 <g id="arrow_out" transform="scale(0.3 0.3)">
  <a xlink:href="plugins__exts_8h__incl_org.svg" target="_base">
   <rect id="button" ry="5" rx="5" y="6" x="6" height="38" width="38"
        fill="#f2f5e9" fill-opacity="0.5" stroke="#606060" stroke-width="1.0"/>
   <path id="arrow"
     d="M 11.500037,31.436501 C 11.940474,20.09759 22.043105,11.32322 32.158766,21.979434 L 37.068811,17.246167 C 37.068811,17.246167 37.088388,32 37.088388,32 L 22.160133,31.978069 C 22.160133,31.978069 26.997745,27.140456 26.997745,27.140456 C 18.528582,18.264221 13.291696,25.230495 11.500037,31.436501 z"
     style="fill:#404040;"/>
  </a>
 </g>
</svg>

<style type='text/css'>
<![CDATA[
[data-mouse-over-selected='false'] { opacity: 0.7; }
[data-mouse-over-selected='true']  { opacity: 1.0; }
]]>
</style>
<script type="application/ecmascript"><![CDATA[
document.addEventListener('DOMContentLoaded', (event) => {
  highlightEdges();
  highlightAdjacentNodes();
});
]]></script>
</svg>
