<?xml version="1.0" encoding="UTF-8" standalone="no"?>
<!DOCTYPE svg PUBLIC "-//W3C//DTD SVG 1.1//EN"
 "http://www.w3.org/Graphics/SVG/1.1/DTD/svg11.dtd">
<!-- Generated by graphviz version 12.1.0 (20240811.2233)
 -->
<!-- Title: src/plugins_types.h Pages: 1 -->
<!--zoomable 92 -->

<svg id="main" version="1.1" xmlns="http://www.w3.org/2000/svg" xmlns:xlink="http://www.w3.org/1999/xlink" xml:space="preserve" onload="init(evt)">

<style type="text/css"><![CDATA[
.node, .edge {opacity: 0.7;}
.node.selected, .edge.selected {opacity: 1;}
.edge:hover path { stroke: red; }
.edge:hover polygon { stroke: red; fill: red; }
]]></style>

<defs>
  <circle id="rim" cx="0" cy="0" r="7"/>
  <circle id="rim2" cx="0" cy="0" r="3.5"/>
  <g id="zoomPlus">
    <use xlink:href="#rim" fill="#404040"><set attributeName="fill" to="#808080" begin="zoomplus.mouseover" end="zoomplus.mouseout"/></use>
    <path d="M-4,0h8M0,-4v8" fill="none" stroke="white" stroke-width="1.5" pointer-events="none"/>
  </g>
  <g id="zoomMin">
    <use xlink:href="#rim" fill="#404040"><set attributeName="fill" to="#808080" begin="zoomminus.mouseover" end="zoomminus.mouseout"/></use>
    <path d="M-4,0h8" fill="none" stroke="white" stroke-width="1.5" pointer-events="none"/>
  </g>
  <g id="arrowUp" transform="translate(30 24)">
    <use xlink:href="#rim"/>
    <path pointer-events="none" fill="none" stroke="white" stroke-width="1.5" d="M0,-3.0v7 M-2.5,-0.5L0,-3.0L2.5,-0.5"/>
  </g>
  <g id="arrowRight" transform="rotate(90) translate(36 -43)">
    <use xlink:href="#rim"/>
    <path pointer-events="none" fill="none" stroke="white" stroke-width="1.5" d="M0,-3.0v7 M-2.5,-0.5L0,-3.0L2.5,-0.5"/>
  </g>
  <g id="arrowDown" transform="rotate(180) translate(-30 -48)">
    <use xlink:href="#rim"/>
    <path pointer-events="none" fill="none" stroke="white" stroke-width="1.5" d="M0,-3.0v7 M-2.5,-0.5L0,-3.0L2.5,-0.5"/>
  </g>
  <g id="arrowLeft" transform="rotate(270) translate(-36 17)">
    <use xlink:href="#rim"/>
    <path pointer-events="none" fill="none" stroke="white" stroke-width="1.5" d="M0,-3.0v7 M-2.5,-0.5L0,-3.0L2.5,-0.5"/>
  </g>
  <g id="resetDef">
    <use xlink:href="#rim2" fill="#404040"><set attributeName="fill" to="#808080" begin="reset.mouseover" end="reset.mouseout"/></use>
  </g>
</defs>
<script type="application/ecmascript">
var viewWidth = 3345;
var viewHeight = 92;
var sectionId = 'dynsection-1';
</script>
<script type="application/ecmascript" xlink:href="svg.min.js"/>
<svg id="graph" class="graph">
<g id="viewport">
<title>src/plugins_types.h</title>
<!-- Node1 -->
<g id="Node000001" class="node">
<title>Node1</title>
<g id="a_Node000001"><a xlink:title="API for (user) types plugins.">
<polygon fill="#999999" stroke="#666666" points="1797.38,-83.5 1696.62,-83.5 1696.62,-65 1797.38,-65 1797.38,-83.5"/>
<text text-anchor="middle" x="1747" y="-70" font-family="Helvetica,sans-Serif" font-size="10.00">src/plugins_types.h</text>
</a>
</g>
</g>
<!-- Node2 -->
<g id="Node000002" class="node">
<title>Node2</title>
<g id="a_Node000002"><a xlink:href="binary_8c.html" target="_top" xlink:title="Built&#45;in binary type plugin.">
<polygon fill="white" stroke="#666666" points="130,-23.75 0,-23.75 0,-5.25 130,-5.25 130,-23.75"/>
<text text-anchor="middle" x="65" y="-10.25" font-family="Helvetica,sans-Serif" font-size="10.00">src/plugins_types/binary.c</text>
</a>
</g>
</g>
<!-- Node1&#45;&gt;Node2 -->
<g id="edge1_Node000001_Node000002" class="edge">
<title>Node1&#45;&gt;Node2</title>
<g id="a_edge1_Node000001_Node000002"><a xlink:title=" ">
<path fill="none" stroke="#63b8ff" d="M1685.21,-72.81C1428.72,-70.81 447.1,-61.15 139,-29 128.35,-27.89 116.93,-26.1 106.33,-24.19"/>
<polygon fill="#63b8ff" stroke="#63b8ff" points="1684.97,-76.31 1695,-72.89 1685.03,-69.31 1684.97,-76.31"/>
</a>
</g>
</g>
<!-- Node3 -->
<g id="Node000003" class="node">
<title>Node3</title>
<g id="a_Node000003"><a xlink:href="bits_8c.html" target="_top" xlink:title="Built&#45;in bits type plugin.">
<polygon fill="white" stroke="#666666" points="267.75,-23.75 148.25,-23.75 148.25,-5.25 267.75,-5.25 267.75,-23.75"/>
<text text-anchor="middle" x="208" y="-10.25" font-family="Helvetica,sans-Serif" font-size="10.00">src/plugins_types/bits.c</text>
</a>
</g>
</g>
<!-- Node1&#45;&gt;Node3 -->
<g id="edge2_Node000001_Node000003" class="edge">
<title>Node1&#45;&gt;Node3</title>
<g id="a_edge2_Node000001_Node000003"><a xlink:title=" ">
<path fill="none" stroke="#63b8ff" d="M1685,-72.73C1442.3,-70.49 556.29,-60.31 277,-29 267.05,-27.88 256.4,-26.1 246.51,-24.19"/>
<polygon fill="#63b8ff" stroke="#63b8ff" points="1684.86,-76.23 1694.89,-72.82 1684.92,-69.23 1684.86,-76.23"/>
</a>
</g>
</g>
<!-- Node4 -->
<g id="Node000004" class="node">
<title>Node4</title>
<g id="a_Node000004"><a xlink:href="boolean_8c.html" target="_top" xlink:title="Built&#45;in boolean type plugin.">
<polygon fill="white" stroke="#666666" points="423.75,-23.75 286.25,-23.75 286.25,-5.25 423.75,-5.25 423.75,-23.75"/>
<text text-anchor="middle" x="355" y="-10.25" font-family="Helvetica,sans-Serif" font-size="10.00">src/plugins_types/boolean.c</text>
</a>
</g>
</g>
<!-- Node1&#45;&gt;Node4 -->
<g id="edge3_Node000001_Node000004" class="edge">
<title>Node1&#45;&gt;Node4</title>
<g id="a_edge3_Node000001_Node000004"><a xlink:title=" ">
<path fill="none" stroke="#63b8ff" d="M1684.97,-72.3C1459.05,-68.64 680.45,-54.46 433,-29 421.93,-27.86 410.05,-26.09 398.99,-24.2"/>
<polygon fill="#63b8ff" stroke="#63b8ff" points="1684.68,-75.79 1694.74,-72.45 1684.8,-68.79 1684.68,-75.79"/>
</a>
</g>
</g>
<!-- Node5 -->
<g id="Node000005" class="node">
<title>Node5</title>
<g id="a_Node000005"><a xlink:href="date__and__time_8c.html" target="_top" xlink:title="ietf&#45;yang&#45;types date&#45;and&#45;time type plugin.">
<polygon fill="white" stroke="#666666" points="556.12,-29 441.88,-29 441.88,0 556.12,0 556.12,-29"/>
<text text-anchor="start" x="449.88" y="-15.5" font-family="Helvetica,sans-Serif" font-size="10.00">src/plugins_types/date</text>
<text text-anchor="middle" x="499" y="-5" font-family="Helvetica,sans-Serif" font-size="10.00">_and_time.c</text>
</a>
</g>
</g>
<!-- Node1&#45;&gt;Node5 -->
<g id="edge4_Node000001_Node000005" class="edge">
<title>Node1&#45;&gt;Node5</title>
<g id="a_edge4_Node000001_Node000005"><a xlink:title=" ">
<path fill="none" stroke="#63b8ff" d="M1684.97,-72.27C1473.99,-68.75 784.99,-55.43 565,-29 562.21,-28.67 559.37,-28.27 556.5,-27.84"/>
<polygon fill="#63b8ff" stroke="#63b8ff" points="1684.85,-75.77 1694.91,-72.44 1684.97,-68.77 1684.85,-75.77"/>
</a>
</g>
</g>
<!-- Node6 -->
<g id="Node000006" class="node">
<title>Node6</title>
<g id="a_Node000006"><a xlink:href="decimal64_8c.html" target="_top" xlink:title="Built&#45;in decimal64 type plugin.">
<polygon fill="white" stroke="#666666" points="722,-23.75 574,-23.75 574,-5.25 722,-5.25 722,-23.75"/>
<text text-anchor="middle" x="648" y="-10.25" font-family="Helvetica,sans-Serif" font-size="10.00">src/plugins_types/decimal64.c</text>
</a>
</g>
</g>
<!-- Node1&#45;&gt;Node6 -->
<g id="edge5_Node000001_Node000006" class="edge">
<title>Node1&#45;&gt;Node6</title>
<g id="a_edge5_Node000001_Node000006"><a xlink:title=" ">
<path fill="none" stroke="#63b8ff" d="M1684.95,-73.09C1525.94,-72.11 1091.04,-65.99 731,-29 719.53,-27.82 707.23,-26.08 695.71,-24.25"/>
<polygon fill="#63b8ff" stroke="#63b8ff" points="1684.83,-76.58 1694.85,-73.14 1684.87,-69.58 1684.83,-76.58"/>
</a>
</g>
</g>
<!-- Node7 -->
<g id="Node000007" class="node">
<title>Node7</title>
<g id="a_Node000007"><a xlink:href="empty_8c.html" target="_top" xlink:title="Built&#45;in empty type plugin.">
<polygon fill="white" stroke="#666666" points="870,-23.75 740,-23.75 740,-5.25 870,-5.25 870,-23.75"/>
<text text-anchor="middle" x="805" y="-10.25" font-family="Helvetica,sans-Serif" font-size="10.00">src/plugins_types/empty.c</text>
</a>
</g>
</g>
<!-- Node1&#45;&gt;Node7 -->
<g id="edge6_Node000001_Node000007" class="edge">
<title>Node1&#45;&gt;Node7</title>
<g id="a_edge6_Node000001_Node000007"><a xlink:title=" ">
<path fill="none" stroke="#63b8ff" d="M1685.34,-72.84C1542.86,-71.31 1179.98,-63.98 879,-29 868.75,-27.81 857.78,-26.07 847.51,-24.23"/>
<polygon fill="#63b8ff" stroke="#63b8ff" points="1684.87,-76.34 1694.91,-72.94 1684.94,-69.34 1684.87,-76.34"/>
</a>
</g>
</g>
<!-- Node8 -->
<g id="Node000008" class="node">
<title>Node8</title>
<g id="a_Node000008"><a xlink:href="enumeration_8c.html" target="_top" xlink:title="Built&#45;in enumeration type plugin.">
<polygon fill="white" stroke="#666666" points="1045.5,-23.75 888.5,-23.75 888.5,-5.25 1045.5,-5.25 1045.5,-23.75"/>
<text text-anchor="middle" x="967" y="-10.25" font-family="Helvetica,sans-Serif" font-size="10.00">src/plugins_types/enumeration.c</text>
</a>
</g>
</g>
<!-- Node1&#45;&gt;Node8 -->
<g id="edge7_Node000001_Node000008" class="edge">
<title>Node1&#45;&gt;Node8</title>
<g id="a_edge7_Node000001_Node000008"><a xlink:title=" ">
<path fill="none" stroke="#63b8ff" d="M1685.19,-71.17C1563.88,-66.69 1286.2,-54.38 1054,-29 1042.3,-27.72 1029.77,-25.99 1017.96,-24.2"/>
<polygon fill="#63b8ff" stroke="#63b8ff" points="1684.8,-74.66 1694.92,-71.53 1685.05,-67.67 1684.8,-74.66"/>
</a>
</g>
</g>
<!-- Node9 -->
<g id="Node000009" class="node">
<title>Node9</title>
<g id="a_Node000009"><a xlink:href="hex__string_8c.html" target="_top" xlink:title="Built&#45;in hex&#45;string and associated types plugin.">
<polygon fill="white" stroke="#666666" points="1174.62,-29 1063.38,-29 1063.38,0 1174.62,0 1174.62,-29"/>
<text text-anchor="start" x="1071.38" y="-15.5" font-family="Helvetica,sans-Serif" font-size="10.00">src/plugins_types/hex</text>
<text text-anchor="middle" x="1119" y="-5" font-family="Helvetica,sans-Serif" font-size="10.00">_string.c</text>
</a>
</g>
</g>
<!-- Node1&#45;&gt;Node9 -->
<g id="edge8_Node000001_Node000009" class="edge">
<title>Node1&#45;&gt;Node9</title>
<g id="a_edge8_Node000001_Node000009"><a xlink:title=" ">
<path fill="none" stroke="#63b8ff" d="M1685.08,-70.94C1581.11,-66.5 1365.03,-54.81 1184,-29 1181.03,-28.58 1178,-28.1 1174.94,-27.59"/>
<polygon fill="#63b8ff" stroke="#63b8ff" points="1684.65,-74.43 1694.79,-71.35 1684.94,-67.43 1684.65,-74.43"/>
</a>
</g>
</g>
<!-- Node10 -->
<g id="Node000010" class="node">
<title>Node10</title>
<g id="a_Node000010"><a xlink:href="identityref_8c.html" target="_top" xlink:title="Built&#45;in identityref type plugin.">
<polygon fill="white" stroke="#666666" points="1338.88,-23.75 1193.12,-23.75 1193.12,-5.25 1338.88,-5.25 1338.88,-23.75"/>
<text text-anchor="middle" x="1266" y="-10.25" font-family="Helvetica,sans-Serif" font-size="10.00">src/plugins_types/identityref.c</text>
</a>
</g>
</g>
<!-- Node1&#45;&gt;Node10 -->
<g id="edge9_Node000001_Node000010" class="edge">
<title>Node1&#45;&gt;Node10</title>
<g id="a_edge9_Node000001_Node000010"><a xlink:title=" ">
<path fill="none" stroke="#63b8ff" d="M1685.05,-67.4C1606.5,-59.75 1466.95,-45.38 1348,-29 1337.71,-27.58 1326.72,-25.9 1316.24,-24.2"/>
<polygon fill="#63b8ff" stroke="#63b8ff" points="1684.39,-70.85 1694.68,-68.34 1685.07,-63.89 1684.39,-70.85"/>
</a>
</g>
</g>
<!-- Node11 -->
<g id="Node000011" class="node">
<title>Node11</title>
<g id="a_Node000011"><a xlink:href="instanceid_8c.html" target="_top" xlink:title="Built&#45;in instance&#45;identifier type plugin.">
<polygon fill="white" stroke="#666666" points="1505,-23.75 1357,-23.75 1357,-5.25 1505,-5.25 1505,-23.75"/>
<text text-anchor="middle" x="1431" y="-10.25" font-family="Helvetica,sans-Serif" font-size="10.00">src/plugins_types/instanceid.c</text>
</a>
</g>
</g>
<!-- Node1&#45;&gt;Node11 -->
<g id="edge10_Node000001_Node000011" class="edge">
<title>Node1&#45;&gt;Node11</title>
<g id="a_edge10_Node000001_Node000011"><a xlink:title=" ">
<path fill="none" stroke="#63b8ff" d="M1688.09,-62.48C1627.66,-51.44 1534.8,-34.47 1478.78,-24.23"/>
<polygon fill="#63b8ff" stroke="#63b8ff" points="1687.39,-65.91 1697.86,-64.27 1688.65,-59.03 1687.39,-65.91"/>
</a>
</g>
</g>
<!-- Node12 -->
<g id="Node000012" class="node">
<title>Node12</title>
<g id="a_Node000012"><a xlink:href="instanceid__keys_8c.html" target="_top" xlink:title="ietf&#45;netconf edit&#45;config key metadata instance&#45;identifier keys predicate type plugin.">
<polygon fill="white" stroke="#666666" points="1662.88,-29 1523.12,-29 1523.12,0 1662.88,0 1662.88,-29"/>
<text text-anchor="start" x="1531.12" y="-15.5" font-family="Helvetica,sans-Serif" font-size="10.00">src/plugins_types/instanceid</text>
<text text-anchor="middle" x="1593" y="-5" font-family="Helvetica,sans-Serif" font-size="10.00">_keys.c</text>
</a>
</g>
</g>
<!-- Node1&#45;&gt;Node12 -->
<g id="edge11_Node000001_Node000012" class="edge">
<title>Node1&#45;&gt;Node12</title>
<g id="a_edge11_Node000001_Node000012"><a xlink:title=" ">
<path fill="none" stroke="#63b8ff" d="M1713.35,-60.63C1688.83,-51.44 1655.61,-38.98 1630.29,-29.48"/>
<polygon fill="#63b8ff" stroke="#63b8ff" points="1711.94,-63.84 1722.53,-64.07 1714.39,-57.28 1711.94,-63.84"/>
</a>
</g>
</g>
<!-- Node13 -->
<g id="Node000013" class="node">
<title>Node13</title>
<g id="a_Node000013"><a xlink:href="integer_8c.html" target="_top" xlink:title="Built&#45;in integer types plugin.">
<polygon fill="white" stroke="#666666" points="1813.5,-23.75 1680.5,-23.75 1680.5,-5.25 1813.5,-5.25 1813.5,-23.75"/>
<text text-anchor="middle" x="1747" y="-10.25" font-family="Helvetica,sans-Serif" font-size="10.00">src/plugins_types/integer.c</text>
</a>
</g>
</g>
<!-- Node1&#45;&gt;Node13 -->
<g id="edge12_Node000001_Node000013" class="edge">
<title>Node1&#45;&gt;Node13</title>
<g id="a_edge12_Node000001_Node000013"><a xlink:title=" ">
<path fill="none" stroke="#63b8ff" d="M1747,-53.33C1747,-43.33 1747,-31.75 1747,-24.06"/>
<polygon fill="#63b8ff" stroke="#63b8ff" points="1743.5,-53.22 1747,-63.22 1750.5,-53.22 1743.5,-53.22"/>
</a>
</g>
</g>
<!-- Node14 -->
<g id="Node000014" class="node">
<title>Node14</title>
<g id="a_Node000014"><a xlink:href="ipv4__address_8c.html" target="_top" xlink:title="ietf&#45;inet&#45;types ipv4&#45;address type plugin.">
<polygon fill="white" stroke="#666666" points="1944.75,-29 1831.25,-29 1831.25,0 1944.75,0 1944.75,-29"/>
<text text-anchor="start" x="1839.25" y="-15.5" font-family="Helvetica,sans-Serif" font-size="10.00">src/plugins_types/ipv4</text>
<text text-anchor="middle" x="1888" y="-5" font-family="Helvetica,sans-Serif" font-size="10.00">_address.c</text>
</a>
</g>
</g>
<!-- Node1&#45;&gt;Node14 -->
<g id="edge13_Node000001_Node000014" class="edge">
<title>Node1&#45;&gt;Node14</title>
<g id="a_edge13_Node000001_Node000014"><a xlink:title=" ">
<path fill="none" stroke="#63b8ff" d="M1778.72,-60.26C1801.08,-51.1 1830.99,-38.85 1853.86,-29.48"/>
<polygon fill="#63b8ff" stroke="#63b8ff" points="1777.44,-57 1769.51,-64.03 1780.09,-63.48 1777.44,-57"/>
</a>
</g>
</g>
<!-- Node15 -->
<g id="Node000015" class="node">
<title>Node15</title>
<g id="a_Node000015"><a xlink:href="ipv4__address__no__zone_8c.html" target="_top" xlink:title="ietf&#45;inet&#45;types ipv4&#45;address&#45;no&#45;zone type plugin.">
<polygon fill="white" stroke="#666666" points="2076.75,-29 1963.25,-29 1963.25,0 2076.75,0 2076.75,-29"/>
<text text-anchor="start" x="1971.25" y="-15.5" font-family="Helvetica,sans-Serif" font-size="10.00">src/plugins_types/ipv4</text>
<text text-anchor="middle" x="2020" y="-5" font-family="Helvetica,sans-Serif" font-size="10.00">_address_no_zone.c</text>
</a>
</g>
</g>
<!-- Node1&#45;&gt;Node15 -->
<g id="edge14_Node000001_Node000015" class="edge">
<title>Node1&#45;&gt;Node15</title>
<g id="a_edge14_Node000001_Node000015"><a xlink:title=" ">
<path fill="none" stroke="#63b8ff" d="M1799.28,-62.19C1846.07,-52.29 1914.54,-37.81 1962.79,-27.6"/>
<polygon fill="#63b8ff" stroke="#63b8ff" points="1798.71,-58.73 1789.65,-64.23 1800.16,-65.58 1798.71,-58.73"/>
</a>
</g>
</g>
<!-- Node16 -->
<g id="Node000016" class="node">
<title>Node16</title>
<g id="a_Node000016"><a xlink:href="ipv4__prefix_8c.html" target="_top" xlink:title="ietf&#45;inet&#45;types ipv4&#45;prefix type plugin.">
<polygon fill="white" stroke="#666666" points="2208.75,-29 2095.25,-29 2095.25,0 2208.75,0 2208.75,-29"/>
<text text-anchor="start" x="2103.25" y="-15.5" font-family="Helvetica,sans-Serif" font-size="10.00">src/plugins_types/ipv4</text>
<text text-anchor="middle" x="2152" y="-5" font-family="Helvetica,sans-Serif" font-size="10.00">_prefix.c</text>
</a>
</g>
</g>
<!-- Node1&#45;&gt;Node16 -->
<g id="edge15_Node000001_Node000016" class="edge">
<title>Node1&#45;&gt;Node16</title>
<g id="a_edge15_Node000001_Node000016"><a xlink:title=" ">
<path fill="none" stroke="#63b8ff" d="M1809.08,-66.5C1877.21,-58.79 1989.71,-45.11 2086,-29 2088.88,-28.52 2091.83,-28 2094.81,-27.46"/>
<polygon fill="#63b8ff" stroke="#63b8ff" points="1808.76,-63.02 1799.21,-67.61 1809.54,-69.97 1808.76,-63.02"/>
</a>
</g>
</g>
<!-- Node17 -->
<g id="Node000017" class="node">
<title>Node17</title>
<g id="a_Node000017"><a xlink:href="ipv6__address_8c.html" target="_top" xlink:title="ietf&#45;inet&#45;types ipv6&#45;address type plugin.">
<polygon fill="white" stroke="#666666" points="2340.75,-29 2227.25,-29 2227.25,0 2340.75,0 2340.75,-29"/>
<text text-anchor="start" x="2235.25" y="-15.5" font-family="Helvetica,sans-Serif" font-size="10.00">src/plugins_types/ipv6</text>
<text text-anchor="middle" x="2284" y="-5" font-family="Helvetica,sans-Serif" font-size="10.00">_address.c</text>
</a>
</g>
</g>
<!-- Node1&#45;&gt;Node17 -->
<g id="edge16_Node000001_Node000017" class="edge">
<title>Node1&#45;&gt;Node17</title>
<g id="a_edge16_Node000001_Node000017"><a xlink:title=" ">
<path fill="none" stroke="#63b8ff" d="M1809.15,-69.56C1899.5,-63.71 2072.27,-50.68 2218,-29 2220.89,-28.57 2223.85,-28.09 2226.83,-27.59"/>
<polygon fill="#63b8ff" stroke="#63b8ff" points="1809.02,-66.06 1799.26,-70.19 1809.46,-73.05 1809.02,-66.06"/>
</a>
</g>
</g>
<!-- Node18 -->
<g id="Node000018" class="node">
<title>Node18</title>
<g id="a_Node000018"><a xlink:href="ipv6__address__no__zone_8c.html" target="_top" xlink:title="ietf&#45;inet&#45;types ipv6&#45;address&#45;no&#45;zone type plugin.">
<polygon fill="white" stroke="#666666" points="2472.75,-29 2359.25,-29 2359.25,0 2472.75,0 2472.75,-29"/>
<text text-anchor="start" x="2367.25" y="-15.5" font-family="Helvetica,sans-Serif" font-size="10.00">src/plugins_types/ipv6</text>
<text text-anchor="middle" x="2416" y="-5" font-family="Helvetica,sans-Serif" font-size="10.00">_address_no_zone.c</text>
</a>
</g>
</g>
<!-- Node1&#45;&gt;Node18 -->
<g id="edge17_Node000001_Node000018" class="edge">
<title>Node1&#45;&gt;Node18</title>
<g id="a_edge17_Node000001_Node000018"><a xlink:title=" ">
<path fill="none" stroke="#63b8ff" d="M1809.14,-71.32C1918.79,-67.34 2153.62,-56.18 2350,-29 2352.9,-28.6 2355.86,-28.15 2358.84,-27.66"/>
<polygon fill="#63b8ff" stroke="#63b8ff" points="1809.04,-67.82 1799.17,-71.68 1809.29,-74.82 1809.04,-67.82"/>
</a>
</g>
</g>
<!-- Node19 -->
<g id="Node000019" class="node">
<title>Node19</title>
<g id="a_Node000019"><a xlink:href="ipv6__prefix_8c.html" target="_top" xlink:title="ietf&#45;inet&#45;types ipv6&#45;prefix type plugin.">
<polygon fill="white" stroke="#666666" points="2604.75,-29 2491.25,-29 2491.25,0 2604.75,0 2604.75,-29"/>
<text text-anchor="start" x="2499.25" y="-15.5" font-family="Helvetica,sans-Serif" font-size="10.00">src/plugins_types/ipv6</text>
<text text-anchor="middle" x="2548" y="-5" font-family="Helvetica,sans-Serif" font-size="10.00">_prefix.c</text>
</a>
</g>
</g>
<!-- Node1&#45;&gt;Node19 -->
<g id="edge18_Node000001_Node000019" class="edge">
<title>Node1&#45;&gt;Node19</title>
<g id="a_edge18_Node000001_Node000019"><a xlink:title=" ">
<path fill="none" stroke="#63b8ff" d="M1808.96,-72.48C1935.8,-70.24 2234.04,-61.66 2482,-29 2484.9,-28.62 2487.86,-28.18 2490.85,-27.71"/>
<polygon fill="#63b8ff" stroke="#63b8ff" points="1809.04,-68.97 1799.1,-72.64 1809.15,-75.97 1809.04,-68.97"/>
</a>
</g>
</g>
<!-- Node20 -->
<g id="Node000020" class="node">
<title>Node20</title>
<g id="a_Node000020"><a xlink:href="leafref_8c.html" target="_top" xlink:title="Built&#45;in leafref type plugin.">
<polygon fill="white" stroke="#666666" points="2753,-23.75 2623,-23.75 2623,-5.25 2753,-5.25 2753,-23.75"/>
<text text-anchor="middle" x="2688" y="-10.25" font-family="Helvetica,sans-Serif" font-size="10.00">src/plugins_types/leafref.c</text>
</a>
</g>
</g>
<!-- Node1&#45;&gt;Node20 -->
<g id="edge19_Node000001_Node000020" class="edge">
<title>Node1&#45;&gt;Node20</title>
<g id="a_edge19_Node000001_Node000020"><a xlink:title=" ">
<path fill="none" stroke="#63b8ff" d="M1809.02,-72.83C1951.63,-71.28 2313.67,-63.91 2614,-29 2624.25,-27.81 2635.22,-26.07 2645.49,-24.23"/>
<polygon fill="#63b8ff" stroke="#63b8ff" points="1809,-69.33 1799.03,-72.94 1809.07,-76.33 1809,-69.33"/>
</a>
</g>
</g>
<!-- Node21 -->
<g id="Node000021" class="node">
<title>Node21</title>
<g id="a_Node000021"><a xlink:href="node__instanceid_8c.html" target="_top" xlink:title="ietf&#45;netconf&#45;acm node&#45;instance&#45;identifier type plugin.">
<polygon fill="white" stroke="#666666" points="2887.25,-29 2770.75,-29 2770.75,0 2887.25,0 2887.25,-29"/>
<text text-anchor="start" x="2778.75" y="-15.5" font-family="Helvetica,sans-Serif" font-size="10.00">src/plugins_types/node</text>
<text text-anchor="middle" x="2829" y="-5" font-family="Helvetica,sans-Serif" font-size="10.00">_instanceid.c</text>
</a>
</g>
</g>
<!-- Node1&#45;&gt;Node21 -->
<g id="edge20_Node000001_Node000021" class="edge">
<title>Node1&#45;&gt;Node21</title>
<g id="a_edge20_Node000001_Node000021"><a xlink:title=" ">
<path fill="none" stroke="#63b8ff" d="M1809.08,-73.89C1968.14,-74.79 2403.08,-72.72 2762,-29 2764.71,-28.67 2767.47,-28.29 2770.26,-27.87"/>
<polygon fill="#63b8ff" stroke="#63b8ff" points="1809.19,-70.39 1799.17,-73.82 1809.15,-77.39 1809.19,-70.39"/>
</a>
</g>
</g>
<!-- Node22 -->
<g id="Node000022" class="node">
<title>Node22</title>
<g id="a_Node000022"><a xlink:href="string_8c.html" target="_top" xlink:title="Built&#45;in string type plugin.">
<polygon fill="white" stroke="#666666" points="3032.88,-23.75 2905.12,-23.75 2905.12,-5.25 3032.88,-5.25 3032.88,-23.75"/>
<text text-anchor="middle" x="2969" y="-10.25" font-family="Helvetica,sans-Serif" font-size="10.00">src/plugins_types/string.c</text>
</a>
</g>
</g>
<!-- Node1&#45;&gt;Node22 -->
<g id="edge21_Node000001_Node000022" class="edge">
<title>Node1&#45;&gt;Node22</title>
<g id="a_edge21_Node000001_Node000022"><a xlink:title=" ">
<path fill="none" stroke="#63b8ff" d="M1809.04,-72.04C2016.12,-67.83 2682.53,-52.72 2896,-29 2906.38,-27.85 2917.49,-26.07 2927.85,-24.18"/>
<polygon fill="#63b8ff" stroke="#63b8ff" points="1809.23,-68.54 1799.3,-72.24 1809.37,-75.54 1809.23,-68.54"/>
</a>
</g>
</g>
<!-- Node23 -->
<g id="Node000023" class="node">
<title>Node23</title>
<g id="a_Node000023"><a xlink:href="union_8c.html" target="_top" xlink:title="Built&#45;in union type plugin.">
<polygon fill="white" stroke="#666666" points="3177.5,-23.75 3050.5,-23.75 3050.5,-5.25 3177.5,-5.25 3177.5,-23.75"/>
<text text-anchor="middle" x="3114" y="-10.25" font-family="Helvetica,sans-Serif" font-size="10.00">src/plugins_types/union.c</text>
</a>
</g>
</g>
<!-- Node1&#45;&gt;Node23 -->
<g id="edge22_Node000001_Node000023" class="edge">
<title>Node1&#45;&gt;Node23</title>
<g id="a_edge22_Node000001_Node000023"><a xlink:title=" ">
<path fill="none" stroke="#63b8ff" d="M1809.23,-72.37C2033.33,-69.01 2798.71,-55.81 3042,-29 3052.24,-27.87 3063.21,-26.11 3073.42,-24.22"/>
<polygon fill="#63b8ff" stroke="#63b8ff" points="1809.19,-68.87 1799.24,-72.52 1809.29,-75.87 1809.19,-68.87"/>
</a>
</g>
</g>
<!-- Node24 -->
<g id="Node000024" class="node">
<title>Node24</title>
<g id="a_Node000024"><a xlink:href="xpath1_80_8c.html" target="_top" xlink:title="ietf&#45;yang&#45;types xpath1.0 type plugin.">
<polygon fill="white" stroke="#666666" points="3336.62,-23.75 3195.38,-23.75 3195.38,-5.25 3336.62,-5.25 3336.62,-23.75"/>
<text text-anchor="middle" x="3266" y="-10.25" font-family="Helvetica,sans-Serif" font-size="10.00">src/plugins_types/xpath1.0.c</text>
</a>
</g>
</g>
<!-- Node1&#45;&gt;Node24 -->
<g id="edge23_Node000001_Node000024" class="edge">
<title>Node1&#45;&gt;Node24</title>
<g id="a_edge23_Node000001_Node000024"><a xlink:title=" ">
<path fill="none" stroke="#63b8ff" d="M1808.91,-72.49C2048.3,-69.38 2913.52,-56.44 3187,-29 3198.21,-27.88 3210.24,-26.11 3221.44,-24.22"/>
<polygon fill="#63b8ff" stroke="#63b8ff" points="1809.13,-68.99 1799.17,-72.62 1809.22,-75.99 1809.13,-68.99"/>
</a>
</g>
</g>
</g>
</svg>

<g id="navigator" transform="translate(0 0)" fill="#404254">
  <rect fill="#f2f5e9" fill-opacity="0.5" stroke="#606060" stroke-width=".5" x="0" y="0" width="60" height="60"/>
  <use id="zoomplus" xlink:href="#zoomPlus" x="17" y="9" onmousedown="handleZoom(evt,'in')"/>
  <use id="zoomminus" xlink:href="#zoomMin" x="42" y="9" onmousedown="handleZoom(evt,'out')"/>
  <use id="reset" xlink:href="#resetDef" x="30" y="36" onmousedown="handleReset()"/>
   <use id="arrowup" xlink:href="#arrowUp" x="0" y="0" onmousedown="handlePan(0,-1)"/>
  <use id="arrowright" xlink:href="#arrowRight" x="0" y="0" onmousedown="handlePan(1,0)"/>
  <use id="arrowdown" xlink:href="#arrowDown" x="0" y="0" onmousedown="handlePan(0,1)"/>
  <use id="arrowleft" xlink:href="#arrowLeft" x="0" y="0" onmousedown="handlePan(-1,0)"/>
</g>
<svg viewBox="0 0 15 15" width="100%" height="30px" preserveAspectRatio="xMaxYMin meet">
 <g id="arrow_out" transform="scale(0.3 0.3)">
  <a xlink:href="plugins__types_8h__dep__incl_org.svg" target="_base">
   <rect id="button" ry="5" rx="5" y="6" x="6" height="38" width="38"
        fill="#f2f5e9" fill-opacity="0.5" stroke="#606060" stroke-width="1.0"/>
   <path id="arrow"
     d="M 11.500037,31.436501 C 11.940474,20.09759 22.043105,11.32322 32.158766,21.979434 L 37.068811,17.246167 C 37.068811,17.246167 37.088388,32 37.088388,32 L 22.160133,31.978069 C 22.160133,31.978069 26.997745,27.140456 26.997745,27.140456 C 18.528582,18.264221 13.291696,25.230495 11.500037,31.436501 z"
     style="fill:#404040;"/>
  </a>
 </g>
</svg>

<style type='text/css'>
<![CDATA[
[data-mouse-over-selected='false'] { opacity: 0.7; }
[data-mouse-over-selected='true']  { opacity: 1.0; }
]]>
</style>
<script type="application/ecmascript"><![CDATA[
document.addEventListener('DOMContentLoaded', (event) => {
  highlightEdges();
  highlightAdjacentNodes();
});
]]></script>
</svg>
