<?xml version="1.0" encoding="UTF-8" standalone="no"?>
<!DOCTYPE svg PUBLIC "-//W3C//DTD SVG 1.1//EN"
 "http://www.w3.org/Graphics/SVG/1.1/DTD/svg11.dtd">
<!-- Generated by graphviz version 12.1.0 (20240811.2233)
 -->
<!-- Title: src/plugins_types.h Pages: 1 -->
<svg width="394pt" height="190pt"
 viewBox="0.00 0.00 393.75 190.00" xmlns="http://www.w3.org/2000/svg" xmlns:xlink="http://www.w3.org/1999/xlink">

<svg id="main" version="1.1" xmlns="http://www.w3.org/2000/svg" xmlns:xlink="http://www.w3.org/1999/xlink" xml:space="preserve">

<style type="text/css"><![CDATA[
.node, .edge {opacity: 0.7;}
.node.selected, .edge.selected {opacity: 1;}
.edge:hover path { stroke: red; }
.edge:hover polygon { stroke: red; fill: red; }
]]></style>
<script type="application/ecmascript" xlink:href="svg.min.js"/>
<svg id="graph" class="graph">
<g id="graph0" class="graph" transform="scale(1 1) rotate(0) translate(4 186)">
<title>src/plugins_types.h</title>
<!-- Node1 -->
<g id="Node000001" class="node">
<title>Node1</title>
<g id="a_Node000001"><a xlink:title="API for (user) types plugins.">
<polygon fill="#999999" stroke="#666666" points="222.62,-182 121.88,-182 121.88,-163.5 222.62,-163.5 222.62,-182"/>
<text text-anchor="middle" x="172.25" y="-168.5" font-family="Helvetica,sans-Serif" font-size="10.00">src/plugins_types.h</text>
</a>
</g>
</g>
<!-- Node2 -->
<g id="Node000002" class="node">
<title>Node2</title>
<g id="a_Node000002"><a xlink:title=" ">
<polygon fill="#e0e0e0" stroke="#999999" points="50.5,-127.5 0,-127.5 0,-109 50.5,-109 50.5,-127.5"/>
<text text-anchor="middle" x="25.25" y="-114" font-family="Helvetica,sans-Serif" font-size="10.00">stddef.h</text>
</a>
</g>
</g>
<!-- Node1&#45;&gt;Node2 -->
<g id="edge1_Node000001_Node000002" class="edge">
<title>Node1&#45;&gt;Node2</title>
<g id="a_edge1_Node000001_Node000002"><a xlink:title=" ">
<path fill="none" stroke="#63b8ff" d="M147.98,-163.08C124.04,-154.53 87.21,-141.38 60.13,-131.71"/>
<polygon fill="#63b8ff" stroke="#63b8ff" points="61.58,-128.51 50.99,-128.44 59.23,-135.1 61.58,-128.51"/>
</a>
</g>
</g>
<!-- Node3 -->
<g id="Node000003" class="node">
<title>Node3</title>
<g id="a_Node000003"><a xlink:title=" ">
<polygon fill="#e0e0e0" stroke="#999999" points="116,-18.5 68.5,-18.5 68.5,0 116,0 116,-18.5"/>
<text text-anchor="middle" x="92.25" y="-5" font-family="Helvetica,sans-Serif" font-size="10.00">stdint.h</text>
</a>
</g>
</g>
<!-- Node1&#45;&gt;Node3 -->
<g id="edge2_Node000001_Node000003" class="edge">
<title>Node1&#45;&gt;Node3</title>
<g id="a_edge2_Node000001_Node000003"><a xlink:title=" ">
<path fill="none" stroke="#63b8ff" d="M161.9,-163.27C152.44,-155.03 138.69,-141.7 130.25,-127.5 111.53,-96.01 100.85,-54.19 95.83,-29.95"/>
<polygon fill="#63b8ff" stroke="#63b8ff" points="99.29,-29.38 93.95,-20.23 92.41,-30.71 99.29,-29.38"/>
</a>
</g>
</g>
<!-- Node4 -->
<g id="Node000004" class="node">
<title>Node4</title>
<g id="a_Node000004"><a xlink:title=" ">
<polygon fill="#e0e0e0" stroke="#999999" points="211.5,-18.5 161,-18.5 161,0 211.5,0 211.5,-18.5"/>
<text text-anchor="middle" x="186.25" y="-5" font-family="Helvetica,sans-Serif" font-size="10.00">config.h</text>
</a>
</g>
</g>
<!-- Node1&#45;&gt;Node4 -->
<g id="edge3_Node000001_Node000004" class="edge">
<title>Node1&#45;&gt;Node4</title>
<g id="a_edge3_Node000001_Node000004"><a xlink:title=" ">
<path fill="none" stroke="#63b8ff" d="M182.68,-163.18C191.67,-155.06 203.99,-142 209.25,-127.5 221.42,-93.97 206.87,-52.59 196,-29.03"/>
<polygon fill="#63b8ff" stroke="#63b8ff" points="199.16,-27.53 191.62,-20.09 192.88,-30.61 199.16,-27.53"/>
</a>
</g>
</g>
<!-- Node5 -->
<g id="Node000005" class="node">
<title>Node5</title>
<g id="a_Node000005"><a xlink:href="log_8h.html" target="_top" xlink:title="Logger manipulation routines and error definitions.">
<polygon fill="white" stroke="#666666" points="176.75,-73 139.75,-73 139.75,-54.5 176.75,-54.5 176.75,-73"/>
<text text-anchor="middle" x="158.25" y="-59.5" font-family="Helvetica,sans-Serif" font-size="10.00">log.h</text>
</a>
</g>
</g>
<!-- Node1&#45;&gt;Node5 -->
<g id="edge4_Node000001_Node000005" class="edge">
<title>Node1&#45;&gt;Node5</title>
<g id="a_edge4_Node000001_Node000005"><a xlink:title=" ">
<path fill="none" stroke="#63b8ff" d="M162.09,-163.12C153.35,-154.96 141.36,-141.87 136.25,-127.5 130.87,-112.37 137.83,-95.16 145.31,-82.6"/>
<polygon fill="#63b8ff" stroke="#63b8ff" points="148.03,-84.82 150.62,-74.55 142.19,-80.97 148.03,-84.82"/>
</a>
</g>
</g>
<!-- Node6 -->
<g id="Node000006" class="node">
<title>Node6</title>
<g id="a_Node000006"><a xlink:href="plugins_8h.html" target="_top" xlink:title="Plugins manipulation.">
<polygon fill="white" stroke="#666666" points="199.75,-127.5 144.75,-127.5 144.75,-109 199.75,-109 199.75,-127.5"/>
<text text-anchor="middle" x="172.25" y="-114" font-family="Helvetica,sans-Serif" font-size="10.00">plugins.h</text>
</a>
</g>
</g>
<!-- Node1&#45;&gt;Node6 -->
<g id="edge7_Node000001_Node000006" class="edge">
<title>Node1&#45;&gt;Node6</title>
<g id="a_edge7_Node000001_Node000006"><a xlink:title=" ">
<path fill="none" stroke="#63b8ff" d="M172.25,-163.08C172.25,-156.58 172.25,-147.42 172.25,-139.16"/>
<polygon fill="#63b8ff" stroke="#63b8ff" points="175.75,-139.27 172.25,-129.27 168.75,-139.27 175.75,-139.27"/>
</a>
</g>
</g>
<!-- Node7 -->
<g id="Node000007" class="node">
<title>Node7</title>
<g id="a_Node000007"><a xlink:href="tree_8h.html" target="_top" xlink:title="libyang generic macros and functions to work with YANG schema or data trees.">
<polygon fill="white" stroke="#666666" points="301.62,-127.5 260.88,-127.5 260.88,-109 301.62,-109 301.62,-127.5"/>
<text text-anchor="middle" x="281.25" y="-114" font-family="Helvetica,sans-Serif" font-size="10.00">tree.h</text>
</a>
</g>
</g>
<!-- Node1&#45;&gt;Node7 -->
<g id="edge9_Node000001_Node000007" class="edge">
<title>Node1&#45;&gt;Node7</title>
<g id="a_edge9_Node000001_Node000007"><a xlink:title=" ">
<path fill="none" stroke="#63b8ff" d="M190.25,-163.08C207.29,-154.87 233.14,-142.42 252.94,-132.89"/>
<polygon fill="#63b8ff" stroke="#63b8ff" points="254.37,-136.08 261.86,-128.59 251.33,-129.78 254.37,-136.08"/>
</a>
</g>
</g>
<!-- Node9 -->
<g id="Node000009" class="node">
<title>Node9</title>
<g id="a_Node000009"><a xlink:href="tree__edit_8h.html" target="_top" xlink:title="libyang generic macros and functions to modify YANG schema or data trees. Intended for internal use a...">
<polygon fill="white" stroke="#666666" points="385.75,-127.5 324.75,-127.5 324.75,-109 385.75,-109 385.75,-127.5"/>
<text text-anchor="middle" x="355.25" y="-114" font-family="Helvetica,sans-Serif" font-size="10.00">tree_edit.h</text>
</a>
</g>
</g>
<!-- Node1&#45;&gt;Node9 -->
<g id="edge11_Node000001_Node000009" class="edge">
<title>Node1&#45;&gt;Node9</title>
<g id="a_edge11_Node000001_Node000009"><a xlink:title=" ">
<path fill="none" stroke="#63b8ff" d="M202.47,-163.08C232.93,-154.34 280.17,-140.79 314.05,-131.07"/>
<polygon fill="#63b8ff" stroke="#63b8ff" points="314.88,-134.47 323.53,-128.35 312.95,-127.74 314.88,-134.47"/>
</a>
</g>
</g>
<!-- Node5&#45;&gt;Node3 -->
<g id="edge5_Node000005_Node000003" class="edge">
<title>Node5&#45;&gt;Node3</title>
<g id="a_edge5_Node000005_Node000003"><a xlink:title=" ">
<path fill="none" stroke="#63b8ff" d="M147.35,-54.08C137.74,-46.44 123.5,-35.11 111.9,-25.88"/>
<polygon fill="#63b8ff" stroke="#63b8ff" points="114.14,-23.19 104.13,-19.7 109.78,-28.66 114.14,-23.19"/>
</a>
</g>
</g>
<!-- Node5&#45;&gt;Node4 -->
<g id="edge6_Node000005_Node000004" class="edge">
<title>Node5&#45;&gt;Node4</title>
<g id="a_edge6_Node000005_Node000004"><a xlink:title=" ">
<path fill="none" stroke="#63b8ff" d="M162.87,-54.08C166.54,-47.2 171.8,-37.34 176.41,-28.71"/>
<polygon fill="#63b8ff" stroke="#63b8ff" points="179.38,-30.56 181,-20.09 173.21,-27.27 179.38,-30.56"/>
</a>
</g>
</g>
<!-- Node6&#45;&gt;Node5 -->
<g id="edge8_Node000006_Node000005" class="edge">
<title>Node6&#45;&gt;Node5</title>
<g id="a_edge8_Node000006_Node000005"><a xlink:title=" ">
<path fill="none" stroke="#63b8ff" d="M169.94,-108.58C168.18,-102.01 165.71,-92.71 163.48,-84.37"/>
<polygon fill="#63b8ff" stroke="#63b8ff" points="166.87,-83.48 160.91,-74.72 160.1,-85.28 166.87,-83.48"/>
</a>
</g>
</g>
<!-- Node8 -->
<g id="Node000008" class="node">
<title>Node8</title>
<g id="a_Node000008"><a xlink:title=" ">
<polygon fill="#e0e0e0" stroke="#999999" points="314.62,-73 255.88,-73 255.88,-54.5 314.62,-54.5 314.62,-73"/>
<text text-anchor="middle" x="285.25" y="-59.5" font-family="Helvetica,sans-Serif" font-size="10.00">inttypes.h</text>
</a>
</g>
</g>
<!-- Node7&#45;&gt;Node8 -->
<g id="edge10_Node000007_Node000008" class="edge">
<title>Node7&#45;&gt;Node8</title>
<g id="a_edge10_Node000007_Node000008"><a xlink:title=" ">
<path fill="none" stroke="#63b8ff" d="M281.91,-108.58C282.41,-102.08 283.1,-92.92 283.73,-84.66"/>
<polygon fill="#63b8ff" stroke="#63b8ff" points="287.22,-85 284.49,-74.77 280.24,-84.47 287.22,-85"/>
</a>
</g>
</g>
<!-- Node10 -->
<g id="Node000010" class="node">
<title>Node10</title>
<g id="a_Node000010"><a xlink:title=" ">
<polygon fill="#e0e0e0" stroke="#999999" points="380,-73 332.5,-73 332.5,-54.5 380,-54.5 380,-73"/>
<text text-anchor="middle" x="356.25" y="-59.5" font-family="Helvetica,sans-Serif" font-size="10.00">stdlib.h</text>
</a>
</g>
</g>
<!-- Node9&#45;&gt;Node10 -->
<g id="edge12_Node000009_Node000010" class="edge">
<title>Node9&#45;&gt;Node10</title>
<g id="a_edge12_Node000009_Node000010"><a xlink:title=" ">
<path fill="none" stroke="#63b8ff" d="M355.42,-108.58C355.54,-102.08 355.71,-92.92 355.87,-84.66"/>
<polygon fill="#63b8ff" stroke="#63b8ff" points="359.37,-84.84 356.06,-74.77 352.37,-84.7 359.37,-84.84"/>
</a>
</g>
</g>
</g>
</svg>
</svg>

<style type='text/css'>
<![CDATA[
[data-mouse-over-selected='false'] { opacity: 0.7; }
[data-mouse-over-selected='true']  { opacity: 1.0; }
]]>
</style>
<script type="application/ecmascript"><![CDATA[
document.addEventListener('DOMContentLoaded', (event) => {
  highlightEdges();
  highlightAdjacentNodes();
});
]]></script>
</svg>
