<?xml version="1.0" encoding="UTF-8" standalone="no"?>
<!DOCTYPE svg PUBLIC "-//W3C//DTD SVG 1.1//EN"
 "http://www.w3.org/Graphics/SVG/1.1/DTD/svg11.dtd">
<!-- Generated by graphviz version 12.1.0 (20240811.2233)
 -->
<!-- Title: src/printer_schema.h Pages: 1 -->
<svg width="209pt" height="190pt"
 viewBox="0.00 0.00 209.38 190.00" xmlns="http://www.w3.org/2000/svg" xmlns:xlink="http://www.w3.org/1999/xlink">

<svg id="main" version="1.1" xmlns="http://www.w3.org/2000/svg" xmlns:xlink="http://www.w3.org/1999/xlink" xml:space="preserve">

<style type="text/css"><![CDATA[
.node, .edge {opacity: 0.7;}
.node.selected, .edge.selected {opacity: 1;}
.edge:hover path { stroke: red; }
.edge:hover polygon { stroke: red; fill: red; }
]]></style>
<script type="application/ecmascript" xlink:href="svg.min.js"/>
<svg id="graph" class="graph">
<g id="graph0" class="graph" transform="scale(1 1) rotate(0) translate(4 186)">
<title>src/printer_schema.h</title>
<!-- Node1 -->
<g id="Node000001" class="node">
<title>Node1</title>
<g id="a_Node000001"><a xlink:title="Schema printers for libyang.">
<polygon fill="#999999" stroke="#666666" points="116.88,-182 9.38,-182 9.38,-163.5 116.88,-163.5 116.88,-182"/>
<text text-anchor="middle" x="63.13" y="-168.5" font-family="Helvetica,sans-Serif" font-size="10.00">src/printer_schema.h</text>
</a>
</g>
</g>
<!-- Node2 -->
<g id="Node000002" class="node">
<title>Node2</title>
<g id="a_Node000002"><a xlink:title=" ">
<polygon fill="#e0e0e0" stroke="#999999" points="69.88,-18.5 22.38,-18.5 22.38,0 69.88,0 69.88,-18.5"/>
<text text-anchor="middle" x="46.13" y="-5" font-family="Helvetica,sans-Serif" font-size="10.00">stdint.h</text>
</a>
</g>
</g>
<!-- Node1&#45;&gt;Node2 -->
<g id="edge1_Node000001_Node000002" class="edge">
<title>Node1&#45;&gt;Node2</title>
<g id="a_edge1_Node000001_Node000002"><a xlink:title=" ">
<path fill="none" stroke="#63b8ff" d="M55.36,-163.04C41.42,-146.77 12.64,-110.03 2.13,-73 -0.12,-65.09 -1.01,-62.1 2.13,-54.5 6.79,-43.2 15.89,-33.27 24.61,-25.69"/>
<polygon fill="#63b8ff" stroke="#63b8ff" points="26.55,-28.62 32.17,-19.63 22.18,-23.15 26.55,-28.62"/>
</a>
</g>
</g>
<!-- Node3 -->
<g id="Node000003" class="node">
<title>Node3</title>
<g id="a_Node000003"><a xlink:title=" ">
<polygon fill="#e0e0e0" stroke="#999999" points="56.75,-73 11.5,-73 11.5,-54.5 56.75,-54.5 56.75,-73"/>
<text text-anchor="middle" x="34.13" y="-59.5" font-family="Helvetica,sans-Serif" font-size="10.00">stdio.h</text>
</a>
</g>
</g>
<!-- Node1&#45;&gt;Node3 -->
<g id="edge2_Node000001_Node000003" class="edge">
<title>Node1&#45;&gt;Node3</title>
<g id="a_edge2_Node000001_Node000003"><a xlink:title=" ">
<path fill="none" stroke="#63b8ff" d="M60.85,-163.35C56.28,-146.48 45.87,-108.07 39.48,-84.48"/>
<polygon fill="#63b8ff" stroke="#63b8ff" points="42.86,-83.6 36.87,-74.87 36.11,-85.43 42.86,-83.6"/>
</a>
</g>
</g>
<!-- Node4 -->
<g id="Node000004" class="node">
<title>Node4</title>
<g id="a_Node000004"><a xlink:href="log_8h.html" target="_top" xlink:title="Logger manipulation routines and error definitions.">
<polygon fill="white" stroke="#666666" points="194.63,-73 157.63,-73 157.63,-54.5 194.63,-54.5 194.63,-73"/>
<text text-anchor="middle" x="176.13" y="-59.5" font-family="Helvetica,sans-Serif" font-size="10.00">log.h</text>
</a>
</g>
</g>
<!-- Node1&#45;&gt;Node4 -->
<g id="edge3_Node000001_Node000004" class="edge">
<title>Node1&#45;&gt;Node4</title>
<g id="a_edge3_Node000001_Node000004"><a xlink:title=" ">
<path fill="none" stroke="#63b8ff" d="M78.59,-163.15C92.44,-155.03 112.86,-141.95 128.13,-127.5 142.44,-113.96 155.8,-95.87 164.77,-82.59"/>
<polygon fill="#63b8ff" stroke="#63b8ff" points="167.57,-84.69 170.13,-74.41 161.72,-80.86 167.57,-84.69"/>
</a>
</g>
</g>
<!-- Node6 -->
<g id="Node000006" class="node">
<title>Node6</title>
<g id="a_Node000006"><a xlink:href="out_8h.html" target="_top" xlink:title="libyang output structures and functions">
<polygon fill="white" stroke="#666666" points="118.63,-127.5 81.63,-127.5 81.63,-109 118.63,-109 118.63,-127.5"/>
<text text-anchor="middle" x="100.13" y="-114" font-family="Helvetica,sans-Serif" font-size="10.00">out.h</text>
</a>
</g>
</g>
<!-- Node1&#45;&gt;Node6 -->
<g id="edge6_Node000001_Node000006" class="edge">
<title>Node1&#45;&gt;Node6</title>
<g id="a_edge6_Node000001_Node000006"><a xlink:title=" ">
<path fill="none" stroke="#63b8ff" d="M69.24,-163.08C74.2,-156.05 81.35,-145.9 87.52,-137.14"/>
<polygon fill="#63b8ff" stroke="#63b8ff" points="90.36,-139.19 93.26,-129 84.64,-135.15 90.36,-139.19"/>
</a>
</g>
</g>
<!-- Node4&#45;&gt;Node2 -->
<g id="edge4_Node000004_Node000002" class="edge">
<title>Node4&#45;&gt;Node2</title>
<g id="a_edge4_Node000004_Node000002"><a xlink:title=" ">
<path fill="none" stroke="#63b8ff" d="M157.23,-55.12C136.49,-46.74 102.87,-33.16 78.03,-23.13"/>
<polygon fill="#63b8ff" stroke="#63b8ff" points="79.64,-20.01 69.06,-19.51 77.02,-26.5 79.64,-20.01"/>
</a>
</g>
</g>
<!-- Node5 -->
<g id="Node000005" class="node">
<title>Node5</title>
<g id="a_Node000005"><a xlink:title=" ">
<polygon fill="#e0e0e0" stroke="#999999" points="201.38,-18.5 150.88,-18.5 150.88,0 201.38,0 201.38,-18.5"/>
<text text-anchor="middle" x="176.13" y="-5" font-family="Helvetica,sans-Serif" font-size="10.00">config.h</text>
</a>
</g>
</g>
<!-- Node4&#45;&gt;Node5 -->
<g id="edge5_Node000004_Node000005" class="edge">
<title>Node4&#45;&gt;Node5</title>
<g id="a_edge5_Node000004_Node000005"><a xlink:title=" ">
<path fill="none" stroke="#63b8ff" d="M176.13,-54.08C176.13,-47.58 176.13,-38.42 176.13,-30.16"/>
<polygon fill="#63b8ff" stroke="#63b8ff" points="179.63,-30.27 176.13,-20.27 172.63,-30.27 179.63,-30.27"/>
</a>
</g>
</g>
<!-- Node6&#45;&gt;Node3 -->
<g id="edge7_Node000006_Node000003" class="edge">
<title>Node6&#45;&gt;Node3</title>
<g id="a_edge7_Node000006_Node000003"><a xlink:title=" ">
<path fill="none" stroke="#63b8ff" d="M89.23,-108.58C79.62,-100.94 65.38,-89.61 53.78,-80.38"/>
<polygon fill="#63b8ff" stroke="#63b8ff" points="56.01,-77.69 46.01,-74.2 51.66,-83.16 56.01,-77.69"/>
</a>
</g>
</g>
<!-- Node6&#45;&gt;Node4 -->
<g id="edge9_Node000006_Node000004" class="edge">
<title>Node6&#45;&gt;Node4</title>
<g id="a_edge9_Node000006_Node000004"><a xlink:title=" ">
<path fill="none" stroke="#63b8ff" d="M112.68,-108.58C124.01,-100.75 140.93,-89.07 154.45,-79.73"/>
<polygon fill="#63b8ff" stroke="#63b8ff" points="156.08,-82.86 162.32,-74.29 152.1,-77.1 156.08,-82.86"/>
</a>
</g>
</g>
<!-- Node7 -->
<g id="Node000007" class="node">
<title>Node7</title>
<g id="a_Node000007"><a xlink:title=" ">
<polygon fill="#e0e0e0" stroke="#999999" points="139.88,-73 74.38,-73 74.38,-54.5 139.88,-54.5 139.88,-73"/>
<text text-anchor="middle" x="107.13" y="-59.5" font-family="Helvetica,sans-Serif" font-size="10.00">sys/types.h</text>
</a>
</g>
</g>
<!-- Node6&#45;&gt;Node7 -->
<g id="edge8_Node000006_Node000007" class="edge">
<title>Node6&#45;&gt;Node7</title>
<g id="a_edge8_Node000006_Node000007"><a xlink:title=" ">
<path fill="none" stroke="#63b8ff" d="M101.29,-108.58C102.15,-102.08 103.37,-92.92 104.47,-84.66"/>
<polygon fill="#63b8ff" stroke="#63b8ff" points="107.94,-85.13 105.79,-74.76 101,-84.21 107.94,-85.13"/>
</a>
</g>
</g>
</g>
</svg>
</svg>

<style type='text/css'>
<![CDATA[
[data-mouse-over-selected='false'] { opacity: 0.7; }
[data-mouse-over-selected='true']  { opacity: 1.0; }
]]>
</style>
<script type="application/ecmascript"><![CDATA[
document.addEventListener('DOMContentLoaded', (event) => {
  highlightEdges();
  highlightAdjacentNodes();
});
]]></script>
</svg>
