<?xml version="1.0" encoding="UTF-8" standalone="no"?>
<!DOCTYPE svg PUBLIC "-//W3C//DTD SVG 1.1//EN"
 "http://www.w3.org/Graphics/SVG/1.1/DTD/svg11.dtd">
<!-- Generated by graphviz version 12.1.0 (20240811.2233)
 -->
<!-- Title: src/printer_data.h Pages: 1 -->
<svg width="3345pt" height="146pt"
 viewBox="0.00 0.00 3344.62 146.00" xmlns="http://www.w3.org/2000/svg" xmlns:xlink="http://www.w3.org/1999/xlink">
<g id="graph0" class="graph" transform="scale(1 1) rotate(0) translate(4 142)">
<title>src/printer_data.h</title>
<!-- Node1 -->
<g id="Node000001" class="node">
<title>Node1</title>
<g id="a_Node000001"><a xlink:title="Data printers for libyang.">
<polygon fill="#999999" stroke="#666666" points="1792.88,-138 1701.12,-138 1701.12,-119.5 1792.88,-119.5 1792.88,-138"/>
<text text-anchor="middle" x="1747" y="-124.5" font-family="Helvetica,sans-Serif" font-size="10.00">src/printer_data.h</text>
</a>
</g>
</g>
<!-- Node2 -->
<g id="Node000002" class="node">
<title>Node2</title>
<g id="a_Node000002"><a xlink:href="libyang_8h.html" target="_top" xlink:title="The main libyang public header.">
<polygon fill="white" stroke="#666666" points="1782.38,-83.5 1711.62,-83.5 1711.62,-65 1782.38,-65 1782.38,-83.5"/>
<text text-anchor="middle" x="1747" y="-70" font-family="Helvetica,sans-Serif" font-size="10.00">src/libyang.h</text>
</a>
</g>
</g>
<!-- Node1&#45;&gt;Node2 -->
<g id="edge1_Node000001_Node000002" class="edge">
<title>Node1&#45;&gt;Node2</title>
<g id="a_edge1_Node000001_Node000002"><a xlink:title=" ">
<path fill="none" stroke="#63b8ff" d="M1747,-107.64C1747,-99.36 1747,-90.21 1747,-83.76"/>
<polygon fill="#63b8ff" stroke="#63b8ff" points="1743.5,-107.57 1747,-117.57 1750.5,-107.57 1743.5,-107.57"/>
</a>
</g>
</g>
<!-- Node3 -->
<g id="Node000003" class="node">
<title>Node3</title>
<g id="a_Node000003"><a xlink:href="binary_8c.html" target="_top" xlink:title="Built&#45;in binary type plugin.">
<polygon fill="white" stroke="#666666" points="130,-23.75 0,-23.75 0,-5.25 130,-5.25 130,-23.75"/>
<text text-anchor="middle" x="65" y="-10.25" font-family="Helvetica,sans-Serif" font-size="10.00">src/plugins_types/binary.c</text>
</a>
</g>
</g>
<!-- Node2&#45;&gt;Node3 -->
<g id="edge2_Node000002_Node000003" class="edge">
<title>Node2&#45;&gt;Node3</title>
<g id="a_edge2_Node000002_Node000003"><a xlink:title=" ">
<path fill="none" stroke="#63b8ff" d="M1699.83,-72.93C1468.6,-71.19 453.31,-61.8 139,-29 128.35,-27.89 116.93,-26.1 106.33,-24.19"/>
<polygon fill="#63b8ff" stroke="#63b8ff" points="1699.63,-76.42 1709.66,-73 1699.68,-69.42 1699.63,-76.42"/>
</a>
</g>
</g>
<!-- Node4 -->
<g id="Node000004" class="node">
<title>Node4</title>
<g id="a_Node000004"><a xlink:href="bits_8c.html" target="_top" xlink:title="Built&#45;in bits type plugin.">
<polygon fill="white" stroke="#666666" points="267.75,-23.75 148.25,-23.75 148.25,-5.25 267.75,-5.25 267.75,-23.75"/>
<text text-anchor="middle" x="208" y="-10.25" font-family="Helvetica,sans-Serif" font-size="10.00">src/plugins_types/bits.c</text>
</a>
</g>
</g>
<!-- Node2&#45;&gt;Node4 -->
<g id="edge3_Node000002_Node000004" class="edge">
<title>Node2&#45;&gt;Node4</title>
<g id="a_edge3_Node000002_Node000004"><a xlink:title=" ">
<path fill="none" stroke="#63b8ff" d="M1700.07,-72.87C1481.55,-70.93 562.43,-61 277,-29 267.05,-27.88 256.4,-26.1 246.51,-24.19"/>
<polygon fill="#63b8ff" stroke="#63b8ff" points="1699.87,-76.37 1709.9,-72.95 1699.93,-69.37 1699.87,-76.37"/>
</a>
</g>
</g>
<!-- Node5 -->
<g id="Node000005" class="node">
<title>Node5</title>
<g id="a_Node000005"><a xlink:href="boolean_8c.html" target="_top" xlink:title="Built&#45;in boolean type plugin.">
<polygon fill="white" stroke="#666666" points="423.75,-23.75 286.25,-23.75 286.25,-5.25 423.75,-5.25 423.75,-23.75"/>
<text text-anchor="middle" x="355" y="-10.25" font-family="Helvetica,sans-Serif" font-size="10.00">src/plugins_types/boolean.c</text>
</a>
</g>
</g>
<!-- Node2&#45;&gt;Node5 -->
<g id="edge4_Node000002_Node000005" class="edge">
<title>Node2&#45;&gt;Node5</title>
<g id="a_edge4_Node000002_Node000005"><a xlink:title=" ">
<path fill="none" stroke="#63b8ff" d="M1699.9,-72.53C1495.75,-69.3 686.23,-55.05 433,-29 421.93,-27.86 410.05,-26.09 398.99,-24.2"/>
<polygon fill="#63b8ff" stroke="#63b8ff" points="1699.81,-76.03 1709.86,-72.69 1699.92,-69.03 1699.81,-76.03"/>
</a>
</g>
</g>
<!-- Node6 -->
<g id="Node000006" class="node">
<title>Node6</title>
<g id="a_Node000006"><a xlink:href="date__and__time_8c.html" target="_top" xlink:title="ietf&#45;yang&#45;types date&#45;and&#45;time type plugin.">
<polygon fill="white" stroke="#666666" points="556.12,-29 441.88,-29 441.88,0 556.12,0 556.12,-29"/>
<text text-anchor="start" x="449.88" y="-15.5" font-family="Helvetica,sans-Serif" font-size="10.00">src/plugins_types/date</text>
<text text-anchor="middle" x="499" y="-5" font-family="Helvetica,sans-Serif" font-size="10.00">_and_time.c</text>
</a>
</g>
</g>
<!-- Node2&#45;&gt;Node6 -->
<g id="edge5_Node000002_Node000006" class="edge">
<title>Node2&#45;&gt;Node6</title>
<g id="a_edge5_Node000002_Node000006"><a xlink:title=" ">
<path fill="none" stroke="#63b8ff" d="M1700.02,-72.52C1509.07,-69.41 790.54,-56.1 565,-29 562.21,-28.67 559.37,-28.27 556.5,-27.84"/>
<polygon fill="#63b8ff" stroke="#63b8ff" points="1699.75,-76.02 1709.8,-72.68 1699.86,-69.02 1699.75,-76.02"/>
</a>
</g>
</g>
<!-- Node7 -->
<g id="Node000007" class="node">
<title>Node7</title>
<g id="a_Node000007"><a xlink:href="decimal64_8c.html" target="_top" xlink:title="Built&#45;in decimal64 type plugin.">
<polygon fill="white" stroke="#666666" points="722,-23.75 574,-23.75 574,-5.25 722,-5.25 722,-23.75"/>
<text text-anchor="middle" x="648" y="-10.25" font-family="Helvetica,sans-Serif" font-size="10.00">src/plugins_types/decimal64.c</text>
</a>
</g>
</g>
<!-- Node2&#45;&gt;Node7 -->
<g id="edge6_Node000002_Node000007" class="edge">
<title>Node2&#45;&gt;Node7</title>
<g id="a_edge6_Node000002_Node000007"><a xlink:title=" ">
<path fill="none" stroke="#63b8ff" d="M1699.86,-73.17C1554.88,-72.49 1102.98,-67.22 731,-29 719.53,-27.82 707.23,-26.08 695.71,-24.25"/>
<polygon fill="#63b8ff" stroke="#63b8ff" points="1699.82,-76.67 1709.83,-73.21 1699.85,-69.67 1699.82,-76.67"/>
</a>
</g>
</g>
<!-- Node8 -->
<g id="Node000008" class="node">
<title>Node8</title>
<g id="a_Node000008"><a xlink:href="empty_8c.html" target="_top" xlink:title="Built&#45;in empty type plugin.">
<polygon fill="white" stroke="#666666" points="870,-23.75 740,-23.75 740,-5.25 870,-5.25 870,-23.75"/>
<text text-anchor="middle" x="805" y="-10.25" font-family="Helvetica,sans-Serif" font-size="10.00">src/plugins_types/empty.c</text>
</a>
</g>
</g>
<!-- Node2&#45;&gt;Node8 -->
<g id="edge7_Node000002_Node000008" class="edge">
<title>Node2&#45;&gt;Node8</title>
<g id="a_edge7_Node000002_Node000008"><a xlink:title=" ">
<path fill="none" stroke="#63b8ff" d="M1700.18,-72.99C1569.71,-71.81 1191.08,-65.27 879,-29 868.75,-27.81 857.78,-26.07 847.51,-24.23"/>
<polygon fill="#63b8ff" stroke="#63b8ff" points="1699.77,-76.49 1709.8,-73.07 1699.83,-69.49 1699.77,-76.49"/>
</a>
</g>
</g>
<!-- Node9 -->
<g id="Node000009" class="node">
<title>Node9</title>
<g id="a_Node000009"><a xlink:href="enumeration_8c.html" target="_top" xlink:title="Built&#45;in enumeration type plugin.">
<polygon fill="white" stroke="#666666" points="1045.5,-23.75 888.5,-23.75 888.5,-5.25 1045.5,-5.25 1045.5,-23.75"/>
<text text-anchor="middle" x="967" y="-10.25" font-family="Helvetica,sans-Serif" font-size="10.00">src/plugins_types/enumeration.c</text>
</a>
</g>
</g>
<!-- Node2&#45;&gt;Node9 -->
<g id="edge8_Node000002_Node000009" class="edge">
<title>Node2&#45;&gt;Node9</title>
<g id="a_edge8_Node000002_Node000009"><a xlink:title=" ">
<path fill="none" stroke="#63b8ff" d="M1699.98,-71.71C1587.89,-67.72 1296.2,-55.47 1054,-29 1042.3,-27.72 1029.77,-25.99 1017.96,-24.2"/>
<polygon fill="#63b8ff" stroke="#63b8ff" points="1699.57,-75.2 1709.68,-72.05 1699.81,-68.2 1699.57,-75.2"/>
</a>
</g>
</g>
<!-- Node10 -->
<g id="Node000010" class="node">
<title>Node10</title>
<g id="a_Node000010"><a xlink:href="hex__string_8c.html" target="_top" xlink:title="Built&#45;in hex&#45;string and associated types plugin.">
<polygon fill="white" stroke="#666666" points="1174.62,-29 1063.38,-29 1063.38,0 1174.62,0 1174.62,-29"/>
<text text-anchor="start" x="1071.38" y="-15.5" font-family="Helvetica,sans-Serif" font-size="10.00">src/plugins_types/hex</text>
<text text-anchor="middle" x="1119" y="-5" font-family="Helvetica,sans-Serif" font-size="10.00">_string.c</text>
</a>
</g>
</g>
<!-- Node2&#45;&gt;Node10 -->
<g id="edge9_Node000002_Node000010" class="edge">
<title>Node2&#45;&gt;Node10</title>
<g id="a_edge9_Node000002_Node000010"><a xlink:title=" ">
<path fill="none" stroke="#63b8ff" d="M1699.82,-71.56C1602.8,-67.63 1374.08,-56.1 1184,-29 1181.03,-28.58 1178,-28.1 1174.94,-27.59"/>
<polygon fill="#63b8ff" stroke="#63b8ff" points="1699.62,-75.05 1709.75,-71.95 1699.89,-68.06 1699.62,-75.05"/>
</a>
</g>
</g>
<!-- Node11 -->
<g id="Node000011" class="node">
<title>Node11</title>
<g id="a_Node000011"><a xlink:href="identityref_8c.html" target="_top" xlink:title="Built&#45;in identityref type plugin.">
<polygon fill="white" stroke="#666666" points="1338.88,-23.75 1193.12,-23.75 1193.12,-5.25 1338.88,-5.25 1338.88,-23.75"/>
<text text-anchor="middle" x="1266" y="-10.25" font-family="Helvetica,sans-Serif" font-size="10.00">src/plugins_types/identityref.c</text>
</a>
</g>
</g>
<!-- Node2&#45;&gt;Node11 -->
<g id="edge10_Node000002_Node000011" class="edge">
<title>Node2&#45;&gt;Node11</title>
<g id="a_edge10_Node000002_Node000011"><a xlink:title=" ">
<path fill="none" stroke="#63b8ff" d="M1699.82,-68.83C1625.05,-61.64 1474.82,-46.46 1348,-29 1337.71,-27.58 1326.72,-25.9 1316.24,-24.2"/>
<polygon fill="#63b8ff" stroke="#63b8ff" points="1699.36,-72.3 1709.65,-69.77 1700.03,-65.33 1699.36,-72.3"/>
</a>
</g>
</g>
<!-- Node12 -->
<g id="Node000012" class="node">
<title>Node12</title>
<g id="a_Node000012"><a xlink:href="instanceid_8c.html" target="_top" xlink:title="Built&#45;in instance&#45;identifier type plugin.">
<polygon fill="white" stroke="#666666" points="1505,-23.75 1357,-23.75 1357,-5.25 1505,-5.25 1505,-23.75"/>
<text text-anchor="middle" x="1431" y="-10.25" font-family="Helvetica,sans-Serif" font-size="10.00">src/plugins_types/instanceid.c</text>
</a>
</g>
</g>
<!-- Node2&#45;&gt;Node12 -->
<g id="edge11_Node000002_Node000012" class="edge">
<title>Node2&#45;&gt;Node12</title>
<g id="a_edge11_Node000002_Node000012"><a xlink:title=" ">
<path fill="none" stroke="#63b8ff" d="M1700.07,-64.67C1640.61,-53.81 1538.71,-35.19 1478.84,-24.24"/>
<polygon fill="#63b8ff" stroke="#63b8ff" points="1699.41,-68.11 1709.88,-66.47 1700.67,-61.22 1699.41,-68.11"/>
</a>
</g>
</g>
<!-- Node13 -->
<g id="Node000013" class="node">
<title>Node13</title>
<g id="a_Node000013"><a xlink:href="instanceid__keys_8c.html" target="_top" xlink:title="ietf&#45;netconf edit&#45;config key metadata instance&#45;identifier keys predicate type plugin.">
<polygon fill="white" stroke="#666666" points="1662.88,-29 1523.12,-29 1523.12,0 1662.88,0 1662.88,-29"/>
<text text-anchor="start" x="1531.12" y="-15.5" font-family="Helvetica,sans-Serif" font-size="10.00">src/plugins_types/instanceid</text>
<text text-anchor="middle" x="1593" y="-5" font-family="Helvetica,sans-Serif" font-size="10.00">_keys.c</text>
</a>
</g>
</g>
<!-- Node2&#45;&gt;Node13 -->
<g id="edge12_Node000002_Node000013" class="edge">
<title>Node2&#45;&gt;Node13</title>
<g id="a_edge12_Node000002_Node000013"><a xlink:title=" ">
<path fill="none" stroke="#63b8ff" d="M1713.35,-60.63C1688.83,-51.44 1655.61,-38.98 1630.29,-29.48"/>
<polygon fill="#63b8ff" stroke="#63b8ff" points="1711.94,-63.84 1722.53,-64.07 1714.39,-57.28 1711.94,-63.84"/>
</a>
</g>
</g>
<!-- Node14 -->
<g id="Node000014" class="node">
<title>Node14</title>
<g id="a_Node000014"><a xlink:href="integer_8c.html" target="_top" xlink:title="Built&#45;in integer types plugin.">
<polygon fill="white" stroke="#666666" points="1813.5,-23.75 1680.5,-23.75 1680.5,-5.25 1813.5,-5.25 1813.5,-23.75"/>
<text text-anchor="middle" x="1747" y="-10.25" font-family="Helvetica,sans-Serif" font-size="10.00">src/plugins_types/integer.c</text>
</a>
</g>
</g>
<!-- Node2&#45;&gt;Node14 -->
<g id="edge13_Node000002_Node000014" class="edge">
<title>Node2&#45;&gt;Node14</title>
<g id="a_edge13_Node000002_Node000014"><a xlink:title=" ">
<path fill="none" stroke="#63b8ff" d="M1747,-53.33C1747,-43.33 1747,-31.75 1747,-24.06"/>
<polygon fill="#63b8ff" stroke="#63b8ff" points="1743.5,-53.22 1747,-63.22 1750.5,-53.22 1743.5,-53.22"/>
</a>
</g>
</g>
<!-- Node15 -->
<g id="Node000015" class="node">
<title>Node15</title>
<g id="a_Node000015"><a xlink:href="ipv4__address_8c.html" target="_top" xlink:title="ietf&#45;inet&#45;types ipv4&#45;address type plugin.">
<polygon fill="white" stroke="#666666" points="1944.75,-29 1831.25,-29 1831.25,0 1944.75,0 1944.75,-29"/>
<text text-anchor="start" x="1839.25" y="-15.5" font-family="Helvetica,sans-Serif" font-size="10.00">src/plugins_types/ipv4</text>
<text text-anchor="middle" x="1888" y="-5" font-family="Helvetica,sans-Serif" font-size="10.00">_address.c</text>
</a>
</g>
</g>
<!-- Node2&#45;&gt;Node15 -->
<g id="edge14_Node000002_Node000015" class="edge">
<title>Node2&#45;&gt;Node15</title>
<g id="a_edge14_Node000002_Node000015"><a xlink:title=" ">
<path fill="none" stroke="#63b8ff" d="M1778.72,-60.26C1801.08,-51.1 1830.99,-38.85 1853.86,-29.48"/>
<polygon fill="#63b8ff" stroke="#63b8ff" points="1777.44,-57 1769.51,-64.03 1780.09,-63.48 1777.44,-57"/>
</a>
</g>
</g>
<!-- Node16 -->
<g id="Node000016" class="node">
<title>Node16</title>
<g id="a_Node000016"><a xlink:href="ipv4__address__no__zone_8c.html" target="_top" xlink:title="ietf&#45;inet&#45;types ipv4&#45;address&#45;no&#45;zone type plugin.">
<polygon fill="white" stroke="#666666" points="2076.75,-29 1963.25,-29 1963.25,0 2076.75,0 2076.75,-29"/>
<text text-anchor="start" x="1971.25" y="-15.5" font-family="Helvetica,sans-Serif" font-size="10.00">src/plugins_types/ipv4</text>
<text text-anchor="middle" x="2020" y="-5" font-family="Helvetica,sans-Serif" font-size="10.00">_address_no_zone.c</text>
</a>
</g>
</g>
<!-- Node2&#45;&gt;Node16 -->
<g id="edge15_Node000002_Node000016" class="edge">
<title>Node2&#45;&gt;Node16</title>
<g id="a_edge15_Node000002_Node000016"><a xlink:title=" ">
<path fill="none" stroke="#63b8ff" d="M1793.73,-63.36C1840.55,-53.46 1912.7,-38.2 1962.89,-27.58"/>
<polygon fill="#63b8ff" stroke="#63b8ff" points="1793.23,-59.89 1784.17,-65.39 1794.68,-66.74 1793.23,-59.89"/>
</a>
</g>
</g>
<!-- Node17 -->
<g id="Node000017" class="node">
<title>Node17</title>
<g id="a_Node000017"><a xlink:href="ipv4__prefix_8c.html" target="_top" xlink:title="ietf&#45;inet&#45;types ipv4&#45;prefix type plugin.">
<polygon fill="white" stroke="#666666" points="2208.75,-29 2095.25,-29 2095.25,0 2208.75,0 2208.75,-29"/>
<text text-anchor="start" x="2103.25" y="-15.5" font-family="Helvetica,sans-Serif" font-size="10.00">src/plugins_types/ipv4</text>
<text text-anchor="middle" x="2152" y="-5" font-family="Helvetica,sans-Serif" font-size="10.00">_prefix.c</text>
</a>
</g>
</g>
<!-- Node2&#45;&gt;Node17 -->
<g id="edge16_Node000002_Node000017" class="edge">
<title>Node2&#45;&gt;Node17</title>
<g id="a_edge16_Node000002_Node000017"><a xlink:title=" ">
<path fill="none" stroke="#63b8ff" d="M1793.93,-68.21C1859.51,-60.91 1982.18,-46.37 2086,-29 2088.88,-28.52 2091.83,-28 2094.81,-27.46"/>
<polygon fill="#63b8ff" stroke="#63b8ff" points="1793.81,-64.7 1784.26,-69.27 1794.58,-71.65 1793.81,-64.7"/>
</a>
</g>
</g>
<!-- Node18 -->
<g id="Node000018" class="node">
<title>Node18</title>
<g id="a_Node000018"><a xlink:href="ipv6__address_8c.html" target="_top" xlink:title="ietf&#45;inet&#45;types ipv6&#45;address type plugin.">
<polygon fill="white" stroke="#666666" points="2340.75,-29 2227.25,-29 2227.25,0 2340.75,0 2340.75,-29"/>
<text text-anchor="start" x="2235.25" y="-15.5" font-family="Helvetica,sans-Serif" font-size="10.00">src/plugins_types/ipv6</text>
<text text-anchor="middle" x="2284" y="-5" font-family="Helvetica,sans-Serif" font-size="10.00">_address.c</text>
</a>
</g>
</g>
<!-- Node2&#45;&gt;Node18 -->
<g id="edge17_Node000002_Node000018" class="edge">
<title>Node2&#45;&gt;Node18</title>
<g id="a_edge17_Node000002_Node000018"><a xlink:title=" ">
<path fill="none" stroke="#63b8ff" d="M1793.92,-70.53C1878.85,-65.23 2063.6,-51.97 2218,-29 2220.89,-28.57 2223.85,-28.09 2226.83,-27.59"/>
<polygon fill="#63b8ff" stroke="#63b8ff" points="1793.89,-67.02 1784.12,-71.13 1794.32,-74.01 1793.89,-67.02"/>
</a>
</g>
</g>
<!-- Node19 -->
<g id="Node000019" class="node">
<title>Node19</title>
<g id="a_Node000019"><a xlink:href="ipv6__address__no__zone_8c.html" target="_top" xlink:title="ietf&#45;inet&#45;types ipv6&#45;address&#45;no&#45;zone type plugin.">
<polygon fill="white" stroke="#666666" points="2472.75,-29 2359.25,-29 2359.25,0 2472.75,0 2472.75,-29"/>
<text text-anchor="start" x="2367.25" y="-15.5" font-family="Helvetica,sans-Serif" font-size="10.00">src/plugins_types/ipv6</text>
<text text-anchor="middle" x="2416" y="-5" font-family="Helvetica,sans-Serif" font-size="10.00">_address_no_zone.c</text>
</a>
</g>
</g>
<!-- Node2&#45;&gt;Node19 -->
<g id="edge18_Node000002_Node000019" class="edge">
<title>Node2&#45;&gt;Node19</title>
<g id="a_edge18_Node000002_Node000019"><a xlink:title=" ">
<path fill="none" stroke="#63b8ff" d="M1794.26,-71.85C1896.21,-68.37 2144.21,-57.48 2350,-29 2352.9,-28.6 2355.86,-28.15 2358.84,-27.66"/>
<polygon fill="#63b8ff" stroke="#63b8ff" points="1794.24,-68.35 1784.36,-72.18 1794.47,-75.34 1794.24,-68.35"/>
</a>
</g>
</g>
<!-- Node20 -->
<g id="Node000020" class="node">
<title>Node20</title>
<g id="a_Node000020"><a xlink:href="ipv6__prefix_8c.html" target="_top" xlink:title="ietf&#45;inet&#45;types ipv6&#45;prefix type plugin.">
<polygon fill="white" stroke="#666666" points="2604.75,-29 2491.25,-29 2491.25,0 2604.75,0 2604.75,-29"/>
<text text-anchor="start" x="2499.25" y="-15.5" font-family="Helvetica,sans-Serif" font-size="10.00">src/plugins_types/ipv6</text>
<text text-anchor="middle" x="2548" y="-5" font-family="Helvetica,sans-Serif" font-size="10.00">_prefix.c</text>
</a>
</g>
</g>
<!-- Node2&#45;&gt;Node20 -->
<g id="edge19_Node000002_Node000020" class="edge">
<title>Node2&#45;&gt;Node20</title>
<g id="a_edge19_Node000002_Node000020"><a xlink:title=" ">
<path fill="none" stroke="#63b8ff" d="M1794.08,-72.72C1910.99,-70.91 2223.76,-63.01 2482,-29 2484.9,-28.62 2487.86,-28.18 2490.85,-27.71"/>
<polygon fill="#63b8ff" stroke="#63b8ff" points="1794.2,-69.22 1784.25,-72.87 1794.3,-76.22 1794.2,-69.22"/>
</a>
</g>
</g>
<!-- Node21 -->
<g id="Node000021" class="node">
<title>Node21</title>
<g id="a_Node000021"><a xlink:href="leafref_8c.html" target="_top" xlink:title="Built&#45;in leafref type plugin.">
<polygon fill="white" stroke="#666666" points="2753,-23.75 2623,-23.75 2623,-5.25 2753,-5.25 2753,-23.75"/>
<text text-anchor="middle" x="2688" y="-10.25" font-family="Helvetica,sans-Serif" font-size="10.00">src/plugins_types/leafref.c</text>
</a>
</g>
</g>
<!-- Node2&#45;&gt;Node21 -->
<g id="edge20_Node000002_Node000021" class="edge">
<title>Node2&#45;&gt;Node21</title>
<g id="a_edge20_Node000002_Node000021"><a xlink:title=" ">
<path fill="none" stroke="#63b8ff" d="M1794.16,-72.98C1924.85,-71.79 2302.6,-65.2 2614,-29 2624.25,-27.81 2635.22,-26.07 2645.49,-24.23"/>
<polygon fill="#63b8ff" stroke="#63b8ff" points="1794.13,-69.48 1784.16,-73.07 1794.19,-76.48 1794.13,-69.48"/>
</a>
</g>
</g>
<!-- Node22 -->
<g id="Node000022" class="node">
<title>Node22</title>
<g id="a_Node000022"><a xlink:href="node__instanceid_8c.html" target="_top" xlink:title="ietf&#45;netconf&#45;acm node&#45;instance&#45;identifier type plugin.">
<polygon fill="white" stroke="#666666" points="2887.25,-29 2770.75,-29 2770.75,0 2887.25,0 2887.25,-29"/>
<text text-anchor="start" x="2778.75" y="-15.5" font-family="Helvetica,sans-Serif" font-size="10.00">src/plugins_types/node</text>
<text text-anchor="middle" x="2829" y="-5" font-family="Helvetica,sans-Serif" font-size="10.00">_instanceid.c</text>
</a>
</g>
</g>
<!-- Node2&#45;&gt;Node22 -->
<g id="edge21_Node000002_Node000022" class="edge">
<title>Node2&#45;&gt;Node22</title>
<g id="a_edge21_Node000002_Node000022"><a xlink:title=" ">
<path fill="none" stroke="#63b8ff" d="M1794.17,-73.79C1939.2,-74.89 2391.17,-74.17 2762,-29 2764.71,-28.67 2767.47,-28.29 2770.26,-27.87"/>
<polygon fill="#63b8ff" stroke="#63b8ff" points="1794.22,-70.29 1784.19,-73.7 1794.16,-77.29 1794.22,-70.29"/>
</a>
</g>
</g>
<!-- Node23 -->
<g id="Node000023" class="node">
<title>Node23</title>
<g id="a_Node000023"><a xlink:href="string_8c.html" target="_top" xlink:title="Built&#45;in string type plugin.">
<polygon fill="white" stroke="#666666" points="3032.88,-23.75 2905.12,-23.75 2905.12,-5.25 3032.88,-5.25 3032.88,-23.75"/>
<text text-anchor="middle" x="2969" y="-10.25" font-family="Helvetica,sans-Serif" font-size="10.00">src/plugins_types/string.c</text>
</a>
</g>
</g>
<!-- Node2&#45;&gt;Node23 -->
<g id="edge22_Node000002_Node000023" class="edge">
<title>Node2&#45;&gt;Node23</title>
<g id="a_edge22_Node000002_Node000023"><a xlink:title=" ">
<path fill="none" stroke="#63b8ff" d="M1794.17,-72.34C1982.01,-68.59 2677.12,-53.33 2896,-29 2906.38,-27.85 2917.49,-26.07 2927.85,-24.18"/>
<polygon fill="#63b8ff" stroke="#63b8ff" points="1794.24,-68.84 1784.31,-72.54 1794.38,-75.84 1794.24,-68.84"/>
</a>
</g>
</g>
<!-- Node24 -->
<g id="Node000024" class="node">
<title>Node24</title>
<g id="a_Node000024"><a xlink:href="union_8c.html" target="_top" xlink:title="Built&#45;in union type plugin.">
<polygon fill="white" stroke="#666666" points="3177.5,-23.75 3050.5,-23.75 3050.5,-5.25 3177.5,-5.25 3177.5,-23.75"/>
<text text-anchor="middle" x="3114" y="-10.25" font-family="Helvetica,sans-Serif" font-size="10.00">src/plugins_types/union.c</text>
</a>
</g>
</g>
<!-- Node2&#45;&gt;Node24 -->
<g id="edge23_Node000002_Node000024" class="edge">
<title>Node2&#45;&gt;Node24</title>
<g id="a_edge23_Node000002_Node000024"><a xlink:title=" ">
<path fill="none" stroke="#63b8ff" d="M1794.09,-72.6C1996.42,-69.64 2792.89,-56.45 3042,-29 3052.24,-27.87 3063.21,-26.11 3073.42,-24.22"/>
<polygon fill="#63b8ff" stroke="#63b8ff" points="1794.18,-69.09 1784.23,-72.74 1794.28,-76.09 1794.18,-69.09"/>
</a>
</g>
</g>
<!-- Node25 -->
<g id="Node000025" class="node">
<title>Node25</title>
<g id="a_Node000025"><a xlink:href="xpath1_80_8c.html" target="_top" xlink:title="ietf&#45;yang&#45;types xpath1.0 type plugin.">
<polygon fill="white" stroke="#666666" points="3336.62,-23.75 3195.38,-23.75 3195.38,-5.25 3336.62,-5.25 3336.62,-23.75"/>
<text text-anchor="middle" x="3266" y="-10.25" font-family="Helvetica,sans-Serif" font-size="10.00">src/plugins_types/xpath1.0.c</text>
</a>
</g>
</g>
<!-- Node2&#45;&gt;Node25 -->
<g id="edge24_Node000002_Node000025" class="edge">
<title>Node2&#45;&gt;Node25</title>
<g id="a_edge24_Node000002_Node000025"><a xlink:title=" ">
<path fill="none" stroke="#63b8ff" d="M1794.01,-72.68C2009.89,-69.94 2907.5,-57.04 3187,-29 3198.21,-27.88 3210.24,-26.11 3221.44,-24.22"/>
<polygon fill="#63b8ff" stroke="#63b8ff" points="1794.27,-69.18 1784.31,-72.8 1794.36,-76.18 1794.27,-69.18"/>
</a>
</g>
</g>
</g>
</svg>
