<?xml version="1.0" encoding="UTF-8" standalone="no"?>
<!DOCTYPE svg PUBLIC "-//W3C//DTD SVG 1.1//EN"
 "http://www.w3.org/Graphics/SVG/1.1/DTD/svg11.dtd">
<!-- Generated by graphviz version 12.1.0 (20240811.2233)
 -->
<!-- Title: src/printer_data.h Pages: 1 -->
<!--zoomable 245 -->

<svg id="main" version="1.1" xmlns="http://www.w3.org/2000/svg" xmlns:xlink="http://www.w3.org/1999/xlink" xml:space="preserve" onload="init(evt)">

<style type="text/css"><![CDATA[
.node, .edge {opacity: 0.7;}
.node.selected, .edge.selected {opacity: 1;}
.edge:hover path { stroke: red; }
.edge:hover polygon { stroke: red; fill: red; }
]]></style>

<defs>
  <circle id="rim" cx="0" cy="0" r="7"/>
  <circle id="rim2" cx="0" cy="0" r="3.5"/>
  <g id="zoomPlus">
    <use xlink:href="#rim" fill="#404040"><set attributeName="fill" to="#808080" begin="zoomplus.mouseover" end="zoomplus.mouseout"/></use>
    <path d="M-4,0h8M0,-4v8" fill="none" stroke="white" stroke-width="1.5" pointer-events="none"/>
  </g>
  <g id="zoomMin">
    <use xlink:href="#rim" fill="#404040"><set attributeName="fill" to="#808080" begin="zoomminus.mouseover" end="zoomminus.mouseout"/></use>
    <path d="M-4,0h8" fill="none" stroke="white" stroke-width="1.5" pointer-events="none"/>
  </g>
  <g id="arrowUp" transform="translate(30 24)">
    <use xlink:href="#rim"/>
    <path pointer-events="none" fill="none" stroke="white" stroke-width="1.5" d="M0,-3.0v7 M-2.5,-0.5L0,-3.0L2.5,-0.5"/>
  </g>
  <g id="arrowRight" transform="rotate(90) translate(36 -43)">
    <use xlink:href="#rim"/>
    <path pointer-events="none" fill="none" stroke="white" stroke-width="1.5" d="M0,-3.0v7 M-2.5,-0.5L0,-3.0L2.5,-0.5"/>
  </g>
  <g id="arrowDown" transform="rotate(180) translate(-30 -48)">
    <use xlink:href="#rim"/>
    <path pointer-events="none" fill="none" stroke="white" stroke-width="1.5" d="M0,-3.0v7 M-2.5,-0.5L0,-3.0L2.5,-0.5"/>
  </g>
  <g id="arrowLeft" transform="rotate(270) translate(-36 17)">
    <use xlink:href="#rim"/>
    <path pointer-events="none" fill="none" stroke="white" stroke-width="1.5" d="M0,-3.0v7 M-2.5,-0.5L0,-3.0L2.5,-0.5"/>
  </g>
  <g id="resetDef">
    <use xlink:href="#rim2" fill="#404040"><set attributeName="fill" to="#808080" begin="reset.mouseover" end="reset.mouseout"/></use>
  </g>
</defs>
<script type="application/ecmascript">
var viewWidth = 661;
var viewHeight = 245;
var sectionId = 'dynsection-0';
</script>
<script type="application/ecmascript" xlink:href="svg.min.js"/>
<svg id="graph" class="graph">
<g id="viewport">
<title>src/printer_data.h</title>
<!-- Node1 -->
<g id="Node000001" class="node">
<title>Node1</title>
<g id="a_Node000001"><a xlink:title="Data printers for libyang.">
<polygon fill="#999999" stroke="#666666" points="504.47,-236.5 412.72,-236.5 412.72,-218 504.47,-218 504.47,-236.5"/>
<text text-anchor="middle" x="458.6" y="-223" font-family="Helvetica,sans-Serif" font-size="10.00">src/printer_data.h</text>
</a>
</g>
</g>
<!-- Node2 -->
<g id="Node000002" class="node">
<title>Node2</title>
<g id="a_Node000002"><a xlink:title=" ">
<polygon fill="#e0e0e0" stroke="#999999" points="176.35,-18.5 128.85,-18.5 128.85,0 176.35,0 176.35,-18.5"/>
<text text-anchor="middle" x="152.6" y="-5" font-family="Helvetica,sans-Serif" font-size="10.00">stdint.h</text>
</a>
</g>
</g>
<!-- Node1&#45;&gt;Node2 -->
<g id="edge1_Node000001_Node000002" class="edge">
<title>Node1&#45;&gt;Node2</title>
<g id="a_edge1_Node000001_Node000002"><a xlink:title=" ">
<path fill="none" stroke="#63b8ff" d="M412.34,-226.57C330.17,-224.87 156.77,-210.81 43.6,-127.5 14.47,-106.05 -13.93,-83.57 7.6,-54.5 20.69,-36.82 78.54,-23.36 117.09,-16.15"/>
<polygon fill="#63b8ff" stroke="#63b8ff" points="117.66,-19.6 126.87,-14.38 116.41,-12.71 117.66,-19.6"/>
</a>
</g>
</g>
<!-- Node3 -->
<g id="Node000003" class="node">
<title>Node3</title>
<g id="a_Node000003"><a xlink:title=" ">
<polygon fill="#e0e0e0" stroke="#999999" points="570.22,-73 524.97,-73 524.97,-54.5 570.22,-54.5 570.22,-73"/>
<text text-anchor="middle" x="547.6" y="-59.5" font-family="Helvetica,sans-Serif" font-size="10.00">stdio.h</text>
</a>
</g>
</g>
<!-- Node1&#45;&gt;Node3 -->
<g id="edge2_Node000001_Node000003" class="edge">
<title>Node1&#45;&gt;Node3</title>
<g id="a_edge2_Node000001_Node000003"><a xlink:title=" ">
<path fill="none" stroke="#63b8ff" d="M475.96,-217.69C502.73,-203.36 552.95,-171.66 571.6,-127.5 577.97,-112.41 570.13,-94.99 561.75,-82.34"/>
<polygon fill="#63b8ff" stroke="#63b8ff" points="564.79,-80.58 556.07,-74.57 559.14,-84.71 564.79,-80.58"/>
</a>
</g>
</g>
<!-- Node4 -->
<g id="Node000004" class="node">
<title>Node4</title>
<g id="a_Node000004"><a xlink:href="log_8h.html" target="_top" xlink:title="Logger manipulation routines and error definitions.">
<polygon fill="white" stroke="#666666" points="300.1,-73 263.1,-73 263.1,-54.5 300.1,-54.5 300.1,-73"/>
<text text-anchor="middle" x="281.6" y="-59.5" font-family="Helvetica,sans-Serif" font-size="10.00">log.h</text>
</a>
</g>
</g>
<!-- Node1&#45;&gt;Node4 -->
<g id="edge3_Node000001_Node000004" class="edge">
<title>Node1&#45;&gt;Node4</title>
<g id="a_edge3_Node000001_Node000004"><a xlink:title=" ">
<path fill="none" stroke="#63b8ff" d="M460.03,-217.59C463.05,-196.2 467.63,-140.37 439.6,-109 407.2,-72.74 347.76,-65.16 311.74,-64.14"/>
<polygon fill="#63b8ff" stroke="#63b8ff" points="312.05,-60.64 302.01,-64.03 311.97,-67.64 312.05,-60.64"/>
</a>
</g>
</g>
<!-- Node6 -->
<g id="Node000006" class="node">
<title>Node6</title>
<g id="a_Node000006"><a xlink:href="out_8h.html" target="_top" xlink:title="libyang output structures and functions">
<polygon fill="white" stroke="#666666" points="562.1,-127.5 525.1,-127.5 525.1,-109 562.1,-109 562.1,-127.5"/>
<text text-anchor="middle" x="543.6" y="-114" font-family="Helvetica,sans-Serif" font-size="10.00">out.h</text>
</a>
</g>
</g>
<!-- Node1&#45;&gt;Node6 -->
<g id="edge6_Node000001_Node000006" class="edge">
<title>Node1&#45;&gt;Node6</title>
<g id="a_edge6_Node000001_Node000006"><a xlink:title=" ">
<path fill="none" stroke="#63b8ff" d="M465.27,-217.85C479.1,-200.44 511.17,-160.07 529.7,-136.74"/>
<polygon fill="#63b8ff" stroke="#63b8ff" points="532.3,-139.1 535.78,-129.09 526.82,-134.74 532.3,-139.1"/>
</a>
</g>
</g>
<!-- Node8 -->
<g id="Node000008" class="node">
<title>Node8</title>
<g id="a_Node000008"><a xlink:href="tree__data_8h.html" target="_top" xlink:title="libyang representation of YANG data trees.">
<polygon fill="white" stroke="#666666" points="304.97,-182 240.22,-182 240.22,-163.5 304.97,-163.5 304.97,-182"/>
<text text-anchor="middle" x="272.6" y="-168.5" font-family="Helvetica,sans-Serif" font-size="10.00">tree_data.h</text>
</a>
</g>
</g>
<!-- Node1&#45;&gt;Node8 -->
<g id="edge10_Node000001_Node000008" class="edge">
<title>Node1&#45;&gt;Node8</title>
<g id="a_edge10_Node000001_Node000008"><a xlink:title=" ">
<path fill="none" stroke="#63b8ff" d="M427.88,-217.58C396.79,-208.8 348.49,-195.17 314.02,-185.44"/>
<polygon fill="#63b8ff" stroke="#63b8ff" points="315.39,-182.19 304.81,-182.84 313.49,-188.93 315.39,-182.19"/>
</a>
</g>
</g>
<!-- Node4&#45;&gt;Node2 -->
<g id="edge4_Node000004_Node000002" class="edge">
<title>Node4&#45;&gt;Node2</title>
<g id="a_edge4_Node000004_Node000002"><a xlink:title=" ">
<path fill="none" stroke="#63b8ff" d="M262.84,-55.12C242.36,-46.78 209.2,-33.28 184.59,-23.27"/>
<polygon fill="#63b8ff" stroke="#63b8ff" points="185.94,-20.04 175.36,-19.51 183.3,-26.52 185.94,-20.04"/>
</a>
</g>
</g>
<!-- Node5 -->
<g id="Node000005" class="node">
<title>Node5</title>
<g id="a_Node000005"><a xlink:title=" ">
<polygon fill="#e0e0e0" stroke="#999999" points="306.85,-18.5 256.35,-18.5 256.35,0 306.85,0 306.85,-18.5"/>
<text text-anchor="middle" x="281.6" y="-5" font-family="Helvetica,sans-Serif" font-size="10.00">config.h</text>
</a>
</g>
</g>
<!-- Node4&#45;&gt;Node5 -->
<g id="edge5_Node000004_Node000005" class="edge">
<title>Node4&#45;&gt;Node5</title>
<g id="a_edge5_Node000004_Node000005"><a xlink:title=" ">
<path fill="none" stroke="#63b8ff" d="M281.6,-54.08C281.6,-47.58 281.6,-38.42 281.6,-30.16"/>
<polygon fill="#63b8ff" stroke="#63b8ff" points="285.1,-30.27 281.6,-20.27 278.1,-30.27 285.1,-30.27"/>
</a>
</g>
</g>
<!-- Node6&#45;&gt;Node3 -->
<g id="edge7_Node000006_Node000003" class="edge">
<title>Node6&#45;&gt;Node3</title>
<g id="a_edge7_Node000006_Node000003"><a xlink:title=" ">
<path fill="none" stroke="#63b8ff" d="M544.26,-108.58C544.75,-102.08 545.45,-92.92 546.08,-84.66"/>
<polygon fill="#63b8ff" stroke="#63b8ff" points="549.56,-85 546.83,-74.77 542.58,-84.47 549.56,-85"/>
</a>
</g>
</g>
<!-- Node6&#45;&gt;Node4 -->
<g id="edge9_Node000006_Node000004" class="edge">
<title>Node6&#45;&gt;Node4</title>
<g id="a_edge9_Node000006_Node000004"><a xlink:title=" ">
<path fill="none" stroke="#63b8ff" d="M524.76,-113.47C479.81,-104.47 366.03,-81.67 311.56,-70.75"/>
<polygon fill="#63b8ff" stroke="#63b8ff" points="312.25,-67.32 301.75,-68.79 310.87,-74.19 312.25,-67.32"/>
</a>
</g>
</g>
<!-- Node7 -->
<g id="Node000007" class="node">
<title>Node7</title>
<g id="a_Node000007"><a xlink:title=" ">
<polygon fill="#e0e0e0" stroke="#999999" points="653.35,-73 587.85,-73 587.85,-54.5 653.35,-54.5 653.35,-73"/>
<text text-anchor="middle" x="620.6" y="-59.5" font-family="Helvetica,sans-Serif" font-size="10.00">sys/types.h</text>
</a>
</g>
</g>
<!-- Node6&#45;&gt;Node7 -->
<g id="edge8_Node000006_Node000007" class="edge">
<title>Node6&#45;&gt;Node7</title>
<g id="a_edge8_Node000006_Node000007"><a xlink:title=" ">
<path fill="none" stroke="#63b8ff" d="M556.31,-108.58C567.79,-100.75 584.93,-89.07 598.63,-79.73"/>
<polygon fill="#63b8ff" stroke="#63b8ff" points="600.32,-82.81 606.61,-74.28 596.38,-77.03 600.32,-82.81"/>
</a>
</g>
</g>
<!-- Node8&#45;&gt;Node2 -->
<g id="edge13_Node000008_Node000002" class="edge">
<title>Node8&#45;&gt;Node2</title>
<g id="a_edge13_Node000008_Node000002"><a xlink:title=" ">
<path fill="none" stroke="#63b8ff" d="M240.11,-168.46C193.54,-162.99 111.46,-150.31 93.6,-127.5 68.21,-95.08 108.06,-50.01 133.7,-26.3"/>
<polygon fill="#63b8ff" stroke="#63b8ff" points="135.78,-29.14 140.91,-19.87 131.12,-23.91 135.78,-29.14"/>
</a>
</g>
</g>
<!-- Node8&#45;&gt;Node4 -->
<g id="edge16_Node000008_Node000004" class="edge">
<title>Node8&#45;&gt;Node4</title>
<g id="a_edge16_Node000008_Node000004"><a xlink:title=" ">
<path fill="none" stroke="#63b8ff" d="M273.3,-163.35C274.72,-146.56 277.92,-108.42 279.91,-84.8"/>
<polygon fill="#63b8ff" stroke="#63b8ff" points="283.39,-85.17 280.74,-74.91 276.42,-84.58 283.39,-85.17"/>
</a>
</g>
</g>
<!-- Node8&#45;&gt;Node5 -->
<g id="edge15_Node000008_Node000005" class="edge">
<title>Node8&#45;&gt;Node5</title>
<g id="a_edge15_Node000008_Node000005"><a xlink:title=" ">
<path fill="none" stroke="#63b8ff" d="M305.13,-167.82C348.94,-161.78 423.32,-148.66 439.6,-127.5 478.66,-76.74 375.74,-37.44 317.87,-20.04"/>
<polygon fill="#63b8ff" stroke="#63b8ff" points="318.99,-16.72 308.41,-17.28 317.03,-23.44 318.99,-16.72"/>
</a>
</g>
</g>
<!-- Node9 -->
<g id="Node000009" class="node">
<title>Node9</title>
<g id="a_Node000009"><a xlink:title=" ">
<polygon fill="#e0e0e0" stroke="#999999" points="362.47,-127.5 300.72,-127.5 300.72,-109 362.47,-109 362.47,-127.5"/>
<text text-anchor="middle" x="331.6" y="-114" font-family="Helvetica,sans-Serif" font-size="10.00">arpa/inet.h</text>
</a>
</g>
</g>
<!-- Node8&#45;&gt;Node9 -->
<g id="edge11_Node000008_Node000009" class="edge">
<title>Node8&#45;&gt;Node9</title>
<g id="a_edge11_Node000008_Node000009"><a xlink:title=" ">
<path fill="none" stroke="#63b8ff" d="M282.34,-163.08C290.85,-155.51 303.41,-144.33 313.72,-135.16"/>
<polygon fill="#63b8ff" stroke="#63b8ff" points="315.76,-138.03 320.91,-128.76 311.11,-132.8 315.76,-138.03"/>
</a>
</g>
</g>
<!-- Node10 -->
<g id="Node000010" class="node">
<title>Node10</title>
<g id="a_Node000010"><a xlink:title=" ">
<polygon fill="#e0e0e0" stroke="#999999" points="430.85,-127.5 380.35,-127.5 380.35,-109 430.85,-109 430.85,-127.5"/>
<text text-anchor="middle" x="405.6" y="-114" font-family="Helvetica,sans-Serif" font-size="10.00">stddef.h</text>
</a>
</g>
</g>
<!-- Node8&#45;&gt;Node10 -->
<g id="edge12_Node000008_Node000010" class="edge">
<title>Node8&#45;&gt;Node10</title>
<g id="a_edge12_Node000008_Node000010"><a xlink:title=" ">
<path fill="none" stroke="#63b8ff" d="M294.56,-163.08C315.93,-154.65 348.66,-141.73 373.05,-132.1"/>
<polygon fill="#63b8ff" stroke="#63b8ff" points="374.18,-135.42 382.19,-128.49 371.61,-128.9 374.18,-135.42"/>
</a>
</g>
</g>
<!-- Node11 -->
<g id="Node000011" class="node">
<title>Node11</title>
<g id="a_Node000011"><a xlink:title=" ">
<polygon fill="#e0e0e0" stroke="#999999" points="146.1,-127.5 103.1,-127.5 103.1,-109 146.1,-109 146.1,-127.5"/>
<text text-anchor="middle" x="124.6" y="-114" font-family="Helvetica,sans-Serif" font-size="10.00">time.h</text>
</a>
</g>
</g>
<!-- Node8&#45;&gt;Node11 -->
<g id="edge14_Node000008_Node000011" class="edge">
<title>Node8&#45;&gt;Node11</title>
<g id="a_edge14_Node000008_Node000011"><a xlink:title=" ">
<path fill="none" stroke="#63b8ff" d="M248.16,-163.08C223.19,-154.22 184.29,-140.43 156.82,-130.68"/>
<polygon fill="#63b8ff" stroke="#63b8ff" points="158.2,-127.46 147.61,-127.41 155.86,-134.05 158.2,-127.46"/>
</a>
</g>
</g>
<!-- Node12 -->
<g id="Node000012" class="node">
<title>Node12</title>
<g id="a_Node000012"><a xlink:href="tree_8h.html" target="_top" xlink:title="libyang generic macros and functions to work with YANG schema or data trees.">
<polygon fill="white" stroke="#666666" points="56.97,-73 16.22,-73 16.22,-54.5 56.97,-54.5 56.97,-73"/>
<text text-anchor="middle" x="36.6" y="-59.5" font-family="Helvetica,sans-Serif" font-size="10.00">tree.h</text>
</a>
</g>
</g>
<!-- Node8&#45;&gt;Node12 -->
<g id="edge17_Node000008_Node000012" class="edge">
<title>Node8&#45;&gt;Node12</title>
<g id="a_edge17_Node000008_Node000012"><a xlink:title=" ">
<path fill="none" stroke="#63b8ff" d="M240.11,-168.76C187.6,-163.33 87.29,-150.24 60.6,-127.5 47.83,-116.62 41.83,-98.15 39.03,-84.06"/>
<polygon fill="#63b8ff" stroke="#63b8ff" points="42.55,-83.93 37.53,-74.6 35.64,-85.02 42.55,-83.93"/>
</a>
</g>
</g>
<!-- Node14 -->
<g id="Node000014" class="node">
<title>Node14</title>
<g id="a_Node000014"><a xlink:href="tree__schema_8h.html" target="_top" xlink:title="libyang representation of YANG schema trees.">
<polygon fill="white" stroke="#666666" points="244.85,-127.5 164.35,-127.5 164.35,-109 244.85,-109 244.85,-127.5"/>
<text text-anchor="middle" x="204.6" y="-114" font-family="Helvetica,sans-Serif" font-size="10.00">tree_schema.h</text>
</a>
</g>
</g>
<!-- Node8&#45;&gt;Node14 -->
<g id="edge19_Node000008_Node000014" class="edge">
<title>Node8&#45;&gt;Node14</title>
<g id="a_edge19_Node000008_Node000014"><a xlink:title=" ">
<path fill="none" stroke="#63b8ff" d="M261.37,-163.08C251.37,-155.36 236.5,-143.88 224.49,-134.61"/>
<polygon fill="#63b8ff" stroke="#63b8ff" points="226.87,-132.02 216.82,-128.68 222.59,-137.56 226.87,-132.02"/>
</a>
</g>
</g>
<!-- Node13 -->
<g id="Node000013" class="node">
<title>Node13</title>
<g id="a_Node000013"><a xlink:title=" ">
<polygon fill="#e0e0e0" stroke="#999999" points="65.97,-18.5 7.22,-18.5 7.22,0 65.97,0 65.97,-18.5"/>
<text text-anchor="middle" x="36.6" y="-5" font-family="Helvetica,sans-Serif" font-size="10.00">inttypes.h</text>
</a>
</g>
</g>
<!-- Node12&#45;&gt;Node13 -->
<g id="edge18_Node000012_Node000013" class="edge">
<title>Node12&#45;&gt;Node13</title>
<g id="a_edge18_Node000012_Node000013"><a xlink:title=" ">
<path fill="none" stroke="#63b8ff" d="M36.6,-54.08C36.6,-47.58 36.6,-38.42 36.6,-30.16"/>
<polygon fill="#63b8ff" stroke="#63b8ff" points="40.1,-30.27 36.6,-20.27 33.1,-30.27 40.1,-30.27"/>
</a>
</g>
</g>
<!-- Node14&#45;&gt;Node2 -->
<g id="edge21_Node000014_Node000002" class="edge">
<title>Node14&#45;&gt;Node2</title>
<g id="a_edge21_Node000014_Node000002"><a xlink:title=" ">
<path fill="none" stroke="#63b8ff" d="M201.22,-108.59C196.37,-96.36 186.98,-73.41 177.6,-54.5 173.34,-45.9 168.18,-36.62 163.67,-28.8"/>
<polygon fill="#63b8ff" stroke="#63b8ff" points="166.71,-27.07 158.63,-20.22 160.68,-30.62 166.71,-27.07"/>
</a>
</g>
</g>
<!-- Node14&#45;&gt;Node3 -->
<g id="edge22_Node000014_Node000003" class="edge">
<title>Node14&#45;&gt;Node3</title>
<g id="a_edge22_Node000014_Node000003"><a xlink:title=" ">
<path fill="none" stroke="#63b8ff" d="M245.29,-111.02C313.48,-100.58 449.58,-79.75 513.26,-70.01"/>
<polygon fill="#63b8ff" stroke="#63b8ff" points="513.78,-73.47 523.13,-68.49 512.72,-66.55 513.78,-73.47"/>
</a>
</g>
</g>
<!-- Node14&#45;&gt;Node4 -->
<g id="edge24_Node000014_Node000004" class="edge">
<title>Node14&#45;&gt;Node4</title>
<g id="a_edge24_Node000014_Node000004"><a xlink:title=" ">
<path fill="none" stroke="#63b8ff" d="M217.31,-108.58C228.79,-100.75 245.93,-89.07 259.63,-79.73"/>
<polygon fill="#63b8ff" stroke="#63b8ff" points="261.32,-82.81 267.61,-74.28 257.38,-77.03 261.32,-82.81"/>
</a>
</g>
</g>
<!-- Node14&#45;&gt;Node5 -->
<g id="edge23_Node000014_Node000005" class="edge">
<title>Node14&#45;&gt;Node5</title>
<g id="a_edge23_Node000014_Node000005"><a xlink:title=" ">
<path fill="none" stroke="#63b8ff" d="M210.64,-108.85C223.12,-91.52 251.97,-51.43 268.79,-28.05"/>
<polygon fill="#63b8ff" stroke="#63b8ff" points="271.49,-30.29 274.49,-20.13 265.8,-26.21 271.49,-30.29"/>
</a>
</g>
</g>
<!-- Node14&#45;&gt;Node12 -->
<g id="edge25_Node000014_Node000012" class="edge">
<title>Node14&#45;&gt;Node12</title>
<g id="a_edge25_Node000014_Node000012"><a xlink:title=" ">
<path fill="none" stroke="#63b8ff" d="M176.86,-108.58C146.97,-99.24 99.52,-84.41 68.21,-74.63"/>
<polygon fill="#63b8ff" stroke="#63b8ff" points="69.51,-71.37 58.92,-71.72 67.42,-78.05 69.51,-71.37"/>
</a>
</g>
</g>
<!-- Node15 -->
<g id="Node000015" class="node">
<title>Node15</title>
<g id="a_Node000015"><a xlink:title=" ">
<polygon fill="#e0e0e0" stroke="#999999" points="168.72,-73 120.47,-73 120.47,-54.5 168.72,-54.5 168.72,-73"/>
<text text-anchor="middle" x="144.6" y="-59.5" font-family="Helvetica,sans-Serif" font-size="10.00">pcre2.h</text>
</a>
</g>
</g>
<!-- Node14&#45;&gt;Node15 -->
<g id="edge20_Node000014_Node000015" class="edge">
<title>Node14&#45;&gt;Node15</title>
<g id="a_edge20_Node000014_Node000015"><a xlink:title=" ">
<path fill="none" stroke="#63b8ff" d="M194.69,-108.58C186.04,-101.01 173.27,-89.83 162.78,-80.66"/>
<polygon fill="#63b8ff" stroke="#63b8ff" points="165.29,-78.21 155.46,-74.25 160.68,-83.47 165.29,-78.21"/>
</a>
</g>
</g>
</g>
</svg>

<g id="navigator" transform="translate(0 0)" fill="#404254">
  <rect fill="#f2f5e9" fill-opacity="0.5" stroke="#606060" stroke-width=".5" x="0" y="0" width="60" height="60"/>
  <use id="zoomplus" xlink:href="#zoomPlus" x="17" y="9" onmousedown="handleZoom(evt,'in')"/>
  <use id="zoomminus" xlink:href="#zoomMin" x="42" y="9" onmousedown="handleZoom(evt,'out')"/>
  <use id="reset" xlink:href="#resetDef" x="30" y="36" onmousedown="handleReset()"/>
   <use id="arrowup" xlink:href="#arrowUp" x="0" y="0" onmousedown="handlePan(0,-1)"/>
  <use id="arrowright" xlink:href="#arrowRight" x="0" y="0" onmousedown="handlePan(1,0)"/>
  <use id="arrowdown" xlink:href="#arrowDown" x="0" y="0" onmousedown="handlePan(0,1)"/>
  <use id="arrowleft" xlink:href="#arrowLeft" x="0" y="0" onmousedown="handlePan(-1,0)"/>
</g>
<svg viewBox="0 0 15 15" width="100%" height="30px" preserveAspectRatio="xMaxYMin meet">
 <g id="arrow_out" transform="scale(0.3 0.3)">
  <a xlink:href="printer__data_8h__incl_org.svg" target="_base">
   <rect id="button" ry="5" rx="5" y="6" x="6" height="38" width="38"
        fill="#f2f5e9" fill-opacity="0.5" stroke="#606060" stroke-width="1.0"/>
   <path id="arrow"
     d="M 11.500037,31.436501 C 11.940474,20.09759 22.043105,11.32322 32.158766,21.979434 L 37.068811,17.246167 C 37.068811,17.246167 37.088388,32 37.088388,32 L 22.160133,31.978069 C 22.160133,31.978069 26.997745,27.140456 26.997745,27.140456 C 18.528582,18.264221 13.291696,25.230495 11.500037,31.436501 z"
     style="fill:#404040;"/>
  </a>
 </g>
</svg>

<style type='text/css'>
<![CDATA[
[data-mouse-over-selected='false'] { opacity: 0.7; }
[data-mouse-over-selected='true']  { opacity: 1.0; }
]]>
</style>
<script type="application/ecmascript"><![CDATA[
document.addEventListener('DOMContentLoaded', (event) => {
  highlightEdges();
  highlightAdjacentNodes();
});
]]></script>
</svg>
