<?xml version="1.0" encoding="UTF-8" standalone="no"?>
<!DOCTYPE svg PUBLIC "-//W3C//DTD SVG 1.1//EN"
 "http://www.w3.org/Graphics/SVG/1.1/DTD/svg11.dtd">
<!-- Generated by graphviz version 12.1.0 (20240811.2233)
 -->
<!-- Title: src/set.h Pages: 1 -->
<svg width="124pt" height="136pt"
 viewBox="0.00 0.00 124.00 135.50" xmlns="http://www.w3.org/2000/svg" xmlns:xlink="http://www.w3.org/1999/xlink">
<g id="graph0" class="graph" transform="scale(1 1) rotate(0) translate(4 131.5)">
<title>src/set.h</title>
<!-- Node1 -->
<g id="Node000001" class="node">
<title>Node1</title>
<g id="a_Node000001"><a xlink:title="Generic set structure and manipulation routines.">
<polygon fill="#999999" stroke="#666666" points="73.5,-127.5 20,-127.5 20,-109 73.5,-109 73.5,-127.5"/>
<text text-anchor="middle" x="46.75" y="-114" font-family="Helvetica,sans-Serif" font-size="10.00">src/set.h</text>
</a>
</g>
</g>
<!-- Node2 -->
<g id="Node000002" class="node">
<title>Node2</title>
<g id="a_Node000002"><a xlink:title=" ">
<polygon fill="#e0e0e0" stroke="#999999" points="47.5,-18.5 0,-18.5 0,0 47.5,0 47.5,-18.5"/>
<text text-anchor="middle" x="23.75" y="-5" font-family="Helvetica,sans-Serif" font-size="10.00">stdint.h</text>
</a>
</g>
</g>
<!-- Node1&#45;&gt;Node2 -->
<g id="edge1_Node000001_Node000002" class="edge">
<title>Node1&#45;&gt;Node2</title>
<g id="a_edge1_Node000001_Node000002"><a xlink:title=" ">
<path fill="none" stroke="#63b8ff" d="M44.95,-108.85C41.32,-91.98 33.06,-53.57 27.99,-29.98"/>
<polygon fill="#63b8ff" stroke="#63b8ff" points="31.45,-29.43 25.93,-20.38 24.61,-30.9 31.45,-29.43"/>
</a>
</g>
</g>
<!-- Node3 -->
<g id="Node000003" class="node">
<title>Node3</title>
<g id="a_Node000003"><a xlink:href="log_8h.html" target="_top" xlink:title="Logger manipulation routines and error definitions.">
<polygon fill="white" stroke="#666666" points="89.25,-73 52.25,-73 52.25,-54.5 89.25,-54.5 89.25,-73"/>
<text text-anchor="middle" x="70.75" y="-59.5" font-family="Helvetica,sans-Serif" font-size="10.00">log.h</text>
</a>
</g>
</g>
<!-- Node1&#45;&gt;Node3 -->
<g id="edge2_Node000001_Node000003" class="edge">
<title>Node1&#45;&gt;Node3</title>
<g id="a_edge2_Node000001_Node000003"><a xlink:title=" ">
<path fill="none" stroke="#63b8ff" d="M50.71,-108.58C53.82,-101.78 58.27,-92.06 62.18,-83.5"/>
<polygon fill="#63b8ff" stroke="#63b8ff" points="65.26,-85.18 66.23,-74.63 58.89,-82.27 65.26,-85.18"/>
</a>
</g>
</g>
<!-- Node3&#45;&gt;Node2 -->
<g id="edge3_Node000003_Node000002" class="edge">
<title>Node3&#45;&gt;Node2</title>
<g id="a_edge3_Node000003_Node000002"><a xlink:title=" ">
<path fill="none" stroke="#63b8ff" d="M62.99,-54.08C56.49,-46.82 47.01,-36.23 39,-27.28"/>
<polygon fill="#63b8ff" stroke="#63b8ff" points="41.65,-25 32.38,-19.89 36.44,-29.67 41.65,-25"/>
</a>
</g>
</g>
<!-- Node4 -->
<g id="Node000004" class="node">
<title>Node4</title>
<g id="a_Node000004"><a xlink:title=" ">
<polygon fill="#e0e0e0" stroke="#999999" points="116,-18.5 65.5,-18.5 65.5,0 116,0 116,-18.5"/>
<text text-anchor="middle" x="90.75" y="-5" font-family="Helvetica,sans-Serif" font-size="10.00">config.h</text>
</a>
</g>
</g>
<!-- Node3&#45;&gt;Node4 -->
<g id="edge4_Node000003_Node000004" class="edge">
<title>Node3&#45;&gt;Node4</title>
<g id="a_edge4_Node000003_Node000004"><a xlink:title=" ">
<path fill="none" stroke="#63b8ff" d="M74.05,-54.08C76.62,-47.35 80.26,-37.77 83.5,-29.29"/>
<polygon fill="#63b8ff" stroke="#63b8ff" points="86.68,-30.76 86.97,-20.17 80.14,-28.27 86.68,-30.76"/>
</a>
</g>
</g>
</g>
</svg>
