<?xml version="1.0" encoding="UTF-8" standalone="no"?>
<!DOCTYPE svg PUBLIC "-//W3C//DTD SVG 1.1//EN"
 "http://www.w3.org/Graphics/SVG/1.1/DTD/svg11.dtd">
<!-- Generated by graphviz version 12.1.0 (20240811.2233)
 -->
<!-- Title: src/tree_edit.h Pages: 1 -->
<!--zoomable 255 -->

<svg id="main" version="1.1" xmlns="http://www.w3.org/2000/svg" xmlns:xlink="http://www.w3.org/1999/xlink" xml:space="preserve" onload="init(evt)">

<style type="text/css"><![CDATA[
.node, .edge {opacity: 0.7;}
.node.selected, .edge.selected {opacity: 1;}
.edge:hover path { stroke: red; }
.edge:hover polygon { stroke: red; fill: red; }
]]></style>

<defs>
  <circle id="rim" cx="0" cy="0" r="7"/>
  <circle id="rim2" cx="0" cy="0" r="3.5"/>
  <g id="zoomPlus">
    <use xlink:href="#rim" fill="#404040"><set attributeName="fill" to="#808080" begin="zoomplus.mouseover" end="zoomplus.mouseout"/></use>
    <path d="M-4,0h8M0,-4v8" fill="none" stroke="white" stroke-width="1.5" pointer-events="none"/>
  </g>
  <g id="zoomMin">
    <use xlink:href="#rim" fill="#404040"><set attributeName="fill" to="#808080" begin="zoomminus.mouseover" end="zoomminus.mouseout"/></use>
    <path d="M-4,0h8" fill="none" stroke="white" stroke-width="1.5" pointer-events="none"/>
  </g>
  <g id="arrowUp" transform="translate(30 24)">
    <use xlink:href="#rim"/>
    <path pointer-events="none" fill="none" stroke="white" stroke-width="1.5" d="M0,-3.0v7 M-2.5,-0.5L0,-3.0L2.5,-0.5"/>
  </g>
  <g id="arrowRight" transform="rotate(90) translate(36 -43)">
    <use xlink:href="#rim"/>
    <path pointer-events="none" fill="none" stroke="white" stroke-width="1.5" d="M0,-3.0v7 M-2.5,-0.5L0,-3.0L2.5,-0.5"/>
  </g>
  <g id="arrowDown" transform="rotate(180) translate(-30 -48)">
    <use xlink:href="#rim"/>
    <path pointer-events="none" fill="none" stroke="white" stroke-width="1.5" d="M0,-3.0v7 M-2.5,-0.5L0,-3.0L2.5,-0.5"/>
  </g>
  <g id="arrowLeft" transform="rotate(270) translate(-36 17)">
    <use xlink:href="#rim"/>
    <path pointer-events="none" fill="none" stroke="white" stroke-width="1.5" d="M0,-3.0v7 M-2.5,-0.5L0,-3.0L2.5,-0.5"/>
  </g>
  <g id="resetDef">
    <use xlink:href="#rim2" fill="#404040"><set attributeName="fill" to="#808080" begin="reset.mouseover" end="reset.mouseout"/></use>
  </g>
</defs>
<script type="application/ecmascript">
var viewWidth = 3345;
var viewHeight = 255;
var sectionId = 'dynsection-1';
</script>
<script type="application/ecmascript" xlink:href="svg.min.js"/>
<svg id="graph" class="graph">
<g id="viewport">
<title>src/tree_edit.h</title>
<!-- Node1 -->
<g id="Node000001" class="node">
<title>Node1</title>
<g id="a_Node000001"><a xlink:title="libyang generic macros and functions to modify YANG schema or data trees. Intended for internal use a...">
<polygon fill="#999999" stroke="#666666" points="1699.25,-247 1621.75,-247 1621.75,-228.5 1699.25,-228.5 1699.25,-247"/>
<text text-anchor="middle" x="1660.5" y="-233.5" font-family="Helvetica,sans-Serif" font-size="10.00">src/tree_edit.h</text>
</a>
</g>
</g>
<!-- Node2 -->
<g id="Node000002" class="node">
<title>Node2</title>
<g id="a_Node000002"><a xlink:href="plugins__exts_8h.html" target="_top" xlink:title="libyang support for YANG extensions implementation.">
<polygon fill="white" stroke="#666666" points="1670.25,-192.5 1574.75,-192.5 1574.75,-174 1670.25,-174 1670.25,-192.5"/>
<text text-anchor="middle" x="1622.5" y="-179" font-family="Helvetica,sans-Serif" font-size="10.00">src/plugins_exts.h</text>
</a>
</g>
</g>
<!-- Node1&#45;&gt;Node2 -->
<g id="edge1_Node000001_Node000002" class="edge">
<title>Node1&#45;&gt;Node2</title>
<g id="a_edge1_Node000001_Node000002"><a xlink:title=" ">
<path fill="none" stroke="#63b8ff" d="M1647.61,-218.95C1641.21,-210.1 1633.77,-199.82 1628.66,-192.76"/>
<polygon fill="#63b8ff" stroke="#63b8ff" points="1644.64,-220.81 1653.34,-226.85 1650.31,-216.7 1644.64,-220.81"/>
</a>
</g>
</g>
<!-- Node28 -->
<g id="Node000028" class="node">
<title>Node28</title>
<g id="a_Node000028"><a xlink:href="plugins__types_8h.html" target="_top" xlink:title="API for (user) types plugins.">
<polygon fill="white" stroke="#666666" points="1761.88,-83.5 1661.12,-83.5 1661.12,-65 1761.88,-65 1761.88,-83.5"/>
<text text-anchor="middle" x="1711.5" y="-70" font-family="Helvetica,sans-Serif" font-size="10.00">src/plugins_types.h</text>
</a>
</g>
</g>
<!-- Node1&#45;&gt;Node28 -->
<g id="edge27_Node000001_Node000028" class="edge">
<title>Node1&#45;&gt;Node28</title>
<g id="a_edge27_Node000001_Node000028"><a xlink:title=" ">
<path fill="none" stroke="#63b8ff" d="M1669.39,-217.65C1672.8,-209.93 1676.57,-200.89 1679.5,-192.5 1693.41,-152.66 1705.12,-103.51 1709.57,-83.91"/>
<polygon fill="#63b8ff" stroke="#63b8ff" points="1666.23,-216.15 1665.28,-226.7 1672.6,-219.04 1666.23,-216.15"/>
</a>
</g>
</g>
<!-- Node3 -->
<g id="Node000003" class="node">
<title>Node3</title>
<g id="a_Node000003"><a xlink:href="metadata_8h.html" target="_top" xlink:title="ietf&#45;yang&#45;metadata API">
<polygon fill="white" stroke="#666666" points="1680,-138 1541,-138 1541,-119.5 1680,-119.5 1680,-138"/>
<text text-anchor="middle" x="1610.5" y="-124.5" font-family="Helvetica,sans-Serif" font-size="10.00">src/plugins_exts/metadata.h</text>
</a>
</g>
</g>
<!-- Node2&#45;&gt;Node3 -->
<g id="edge2_Node000002_Node000003" class="edge">
<title>Node2&#45;&gt;Node3</title>
<g id="a_edge2_Node000002_Node000003"><a xlink:title=" ">
<path fill="none" stroke="#63b8ff" d="M1617.97,-162.43C1616.06,-154.07 1613.94,-144.79 1612.44,-138.26"/>
<polygon fill="#63b8ff" stroke="#63b8ff" points="1614.54,-163.14 1620.18,-172.11 1621.36,-161.58 1614.54,-163.14"/>
</a>
</g>
</g>
<!-- Node4 -->
<g id="Node000004" class="node">
<title>Node4</title>
<g id="a_Node000004"><a xlink:href="libyang_8h.html" target="_top" xlink:title="The main libyang public header.">
<polygon fill="white" stroke="#666666" points="1642.88,-83.5 1572.12,-83.5 1572.12,-65 1642.88,-65 1642.88,-83.5"/>
<text text-anchor="middle" x="1607.5" y="-70" font-family="Helvetica,sans-Serif" font-size="10.00">src/libyang.h</text>
</a>
</g>
</g>
<!-- Node3&#45;&gt;Node4 -->
<g id="edge3_Node000003_Node000004" class="edge">
<title>Node3&#45;&gt;Node4</title>
<g id="a_edge3_Node000003_Node000004"><a xlink:title=" ">
<path fill="none" stroke="#63b8ff" d="M1609.35,-107.64C1608.88,-99.36 1608.35,-90.21 1607.99,-83.76"/>
<polygon fill="#63b8ff" stroke="#63b8ff" points="1605.85,-107.79 1609.92,-117.57 1612.84,-107.39 1605.85,-107.79"/>
</a>
</g>
</g>
<!-- Node5 -->
<g id="Node000005" class="node">
<title>Node5</title>
<g id="a_Node000005"><a xlink:href="binary_8c.html" target="_top" xlink:title="Built&#45;in binary type plugin.">
<polygon fill="white" stroke="#666666" points="2596.5,-23.75 2466.5,-23.75 2466.5,-5.25 2596.5,-5.25 2596.5,-23.75"/>
<text text-anchor="middle" x="2531.5" y="-10.25" font-family="Helvetica,sans-Serif" font-size="10.00">src/plugins_types/binary.c</text>
</a>
</g>
</g>
<!-- Node4&#45;&gt;Node5 -->
<g id="edge4_Node000004_Node000005" class="edge">
<title>Node4&#45;&gt;Node5</title>
<g id="a_edge4_Node000004_Node000005"><a xlink:title=" ">
<path fill="none" stroke="#63b8ff" d="M1654.7,-64.95C2010.34,-25.54 2105.37,-68.81 2457.5,-29 2467.88,-27.83 2479,-26.07 2489.38,-24.2"/>
<polygon fill="#63b8ff" stroke="#63b8ff" points="1654.35,-61.47 1644.8,-66.06 1655.13,-68.42 1654.35,-61.47"/>
</a>
</g>
</g>
<!-- Node6 -->
<g id="Node000006" class="node">
<title>Node6</title>
<g id="a_Node000006"><a xlink:href="bits_8c.html" target="_top" xlink:title="Built&#45;in bits type plugin.">
<polygon fill="white" stroke="#666666" points="2734.25,-23.75 2614.75,-23.75 2614.75,-5.25 2734.25,-5.25 2734.25,-23.75"/>
<text text-anchor="middle" x="2674.5" y="-10.25" font-family="Helvetica,sans-Serif" font-size="10.00">src/plugins_types/bits.c</text>
</a>
</g>
</g>
<!-- Node4&#45;&gt;Node6 -->
<g id="edge5_Node000004_Node000006" class="edge">
<title>Node4&#45;&gt;Node6</title>
<g id="a_edge5_Node000004_Node000006"><a xlink:title=" ">
<path fill="none" stroke="#63b8ff" d="M1654.57,-64.98C2075.79,-19.7 2188.17,-77.41 2605.5,-29 2615.32,-27.86 2625.84,-26.09 2635.62,-24.2"/>
<polygon fill="#63b8ff" stroke="#63b8ff" points="1654.36,-61.48 1644.8,-66.05 1655.12,-68.44 1654.36,-61.48"/>
</a>
</g>
</g>
<!-- Node7 -->
<g id="Node000007" class="node">
<title>Node7</title>
<g id="a_Node000007"><a xlink:href="boolean_8c.html" target="_top" xlink:title="Built&#45;in boolean type plugin.">
<polygon fill="white" stroke="#666666" points="2890.25,-23.75 2752.75,-23.75 2752.75,-5.25 2890.25,-5.25 2890.25,-23.75"/>
<text text-anchor="middle" x="2821.5" y="-10.25" font-family="Helvetica,sans-Serif" font-size="10.00">src/plugins_types/boolean.c</text>
</a>
</g>
</g>
<!-- Node4&#45;&gt;Node7 -->
<g id="edge6_Node000004_Node000007" class="edge">
<title>Node4&#45;&gt;Node7</title>
<g id="a_edge6_Node000004_Node000007"><a xlink:title=" ">
<path fill="none" stroke="#63b8ff" d="M1654.39,-65.01C2136.8,-14.1 2264.53,-78.11 2743.5,-29 2754.57,-27.86 2766.45,-26.1 2777.51,-24.21"/>
<polygon fill="#63b8ff" stroke="#63b8ff" points="1654.37,-61.49 1644.8,-66.03 1655.11,-68.45 1654.37,-61.49"/>
</a>
</g>
</g>
<!-- Node8 -->
<g id="Node000008" class="node">
<title>Node8</title>
<g id="a_Node000008"><a xlink:href="date__and__time_8c.html" target="_top" xlink:title="ietf&#45;yang&#45;types date&#45;and&#45;time type plugin.">
<polygon fill="white" stroke="#666666" points="3022.62,-29 2908.38,-29 2908.38,0 3022.62,0 3022.62,-29"/>
<text text-anchor="start" x="2916.38" y="-15.5" font-family="Helvetica,sans-Serif" font-size="10.00">src/plugins_types/date</text>
<text text-anchor="middle" x="2965.5" y="-5" font-family="Helvetica,sans-Serif" font-size="10.00">_and_time.c</text>
</a>
</g>
</g>
<!-- Node4&#45;&gt;Node8 -->
<g id="edge7_Node000004_Node000008" class="edge">
<title>Node4&#45;&gt;Node8</title>
<g id="a_edge7_Node000004_Node000008"><a xlink:title=" ">
<path fill="none" stroke="#63b8ff" d="M1654.73,-64.98C2205.89,-8.01 2352.49,-92.36 2899.5,-29 2902.29,-28.68 2905.13,-28.3 2908,-27.87"/>
<polygon fill="#63b8ff" stroke="#63b8ff" points="1654.38,-61.5 1644.8,-66.02 1655.11,-68.46 1654.38,-61.5"/>
</a>
</g>
</g>
<!-- Node9 -->
<g id="Node000009" class="node">
<title>Node9</title>
<g id="a_Node000009"><a xlink:href="decimal64_8c.html" target="_top" xlink:title="Built&#45;in decimal64 type plugin.">
<polygon fill="white" stroke="#666666" points="3188.5,-23.75 3040.5,-23.75 3040.5,-5.25 3188.5,-5.25 3188.5,-23.75"/>
<text text-anchor="middle" x="3114.5" y="-10.25" font-family="Helvetica,sans-Serif" font-size="10.00">src/plugins_types/decimal64.c</text>
</a>
</g>
</g>
<!-- Node4&#45;&gt;Node9 -->
<g id="edge8_Node000004_Node000009" class="edge">
<title>Node4&#45;&gt;Node9</title>
<g id="a_edge8_Node000004_Node000009"><a xlink:title=" ">
<path fill="none" stroke="#63b8ff" d="M1654.57,-65C2264.26,-2.56 2424.82,-85.99 3031.5,-29 3043.42,-27.88 3056.22,-26.09 3068.11,-24.18"/>
<polygon fill="#63b8ff" stroke="#63b8ff" points="1654.38,-61.51 1644.79,-66.02 1655.1,-68.47 1654.38,-61.51"/>
</a>
</g>
</g>
<!-- Node10 -->
<g id="Node000010" class="node">
<title>Node10</title>
<g id="a_Node000010"><a xlink:href="empty_8c.html" target="_top" xlink:title="Built&#45;in empty type plugin.">
<polygon fill="white" stroke="#666666" points="3336.5,-23.75 3206.5,-23.75 3206.5,-5.25 3336.5,-5.25 3336.5,-23.75"/>
<text text-anchor="middle" x="3271.5" y="-10.25" font-family="Helvetica,sans-Serif" font-size="10.00">src/plugins_types/empty.c</text>
</a>
</g>
</g>
<!-- Node4&#45;&gt;Node10 -->
<g id="edge9_Node000004_Node000010" class="edge">
<title>Node4&#45;&gt;Node10</title>
<g id="a_edge9_Node000004_Node000010"><a xlink:title=" ">
<path fill="none" stroke="#63b8ff" d="M1654.65,-65C2337.74,4.01 2517.96,-98.47 3197.5,-29 3208.15,-27.91 3219.57,-26.13 3230.18,-24.22"/>
<polygon fill="#63b8ff" stroke="#63b8ff" points="1654.39,-61.51 1644.79,-66.01 1655.1,-68.48 1654.39,-61.51"/>
</a>
</g>
</g>
<!-- Node11 -->
<g id="Node000011" class="node">
<title>Node11</title>
<g id="a_Node000011"><a xlink:href="enumeration_8c.html" target="_top" xlink:title="Built&#45;in enumeration type plugin.">
<polygon fill="white" stroke="#666666" points="157,-23.75 0,-23.75 0,-5.25 157,-5.25 157,-23.75"/>
<text text-anchor="middle" x="78.5" y="-10.25" font-family="Helvetica,sans-Serif" font-size="10.00">src/plugins_types/enumeration.c</text>
</a>
</g>
</g>
<!-- Node4&#45;&gt;Node11 -->
<g id="edge10_Node000004_Node000011" class="edge">
<title>Node4&#45;&gt;Node11</title>
<g id="a_edge10_Node000004_Node000011"><a xlink:title=" ">
<path fill="none" stroke="#63b8ff" d="M1560.43,-72.59C1344.3,-69.42 445.6,-54.93 165.5,-29 153.17,-27.86 139.94,-26.09 127.6,-24.2"/>
<polygon fill="#63b8ff" stroke="#63b8ff" points="1560.1,-76.08 1570.14,-72.73 1560.2,-69.08 1560.1,-76.08"/>
</a>
</g>
</g>
<!-- Node12 -->
<g id="Node000012" class="node">
<title>Node12</title>
<g id="a_Node000012"><a xlink:href="hex__string_8c.html" target="_top" xlink:title="Built&#45;in hex&#45;string and associated types plugin.">
<polygon fill="white" stroke="#666666" points="286.12,-29 174.88,-29 174.88,0 286.12,0 286.12,-29"/>
<text text-anchor="start" x="182.88" y="-15.5" font-family="Helvetica,sans-Serif" font-size="10.00">src/plugins_types/hex</text>
<text text-anchor="middle" x="230.5" y="-5" font-family="Helvetica,sans-Serif" font-size="10.00">_string.c</text>
</a>
</g>
</g>
<!-- Node4&#45;&gt;Node12 -->
<g id="edge11_Node000004_Node000012" class="edge">
<title>Node4&#45;&gt;Node12</title>
<g id="a_edge11_Node000004_Node000012"><a xlink:title=" ">
<path fill="none" stroke="#63b8ff" d="M1560.45,-72.74C1356.51,-70.38 547.88,-59.24 295.5,-29 292.52,-28.64 289.48,-28.22 286.42,-27.75"/>
<polygon fill="#63b8ff" stroke="#63b8ff" points="1560.36,-76.24 1570.4,-72.86 1560.44,-69.24 1560.36,-76.24"/>
</a>
</g>
</g>
<!-- Node13 -->
<g id="Node000013" class="node">
<title>Node13</title>
<g id="a_Node000013"><a xlink:href="identityref_8c.html" target="_top" xlink:title="Built&#45;in identityref type plugin.">
<polygon fill="white" stroke="#666666" points="450.38,-23.75 304.62,-23.75 304.62,-5.25 450.38,-5.25 450.38,-23.75"/>
<text text-anchor="middle" x="377.5" y="-10.25" font-family="Helvetica,sans-Serif" font-size="10.00">src/plugins_types/identityref.c</text>
</a>
</g>
</g>
<!-- Node4&#45;&gt;Node13 -->
<g id="edge12_Node000004_Node000013" class="edge">
<title>Node4&#45;&gt;Node13</title>
<g id="a_edge12_Node000004_Node000013"><a xlink:title=" ">
<path fill="none" stroke="#63b8ff" d="M1560.62,-73.53C1404.09,-74.03 885.41,-72.1 459.5,-29 448.02,-27.84 435.7,-26.08 424.2,-24.22"/>
<polygon fill="#63b8ff" stroke="#63b8ff" points="1560.18,-77.04 1570.16,-73.5 1560.15,-70.04 1560.18,-77.04"/>
</a>
</g>
</g>
<!-- Node14 -->
<g id="Node000014" class="node">
<title>Node14</title>
<g id="a_Node000014"><a xlink:href="instanceid_8c.html" target="_top" xlink:title="Built&#45;in instance&#45;identifier type plugin.">
<polygon fill="white" stroke="#666666" points="616.5,-23.75 468.5,-23.75 468.5,-5.25 616.5,-5.25 616.5,-23.75"/>
<text text-anchor="middle" x="542.5" y="-10.25" font-family="Helvetica,sans-Serif" font-size="10.00">src/plugins_types/instanceid.c</text>
</a>
</g>
</g>
<!-- Node4&#45;&gt;Node14 -->
<g id="edge13_Node000004_Node000014" class="edge">
<title>Node4&#45;&gt;Node14</title>
<g id="a_edge13_Node000004_Node000014"><a xlink:title=" ">
<path fill="none" stroke="#63b8ff" d="M1560.47,-73.07C1418.8,-72.1 983.79,-66.08 625.5,-29 614.03,-27.81 601.73,-26.07 590.21,-24.23"/>
<polygon fill="#63b8ff" stroke="#63b8ff" points="1560.18,-76.56 1570.21,-73.13 1560.23,-69.56 1560.18,-76.56"/>
</a>
</g>
</g>
<!-- Node15 -->
<g id="Node000015" class="node">
<title>Node15</title>
<g id="a_Node000015"><a xlink:href="instanceid__keys_8c.html" target="_top" xlink:title="ietf&#45;netconf edit&#45;config key metadata instance&#45;identifier keys predicate type plugin.">
<polygon fill="white" stroke="#666666" points="774.38,-29 634.62,-29 634.62,0 774.38,0 774.38,-29"/>
<text text-anchor="start" x="642.62" y="-15.5" font-family="Helvetica,sans-Serif" font-size="10.00">src/plugins_types/instanceid</text>
<text text-anchor="middle" x="704.5" y="-5" font-family="Helvetica,sans-Serif" font-size="10.00">_keys.c</text>
</a>
</g>
</g>
<!-- Node4&#45;&gt;Node15 -->
<g id="edge14_Node000004_Node000015" class="edge">
<title>Node4&#45;&gt;Node15</title>
<g id="a_edge14_Node000004_Node000015"><a xlink:title=" ">
<path fill="none" stroke="#63b8ff" d="M1560.51,-72.67C1434.25,-70.68 1077.29,-62.3 782.5,-29 779.91,-28.71 777.27,-28.38 774.6,-28.03"/>
<polygon fill="#63b8ff" stroke="#63b8ff" points="1560.43,-76.16 1570.48,-72.82 1560.54,-69.17 1560.43,-76.16"/>
</a>
</g>
</g>
<!-- Node16 -->
<g id="Node000016" class="node">
<title>Node16</title>
<g id="a_Node000016"><a xlink:href="integer_8c.html" target="_top" xlink:title="Built&#45;in integer types plugin.">
<polygon fill="white" stroke="#666666" points="925,-23.75 792,-23.75 792,-5.25 925,-5.25 925,-23.75"/>
<text text-anchor="middle" x="858.5" y="-10.25" font-family="Helvetica,sans-Serif" font-size="10.00">src/plugins_types/integer.c</text>
</a>
</g>
</g>
<!-- Node4&#45;&gt;Node16 -->
<g id="edge15_Node000004_Node000016" class="edge">
<title>Node4&#45;&gt;Node16</title>
<g id="a_edge15_Node000004_Node000016"><a xlink:title=" ">
<path fill="none" stroke="#63b8ff" d="M1560.61,-71.99C1450.68,-68.63 1167.94,-57.7 933.5,-29 923.26,-27.75 912.29,-26 902,-24.19"/>
<polygon fill="#63b8ff" stroke="#63b8ff" points="1560.31,-75.48 1570.41,-72.28 1560.52,-68.48 1560.31,-75.48"/>
</a>
</g>
</g>
<!-- Node17 -->
<g id="Node000017" class="node">
<title>Node17</title>
<g id="a_Node000017"><a xlink:href="ipv4__address_8c.html" target="_top" xlink:title="ietf&#45;inet&#45;types ipv4&#45;address type plugin.">
<polygon fill="white" stroke="#666666" points="1056.25,-29 942.75,-29 942.75,0 1056.25,0 1056.25,-29"/>
<text text-anchor="start" x="950.75" y="-15.5" font-family="Helvetica,sans-Serif" font-size="10.00">src/plugins_types/ipv4</text>
<text text-anchor="middle" x="999.5" y="-5" font-family="Helvetica,sans-Serif" font-size="10.00">_address.c</text>
</a>
</g>
</g>
<!-- Node4&#45;&gt;Node17 -->
<g id="edge16_Node000004_Node000017" class="edge">
<title>Node4&#45;&gt;Node17</title>
<g id="a_edge16_Node000004_Node000017"><a xlink:title=" ">
<path fill="none" stroke="#63b8ff" d="M1560.42,-71.31C1466.1,-67.02 1247.45,-54.94 1065.5,-29 1062.61,-28.59 1059.65,-28.13 1056.66,-27.63"/>
<polygon fill="#63b8ff" stroke="#63b8ff" points="1560.16,-74.81 1570.31,-71.76 1560.48,-67.81 1560.16,-74.81"/>
</a>
</g>
</g>
<!-- Node18 -->
<g id="Node000018" class="node">
<title>Node18</title>
<g id="a_Node000018"><a xlink:href="ipv4__address__no__zone_8c.html" target="_top" xlink:title="ietf&#45;inet&#45;types ipv4&#45;address&#45;no&#45;zone type plugin.">
<polygon fill="white" stroke="#666666" points="1188.25,-29 1074.75,-29 1074.75,0 1188.25,0 1188.25,-29"/>
<text text-anchor="start" x="1082.75" y="-15.5" font-family="Helvetica,sans-Serif" font-size="10.00">src/plugins_types/ipv4</text>
<text text-anchor="middle" x="1131.5" y="-5" font-family="Helvetica,sans-Serif" font-size="10.00">_address_no_zone.c</text>
</a>
</g>
</g>
<!-- Node4&#45;&gt;Node18 -->
<g id="edge17_Node000004_Node000018" class="edge">
<title>Node4&#45;&gt;Node18</title>
<g id="a_edge17_Node000004_Node000018"><a xlink:title=" ">
<path fill="none" stroke="#63b8ff" d="M1560.58,-69.63C1484.21,-63.42 1328.37,-49.4 1197.5,-29 1194.61,-28.55 1191.66,-28.06 1188.68,-27.54"/>
<polygon fill="#63b8ff" stroke="#63b8ff" points="1559.95,-73.09 1570.2,-70.41 1560.51,-66.12 1559.95,-73.09"/>
</a>
</g>
</g>
<!-- Node19 -->
<g id="Node000019" class="node">
<title>Node19</title>
<g id="a_Node000019"><a xlink:href="ipv4__prefix_8c.html" target="_top" xlink:title="ietf&#45;inet&#45;types ipv4&#45;prefix type plugin.">
<polygon fill="white" stroke="#666666" points="1320.25,-29 1206.75,-29 1206.75,0 1320.25,0 1320.25,-29"/>
<text text-anchor="start" x="1214.75" y="-15.5" font-family="Helvetica,sans-Serif" font-size="10.00">src/plugins_types/ipv4</text>
<text text-anchor="middle" x="1263.5" y="-5" font-family="Helvetica,sans-Serif" font-size="10.00">_prefix.c</text>
</a>
</g>
</g>
<!-- Node4&#45;&gt;Node19 -->
<g id="edge18_Node000004_Node000019" class="edge">
<title>Node4&#45;&gt;Node19</title>
<g id="a_edge18_Node000004_Node000019"><a xlink:title=" ">
<path fill="none" stroke="#63b8ff" d="M1560.68,-66.44C1505.34,-58.24 1410.53,-43.73 1329.5,-29 1326.62,-28.48 1323.68,-27.93 1320.71,-27.36"/>
<polygon fill="#63b8ff" stroke="#63b8ff" points="1559.97,-69.87 1570.37,-67.87 1560.99,-62.95 1559.97,-69.87"/>
</a>
</g>
</g>
<!-- Node20 -->
<g id="Node000020" class="node">
<title>Node20</title>
<g id="a_Node000020"><a xlink:href="ipv6__address_8c.html" target="_top" xlink:title="ietf&#45;inet&#45;types ipv6&#45;address type plugin.">
<polygon fill="white" stroke="#666666" points="1452.25,-29 1338.75,-29 1338.75,0 1452.25,0 1452.25,-29"/>
<text text-anchor="start" x="1346.75" y="-15.5" font-family="Helvetica,sans-Serif" font-size="10.00">src/plugins_types/ipv6</text>
<text text-anchor="middle" x="1395.5" y="-5" font-family="Helvetica,sans-Serif" font-size="10.00">_address.c</text>
</a>
</g>
</g>
<!-- Node4&#45;&gt;Node20 -->
<g id="edge19_Node000004_Node000020" class="edge">
<title>Node4&#45;&gt;Node20</title>
<g id="a_edge19_Node000004_Node000020"><a xlink:title=" ">
<path fill="none" stroke="#63b8ff" d="M1564.78,-61.61C1530.73,-52.34 1482.95,-39.32 1446.83,-29.48"/>
<polygon fill="#63b8ff" stroke="#63b8ff" points="1563.73,-64.96 1574.3,-64.21 1565.57,-58.2 1563.73,-64.96"/>
</a>
</g>
</g>
<!-- Node21 -->
<g id="Node000021" class="node">
<title>Node21</title>
<g id="a_Node000021"><a xlink:href="ipv6__address__no__zone_8c.html" target="_top" xlink:title="ietf&#45;inet&#45;types ipv6&#45;address&#45;no&#45;zone type plugin.">
<polygon fill="white" stroke="#666666" points="1584.25,-29 1470.75,-29 1470.75,0 1584.25,0 1584.25,-29"/>
<text text-anchor="start" x="1478.75" y="-15.5" font-family="Helvetica,sans-Serif" font-size="10.00">src/plugins_types/ipv6</text>
<text text-anchor="middle" x="1527.5" y="-5" font-family="Helvetica,sans-Serif" font-size="10.00">_address_no_zone.c</text>
</a>
</g>
</g>
<!-- Node4&#45;&gt;Node21 -->
<g id="edge20_Node000004_Node000021" class="edge">
<title>Node4&#45;&gt;Node21</title>
<g id="a_edge20_Node000004_Node000021"><a xlink:title=" ">
<path fill="none" stroke="#63b8ff" d="M1586.62,-58.18C1574.31,-49.29 1558.83,-38.12 1546.8,-29.43"/>
<polygon fill="#63b8ff" stroke="#63b8ff" points="1584.31,-60.83 1594.47,-63.84 1588.41,-55.15 1584.31,-60.83"/>
</a>
</g>
</g>
<!-- Node22 -->
<g id="Node000022" class="node">
<title>Node22</title>
<g id="a_Node000022"><a xlink:href="ipv6__prefix_8c.html" target="_top" xlink:title="ietf&#45;inet&#45;types ipv6&#45;prefix type plugin.">
<polygon fill="white" stroke="#666666" points="1716.25,-29 1602.75,-29 1602.75,0 1716.25,0 1716.25,-29"/>
<text text-anchor="start" x="1610.75" y="-15.5" font-family="Helvetica,sans-Serif" font-size="10.00">src/plugins_types/ipv6</text>
<text text-anchor="middle" x="1659.5" y="-5" font-family="Helvetica,sans-Serif" font-size="10.00">_prefix.c</text>
</a>
</g>
</g>
<!-- Node4&#45;&gt;Node22 -->
<g id="edge21_Node000004_Node000022" class="edge">
<title>Node4&#45;&gt;Node22</title>
<g id="a_edge21_Node000004_Node000022"><a xlink:title=" ">
<path fill="none" stroke="#63b8ff" d="M1622.76,-56.3C1630.46,-47.75 1639.68,-37.52 1646.95,-29.43"/>
<polygon fill="#63b8ff" stroke="#63b8ff" points="1620.28,-53.83 1616.19,-63.6 1625.48,-58.51 1620.28,-53.83"/>
</a>
</g>
</g>
<!-- Node23 -->
<g id="Node000023" class="node">
<title>Node23</title>
<g id="a_Node000023"><a xlink:href="leafref_8c.html" target="_top" xlink:title="Built&#45;in leafref type plugin.">
<polygon fill="white" stroke="#666666" points="1864.5,-23.75 1734.5,-23.75 1734.5,-5.25 1864.5,-5.25 1864.5,-23.75"/>
<text text-anchor="middle" x="1799.5" y="-10.25" font-family="Helvetica,sans-Serif" font-size="10.00">src/plugins_types/leafref.c</text>
</a>
</g>
</g>
<!-- Node4&#45;&gt;Node23 -->
<g id="edge22_Node000004_Node000023" class="edge">
<title>Node4&#45;&gt;Node23</title>
<g id="a_edge22_Node000004_Node000023"><a xlink:title=" ">
<path fill="none" stroke="#63b8ff" d="M1647.06,-61.35C1683.81,-50.3 1737.67,-34.1 1770.56,-24.2"/>
<polygon fill="#63b8ff" stroke="#63b8ff" points="1646.26,-57.94 1637.69,-64.17 1648.28,-64.64 1646.26,-57.94"/>
</a>
</g>
</g>
<!-- Node24 -->
<g id="Node000024" class="node">
<title>Node24</title>
<g id="a_Node000024"><a xlink:href="node__instanceid_8c.html" target="_top" xlink:title="ietf&#45;netconf&#45;acm node&#45;instance&#45;identifier type plugin.">
<polygon fill="white" stroke="#666666" points="1998.75,-29 1882.25,-29 1882.25,0 1998.75,0 1998.75,-29"/>
<text text-anchor="start" x="1890.25" y="-15.5" font-family="Helvetica,sans-Serif" font-size="10.00">src/plugins_types/node</text>
<text text-anchor="middle" x="1940.5" y="-5" font-family="Helvetica,sans-Serif" font-size="10.00">_instanceid.c</text>
</a>
</g>
</g>
<!-- Node4&#45;&gt;Node24 -->
<g id="edge23_Node000004_Node000024" class="edge">
<title>Node4&#45;&gt;Node24</title>
<g id="a_edge23_Node000004_Node000024"><a xlink:title=" ">
<path fill="none" stroke="#63b8ff" d="M1654.66,-64.66C1752.46,-47.92 1779.13,-46.19 1873.5,-29 1876.3,-28.49 1879.17,-27.96 1882.06,-27.41"/>
<polygon fill="#63b8ff" stroke="#63b8ff" points="1654.1,-61.21 1644.84,-66.35 1655.29,-68.11 1654.1,-61.21"/>
</a>
</g>
</g>
<!-- Node25 -->
<g id="Node000025" class="node">
<title>Node25</title>
<g id="a_Node000025"><a xlink:href="string_8c.html" target="_top" xlink:title="Built&#45;in string type plugin.">
<polygon fill="white" stroke="#666666" points="2144.38,-23.75 2016.62,-23.75 2016.62,-5.25 2144.38,-5.25 2144.38,-23.75"/>
<text text-anchor="middle" x="2080.5" y="-10.25" font-family="Helvetica,sans-Serif" font-size="10.00">src/plugins_types/string.c</text>
</a>
</g>
</g>
<!-- Node4&#45;&gt;Node25 -->
<g id="edge24_Node000004_Node000025" class="edge">
<title>Node4&#45;&gt;Node25</title>
<g id="a_edge24_Node000004_Node000025"><a xlink:title=" ">
<path fill="none" stroke="#63b8ff" d="M1654.33,-64.86C1811.41,-43.06 1854.03,-50.93 2007.5,-29 2016.94,-27.65 2027.02,-25.95 2036.59,-24.22"/>
<polygon fill="#63b8ff" stroke="#63b8ff" points="1654.23,-61.34 1644.82,-66.2 1655.21,-68.28 1654.23,-61.34"/>
</a>
</g>
</g>
<!-- Node26 -->
<g id="Node000026" class="node">
<title>Node26</title>
<g id="a_Node000026"><a xlink:href="union_8c.html" target="_top" xlink:title="Built&#45;in union type plugin.">
<polygon fill="white" stroke="#666666" points="2289,-23.75 2162,-23.75 2162,-5.25 2289,-5.25 2289,-23.75"/>
<text text-anchor="middle" x="2225.5" y="-10.25" font-family="Helvetica,sans-Serif" font-size="10.00">src/plugins_types/union.c</text>
</a>
</g>
</g>
<!-- Node4&#45;&gt;Node26 -->
<g id="edge25_Node000004_Node000026" class="edge">
<title>Node4&#45;&gt;Node26</title>
<g id="a_edge25_Node000004_Node000026"><a xlink:title=" ">
<path fill="none" stroke="#63b8ff" d="M1654.65,-64.89C1875.93,-37.51 1935.78,-57.14 2153.5,-29 2163.21,-27.74 2173.6,-26.02 2183.37,-24.23"/>
<polygon fill="#63b8ff" stroke="#63b8ff" points="1654.29,-61.41 1644.81,-66.13 1655.17,-68.36 1654.29,-61.41"/>
</a>
</g>
</g>
<!-- Node27 -->
<g id="Node000027" class="node">
<title>Node27</title>
<g id="a_Node000027"><a xlink:href="xpath1_80_8c.html" target="_top" xlink:title="ietf&#45;yang&#45;types xpath1.0 type plugin.">
<polygon fill="white" stroke="#666666" points="2448.12,-23.75 2306.88,-23.75 2306.88,-5.25 2448.12,-5.25 2448.12,-23.75"/>
<text text-anchor="middle" x="2377.5" y="-10.25" font-family="Helvetica,sans-Serif" font-size="10.00">src/plugins_types/xpath1.0.c</text>
</a>
</g>
</g>
<!-- Node4&#45;&gt;Node27 -->
<g id="edge26_Node000004_Node000027" class="edge">
<title>Node4&#45;&gt;Node27</title>
<g id="a_edge26_Node000004_Node000027"><a xlink:title=" ">
<path fill="none" stroke="#63b8ff" d="M1654.42,-64.96C1939.97,-31.76 2016.39,-60.86 2298.5,-29 2309.28,-27.78 2320.83,-26.05 2331.67,-24.24"/>
<polygon fill="#63b8ff" stroke="#63b8ff" points="1654.32,-61.44 1644.8,-66.09 1655.14,-68.39 1654.32,-61.44"/>
</a>
</g>
</g>
<!-- Node28&#45;&gt;Node5 -->
<g id="edge28_Node000028_Node000005" class="edge">
<title>Node28&#45;&gt;Node5</title>
<g id="a_edge28_Node000028_Node000005"><a xlink:title=" ">
<path fill="none" stroke="#63b8ff" d="M1773.85,-72.1C1902.22,-69.18 2205.18,-59.39 2457.5,-29 2467.61,-27.78 2478.43,-26.05 2488.59,-24.24"/>
<polygon fill="#63b8ff" stroke="#63b8ff" points="1773.78,-68.6 1763.86,-72.32 1773.93,-75.6 1773.78,-68.6"/>
</a>
</g>
</g>
<!-- Node28&#45;&gt;Node6 -->
<g id="edge29_Node000028_Node000006" class="edge">
<title>Node28&#45;&gt;Node6</title>
<g id="a_edge29_Node000028_Node000006"><a xlink:title=" ">
<path fill="none" stroke="#63b8ff" d="M1773.45,-73.24C1919.13,-72.55 2294.61,-66.91 2605.5,-29 2615.19,-27.82 2625.57,-26.06 2635.25,-24.19"/>
<polygon fill="#63b8ff" stroke="#63b8ff" points="1773.62,-69.74 1763.64,-73.28 1773.65,-76.74 1773.62,-69.74"/>
</a>
</g>
</g>
<!-- Node28&#45;&gt;Node7 -->
<g id="edge30_Node000028_Node000007" class="edge">
<title>Node28&#45;&gt;Node7</title>
<g id="a_edge30_Node000028_Node000007"><a xlink:title=" ">
<path fill="none" stroke="#63b8ff" d="M1773.2,-73.36C1933.65,-73.06 2376.97,-68.41 2743.5,-29 2754.43,-27.82 2766.15,-26.07 2777.09,-24.2"/>
<polygon fill="#63b8ff" stroke="#63b8ff" points="1773.65,-69.86 1763.66,-73.38 1773.66,-76.86 1773.65,-69.86"/>
</a>
</g>
</g>
<!-- Node28&#45;&gt;Node8 -->
<g id="edge31_Node000028_Node000008" class="edge">
<title>Node28&#45;&gt;Node8</title>
<g id="a_edge31_Node000028_Node000008"><a xlink:title=" ">
<path fill="none" stroke="#63b8ff" d="M1773.84,-72.28C1985.9,-68.78 2678.39,-55.55 2899.5,-29 2902.29,-28.67 2905.13,-28.27 2908,-27.84"/>
<polygon fill="#63b8ff" stroke="#63b8ff" points="1773.79,-68.78 1763.85,-72.45 1773.9,-75.78 1773.79,-68.78"/>
</a>
</g>
</g>
<!-- Node28&#45;&gt;Node9 -->
<g id="edge32_Node000028_Node000009" class="edge">
<title>Node28&#45;&gt;Node9</title>
<g id="a_edge32_Node000028_Node000009"><a xlink:title=" ">
<path fill="none" stroke="#63b8ff" d="M1773.42,-72.23C1999.85,-68.31 2782.66,-53.31 3031.5,-29 3043.27,-27.85 3055.9,-26.08 3067.67,-24.19"/>
<polygon fill="#63b8ff" stroke="#63b8ff" points="1773.57,-68.72 1763.63,-72.39 1773.69,-75.72 1773.57,-68.72"/>
</a>
</g>
</g>
<!-- Node28&#45;&gt;Node10 -->
<g id="edge33_Node000028_Node000010" class="edge">
<title>Node28&#45;&gt;Node10</title>
<g id="a_edge33_Node000028_Node000010"><a xlink:title=" ">
<path fill="none" stroke="#63b8ff" d="M1773.75,-72.65C2018.46,-70.08 2914.81,-58.82 3197.5,-29 3208.02,-27.89 3219.29,-26.13 3229.78,-24.24"/>
<polygon fill="#63b8ff" stroke="#63b8ff" points="1773.73,-69.15 1763.77,-72.75 1773.8,-76.15 1773.73,-69.15"/>
</a>
</g>
</g>
<!-- Node28&#45;&gt;Node11 -->
<g id="edge34_Node000028_Node000011" class="edge">
<title>Node28&#45;&gt;Node11</title>
<g id="a_edge34_Node000028_Node000011"><a xlink:title=" ">
<path fill="none" stroke="#63b8ff" d="M1649.6,-64.97C991.08,-12.77 819.82,-87.44 165.5,-29 153.02,-27.88 139.6,-26.1 127.14,-24.19"/>
<polygon fill="#63b8ff" stroke="#63b8ff" points="1649.05,-68.44 1659.3,-65.75 1649.61,-61.46 1649.05,-68.44"/>
</a>
</g>
</g>
<!-- Node28&#45;&gt;Node12 -->
<g id="edge35_Node000028_Node000012" class="edge">
<title>Node28&#45;&gt;Node12</title>
<g id="a_edge35_Node000028_Node000012"><a xlink:title=" ">
<path fill="none" stroke="#63b8ff" d="M1649.68,-64.98C1048.7,-16.87 890.7,-98.15 295.5,-29 292.52,-28.65 289.48,-28.24 286.42,-27.77"/>
<polygon fill="#63b8ff" stroke="#63b8ff" points="1649.05,-68.44 1659.3,-65.76 1649.61,-61.46 1649.05,-68.44"/>
</a>
</g>
</g>
<!-- Node28&#45;&gt;Node13 -->
<g id="edge36_Node000028_Node000013" class="edge">
<title>Node28&#45;&gt;Node13</title>
<g id="a_edge36_Node000028_Node000013"><a xlink:title=" ">
<path fill="none" stroke="#63b8ff" d="M1649.45,-64.95C1121.37,-21.67 983.31,-79.8 459.5,-29 447.87,-27.87 435.39,-26.11 423.76,-24.22"/>
<polygon fill="#63b8ff" stroke="#63b8ff" points="1649.04,-68.43 1659.29,-65.77 1649.62,-61.45 1649.04,-68.43"/>
</a>
</g>
</g>
<!-- Node28&#45;&gt;Node14 -->
<g id="edge37_Node000028_Node000014" class="edge">
<title>Node28&#45;&gt;Node14</title>
<g id="a_edge37_Node000028_Node000014"><a xlink:title=" ">
<path fill="none" stroke="#63b8ff" d="M1649.66,-64.96C1194.99,-26.64 1075.93,-73.35 625.5,-29 613.88,-27.86 601.41,-26.11 589.77,-24.25"/>
<polygon fill="#63b8ff" stroke="#63b8ff" points="1649.03,-68.42 1659.29,-65.78 1649.63,-61.44 1649.03,-68.42"/>
</a>
</g>
</g>
<!-- Node28&#45;&gt;Node15 -->
<g id="edge38_Node000028_Node000015" class="edge">
<title>Node28&#45;&gt;Node15</title>
<g id="a_edge38_Node000028_Node000015"><a xlink:title=" ">
<path fill="none" stroke="#63b8ff" d="M1649.33,-64.92C1264.5,-31.4 1163.11,-69.65 782.5,-29 779.9,-28.72 777.26,-28.41 774.6,-28.07"/>
<polygon fill="#63b8ff" stroke="#63b8ff" points="1649.02,-68.41 1659.29,-65.8 1649.64,-61.43 1649.02,-68.41"/>
</a>
</g>
</g>
<!-- Node28&#45;&gt;Node16 -->
<g id="edge39_Node000028_Node000016" class="edge">
<title>Node28&#45;&gt;Node16</title>
<g id="a_edge39_Node000028_Node000016"><a xlink:title=" ">
<path fill="none" stroke="#63b8ff" d="M1649.39,-64.91C1331.42,-35.91 1247.21,-64.95 933.5,-29 923.12,-27.81 912,-26.07 901.59,-24.23"/>
<polygon fill="#63b8ff" stroke="#63b8ff" points="1649.01,-68.39 1659.29,-65.82 1649.65,-61.42 1649.01,-68.39"/>
</a>
</g>
</g>
<!-- Node28&#45;&gt;Node17 -->
<g id="edge40_Node000028_Node000017" class="edge">
<title>Node28&#45;&gt;Node17</title>
<g id="a_edge40_Node000028_Node000017"><a xlink:title=" ">
<path fill="none" stroke="#63b8ff" d="M1649.49,-64.9C1389.89,-39.88 1320.52,-62.74 1065.5,-29 1062.6,-28.62 1059.64,-28.18 1056.65,-27.7"/>
<polygon fill="#63b8ff" stroke="#63b8ff" points="1648.99,-68.36 1659.29,-65.86 1649.68,-61.4 1648.99,-68.36"/>
</a>
</g>
</g>
<!-- Node28&#45;&gt;Node18 -->
<g id="edge41_Node000028_Node000018" class="edge">
<title>Node28&#45;&gt;Node18</title>
<g id="a_edge41_Node000028_Node000018"><a xlink:title=" ">
<path fill="none" stroke="#63b8ff" d="M1649.53,-64.86C1448.33,-43.7 1394.3,-56.82 1197.5,-29 1194.6,-28.59 1191.65,-28.13 1188.66,-27.64"/>
<polygon fill="#63b8ff" stroke="#63b8ff" points="1648.97,-68.32 1659.28,-65.91 1649.71,-61.36 1648.97,-68.32"/>
</a>
</g>
</g>
<!-- Node28&#45;&gt;Node19 -->
<g id="edge42_Node000028_Node000019" class="edge">
<title>Node28&#45;&gt;Node19</title>
<g id="a_edge42_Node000028_Node000019"><a xlink:title=" ">
<path fill="none" stroke="#63b8ff" d="M1649.4,-64.78C1506.66,-47.39 1468.13,-50.88 1329.5,-29 1326.61,-28.54 1323.66,-28.05 1320.68,-27.53"/>
<polygon fill="#63b8ff" stroke="#63b8ff" points="1648.92,-68.25 1659.27,-66 1649.77,-61.3 1648.92,-68.25"/>
</a>
</g>
</g>
<!-- Node28&#45;&gt;Node20 -->
<g id="edge43_Node000028_Node000020" class="edge">
<title>Node28&#45;&gt;Node20</title>
<g id="a_edge43_Node000028_Node000020"><a xlink:title=" ">
<path fill="none" stroke="#63b8ff" d="M1649.59,-62.76C1598.95,-54.07 1525.5,-41.21 1461.5,-29 1458.63,-28.45 1455.69,-27.88 1452.72,-27.3"/>
<polygon fill="#63b8ff" stroke="#63b8ff" points="1648.73,-66.17 1659.18,-64.41 1649.92,-59.27 1648.73,-66.17"/>
</a>
</g>
</g>
<!-- Node28&#45;&gt;Node21 -->
<g id="edge44_Node000028_Node000021" class="edge">
<title>Node28&#45;&gt;Node21</title>
<g id="a_edge44_Node000028_Node000021"><a xlink:title=" ">
<path fill="none" stroke="#63b8ff" d="M1673.26,-61.25C1643.79,-52 1602.99,-39.19 1572.05,-29.48"/>
<polygon fill="#63b8ff" stroke="#63b8ff" points="1671.92,-64.5 1682.51,-64.15 1674.02,-57.82 1671.92,-64.5"/>
</a>
</g>
</g>
<!-- Node28&#45;&gt;Node22 -->
<g id="edge45_Node000028_Node000022" class="edge">
<title>Node28&#45;&gt;Node22</title>
<g id="a_edge45_Node000028_Node000022"><a xlink:title=" ">
<path fill="none" stroke="#63b8ff" d="M1696.24,-56.3C1688.54,-47.75 1679.32,-37.52 1672.05,-29.43"/>
<polygon fill="#63b8ff" stroke="#63b8ff" points="1693.52,-58.51 1702.81,-63.6 1698.72,-53.83 1693.52,-58.51"/>
</a>
</g>
</g>
<!-- Node28&#45;&gt;Node23 -->
<g id="edge46_Node000028_Node000023" class="edge">
<title>Node28&#45;&gt;Node23</title>
<g id="a_edge46_Node000028_Node000023"><a xlink:title=" ">
<path fill="none" stroke="#63b8ff" d="M1733.95,-58.52C1750.46,-47.68 1772.34,-33.32 1786.17,-24.25"/>
<polygon fill="#63b8ff" stroke="#63b8ff" points="1732.19,-55.49 1725.75,-63.9 1736.03,-61.34 1732.19,-55.49"/>
</a>
</g>
</g>
<!-- Node28&#45;&gt;Node24 -->
<g id="edge47_Node000028_Node000024" class="edge">
<title>Node28&#45;&gt;Node24</title>
<g id="a_edge47_Node000028_Node000024"><a xlink:title=" ">
<path fill="none" stroke="#63b8ff" d="M1756.69,-61.85C1793.52,-52.57 1845.7,-39.41 1885.05,-29.48"/>
<polygon fill="#63b8ff" stroke="#63b8ff" points="1756.09,-58.4 1747.25,-64.23 1757.8,-65.18 1756.09,-58.4"/>
</a>
</g>
</g>
<!-- Node28&#45;&gt;Node25 -->
<g id="edge48_Node000028_Node000025" class="edge">
<title>Node28&#45;&gt;Node25</title>
<g id="a_edge48_Node000028_Node000025"><a xlink:title=" ">
<path fill="none" stroke="#63b8ff" d="M1773.29,-64.65C1833.24,-56.15 1926.74,-42.5 2007.5,-29 2016.27,-27.53 2025.62,-25.88 2034.59,-24.24"/>
<polygon fill="#63b8ff" stroke="#63b8ff" points="1773.04,-61.15 1763.62,-66.01 1774.02,-68.08 1773.04,-61.15"/>
</a>
</g>
</g>
<!-- Node28&#45;&gt;Node26 -->
<g id="edge49_Node000028_Node000026" class="edge">
<title>Node28&#45;&gt;Node26</title>
<g id="a_edge49_Node000028_Node000026"><a xlink:title=" ">
<path fill="none" stroke="#63b8ff" d="M1773.38,-68.74C1859.05,-62.1 2018.48,-48.38 2153.5,-29 2162.82,-27.66 2172.76,-25.97 2182.2,-24.24"/>
<polygon fill="#63b8ff" stroke="#63b8ff" points="1773.26,-65.23 1763.56,-69.49 1773.8,-72.21 1773.26,-65.23"/>
</a>
</g>
</g>
<!-- Node28&#45;&gt;Node27 -->
<g id="edge50_Node000028_Node000027" class="edge">
<title>Node28&#45;&gt;Node27</title>
<g id="a_edge50_Node000028_Node000027"><a xlink:title=" ">
<path fill="none" stroke="#63b8ff" d="M1773.55,-70.49C1880.85,-65.3 2107.9,-52.42 2298.5,-29 2309,-27.71 2320.22,-26 2330.82,-24.22"/>
<polygon fill="#63b8ff" stroke="#63b8ff" points="1773.64,-66.99 1763.81,-70.96 1773.97,-73.98 1773.64,-66.99"/>
</a>
</g>
</g>
</g>
</svg>

<g id="navigator" transform="translate(0 0)" fill="#404254">
  <rect fill="#f2f5e9" fill-opacity="0.5" stroke="#606060" stroke-width=".5" x="0" y="0" width="60" height="60"/>
  <use id="zoomplus" xlink:href="#zoomPlus" x="17" y="9" onmousedown="handleZoom(evt,'in')"/>
  <use id="zoomminus" xlink:href="#zoomMin" x="42" y="9" onmousedown="handleZoom(evt,'out')"/>
  <use id="reset" xlink:href="#resetDef" x="30" y="36" onmousedown="handleReset()"/>
   <use id="arrowup" xlink:href="#arrowUp" x="0" y="0" onmousedown="handlePan(0,-1)"/>
  <use id="arrowright" xlink:href="#arrowRight" x="0" y="0" onmousedown="handlePan(1,0)"/>
  <use id="arrowdown" xlink:href="#arrowDown" x="0" y="0" onmousedown="handlePan(0,1)"/>
  <use id="arrowleft" xlink:href="#arrowLeft" x="0" y="0" onmousedown="handlePan(-1,0)"/>
</g>
<svg viewBox="0 0 15 15" width="100%" height="30px" preserveAspectRatio="xMaxYMin meet">
 <g id="arrow_out" transform="scale(0.3 0.3)">
  <a xlink:href="tree__edit_8h__dep__incl_org.svg" target="_base">
   <rect id="button" ry="5" rx="5" y="6" x="6" height="38" width="38"
        fill="#f2f5e9" fill-opacity="0.5" stroke="#606060" stroke-width="1.0"/>
   <path id="arrow"
     d="M 11.500037,31.436501 C 11.940474,20.09759 22.043105,11.32322 32.158766,21.979434 L 37.068811,17.246167 C 37.068811,17.246167 37.088388,32 37.088388,32 L 22.160133,31.978069 C 22.160133,31.978069 26.997745,27.140456 26.997745,27.140456 C 18.528582,18.264221 13.291696,25.230495 11.500037,31.436501 z"
     style="fill:#404040;"/>
  </a>
 </g>
</svg>

<style type='text/css'>
<![CDATA[
[data-mouse-over-selected='false'] { opacity: 0.7; }
[data-mouse-over-selected='true']  { opacity: 1.0; }
]]>
</style>
<script type="application/ecmascript"><![CDATA[
document.addEventListener('DOMContentLoaded', (event) => {
  highlightEdges();
  highlightAdjacentNodes();
});
]]></script>
</svg>
