<?xml version="1.0" encoding="UTF-8" standalone="no"?>
<!DOCTYPE svg PUBLIC "-//W3C//DTD SVG 1.1//EN"
 "http://www.w3.org/Graphics/SVG/1.1/DTD/svg11.dtd">
<!-- Generated by graphviz version 12.1.0 (20240811.2233)
 -->
<!-- Title: src/tree.h Pages: 1 -->
<svg width="3345pt" height="419pt"
 viewBox="0.00 0.00 3344.50 418.50" xmlns="http://www.w3.org/2000/svg" xmlns:xlink="http://www.w3.org/1999/xlink">
<g id="graph0" class="graph" transform="scale(1 1) rotate(0) translate(4 414.5)">
<title>src/tree.h</title>
<!-- Node1 -->
<g id="Node000001" class="node">
<title>Node1</title>
<g id="a_Node000001"><a xlink:title="libyang generic macros and functions to work with YANG schema or data trees.">
<polygon fill="#999999" stroke="#666666" points="1849.38,-410.5 1792.12,-410.5 1792.12,-392 1849.38,-392 1849.38,-410.5"/>
<text text-anchor="middle" x="1820.75" y="-397" font-family="Helvetica,sans-Serif" font-size="10.00">src/tree.h</text>
</a>
</g>
</g>
<!-- Node2 -->
<g id="Node000002" class="node">
<title>Node2</title>
<g id="a_Node000002"><a xlink:href="libyang_8h.html" target="_top" xlink:title="The main libyang public header.">
<polygon fill="white" stroke="#666666" points="1710.12,-83.5 1639.38,-83.5 1639.38,-65 1710.12,-65 1710.12,-83.5"/>
<text text-anchor="middle" x="1674.75" y="-70" font-family="Helvetica,sans-Serif" font-size="10.00">src/libyang.h</text>
</a>
</g>
</g>
<!-- Node1&#45;&gt;Node2 -->
<g id="edge1_Node000001_Node000002" class="edge">
<title>Node1&#45;&gt;Node2</title>
<g id="a_edge1_Node000001_Node000002"><a xlink:title=" ">
<path fill="none" stroke="#63b8ff" d="M1831.95,-381.81C1843.47,-361.05 1859.75,-325.95 1859.75,-293.25 1859.75,-293.25 1859.75,-293.25 1859.75,-182.25 1859.75,-150.1 1848.97,-139.45 1823.75,-119.5 1806.18,-105.6 1748.75,-91.12 1710.54,-82.66"/>
<polygon fill="#63b8ff" stroke="#63b8ff" points="1828.93,-380.04 1826.93,-390.45 1834.98,-383.56 1828.93,-380.04"/>
</a>
</g>
</g>
<!-- Node26 -->
<g id="Node000026" class="node">
<title>Node26</title>
<g id="a_Node000026"><a xlink:href="plugins__types_8h.html" target="_top" xlink:title="API for (user) types plugins.">
<polygon fill="white" stroke="#666666" points="1843.12,-83.5 1742.38,-83.5 1742.38,-65 1843.12,-65 1843.12,-83.5"/>
<text text-anchor="middle" x="1792.75" y="-70" font-family="Helvetica,sans-Serif" font-size="10.00">src/plugins_types.h</text>
</a>
</g>
</g>
<!-- Node1&#45;&gt;Node26 -->
<g id="edge25_Node000001_Node000026" class="edge">
<title>Node1&#45;&gt;Node26</title>
<g id="a_edge25_Node000001_Node000026"><a xlink:title=" ">
<path fill="none" stroke="#63b8ff" d="M1843.93,-385.01C1854.19,-377.32 1865.73,-367.24 1873.75,-356 1891.1,-331.7 1897.75,-323.11 1897.75,-293.25 1897.75,-293.25 1897.75,-293.25 1897.75,-182.25 1897.75,-152.39 1893.39,-141.99 1873.75,-119.5 1858.99,-102.61 1836.15,-90.96 1818.48,-83.87"/>
<polygon fill="#63b8ff" stroke="#63b8ff" points="1842,-382.09 1835.87,-390.74 1846.05,-387.8 1842,-382.09"/>
</a>
</g>
</g>
<!-- Node27 -->
<g id="Node000027" class="node">
<title>Node27</title>
<g id="a_Node000027"><a xlink:href="tree__data_8h.html" target="_top" xlink:title="libyang representation of YANG data trees.">
<polygon fill="white" stroke="#666666" points="1692.38,-301.5 1611.12,-301.5 1611.12,-283 1692.38,-283 1692.38,-301.5"/>
<text text-anchor="middle" x="1651.75" y="-288" font-family="Helvetica,sans-Serif" font-size="10.00">src/tree_data.h</text>
</a>
</g>
</g>
<!-- Node1&#45;&gt;Node27 -->
<g id="edge49_Node000001_Node000027" class="edge">
<title>Node1&#45;&gt;Node27</title>
<g id="a_edge49_Node000001_Node000027"><a xlink:title=" ">
<path fill="none" stroke="#63b8ff" d="M1787.17,-387.21C1768.45,-379.32 1745.09,-368.39 1725.75,-356 1699.93,-339.47 1673.42,-314.73 1660.25,-301.8"/>
<polygon fill="#63b8ff" stroke="#63b8ff" points="1785.61,-390.36 1796.19,-390.93 1788.28,-383.88 1785.61,-390.36"/>
</a>
</g>
</g>
<!-- Node33 -->
<g id="Node000033" class="node">
<title>Node33</title>
<g id="a_Node000033"><a xlink:href="tree__schema_8h.html" target="_top" xlink:title="libyang representation of YANG schema trees.">
<polygon fill="white" stroke="#666666" points="1831.25,-356 1734.25,-356 1734.25,-337.5 1831.25,-337.5 1831.25,-356"/>
<text text-anchor="middle" x="1782.75" y="-342.5" font-family="Helvetica,sans-Serif" font-size="10.00">src/tree_schema.h</text>
</a>
</g>
</g>
<!-- Node1&#45;&gt;Node33 -->
<g id="edge62_Node000001_Node000033" class="edge">
<title>Node1&#45;&gt;Node33</title>
<g id="a_edge62_Node000001_Node000033"><a xlink:title=" ">
<path fill="none" stroke="#63b8ff" d="M1807.86,-382.45C1801.46,-373.6 1794.02,-363.32 1788.91,-356.26"/>
<polygon fill="#63b8ff" stroke="#63b8ff" points="1804.89,-384.31 1813.59,-390.35 1810.56,-380.2 1804.89,-384.31"/>
</a>
</g>
</g>
<!-- Node3 -->
<g id="Node000003" class="node">
<title>Node3</title>
<g id="a_Node000003"><a xlink:href="binary_8c.html" target="_top" xlink:title="Built&#45;in binary type plugin.">
<polygon fill="white" stroke="#666666" points="3198.75,-23.75 3068.75,-23.75 3068.75,-5.25 3198.75,-5.25 3198.75,-23.75"/>
<text text-anchor="middle" x="3133.75" y="-10.25" font-family="Helvetica,sans-Serif" font-size="10.00">src/plugins_types/binary.c</text>
</a>
</g>
</g>
<!-- Node2&#45;&gt;Node3 -->
<g id="edge2_Node000002_Node000003" class="edge">
<title>Node2&#45;&gt;Node3</title>
<g id="a_edge2_Node000002_Node000003"><a xlink:title=" ">
<path fill="none" stroke="#63b8ff" d="M1721.83,-66.19C1725.86,-65.73 1729.87,-65.32 1733.75,-65 2321.27,-16.1 2473.37,-90.08 3059.75,-29 3070.4,-27.89 3081.82,-26.11 3092.42,-24.19"/>
<polygon fill="#63b8ff" stroke="#63b8ff" points="1721.55,-62.69 1712.06,-67.4 1722.42,-69.64 1721.55,-62.69"/>
</a>
</g>
</g>
<!-- Node4 -->
<g id="Node000004" class="node">
<title>Node4</title>
<g id="a_Node000004"><a xlink:href="bits_8c.html" target="_top" xlink:title="Built&#45;in bits type plugin.">
<polygon fill="white" stroke="#666666" points="3336.5,-23.75 3217,-23.75 3217,-5.25 3336.5,-5.25 3336.5,-23.75"/>
<text text-anchor="middle" x="3276.75" y="-10.25" font-family="Helvetica,sans-Serif" font-size="10.00">src/plugins_types/bits.c</text>
</a>
</g>
</g>
<!-- Node2&#45;&gt;Node4 -->
<g id="edge3_Node000002_Node000004" class="edge">
<title>Node2&#45;&gt;Node4</title>
<g id="a_edge3_Node000002_Node000004"><a xlink:title=" ">
<path fill="none" stroke="#63b8ff" d="M1721.83,-66.18C1725.86,-65.72 1729.87,-65.32 1733.75,-65 2386.87,-11.54 2556.32,-100.17 3207.75,-29 3217.7,-27.91 3228.36,-26.14 3238.24,-24.23"/>
<polygon fill="#63b8ff" stroke="#63b8ff" points="1721.55,-62.68 1712.06,-67.39 1722.41,-69.63 1721.55,-62.68"/>
</a>
</g>
</g>
<!-- Node5 -->
<g id="Node000005" class="node">
<title>Node5</title>
<g id="a_Node000005"><a xlink:href="boolean_8c.html" target="_top" xlink:title="Built&#45;in boolean type plugin.">
<polygon fill="white" stroke="#666666" points="137.5,-23.75 0,-23.75 0,-5.25 137.5,-5.25 137.5,-23.75"/>
<text text-anchor="middle" x="68.75" y="-10.25" font-family="Helvetica,sans-Serif" font-size="10.00">src/plugins_types/boolean.c</text>
</a>
</g>
</g>
<!-- Node2&#45;&gt;Node5 -->
<g id="edge4_Node000002_Node000005" class="edge">
<title>Node2&#45;&gt;Node5</title>
<g id="a_edge4_Node000002_Node000005"><a xlink:title=" ">
<path fill="none" stroke="#63b8ff" d="M1627.79,-72.79C1404.04,-70.47 444.59,-58.93 146.75,-29 135.67,-27.89 123.8,-26.13 112.74,-24.24"/>
<polygon fill="#63b8ff" stroke="#63b8ff" points="1627.54,-76.29 1637.58,-72.89 1627.61,-69.29 1627.54,-76.29"/>
</a>
</g>
</g>
<!-- Node6 -->
<g id="Node000006" class="node">
<title>Node6</title>
<g id="a_Node000006"><a xlink:href="date__and__time_8c.html" target="_top" xlink:title="ietf&#45;yang&#45;types date&#45;and&#45;time type plugin.">
<polygon fill="white" stroke="#666666" points="269.88,-29 155.62,-29 155.62,0 269.88,0 269.88,-29"/>
<text text-anchor="start" x="163.62" y="-15.5" font-family="Helvetica,sans-Serif" font-size="10.00">src/plugins_types/date</text>
<text text-anchor="middle" x="212.75" y="-5" font-family="Helvetica,sans-Serif" font-size="10.00">_and_time.c</text>
</a>
</g>
</g>
<!-- Node2&#45;&gt;Node6 -->
<g id="edge5_Node000002_Node000006" class="edge">
<title>Node2&#45;&gt;Node6</title>
<g id="a_edge5_Node000002_Node000006"><a xlink:title=" ">
<path fill="none" stroke="#63b8ff" d="M1627.8,-72.83C1416.06,-70.8 548.65,-60.65 278.75,-29 275.96,-28.67 273.12,-28.29 270.25,-27.86"/>
<polygon fill="#63b8ff" stroke="#63b8ff" points="1627.55,-76.33 1637.58,-72.93 1627.62,-69.33 1627.55,-76.33"/>
</a>
</g>
</g>
<!-- Node7 -->
<g id="Node000007" class="node">
<title>Node7</title>
<g id="a_Node000007"><a xlink:href="decimal64_8c.html" target="_top" xlink:title="Built&#45;in decimal64 type plugin.">
<polygon fill="white" stroke="#666666" points="435.75,-23.75 287.75,-23.75 287.75,-5.25 435.75,-5.25 435.75,-23.75"/>
<text text-anchor="middle" x="361.75" y="-10.25" font-family="Helvetica,sans-Serif" font-size="10.00">src/plugins_types/decimal64.c</text>
</a>
</g>
</g>
<!-- Node2&#45;&gt;Node7 -->
<g id="edge6_Node000002_Node000007" class="edge">
<title>Node2&#45;&gt;Node7</title>
<g id="a_edge6_Node000002_Node000007"><a xlink:title=" ">
<path fill="none" stroke="#63b8ff" d="M1627.83,-73.67C1464.27,-74.7 904.19,-74.45 444.75,-29 433.13,-27.85 420.66,-26.1 409.02,-24.24"/>
<polygon fill="#63b8ff" stroke="#63b8ff" points="1627.43,-77.18 1637.4,-73.61 1627.38,-70.18 1627.43,-77.18"/>
</a>
</g>
</g>
<!-- Node8 -->
<g id="Node000008" class="node">
<title>Node8</title>
<g id="a_Node000008"><a xlink:href="empty_8c.html" target="_top" xlink:title="Built&#45;in empty type plugin.">
<polygon fill="white" stroke="#666666" points="583.75,-23.75 453.75,-23.75 453.75,-5.25 583.75,-5.25 583.75,-23.75"/>
<text text-anchor="middle" x="518.75" y="-10.25" font-family="Helvetica,sans-Serif" font-size="10.00">src/plugins_types/empty.c</text>
</a>
</g>
</g>
<!-- Node2&#45;&gt;Node8 -->
<g id="edge7_Node000002_Node000008" class="edge">
<title>Node2&#45;&gt;Node8</title>
<g id="a_edge7_Node000002_Node000008"><a xlink:title=" ">
<path fill="none" stroke="#63b8ff" d="M1628.05,-73.66C1477.5,-74.49 991.57,-73.31 592.75,-29 582.37,-27.85 571.25,-26.1 560.86,-24.23"/>
<polygon fill="#63b8ff" stroke="#63b8ff" points="1627.63,-77.16 1637.61,-73.6 1627.59,-70.16 1627.63,-77.16"/>
</a>
</g>
</g>
<!-- Node9 -->
<g id="Node000009" class="node">
<title>Node9</title>
<g id="a_Node000009"><a xlink:href="enumeration_8c.html" target="_top" xlink:title="Built&#45;in enumeration type plugin.">
<polygon fill="white" stroke="#666666" points="759.25,-23.75 602.25,-23.75 602.25,-5.25 759.25,-5.25 759.25,-23.75"/>
<text text-anchor="middle" x="680.75" y="-10.25" font-family="Helvetica,sans-Serif" font-size="10.00">src/plugins_types/enumeration.c</text>
</a>
</g>
</g>
<!-- Node2&#45;&gt;Node9 -->
<g id="edge8_Node000002_Node000009" class="edge">
<title>Node2&#45;&gt;Node9</title>
<g id="a_edge8_Node000002_Node000009"><a xlink:title=" ">
<path fill="none" stroke="#63b8ff" d="M1627.77,-72.7C1493.36,-70.75 1095.85,-62.37 767.75,-29 755.74,-27.78 742.85,-26.03 730.78,-24.18"/>
<polygon fill="#63b8ff" stroke="#63b8ff" points="1627.65,-76.2 1637.7,-72.84 1627.75,-69.2 1627.65,-76.2"/>
</a>
</g>
</g>
<!-- Node10 -->
<g id="Node000010" class="node">
<title>Node10</title>
<g id="a_Node000010"><a xlink:href="hex__string_8c.html" target="_top" xlink:title="Built&#45;in hex&#45;string and associated types plugin.">
<polygon fill="white" stroke="#666666" points="888.38,-29 777.12,-29 777.12,0 888.38,0 888.38,-29"/>
<text text-anchor="start" x="785.12" y="-15.5" font-family="Helvetica,sans-Serif" font-size="10.00">src/plugins_types/hex</text>
<text text-anchor="middle" x="832.75" y="-5" font-family="Helvetica,sans-Serif" font-size="10.00">_string.c</text>
</a>
</g>
</g>
<!-- Node2&#45;&gt;Node10 -->
<g id="edge9_Node000002_Node000010" class="edge">
<title>Node2&#45;&gt;Node10</title>
<g id="a_edge9_Node000002_Node000010"><a xlink:title=" ">
<path fill="none" stroke="#63b8ff" d="M1627.52,-72.99C1505.97,-71.78 1172.59,-65.17 897.75,-29 894.78,-28.61 891.74,-28.16 888.68,-27.66"/>
<polygon fill="#63b8ff" stroke="#63b8ff" points="1627.4,-76.49 1637.44,-73.08 1627.47,-69.49 1627.4,-76.49"/>
</a>
</g>
</g>
<!-- Node11 -->
<g id="Node000011" class="node">
<title>Node11</title>
<g id="a_Node000011"><a xlink:href="identityref_8c.html" target="_top" xlink:title="Built&#45;in identityref type plugin.">
<polygon fill="white" stroke="#666666" points="1052.62,-23.75 906.88,-23.75 906.88,-5.25 1052.62,-5.25 1052.62,-23.75"/>
<text text-anchor="middle" x="979.75" y="-10.25" font-family="Helvetica,sans-Serif" font-size="10.00">src/plugins_types/identityref.c</text>
</a>
</g>
</g>
<!-- Node2&#45;&gt;Node11 -->
<g id="edge10_Node000002_Node000011" class="edge">
<title>Node2&#45;&gt;Node11</title>
<g id="a_edge10_Node000002_Node000011"><a xlink:title=" ">
<path fill="none" stroke="#63b8ff" d="M1627.85,-71.32C1525.04,-66.78 1272.19,-53.87 1061.75,-29 1050.86,-27.71 1039.21,-26 1028.21,-24.23"/>
<polygon fill="#63b8ff" stroke="#63b8ff" points="1627.4,-74.81 1637.54,-71.75 1627.71,-67.81 1627.4,-74.81"/>
</a>
</g>
</g>
<!-- Node12 -->
<g id="Node000012" class="node">
<title>Node12</title>
<g id="a_Node000012"><a xlink:href="instanceid_8c.html" target="_top" xlink:title="Built&#45;in instance&#45;identifier type plugin.">
<polygon fill="white" stroke="#666666" points="1218.75,-23.75 1070.75,-23.75 1070.75,-5.25 1218.75,-5.25 1218.75,-23.75"/>
<text text-anchor="middle" x="1144.75" y="-10.25" font-family="Helvetica,sans-Serif" font-size="10.00">src/plugins_types/instanceid.c</text>
</a>
</g>
</g>
<!-- Node2&#45;&gt;Node12 -->
<g id="edge11_Node000002_Node000012" class="edge">
<title>Node2&#45;&gt;Node12</title>
<g id="a_edge11_Node000002_Node000012"><a xlink:title=" ">
<path fill="none" stroke="#63b8ff" d="M1627.66,-69.56C1546.06,-62.96 1373.13,-48 1227.75,-29 1217.18,-27.62 1205.89,-25.93 1195.15,-24.22"/>
<polygon fill="#63b8ff" stroke="#63b8ff" points="1627.27,-73.04 1637.52,-70.36 1627.83,-66.07 1627.27,-73.04"/>
</a>
</g>
</g>
<!-- Node13 -->
<g id="Node000013" class="node">
<title>Node13</title>
<g id="a_Node000013"><a xlink:href="instanceid__keys_8c.html" target="_top" xlink:title="ietf&#45;netconf edit&#45;config key metadata instance&#45;identifier keys predicate type plugin.">
<polygon fill="white" stroke="#666666" points="1376.62,-29 1236.88,-29 1236.88,0 1376.62,0 1376.62,-29"/>
<text text-anchor="start" x="1244.88" y="-15.5" font-family="Helvetica,sans-Serif" font-size="10.00">src/plugins_types/instanceid</text>
<text text-anchor="middle" x="1306.75" y="-5" font-family="Helvetica,sans-Serif" font-size="10.00">_keys.c</text>
</a>
</g>
</g>
<!-- Node2&#45;&gt;Node13 -->
<g id="edge12_Node000002_Node000013" class="edge">
<title>Node2&#45;&gt;Node13</title>
<g id="a_edge12_Node000002_Node000013"><a xlink:title=" ">
<path fill="none" stroke="#63b8ff" d="M1627.76,-66.37C1570.37,-57.91 1470.34,-42.94 1384.75,-29 1382.17,-28.58 1379.55,-28.15 1376.9,-27.71"/>
<polygon fill="#63b8ff" stroke="#63b8ff" points="1627.1,-69.81 1637.5,-67.81 1628.12,-62.89 1627.1,-69.81"/>
</a>
</g>
</g>
<!-- Node14 -->
<g id="Node000014" class="node">
<title>Node14</title>
<g id="a_Node000014"><a xlink:href="integer_8c.html" target="_top" xlink:title="Built&#45;in integer types plugin.">
<polygon fill="white" stroke="#666666" points="1527.25,-23.75 1394.25,-23.75 1394.25,-5.25 1527.25,-5.25 1527.25,-23.75"/>
<text text-anchor="middle" x="1460.75" y="-10.25" font-family="Helvetica,sans-Serif" font-size="10.00">src/plugins_types/integer.c</text>
</a>
</g>
</g>
<!-- Node2&#45;&gt;Node14 -->
<g id="edge13_Node000002_Node000014" class="edge">
<title>Node2&#45;&gt;Node14</title>
<g id="a_edge13_Node000002_Node000014"><a xlink:title=" ">
<path fill="none" stroke="#63b8ff" d="M1631.71,-61.64C1590.73,-50.58 1529.98,-34.18 1493.01,-24.2"/>
<polygon fill="#63b8ff" stroke="#63b8ff" points="1630.68,-64.98 1641.25,-64.21 1632.51,-58.23 1630.68,-64.98"/>
</a>
</g>
</g>
<!-- Node15 -->
<g id="Node000015" class="node">
<title>Node15</title>
<g id="a_Node000015"><a xlink:href="ipv4__address_8c.html" target="_top" xlink:title="ietf&#45;inet&#45;types ipv4&#45;address type plugin.">
<polygon fill="white" stroke="#666666" points="1658.5,-29 1545,-29 1545,0 1658.5,0 1658.5,-29"/>
<text text-anchor="start" x="1553" y="-15.5" font-family="Helvetica,sans-Serif" font-size="10.00">src/plugins_types/ipv4</text>
<text text-anchor="middle" x="1601.75" y="-5" font-family="Helvetica,sans-Serif" font-size="10.00">_address.c</text>
</a>
</g>
</g>
<!-- Node2&#45;&gt;Node15 -->
<g id="edge14_Node000002_Node000015" class="edge">
<title>Node2&#45;&gt;Node15</title>
<g id="a_edge14_Node000002_Node000015"><a xlink:title=" ">
<path fill="none" stroke="#63b8ff" d="M1655.03,-57.65C1643.91,-48.85 1630.12,-37.95 1619.36,-29.43"/>
<polygon fill="#63b8ff" stroke="#63b8ff" points="1652.78,-60.33 1662.79,-63.79 1657.12,-54.84 1652.78,-60.33"/>
</a>
</g>
</g>
<!-- Node16 -->
<g id="Node000016" class="node">
<title>Node16</title>
<g id="a_Node000016"><a xlink:href="ipv4__address__no__zone_8c.html" target="_top" xlink:title="ietf&#45;inet&#45;types ipv4&#45;address&#45;no&#45;zone type plugin.">
<polygon fill="white" stroke="#666666" points="1790.5,-29 1677,-29 1677,0 1790.5,0 1790.5,-29"/>
<text text-anchor="start" x="1685" y="-15.5" font-family="Helvetica,sans-Serif" font-size="10.00">src/plugins_types/ipv4</text>
<text text-anchor="middle" x="1733.75" y="-5" font-family="Helvetica,sans-Serif" font-size="10.00">_address_no_zone.c</text>
</a>
</g>
</g>
<!-- Node2&#45;&gt;Node16 -->
<g id="edge15_Node000002_Node000016" class="edge">
<title>Node2&#45;&gt;Node16</title>
<g id="a_edge15_Node000002_Node000016"><a xlink:title=" ">
<path fill="none" stroke="#63b8ff" d="M1691.51,-56.84C1700.35,-48.19 1711.08,-37.69 1719.51,-29.43"/>
<polygon fill="#63b8ff" stroke="#63b8ff" points="1689.24,-54.17 1684.54,-63.67 1694.13,-59.18 1689.24,-54.17"/>
</a>
</g>
</g>
<!-- Node17 -->
<g id="Node000017" class="node">
<title>Node17</title>
<g id="a_Node000017"><a xlink:href="ipv4__prefix_8c.html" target="_top" xlink:title="ietf&#45;inet&#45;types ipv4&#45;prefix type plugin.">
<polygon fill="white" stroke="#666666" points="1922.5,-29 1809,-29 1809,0 1922.5,0 1922.5,-29"/>
<text text-anchor="start" x="1817" y="-15.5" font-family="Helvetica,sans-Serif" font-size="10.00">src/plugins_types/ipv4</text>
<text text-anchor="middle" x="1865.75" y="-5" font-family="Helvetica,sans-Serif" font-size="10.00">_prefix.c</text>
</a>
</g>
</g>
<!-- Node2&#45;&gt;Node17 -->
<g id="edge16_Node000002_Node000017" class="edge">
<title>Node2&#45;&gt;Node17</title>
<g id="a_edge16_Node000002_Node000017"><a xlink:title=" ">
<path fill="none" stroke="#63b8ff" d="M1714.04,-61.37C1744.66,-52.11 1787.24,-39.24 1819.5,-29.48"/>
<polygon fill="#63b8ff" stroke="#63b8ff" points="1713.35,-57.92 1704.79,-64.17 1715.38,-64.62 1713.35,-57.92"/>
</a>
</g>
</g>
<!-- Node18 -->
<g id="Node000018" class="node">
<title>Node18</title>
<g id="a_Node000018"><a xlink:href="ipv6__address_8c.html" target="_top" xlink:title="ietf&#45;inet&#45;types ipv6&#45;address type plugin.">
<polygon fill="white" stroke="#666666" points="2054.5,-29 1941,-29 1941,0 2054.5,0 2054.5,-29"/>
<text text-anchor="start" x="1949" y="-15.5" font-family="Helvetica,sans-Serif" font-size="10.00">src/plugins_types/ipv6</text>
<text text-anchor="middle" x="1997.75" y="-5" font-family="Helvetica,sans-Serif" font-size="10.00">_address.c</text>
</a>
</g>
</g>
<!-- Node2&#45;&gt;Node18 -->
<g id="edge17_Node000002_Node000018" class="edge">
<title>Node2&#45;&gt;Node18</title>
<g id="a_edge17_Node000002_Node000018"><a xlink:title=" ">
<path fill="none" stroke="#63b8ff" d="M1721.67,-65.62C1773.26,-57.13 1858.54,-42.79 1931.75,-29 1934.62,-28.46 1937.56,-27.89 1940.53,-27.32"/>
<polygon fill="#63b8ff" stroke="#63b8ff" points="1721.36,-62.13 1712.06,-67.2 1722.5,-69.03 1721.36,-62.13"/>
</a>
</g>
</g>
<!-- Node19 -->
<g id="Node000019" class="node">
<title>Node19</title>
<g id="a_Node000019"><a xlink:href="ipv6__address__no__zone_8c.html" target="_top" xlink:title="ietf&#45;inet&#45;types ipv6&#45;address&#45;no&#45;zone type plugin.">
<polygon fill="white" stroke="#666666" points="2186.5,-29 2073,-29 2073,0 2186.5,0 2186.5,-29"/>
<text text-anchor="start" x="2081" y="-15.5" font-family="Helvetica,sans-Serif" font-size="10.00">src/plugins_types/ipv6</text>
<text text-anchor="middle" x="2129.75" y="-5" font-family="Helvetica,sans-Serif" font-size="10.00">_address_no_zone.c</text>
</a>
</g>
</g>
<!-- Node2&#45;&gt;Node19 -->
<g id="edge18_Node000002_Node000019" class="edge">
<title>Node2&#45;&gt;Node19</title>
<g id="a_edge18_Node000002_Node000019"><a xlink:title=" ">
<path fill="none" stroke="#63b8ff" d="M1721.87,-66.53C1725.88,-66 1729.89,-65.48 1733.75,-65 1880.16,-46.78 1917.99,-51.81 2063.75,-29 2066.64,-28.55 2069.59,-28.06 2072.57,-27.53"/>
<polygon fill="#63b8ff" stroke="#63b8ff" points="1721.55,-63.04 1712.11,-67.86 1722.49,-69.98 1721.55,-63.04"/>
</a>
</g>
</g>
<!-- Node20 -->
<g id="Node000020" class="node">
<title>Node20</title>
<g id="a_Node000020"><a xlink:href="ipv6__prefix_8c.html" target="_top" xlink:title="ietf&#45;inet&#45;types ipv6&#45;prefix type plugin.">
<polygon fill="white" stroke="#666666" points="2318.5,-29 2205,-29 2205,0 2318.5,0 2318.5,-29"/>
<text text-anchor="start" x="2213" y="-15.5" font-family="Helvetica,sans-Serif" font-size="10.00">src/plugins_types/ipv6</text>
<text text-anchor="middle" x="2261.75" y="-5" font-family="Helvetica,sans-Serif" font-size="10.00">_prefix.c</text>
</a>
</g>
</g>
<!-- Node2&#45;&gt;Node20 -->
<g id="edge19_Node000002_Node000020" class="edge">
<title>Node2&#45;&gt;Node20</title>
<g id="a_edge19_Node000002_Node000020"><a xlink:title=" ">
<path fill="none" stroke="#63b8ff" d="M1721.85,-66.4C1725.87,-65.9 1729.88,-65.42 1733.75,-65 1938.5,-42.73 1991.8,-57.69 2195.75,-29 2198.65,-28.59 2201.6,-28.14 2204.59,-27.64"/>
<polygon fill="#63b8ff" stroke="#63b8ff" points="1721.55,-62.91 1712.09,-67.68 1722.46,-69.85 1721.55,-62.91"/>
</a>
</g>
</g>
<!-- Node21 -->
<g id="Node000021" class="node">
<title>Node21</title>
<g id="a_Node000021"><a xlink:href="leafref_8c.html" target="_top" xlink:title="Built&#45;in leafref type plugin.">
<polygon fill="white" stroke="#666666" points="2466.75,-23.75 2336.75,-23.75 2336.75,-5.25 2466.75,-5.25 2466.75,-23.75"/>
<text text-anchor="middle" x="2401.75" y="-10.25" font-family="Helvetica,sans-Serif" font-size="10.00">src/plugins_types/leafref.c</text>
</a>
</g>
</g>
<!-- Node2&#45;&gt;Node21 -->
<g id="edge20_Node000002_Node000021" class="edge">
<title>Node2&#45;&gt;Node21</title>
<g id="a_edge20_Node000002_Node000021"><a xlink:title=" ">
<path fill="none" stroke="#63b8ff" d="M1721.84,-66.33C1725.87,-65.84 1729.88,-65.39 1733.75,-65 1996.92,-38.67 2065.18,-60.79 2327.75,-29 2337.86,-27.78 2348.68,-26.04 2358.84,-24.23"/>
<polygon fill="#63b8ff" stroke="#63b8ff" points="1721.55,-62.84 1712.08,-67.59 1722.44,-69.78 1721.55,-62.84"/>
</a>
</g>
</g>
<!-- Node22 -->
<g id="Node000022" class="node">
<title>Node22</title>
<g id="a_Node000022"><a xlink:href="node__instanceid_8c.html" target="_top" xlink:title="ietf&#45;netconf&#45;acm node&#45;instance&#45;identifier type plugin.">
<polygon fill="white" stroke="#666666" points="2601,-29 2484.5,-29 2484.5,0 2601,0 2601,-29"/>
<text text-anchor="start" x="2492.5" y="-15.5" font-family="Helvetica,sans-Serif" font-size="10.00">src/plugins_types/node</text>
<text text-anchor="middle" x="2542.75" y="-5" font-family="Helvetica,sans-Serif" font-size="10.00">_instanceid.c</text>
</a>
</g>
</g>
<!-- Node2&#45;&gt;Node22 -->
<g id="edge21_Node000002_Node000022" class="edge">
<title>Node2&#45;&gt;Node22</title>
<g id="a_edge21_Node000002_Node000022"><a xlink:title=" ">
<path fill="none" stroke="#63b8ff" d="M1721.84,-66.28C1725.86,-65.8 1729.87,-65.36 1733.75,-65 2062.47,-34.11 2148.11,-69.72 2475.75,-29 2478.46,-28.66 2481.22,-28.28 2484.01,-27.86"/>
<polygon fill="#63b8ff" stroke="#63b8ff" points="1721.55,-62.79 1712.07,-67.52 1722.43,-69.73 1721.55,-62.79"/>
</a>
</g>
</g>
<!-- Node23 -->
<g id="Node000023" class="node">
<title>Node23</title>
<g id="a_Node000023"><a xlink:href="string_8c.html" target="_top" xlink:title="Built&#45;in string type plugin.">
<polygon fill="white" stroke="#666666" points="2746.62,-23.75 2618.88,-23.75 2618.88,-5.25 2746.62,-5.25 2746.62,-23.75"/>
<text text-anchor="middle" x="2682.75" y="-10.25" font-family="Helvetica,sans-Serif" font-size="10.00">src/plugins_types/string.c</text>
</a>
</g>
</g>
<!-- Node2&#45;&gt;Node23 -->
<g id="edge22_Node000002_Node000023" class="edge">
<title>Node2&#45;&gt;Node23</title>
<g id="a_edge22_Node000002_Node000023"><a xlink:title=" ">
<path fill="none" stroke="#63b8ff" d="M1721.84,-66.25C1725.86,-65.78 1729.87,-65.35 1733.75,-65 2121.83,-29.98 2222.53,-72.54 2609.75,-29 2620,-27.85 2630.97,-26.1 2641.21,-24.24"/>
<polygon fill="#63b8ff" stroke="#63b8ff" points="1721.55,-62.75 1712.07,-67.48 1722.43,-69.7 1721.55,-62.75"/>
</a>
</g>
</g>
<!-- Node24 -->
<g id="Node000024" class="node">
<title>Node24</title>
<g id="a_Node000024"><a xlink:href="union_8c.html" target="_top" xlink:title="Built&#45;in union type plugin.">
<polygon fill="white" stroke="#666666" points="2891.25,-23.75 2764.25,-23.75 2764.25,-5.25 2891.25,-5.25 2891.25,-23.75"/>
<text text-anchor="middle" x="2827.75" y="-10.25" font-family="Helvetica,sans-Serif" font-size="10.00">src/plugins_types/union.c</text>
</a>
</g>
</g>
<!-- Node2&#45;&gt;Node24 -->
<g id="edge23_Node000002_Node000024" class="edge">
<title>Node2&#45;&gt;Node24</title>
<g id="a_edge23_Node000002_Node000024"><a xlink:title=" ">
<path fill="none" stroke="#63b8ff" d="M1721.83,-66.22C1725.86,-65.76 1729.87,-65.34 1733.75,-65 2186.53,-25.48 2304.01,-79.02 2755.75,-29 2765.99,-27.87 2776.96,-26.1 2787.17,-24.21"/>
<polygon fill="#63b8ff" stroke="#63b8ff" points="1721.55,-62.73 1712.06,-67.45 1722.42,-69.67 1721.55,-62.73"/>
</a>
</g>
</g>
<!-- Node25 -->
<g id="Node000025" class="node">
<title>Node25</title>
<g id="a_Node000025"><a xlink:href="xpath1_80_8c.html" target="_top" xlink:title="ietf&#45;yang&#45;types xpath1.0 type plugin.">
<polygon fill="white" stroke="#666666" points="3050.38,-23.75 2909.12,-23.75 2909.12,-5.25 3050.38,-5.25 3050.38,-23.75"/>
<text text-anchor="middle" x="2979.75" y="-10.25" font-family="Helvetica,sans-Serif" font-size="10.00">src/plugins_types/xpath1.0.c</text>
</a>
</g>
</g>
<!-- Node2&#45;&gt;Node25 -->
<g id="edge24_Node000002_Node000025" class="edge">
<title>Node2&#45;&gt;Node25</title>
<g id="a_edge24_Node000002_Node000025"><a xlink:title=" ">
<path fill="none" stroke="#63b8ff" d="M1721.83,-66.2C1725.86,-65.74 1729.87,-65.33 1733.75,-65 2250.8,-21.01 2384.43,-80.83 2900.75,-29 2911.96,-27.87 2923.99,-26.11 2935.19,-24.22"/>
<polygon fill="#63b8ff" stroke="#63b8ff" points="1721.55,-62.71 1712.06,-67.42 1722.42,-69.66 1721.55,-62.71"/>
</a>
</g>
</g>
<!-- Node26&#45;&gt;Node3 -->
<g id="edge26_Node000026_Node000003" class="edge">
<title>Node26&#45;&gt;Node3</title>
<g id="a_edge26_Node000026_Node000003"><a xlink:title=" ">
<path fill="none" stroke="#63b8ff" d="M1854.75,-72.28C2075.41,-68.64 2822.06,-54.69 3059.75,-29 3070.27,-27.86 3081.54,-26.09 3092.03,-24.21"/>
<polygon fill="#63b8ff" stroke="#63b8ff" points="1854.87,-68.78 1844.93,-72.44 1854.98,-75.78 1854.87,-68.78"/>
</a>
</g>
</g>
<!-- Node26&#45;&gt;Node4 -->
<g id="edge27_Node000026_Node000004" class="edge">
<title>Node26&#45;&gt;Node4</title>
<g id="a_edge27_Node000026_Node000004"><a xlink:title=" ">
<path fill="none" stroke="#63b8ff" d="M1854.75,-72.65C2091.66,-70.14 2939.8,-59.2 3207.75,-29 3217.57,-27.89 3228.09,-26.13 3237.88,-24.25"/>
<polygon fill="#63b8ff" stroke="#63b8ff" points="1854.76,-69.15 1844.8,-72.75 1854.83,-76.15 1854.76,-69.15"/>
</a>
</g>
</g>
<!-- Node26&#45;&gt;Node5 -->
<g id="edge28_Node000026_Node000005" class="edge">
<title>Node26&#45;&gt;Node5</title>
<g id="a_edge28_Node000026_Node000005"><a xlink:title=" ">
<path fill="none" stroke="#63b8ff" d="M1731.15,-65.97C1726.95,-65.6 1722.79,-65.27 1718.75,-65 1021.47,-18.24 842.31,-96.78 146.75,-29 135.53,-27.91 123.5,-26.13 112.32,-24.22"/>
<polygon fill="#63b8ff" stroke="#63b8ff" points="1730.46,-69.42 1740.74,-66.88 1731.12,-62.45 1730.46,-69.42"/>
</a>
</g>
</g>
<!-- Node26&#45;&gt;Node6 -->
<g id="edge29_Node000026_Node000006" class="edge">
<title>Node26&#45;&gt;Node6</title>
<g id="a_edge29_Node000026_Node000006"><a xlink:title=" ">
<path fill="none" stroke="#63b8ff" d="M1731.15,-65.98C1726.95,-65.61 1722.79,-65.28 1718.75,-65 1080.03,-21.49 914.84,-101.43 278.75,-29 275.96,-28.68 273.12,-28.31 270.25,-27.88"/>
<polygon fill="#63b8ff" stroke="#63b8ff" points="1730.45,-69.43 1740.74,-66.89 1731.12,-62.46 1730.45,-69.43"/>
</a>
</g>
</g>
<!-- Node26&#45;&gt;Node7 -->
<g id="edge30_Node000026_Node000007" class="edge">
<title>Node26&#45;&gt;Node7</title>
<g id="a_edge30_Node000026_Node000007"><a xlink:title=" ">
<path fill="none" stroke="#63b8ff" d="M1731.14,-65.99C1726.95,-65.62 1722.79,-65.28 1718.75,-65 1153.67,-25.59 1008.66,-82.59 444.75,-29 432.98,-27.88 420.35,-26.12 408.58,-24.23"/>
<polygon fill="#63b8ff" stroke="#63b8ff" points="1730.45,-69.44 1740.74,-66.91 1731.12,-62.47 1730.45,-69.44"/>
</a>
</g>
</g>
<!-- Node26&#45;&gt;Node8 -->
<g id="edge31_Node000026_Node000008" class="edge">
<title>Node26&#45;&gt;Node8</title>
<g id="a_edge31_Node000026_Node000008"><a xlink:title=" ">
<path fill="none" stroke="#63b8ff" d="M1731.14,-66.01C1726.95,-65.63 1722.79,-65.29 1718.75,-65 1219.33,-29.23 1090.63,-82.08 592.75,-29 582.23,-27.88 570.96,-26.12 560.47,-24.23"/>
<polygon fill="#63b8ff" stroke="#63b8ff" points="1730.45,-69.46 1740.74,-66.94 1731.12,-62.49 1730.45,-69.46"/>
</a>
</g>
</g>
<!-- Node26&#45;&gt;Node9 -->
<g id="edge32_Node000026_Node000009" class="edge">
<title>Node26&#45;&gt;Node9</title>
<g id="a_edge32_Node000026_Node000009"><a xlink:title=" ">
<path fill="none" stroke="#63b8ff" d="M1731.14,-66.04C1726.95,-65.65 1722.79,-65.3 1718.75,-65 1296.95,-33.55 1188.78,-69.5 767.75,-29 755.58,-27.83 742.52,-26.07 730.31,-24.21"/>
<polygon fill="#63b8ff" stroke="#63b8ff" points="1730.44,-69.49 1740.74,-66.97 1731.12,-62.52 1730.44,-69.49"/>
</a>
</g>
</g>
<!-- Node26&#45;&gt;Node10 -->
<g id="edge33_Node000026_Node000010" class="edge">
<title>Node26&#45;&gt;Node10</title>
<g id="a_edge33_Node000026_Node000010"><a xlink:title=" ">
<path fill="none" stroke="#63b8ff" d="M1731.14,-66.06C1726.95,-65.67 1722.79,-65.31 1718.75,-65 1354.6,-36.75 1260.17,-74.28 897.75,-29 894.78,-28.63 891.74,-28.19 888.67,-27.71"/>
<polygon fill="#63b8ff" stroke="#63b8ff" points="1730.44,-69.51 1740.73,-67.01 1731.12,-62.55 1730.44,-69.51"/>
</a>
</g>
</g>
<!-- Node26&#45;&gt;Node11 -->
<g id="edge34_Node000026_Node000011" class="edge">
<title>Node26&#45;&gt;Node11</title>
<g id="a_edge34_Node000026_Node000011"><a xlink:title=" ">
<path fill="none" stroke="#63b8ff" d="M1731.14,-66.12C1726.95,-65.71 1722.79,-65.34 1718.75,-65 1427.32,-40.79 1352.45,-60.8 1061.75,-29 1050.56,-27.78 1038.58,-26.05 1027.33,-24.23"/>
<polygon fill="#63b8ff" stroke="#63b8ff" points="1730.43,-69.56 1740.73,-67.08 1731.13,-62.6 1730.43,-69.56"/>
</a>
</g>
</g>
<!-- Node26&#45;&gt;Node12 -->
<g id="edge35_Node000026_Node000012" class="edge">
<title>Node26&#45;&gt;Node12</title>
<g id="a_edge35_Node000026_Node000012"><a xlink:title=" ">
<path fill="none" stroke="#63b8ff" d="M1731.13,-66.2C1726.94,-65.78 1722.78,-65.37 1718.75,-65 1500.87,-44.87 1445.06,-54.59 1227.75,-29 1216.73,-27.7 1204.94,-25.99 1193.8,-24.21"/>
<polygon fill="#63b8ff" stroke="#63b8ff" points="1730.41,-69.65 1740.72,-67.2 1731.13,-62.68 1730.41,-69.65"/>
</a>
</g>
</g>
<!-- Node26&#45;&gt;Node13 -->
<g id="edge36_Node000026_Node000013" class="edge">
<title>Node26&#45;&gt;Node13</title>
<g id="a_edge36_Node000026_Node000013"><a xlink:title=" ">
<path fill="none" stroke="#63b8ff" d="M1731.11,-66.36C1726.93,-65.9 1722.78,-65.44 1718.75,-65 1570.34,-48.73 1532.61,-49.74 1384.75,-29 1382.16,-28.64 1379.53,-28.25 1376.88,-27.86"/>
<polygon fill="#63b8ff" stroke="#63b8ff" points="1730.37,-69.8 1740.69,-67.42 1731.14,-62.84 1730.37,-69.8"/>
</a>
</g>
</g>
<!-- Node26&#45;&gt;Node14 -->
<g id="edge37_Node000026_Node000014" class="edge">
<title>Node26&#45;&gt;Node14</title>
<g id="a_edge37_Node000026_Node000014"><a xlink:title=" ">
<path fill="none" stroke="#63b8ff" d="M1730.96,-62.75C1678.89,-53.86 1602.42,-40.74 1535.75,-29 1527.02,-27.46 1517.72,-25.81 1508.75,-24.2"/>
<polygon fill="#63b8ff" stroke="#63b8ff" points="1730.08,-66.15 1740.52,-64.38 1731.25,-59.25 1730.08,-66.15"/>
</a>
</g>
</g>
<!-- Node26&#45;&gt;Node15 -->
<g id="edge38_Node000026_Node000015" class="edge">
<title>Node26&#45;&gt;Node15</title>
<g id="a_edge38_Node000026_Node000015"><a xlink:title=" ">
<path fill="none" stroke="#63b8ff" d="M1753.46,-61.37C1722.84,-52.11 1680.26,-39.24 1648,-29.48"/>
<polygon fill="#63b8ff" stroke="#63b8ff" points="1752.12,-64.62 1762.71,-64.17 1754.15,-57.92 1752.12,-64.62"/>
</a>
</g>
</g>
<!-- Node26&#45;&gt;Node16 -->
<g id="edge39_Node000026_Node000016" class="edge">
<title>Node26&#45;&gt;Node16</title>
<g id="a_edge39_Node000026_Node000016"><a xlink:title=" ">
<path fill="none" stroke="#63b8ff" d="M1775.99,-56.84C1767.15,-48.19 1756.42,-37.69 1747.99,-29.43"/>
<polygon fill="#63b8ff" stroke="#63b8ff" points="1773.37,-59.18 1782.96,-63.67 1778.26,-54.17 1773.37,-59.18"/>
</a>
</g>
</g>
<!-- Node26&#45;&gt;Node17 -->
<g id="edge40_Node000026_Node000017" class="edge">
<title>Node26&#45;&gt;Node17</title>
<g id="a_edge40_Node000026_Node000017"><a xlink:title=" ">
<path fill="none" stroke="#63b8ff" d="M1812.47,-57.65C1823.59,-48.85 1837.38,-37.95 1848.14,-29.43"/>
<polygon fill="#63b8ff" stroke="#63b8ff" points="1810.38,-54.84 1804.71,-63.79 1814.72,-60.33 1810.38,-54.84"/>
</a>
</g>
</g>
<!-- Node26&#45;&gt;Node18 -->
<g id="edge41_Node000026_Node000018" class="edge">
<title>Node26&#45;&gt;Node18</title>
<g id="a_edge41_Node000026_Node000018"><a xlink:title=" ">
<path fill="none" stroke="#63b8ff" d="M1834.49,-61.49C1867.38,-52.23 1913.34,-39.28 1948.11,-29.48"/>
<polygon fill="#63b8ff" stroke="#63b8ff" points="1833.57,-58.11 1824.9,-64.19 1835.47,-64.85 1833.57,-58.11"/>
</a>
</g>
</g>
<!-- Node26&#45;&gt;Node19 -->
<g id="edge42_Node000026_Node000019" class="edge">
<title>Node26&#45;&gt;Node19</title>
<g id="a_edge42_Node000026_Node000019"><a xlink:title=" ">
<path fill="none" stroke="#63b8ff" d="M1854.86,-63.83C1909.87,-55.32 1992.29,-42.14 2063.75,-29 2066.63,-28.47 2069.57,-27.92 2072.54,-27.35"/>
<polygon fill="#63b8ff" stroke="#63b8ff" points="1854.4,-60.36 1845.05,-65.34 1855.46,-67.28 1854.4,-60.36"/>
</a>
</g>
</g>
<!-- Node26&#45;&gt;Node20 -->
<g id="edge43_Node000026_Node000020" class="edge">
<title>Node26&#45;&gt;Node20</title>
<g id="a_edge43_Node000026_Node000020"><a xlink:title=" ">
<path fill="none" stroke="#63b8ff" d="M1854.77,-68.23C1934.11,-61.4 2075.62,-47.84 2195.75,-29 2198.64,-28.55 2201.59,-28.05 2204.57,-27.53"/>
<polygon fill="#63b8ff" stroke="#63b8ff" points="1854.7,-64.73 1845.03,-69.06 1855.3,-71.7 1854.7,-64.73"/>
</a>
</g>
</g>
<!-- Node26&#45;&gt;Node21 -->
<g id="edge44_Node000026_Node000021" class="edge">
<title>Node26&#45;&gt;Node21</title>
<g id="a_edge44_Node000026_Node000021"><a xlink:title=" ">
<path fill="none" stroke="#63b8ff" d="M1854.83,-70.09C1954.76,-64.57 2157.33,-51.54 2327.75,-29 2337.59,-27.7 2348.11,-25.98 2358.04,-24.21"/>
<polygon fill="#63b8ff" stroke="#63b8ff" points="1854.76,-66.59 1844.96,-70.63 1855.14,-73.58 1854.76,-66.59"/>
</a>
</g>
</g>
<!-- Node26&#45;&gt;Node22 -->
<g id="edge45_Node000026_Node000022" class="edge">
<title>Node26&#45;&gt;Node22</title>
<g id="a_edge45_Node000026_Node000022"><a xlink:title=" ">
<path fill="none" stroke="#63b8ff" d="M1854.68,-72.02C1974.9,-69.01 2248.09,-59.17 2475.75,-29 2478.57,-28.63 2481.46,-28.2 2484.36,-27.74"/>
<polygon fill="#63b8ff" stroke="#63b8ff" points="1854.96,-68.51 1845.04,-72.25 1855.13,-75.51 1854.96,-68.51"/>
</a>
</g>
</g>
<!-- Node26&#45;&gt;Node23 -->
<g id="edge46_Node000026_Node000023" class="edge">
<title>Node26&#45;&gt;Node23</title>
<g id="a_edge46_Node000026_Node000023"><a xlink:title=" ">
<path fill="none" stroke="#63b8ff" d="M1855.08,-72.61C1992.06,-70.59 2329.47,-62.37 2609.75,-29 2619.86,-27.8 2630.68,-26.05 2640.81,-24.21"/>
<polygon fill="#63b8ff" stroke="#63b8ff" points="1855.08,-69.11 1845.13,-72.75 1855.18,-76.11 1855.08,-69.11"/>
</a>
</g>
</g>
<!-- Node26&#45;&gt;Node24 -->
<g id="edge47_Node000026_Node000024" class="edge">
<title>Node26&#45;&gt;Node24</title>
<g id="a_edge47_Node000026_Node000024"><a xlink:title=" ">
<path fill="none" stroke="#63b8ff" d="M1855.07,-73.39C2008.67,-73.08 2417.52,-68.29 2755.75,-29 2765.86,-27.83 2776.68,-26.07 2786.78,-24.2"/>
<polygon fill="#63b8ff" stroke="#63b8ff" points="1855.1,-69.89 1845.1,-73.4 1855.11,-76.89 1855.1,-69.89"/>
</a>
</g>
</g>
<!-- Node26&#45;&gt;Node25 -->
<g id="edge48_Node000026_Node000025" class="edge">
<title>Node26&#45;&gt;Node25</title>
<g id="a_edge48_Node000026_Node000025"><a xlink:title=" ">
<path fill="none" stroke="#63b8ff" d="M1854.8,-73.58C2023.4,-73.87 2503.93,-70.65 2900.75,-29 2911.82,-27.84 2923.69,-26.08 2934.77,-24.22"/>
<polygon fill="#63b8ff" stroke="#63b8ff" points="1854.96,-70.08 1844.96,-73.56 1854.95,-77.08 1854.96,-70.08"/>
</a>
</g>
</g>
<!-- Node27&#45;&gt;Node2 -->
<g id="edge52_Node000027_Node000002" class="edge">
<title>Node27&#45;&gt;Node2</title>
<g id="a_edge52_Node000027_Node000002"><a xlink:title=" ">
<path fill="none" stroke="#63b8ff" d="M1603.19,-279.17C1581.67,-272.19 1556.93,-261.79 1537.75,-247 1484.96,-206.29 1416.61,-171.15 1458.75,-119.5 1481.13,-92.07 1583.97,-81.17 1639.29,-77.24"/>
<polygon fill="#63b8ff" stroke="#63b8ff" points="1602.07,-282.49 1612.66,-282.07 1604.12,-275.8 1602.07,-282.49"/>
</a>
</g>
</g>
<!-- Node28 -->
<g id="Node000028" class="node">
<title>Node28</title>
<g id="a_Node000028"><a xlink:href="context_8h.html" target="_top" xlink:title="internal context structures and functions">
<polygon fill="white" stroke="#666666" points="1597.88,-192.5 1525.62,-192.5 1525.62,-174 1597.88,-174 1597.88,-192.5"/>
<text text-anchor="middle" x="1561.75" y="-179" font-family="Helvetica,sans-Serif" font-size="10.00">src/context.h</text>
</a>
</g>
</g>
<!-- Node27&#45;&gt;Node28 -->
<g id="edge50_Node000027_Node000028" class="edge">
<title>Node27&#45;&gt;Node28</title>
<g id="a_edge50_Node000027_Node000028"><a xlink:title=" ">
<path fill="none" stroke="#63b8ff" d="M1618.05,-277.66C1604.05,-270.45 1588.76,-260.3 1578.75,-247 1566.4,-230.59 1563.02,-205.8 1562.09,-192.83"/>
<polygon fill="#63b8ff" stroke="#63b8ff" points="1616.5,-280.79 1627.03,-281.94 1619.51,-274.48 1616.5,-280.79"/>
</a>
</g>
</g>
<!-- Node29 -->
<g id="Node000029" class="node">
<title>Node29</title>
<g id="a_Node000029"><a xlink:href="parser__data_8h.html" target="_top" xlink:title="Data parsers for libyang.">
<polygon fill="white" stroke="#666666" points="1680,-247 1587.5,-247 1587.5,-228.5 1680,-228.5 1680,-247"/>
<text text-anchor="middle" x="1633.75" y="-233.5" font-family="Helvetica,sans-Serif" font-size="10.00">src/parser_data.h</text>
</a>
</g>
</g>
<!-- Node27&#45;&gt;Node29 -->
<g id="edge53_Node000027_Node000029" class="edge">
<title>Node27&#45;&gt;Node29</title>
<g id="a_edge53_Node000027_Node000029"><a xlink:title=" ">
<path fill="none" stroke="#63b8ff" d="M1645.05,-271.72C1642.16,-263.29 1638.93,-253.86 1636.67,-247.26"/>
<polygon fill="#63b8ff" stroke="#63b8ff" points="1641.73,-272.82 1648.29,-281.15 1648.35,-270.55 1641.73,-272.82"/>
</a>
</g>
</g>
<!-- Node30 -->
<g id="Node000030" class="node">
<title>Node30</title>
<g id="a_Node000030"><a xlink:href="plugins__exts_8h.html" target="_top" xlink:title="libyang support for YANG extensions implementation.">
<polygon fill="white" stroke="#666666" points="1749.5,-192.5 1654,-192.5 1654,-174 1749.5,-174 1749.5,-192.5"/>
<text text-anchor="middle" x="1701.75" y="-179" font-family="Helvetica,sans-Serif" font-size="10.00">src/plugins_exts.h</text>
</a>
</g>
</g>
<!-- Node27&#45;&gt;Node30 -->
<g id="edge58_Node000027_Node000030" class="edge">
<title>Node27&#45;&gt;Node30</title>
<g id="a_edge58_Node000027_Node000030"><a xlink:title=" ">
<path fill="none" stroke="#63b8ff" d="M1669.04,-274.61C1676.16,-266.85 1683.86,-257.11 1688.75,-247 1697.47,-228.97 1700.35,-205.27 1701.3,-192.79"/>
<polygon fill="#63b8ff" stroke="#63b8ff" points="1666.68,-272.01 1662.22,-281.62 1671.7,-276.9 1666.68,-272.01"/>
</a>
</g>
</g>
<!-- Node31 -->
<g id="Node000031" class="node">
<title>Node31</title>
<g id="a_Node000031"><a xlink:href="metadata_8h.html" target="_top" xlink:title="ietf&#45;yang&#45;metadata API">
<polygon fill="white" stroke="#666666" points="1793.25,-138 1654.25,-138 1654.25,-119.5 1793.25,-119.5 1793.25,-138"/>
<text text-anchor="middle" x="1723.75" y="-124.5" font-family="Helvetica,sans-Serif" font-size="10.00">src/plugins_exts/metadata.h</text>
</a>
</g>
</g>
<!-- Node27&#45;&gt;Node31 -->
<g id="edge59_Node000027_Node000031" class="edge">
<title>Node27&#45;&gt;Node31</title>
<g id="a_edge59_Node000027_Node000031"><a xlink:title=" ">
<path fill="none" stroke="#63b8ff" d="M1677.56,-276.83C1703.95,-260.39 1743.22,-230.75 1758.75,-192.5 1767.01,-172.16 1747.37,-150.13 1734.29,-138.34"/>
<polygon fill="#63b8ff" stroke="#63b8ff" points="1675.89,-273.75 1669.11,-281.9 1679.49,-279.76 1675.89,-273.75"/>
</a>
</g>
</g>
<!-- Node32 -->
<g id="Node000032" class="node">
<title>Node32</title>
<g id="a_Node000032"><a xlink:href="printer__data_8h.html" target="_top" xlink:title="Data printers for libyang.">
<polygon fill="white" stroke="#666666" points="1559.62,-138 1467.88,-138 1467.88,-119.5 1559.62,-119.5 1559.62,-138"/>
<text text-anchor="middle" x="1513.75" y="-124.5" font-family="Helvetica,sans-Serif" font-size="10.00">src/printer_data.h</text>
</a>
</g>
</g>
<!-- Node27&#45;&gt;Node32 -->
<g id="edge60_Node000027_Node000032" class="edge">
<title>Node27&#45;&gt;Node32</title>
<g id="a_edge60_Node000027_Node000032"><a xlink:title=" ">
<path fill="none" stroke="#63b8ff" d="M1616.59,-278.18C1582.83,-263.36 1534.43,-235.52 1516.75,-192.5 1509.29,-174.34 1510.83,-150.7 1512.41,-138.26"/>
<polygon fill="#63b8ff" stroke="#63b8ff" points="1615.01,-281.31 1625.59,-281.95 1617.72,-274.86 1615.01,-281.31"/>
</a>
</g>
</g>
<!-- Node28&#45;&gt;Node2 -->
<g id="edge51_Node000028_Node000002" class="edge">
<title>Node28&#45;&gt;Node2</title>
<g id="a_edge51_Node000028_Node000002"><a xlink:title=" ">
<path fill="none" stroke="#63b8ff" d="M1573.78,-164.51C1583.23,-151.29 1597.18,-133.21 1611.75,-119.5 1626.84,-105.3 1646.75,-92.07 1660.11,-83.85"/>
<polygon fill="#63b8ff" stroke="#63b8ff" points="1570.94,-162.46 1568.11,-172.66 1576.69,-166.46 1570.94,-162.46"/>
</a>
</g>
</g>
<!-- Node29&#45;&gt;Node2 -->
<g id="edge54_Node000029_Node000002" class="edge">
<title>Node29&#45;&gt;Node2</title>
<g id="a_edge54_Node000029_Node000002"><a xlink:title=" ">
<path fill="none" stroke="#63b8ff" d="M1632.66,-216.85C1632.01,-192.99 1633.03,-152.13 1644.75,-119.5 1649.64,-105.87 1659.71,-92.42 1666.83,-83.99"/>
<polygon fill="#63b8ff" stroke="#63b8ff" points="1629.16,-216.84 1633.07,-226.68 1636.15,-216.55 1629.16,-216.84"/>
</a>
</g>
</g>
<!-- Node29&#45;&gt;Node30 -->
<g id="edge55_Node000029_Node000030" class="edge">
<title>Node29&#45;&gt;Node30</title>
<g id="a_edge55_Node000029_Node000030"><a xlink:title=" ">
<path fill="none" stroke="#63b8ff" d="M1653.9,-221.2C1665.95,-211.89 1680.8,-200.43 1690.73,-192.76"/>
<polygon fill="#63b8ff" stroke="#63b8ff" points="1651.95,-218.27 1646.18,-227.16 1656.23,-223.81 1651.95,-218.27"/>
</a>
</g>
</g>
<!-- Node30&#45;&gt;Node31 -->
<g id="edge56_Node000030_Node000031" class="edge">
<title>Node30&#45;&gt;Node31</title>
<g id="a_edge56_Node000030_Node000031"><a xlink:title=" ">
<path fill="none" stroke="#63b8ff" d="M1709.81,-163.01C1713.38,-154.5 1717.38,-144.94 1720.18,-138.26"/>
<polygon fill="#63b8ff" stroke="#63b8ff" points="1706.6,-161.61 1705.97,-172.18 1713.06,-164.31 1706.6,-161.61"/>
</a>
</g>
</g>
<!-- Node31&#45;&gt;Node2 -->
<g id="edge57_Node000031_Node000002" class="edge">
<title>Node31&#45;&gt;Node2</title>
<g id="a_edge57_Node000031_Node000002"><a xlink:title=" ">
<path fill="none" stroke="#63b8ff" d="M1707.93,-110.8C1699.5,-101.77 1689.49,-91.05 1682.69,-83.76"/>
<polygon fill="#63b8ff" stroke="#63b8ff" points="1705.24,-113.05 1714.63,-117.97 1710.36,-108.28 1705.24,-113.05"/>
</a>
</g>
</g>
<!-- Node32&#45;&gt;Node2 -->
<g id="edge61_Node000032_Node000002" class="edge">
<title>Node32&#45;&gt;Node2</title>
<g id="a_edge61_Node000032_Node000002"><a xlink:title=" ">
<path fill="none" stroke="#63b8ff" d="M1551.12,-115.56C1580.83,-105.88 1621.66,-92.56 1648.12,-83.93"/>
<polygon fill="#63b8ff" stroke="#63b8ff" points="1550.2,-112.18 1541.77,-118.61 1552.37,-118.84 1550.2,-112.18"/>
</a>
</g>
</g>
<!-- Node33&#45;&gt;Node2 -->
<g id="edge63_Node000033_Node000002" class="edge">
<title>Node33&#45;&gt;Node2</title>
<g id="a_edge63_Node000033_Node000002"><a xlink:title=" ">
<path fill="none" stroke="#63b8ff" d="M1793.95,-327.31C1805.47,-306.55 1821.75,-271.45 1821.75,-238.75 1821.75,-238.75 1821.75,-238.75 1821.75,-182.25 1821.75,-153.11 1822.95,-140.5 1802.75,-119.5 1778.46,-94.25 1739.09,-83.4 1710.41,-78.75"/>
<polygon fill="#63b8ff" stroke="#63b8ff" points="1790.93,-325.54 1788.93,-335.95 1796.98,-329.06 1790.93,-325.54"/>
</a>
</g>
</g>
<!-- Node33&#45;&gt;Node27 -->
<g id="edge65_Node000033_Node000027" class="edge">
<title>Node33&#45;&gt;Node27</title>
<g id="a_edge65_Node000033_Node000027"><a xlink:title=" ">
<path fill="none" stroke="#63b8ff" d="M1750.73,-332.92C1726.71,-323.29 1694.47,-310.37 1673.41,-301.93"/>
<polygon fill="#63b8ff" stroke="#63b8ff" points="1749.13,-336.05 1759.71,-336.52 1751.73,-329.55 1749.13,-336.05"/>
</a>
</g>
</g>
<!-- Node33&#45;&gt;Node30 -->
<g id="edge64_Node000033_Node000030" class="edge">
<title>Node33&#45;&gt;Node30</title>
<g id="a_edge64_Node000033_Node000030"><a xlink:title=" ">
<path fill="none" stroke="#63b8ff" d="M1773.24,-326.79C1755.68,-291.78 1718.79,-218.22 1706.13,-192.98"/>
<polygon fill="#63b8ff" stroke="#63b8ff" points="1770.1,-328.34 1777.72,-335.71 1776.36,-325.21 1770.1,-328.34"/>
</a>
</g>
</g>
</g>
</svg>
