<?xml version="1.0" encoding="UTF-8" standalone="no"?>
<!DOCTYPE svg PUBLIC "-//W3C//DTD SVG 1.1//EN"
 "http://www.w3.org/Graphics/SVG/1.1/DTD/svg11.dtd">
<!-- Generated by graphviz version 12.1.0 (20240811.2233)
 -->
<!-- Title: src/tree_schema.h Pages: 1 -->
<svg width="319pt" height="136pt"
 viewBox="0.00 0.00 318.50 135.50" xmlns="http://www.w3.org/2000/svg" xmlns:xlink="http://www.w3.org/1999/xlink">
<g id="graph0" class="graph" transform="scale(1 1) rotate(0) translate(4 131.5)">
<title>src/tree_schema.h</title>
<!-- Node1 -->
<g id="Node000001" class="node">
<title>Node1</title>
<g id="a_Node000001"><a xlink:title="libyang representation of YANG schema trees.">
<polygon fill="#999999" stroke="#666666" points="204.62,-127.5 107.62,-127.5 107.62,-109 204.62,-109 204.62,-127.5"/>
<text text-anchor="middle" x="156.12" y="-114" font-family="Helvetica,sans-Serif" font-size="10.00">src/tree_schema.h</text>
</a>
</g>
</g>
<!-- Node2 -->
<g id="Node000002" class="node">
<title>Node2</title>
<g id="a_Node000002"><a xlink:title=" ">
<polygon fill="#e0e0e0" stroke="#999999" points="48.25,-73 0,-73 0,-54.5 48.25,-54.5 48.25,-73"/>
<text text-anchor="middle" x="24.12" y="-59.5" font-family="Helvetica,sans-Serif" font-size="10.00">pcre2.h</text>
</a>
</g>
</g>
<!-- Node1&#45;&gt;Node2 -->
<g id="edge1_Node000001_Node000002" class="edge">
<title>Node1&#45;&gt;Node2</title>
<g id="a_edge1_Node000001_Node000002"><a xlink:title=" ">
<path fill="none" stroke="#63b8ff" d="M134.33,-108.58C113.12,-100.15 80.64,-87.23 56.43,-77.6"/>
<polygon fill="#63b8ff" stroke="#63b8ff" points="57.95,-74.44 47.36,-73.99 55.36,-80.94 57.95,-74.44"/>
</a>
</g>
</g>
<!-- Node3 -->
<g id="Node000003" class="node">
<title>Node3</title>
<g id="a_Node000003"><a xlink:title=" ">
<polygon fill="#e0e0e0" stroke="#999999" points="132.88,-18.5 85.38,-18.5 85.38,0 132.88,0 132.88,-18.5"/>
<text text-anchor="middle" x="109.12" y="-5" font-family="Helvetica,sans-Serif" font-size="10.00">stdint.h</text>
</a>
</g>
</g>
<!-- Node1&#45;&gt;Node3 -->
<g id="edge2_Node000001_Node000003" class="edge">
<title>Node1&#45;&gt;Node3</title>
<g id="a_edge2_Node000001_Node000003"><a xlink:title=" ">
<path fill="none" stroke="#63b8ff" d="M135.63,-108.59C121.41,-101.35 103.57,-89.55 95.12,-73 88.07,-59.16 92.82,-41.81 98.64,-28.87"/>
<polygon fill="#63b8ff" stroke="#63b8ff" points="101.64,-30.67 103.06,-20.17 95.4,-27.5 101.64,-30.67"/>
</a>
</g>
</g>
<!-- Node4 -->
<g id="Node000004" class="node">
<title>Node4</title>
<g id="a_Node000004"><a xlink:title=" ">
<polygon fill="#e0e0e0" stroke="#999999" points="149.75,-73 104.5,-73 104.5,-54.5 149.75,-54.5 149.75,-73"/>
<text text-anchor="middle" x="127.12" y="-59.5" font-family="Helvetica,sans-Serif" font-size="10.00">stdio.h</text>
</a>
</g>
</g>
<!-- Node1&#45;&gt;Node4 -->
<g id="edge3_Node000001_Node000004" class="edge">
<title>Node1&#45;&gt;Node4</title>
<g id="a_edge3_Node000001_Node000004"><a xlink:title=" ">
<path fill="none" stroke="#63b8ff" d="M151.34,-108.58C147.54,-101.7 142.09,-91.84 137.32,-83.21"/>
<polygon fill="#63b8ff" stroke="#63b8ff" points="140.46,-81.64 132.56,-74.58 134.33,-85.03 140.46,-81.64"/>
</a>
</g>
</g>
<!-- Node5 -->
<g id="Node000005" class="node">
<title>Node5</title>
<g id="a_Node000005"><a xlink:title=" ">
<polygon fill="#e0e0e0" stroke="#999999" points="222.38,-18.5 171.88,-18.5 171.88,0 222.38,0 222.38,-18.5"/>
<text text-anchor="middle" x="197.12" y="-5" font-family="Helvetica,sans-Serif" font-size="10.00">config.h</text>
</a>
</g>
</g>
<!-- Node1&#45;&gt;Node5 -->
<g id="edge4_Node000001_Node000005" class="edge">
<title>Node1&#45;&gt;Node5</title>
<g id="a_edge4_Node000001_Node000005"><a xlink:title=" ">
<path fill="none" stroke="#63b8ff" d="M175.07,-108.64C188.7,-101.3 206.04,-89.35 214.12,-73 221.09,-58.92 215.46,-41.59 208.86,-28.72"/>
<polygon fill="#63b8ff" stroke="#63b8ff" points="211.89,-26.97 203.87,-20.05 205.83,-30.47 211.89,-26.97"/>
</a>
</g>
</g>
<!-- Node6 -->
<g id="Node000006" class="node">
<title>Node6</title>
<g id="a_Node000006"><a xlink:href="log_8h.html" target="_top" xlink:title="Logger manipulation routines and error definitions.">
<polygon fill="white" stroke="#666666" points="204.62,-73 167.62,-73 167.62,-54.5 204.62,-54.5 204.62,-73"/>
<text text-anchor="middle" x="186.12" y="-59.5" font-family="Helvetica,sans-Serif" font-size="10.00">log.h</text>
</a>
</g>
</g>
<!-- Node1&#45;&gt;Node6 -->
<g id="edge5_Node000001_Node000006" class="edge">
<title>Node1&#45;&gt;Node6</title>
<g id="a_edge5_Node000001_Node000006"><a xlink:title=" ">
<path fill="none" stroke="#63b8ff" d="M161.08,-108.58C165.01,-101.7 170.65,-91.84 175.58,-83.21"/>
<polygon fill="#63b8ff" stroke="#63b8ff" points="178.59,-84.99 180.51,-74.57 172.51,-81.52 178.59,-84.99"/>
</a>
</g>
</g>
<!-- Node7 -->
<g id="Node000007" class="node">
<title>Node7</title>
<g id="a_Node000007"><a xlink:href="tree_8h.html" target="_top" xlink:title="libyang generic macros and functions to work with YANG schema or data trees.">
<polygon fill="white" stroke="#666666" points="301.5,-73 260.75,-73 260.75,-54.5 301.5,-54.5 301.5,-73"/>
<text text-anchor="middle" x="281.12" y="-59.5" font-family="Helvetica,sans-Serif" font-size="10.00">tree.h</text>
</a>
</g>
</g>
<!-- Node1&#45;&gt;Node7 -->
<g id="edge8_Node000001_Node000007" class="edge">
<title>Node1&#45;&gt;Node7</title>
<g id="a_edge8_Node000001_Node000007"><a xlink:title=" ">
<path fill="none" stroke="#63b8ff" d="M176.77,-108.58C196.67,-100.22 227.06,-87.46 249.91,-77.86"/>
<polygon fill="#63b8ff" stroke="#63b8ff" points="251.19,-81.12 259.06,-74.02 248.48,-74.66 251.19,-81.12"/>
</a>
</g>
</g>
<!-- Node6&#45;&gt;Node3 -->
<g id="edge6_Node000006_Node000003" class="edge">
<title>Node6&#45;&gt;Node3</title>
<g id="a_edge6_Node000006_Node000003"><a xlink:title=" ">
<path fill="none" stroke="#63b8ff" d="M173.41,-54.08C161.93,-46.25 144.79,-34.57 131.09,-25.23"/>
<polygon fill="#63b8ff" stroke="#63b8ff" points="133.34,-22.53 123.11,-19.78 129.4,-28.31 133.34,-22.53"/>
</a>
</g>
</g>
<!-- Node6&#45;&gt;Node5 -->
<g id="edge7_Node000006_Node000005" class="edge">
<title>Node6&#45;&gt;Node5</title>
<g id="a_edge7_Node000006_Node000005"><a xlink:title=" ">
<path fill="none" stroke="#63b8ff" d="M187.94,-54.08C189.32,-47.51 191.27,-38.21 193.01,-29.87"/>
<polygon fill="#63b8ff" stroke="#63b8ff" points="196.41,-30.74 195.03,-20.24 189.56,-29.31 196.41,-30.74"/>
</a>
</g>
</g>
<!-- Node8 -->
<g id="Node000008" class="node">
<title>Node8</title>
<g id="a_Node000008"><a xlink:title=" ">
<polygon fill="#e0e0e0" stroke="#999999" points="310.5,-18.5 251.75,-18.5 251.75,0 310.5,0 310.5,-18.5"/>
<text text-anchor="middle" x="281.12" y="-5" font-family="Helvetica,sans-Serif" font-size="10.00">inttypes.h</text>
</a>
</g>
</g>
<!-- Node7&#45;&gt;Node8 -->
<g id="edge9_Node000007_Node000008" class="edge">
<title>Node7&#45;&gt;Node8</title>
<g id="a_edge9_Node000007_Node000008"><a xlink:title=" ">
<path fill="none" stroke="#63b8ff" d="M281.12,-54.08C281.12,-47.58 281.12,-38.42 281.12,-30.16"/>
<polygon fill="#63b8ff" stroke="#63b8ff" points="284.63,-30.27 281.13,-20.27 277.63,-30.27 284.63,-30.27"/>
</a>
</g>
</g>
</g>
</svg>
