<?xml version="1.0" encoding="UTF-8" standalone="no"?>
<!DOCTYPE svg PUBLIC "-//W3C//DTD SVG 1.1//EN"
 "http://www.w3.org/Graphics/SVG/1.1/DTD/svg11.dtd">
<!-- Generated by graphviz version 12.1.0 (20240811.2233)
 -->
<!-- Title: src/tree_data.h Pages: 1 -->
<!--zoomable 190 -->

<svg id="main" version="1.1" xmlns="http://www.w3.org/2000/svg" xmlns:xlink="http://www.w3.org/1999/xlink" xml:space="preserve" onload="init(evt)">

<style type="text/css"><![CDATA[
.node, .edge {opacity: 0.7;}
.node.selected, .edge.selected {opacity: 1;}
.edge:hover path { stroke: red; }
.edge:hover polygon { stroke: red; fill: red; }
]]></style>

<defs>
  <circle id="rim" cx="0" cy="0" r="7"/>
  <circle id="rim2" cx="0" cy="0" r="3.5"/>
  <g id="zoomPlus">
    <use xlink:href="#rim" fill="#404040"><set attributeName="fill" to="#808080" begin="zoomplus.mouseover" end="zoomplus.mouseout"/></use>
    <path d="M-4,0h8M0,-4v8" fill="none" stroke="white" stroke-width="1.5" pointer-events="none"/>
  </g>
  <g id="zoomMin">
    <use xlink:href="#rim" fill="#404040"><set attributeName="fill" to="#808080" begin="zoomminus.mouseover" end="zoomminus.mouseout"/></use>
    <path d="M-4,0h8" fill="none" stroke="white" stroke-width="1.5" pointer-events="none"/>
  </g>
  <g id="arrowUp" transform="translate(30 24)">
    <use xlink:href="#rim"/>
    <path pointer-events="none" fill="none" stroke="white" stroke-width="1.5" d="M0,-3.0v7 M-2.5,-0.5L0,-3.0L2.5,-0.5"/>
  </g>
  <g id="arrowRight" transform="rotate(90) translate(36 -43)">
    <use xlink:href="#rim"/>
    <path pointer-events="none" fill="none" stroke="white" stroke-width="1.5" d="M0,-3.0v7 M-2.5,-0.5L0,-3.0L2.5,-0.5"/>
  </g>
  <g id="arrowDown" transform="rotate(180) translate(-30 -48)">
    <use xlink:href="#rim"/>
    <path pointer-events="none" fill="none" stroke="white" stroke-width="1.5" d="M0,-3.0v7 M-2.5,-0.5L0,-3.0L2.5,-0.5"/>
  </g>
  <g id="arrowLeft" transform="rotate(270) translate(-36 17)">
    <use xlink:href="#rim"/>
    <path pointer-events="none" fill="none" stroke="white" stroke-width="1.5" d="M0,-3.0v7 M-2.5,-0.5L0,-3.0L2.5,-0.5"/>
  </g>
  <g id="resetDef">
    <use xlink:href="#rim2" fill="#404040"><set attributeName="fill" to="#808080" begin="reset.mouseover" end="reset.mouseout"/></use>
  </g>
</defs>
<script type="application/ecmascript">
var viewWidth = 543;
var viewHeight = 190;
var sectionId = 'dynsection-0';
</script>
<script type="application/ecmascript" xlink:href="svg.min.js"/>
<svg id="graph" class="graph">
<g id="viewport">
<title>src/tree_data.h</title>
<!-- Node1 -->
<g id="Node000001" class="node">
<title>Node1</title>
<g id="a_Node000001"><a xlink:title="libyang representation of YANG data trees.">
<polygon fill="#999999" stroke="#666666" points="271.5,-182 190.25,-182 190.25,-163.5 271.5,-163.5 271.5,-182"/>
<text text-anchor="middle" x="230.88" y="-168.5" font-family="Helvetica,sans-Serif" font-size="10.00">src/tree_data.h</text>
</a>
</g>
</g>
<!-- Node2 -->
<g id="Node000002" class="node">
<title>Node2</title>
<g id="a_Node000002"><a xlink:title=" ">
<polygon fill="#e0e0e0" stroke="#999999" points="61.75,-127.5 0,-127.5 0,-109 61.75,-109 61.75,-127.5"/>
<text text-anchor="middle" x="30.88" y="-114" font-family="Helvetica,sans-Serif" font-size="10.00">arpa/inet.h</text>
</a>
</g>
</g>
<!-- Node1&#45;&gt;Node2 -->
<g id="edge1_Node000001_Node000002" class="edge">
<title>Node1&#45;&gt;Node2</title>
<g id="a_edge1_Node000001_Node000002"><a xlink:title=" ">
<path fill="none" stroke="#63b8ff" d="M197.85,-163.08C163.66,-154.11 110.15,-140.06 72.95,-130.3"/>
<polygon fill="#63b8ff" stroke="#63b8ff" points="74,-126.95 63.44,-127.8 72.22,-133.72 74,-126.95"/>
</a>
</g>
</g>
<!-- Node3 -->
<g id="Node000003" class="node">
<title>Node3</title>
<g id="a_Node000003"><a xlink:title=" ">
<polygon fill="#e0e0e0" stroke="#999999" points="130.12,-127.5 79.62,-127.5 79.62,-109 130.12,-109 130.12,-127.5"/>
<text text-anchor="middle" x="104.88" y="-114" font-family="Helvetica,sans-Serif" font-size="10.00">stddef.h</text>
</a>
</g>
</g>
<!-- Node1&#45;&gt;Node3 -->
<g id="edge2_Node000001_Node000003" class="edge">
<title>Node1&#45;&gt;Node3</title>
<g id="a_edge2_Node000001_Node000003"><a xlink:title=" ">
<path fill="none" stroke="#63b8ff" d="M210.07,-163.08C190.01,-154.72 159.38,-141.96 136.34,-132.36"/>
<polygon fill="#63b8ff" stroke="#63b8ff" points="137.69,-129.13 127.11,-128.51 134.99,-135.59 137.69,-129.13"/>
</a>
</g>
</g>
<!-- Node4 -->
<g id="Node000004" class="node">
<title>Node4</title>
<g id="a_Node000004"><a xlink:title=" ">
<polygon fill="#e0e0e0" stroke="#999999" points="285.62,-18.5 238.12,-18.5 238.12,0 285.62,0 285.62,-18.5"/>
<text text-anchor="middle" x="261.88" y="-5" font-family="Helvetica,sans-Serif" font-size="10.00">stdint.h</text>
</a>
</g>
</g>
<!-- Node1&#45;&gt;Node4 -->
<g id="edge3_Node000001_Node000004" class="edge">
<title>Node1&#45;&gt;Node4</title>
<g id="a_edge3_Node000001_Node000004"><a xlink:title=" ">
<path fill="none" stroke="#63b8ff" d="M232.54,-163.07C237.34,-138.09 251.25,-65.6 258.05,-30.19"/>
<polygon fill="#63b8ff" stroke="#63b8ff" points="261.47,-30.94 259.91,-20.46 254.59,-29.62 261.47,-30.94"/>
</a>
</g>
</g>
<!-- Node5 -->
<g id="Node000005" class="node">
<title>Node5</title>
<g id="a_Node000005"><a xlink:title=" ">
<polygon fill="#e0e0e0" stroke="#999999" points="463.38,-127.5 420.38,-127.5 420.38,-109 463.38,-109 463.38,-127.5"/>
<text text-anchor="middle" x="441.88" y="-114" font-family="Helvetica,sans-Serif" font-size="10.00">time.h</text>
</a>
</g>
</g>
<!-- Node1&#45;&gt;Node5 -->
<g id="edge4_Node000001_Node000005" class="edge">
<title>Node1&#45;&gt;Node5</title>
<g id="a_edge4_Node000001_Node000005"><a xlink:title=" ">
<path fill="none" stroke="#63b8ff" d="M265.72,-163.08C305.56,-153.17 370.29,-137.06 409.2,-127.38"/>
<polygon fill="#63b8ff" stroke="#63b8ff" points="409.59,-130.89 418.45,-125.08 407.9,-124.1 409.59,-130.89"/>
</a>
</g>
</g>
<!-- Node6 -->
<g id="Node000006" class="node">
<title>Node6</title>
<g id="a_Node000006"><a xlink:title=" ">
<polygon fill="#e0e0e0" stroke="#999999" points="220.12,-18.5 169.62,-18.5 169.62,0 220.12,0 220.12,-18.5"/>
<text text-anchor="middle" x="194.88" y="-5" font-family="Helvetica,sans-Serif" font-size="10.00">config.h</text>
</a>
</g>
</g>
<!-- Node1&#45;&gt;Node6 -->
<g id="edge5_Node000001_Node000006" class="edge">
<title>Node1&#45;&gt;Node6</title>
<g id="a_edge5_Node000001_Node000006"><a xlink:title=" ">
<path fill="none" stroke="#63b8ff" d="M224.3,-163.11C212.24,-146.66 186.98,-109.23 177.88,-73 174.12,-58.08 179.19,-41.26 184.74,-28.8"/>
<polygon fill="#63b8ff" stroke="#63b8ff" points="187.74,-30.62 189.06,-20.1 181.48,-27.5 187.74,-30.62"/>
</a>
</g>
</g>
<!-- Node7 -->
<g id="Node000007" class="node">
<title>Node7</title>
<g id="a_Node000007"><a xlink:href="log_8h.html" target="_top" xlink:title="Logger manipulation routines and error definitions.">
<polygon fill="white" stroke="#666666" points="223.38,-73 186.38,-73 186.38,-54.5 223.38,-54.5 223.38,-73"/>
<text text-anchor="middle" x="204.88" y="-59.5" font-family="Helvetica,sans-Serif" font-size="10.00">log.h</text>
</a>
</g>
</g>
<!-- Node1&#45;&gt;Node7 -->
<g id="edge6_Node000001_Node000007" class="edge">
<title>Node1&#45;&gt;Node7</title>
<g id="a_edge6_Node000001_Node000007"><a xlink:title=" ">
<path fill="none" stroke="#63b8ff" d="M228.83,-163.35C224.74,-146.48 215.4,-108.07 209.67,-84.48"/>
<polygon fill="#63b8ff" stroke="#63b8ff" points="213.1,-83.77 207.34,-74.88 206.3,-85.42 213.1,-83.77"/>
</a>
</g>
</g>
<!-- Node8 -->
<g id="Node000008" class="node">
<title>Node8</title>
<g id="a_Node000008"><a xlink:href="tree_8h.html" target="_top" xlink:title="libyang generic macros and functions to work with YANG schema or data trees.">
<polygon fill="white" stroke="#666666" points="526.25,-73 485.5,-73 485.5,-54.5 526.25,-54.5 526.25,-73"/>
<text text-anchor="middle" x="505.88" y="-59.5" font-family="Helvetica,sans-Serif" font-size="10.00">tree.h</text>
</a>
</g>
</g>
<!-- Node1&#45;&gt;Node8 -->
<g id="edge9_Node000001_Node000008" class="edge">
<title>Node1&#45;&gt;Node8</title>
<g id="a_edge9_Node000001_Node000008"><a xlink:title=" ">
<path fill="none" stroke="#63b8ff" d="M263.47,-163.01C292.54,-154.88 336.08,-141.88 372.88,-127.5 390.74,-120.52 394.53,-117.2 411.88,-109 433.82,-98.63 458.67,-86.93 477.31,-78.17"/>
<polygon fill="#63b8ff" stroke="#63b8ff" points="478.56,-81.45 486.13,-74.03 475.59,-75.11 478.56,-81.45"/>
</a>
</g>
</g>
<!-- Node10 -->
<g id="Node000010" class="node">
<title>Node10</title>
<g id="a_Node000010"><a xlink:href="tree__schema_8h.html" target="_top" xlink:title="libyang representation of YANG schema trees.">
<polygon fill="white" stroke="#666666" points="364.12,-127.5 283.62,-127.5 283.62,-109 364.12,-109 364.12,-127.5"/>
<text text-anchor="middle" x="323.88" y="-114" font-family="Helvetica,sans-Serif" font-size="10.00">tree_schema.h</text>
</a>
</g>
</g>
<!-- Node1&#45;&gt;Node10 -->
<g id="edge11_Node000001_Node000010" class="edge">
<title>Node1&#45;&gt;Node10</title>
<g id="a_edge11_Node000001_Node000010"><a xlink:title=" ">
<path fill="none" stroke="#63b8ff" d="M246.23,-163.08C260.5,-155.03 282.01,-142.88 298.78,-133.42"/>
<polygon fill="#63b8ff" stroke="#63b8ff" points="300.19,-136.64 307.18,-128.68 296.75,-130.54 300.19,-136.64"/>
</a>
</g>
</g>
<!-- Node7&#45;&gt;Node4 -->
<g id="edge7_Node000007_Node000004" class="edge">
<title>Node7&#45;&gt;Node4</title>
<g id="a_edge7_Node000007_Node000004"><a xlink:title=" ">
<path fill="none" stroke="#63b8ff" d="M214.29,-54.08C222.42,-46.59 234.4,-35.56 244.3,-26.44"/>
<polygon fill="#63b8ff" stroke="#63b8ff" points="246.54,-29.13 251.52,-19.78 241.8,-23.98 246.54,-29.13"/>
</a>
</g>
</g>
<!-- Node7&#45;&gt;Node6 -->
<g id="edge8_Node000007_Node000006" class="edge">
<title>Node7&#45;&gt;Node6</title>
<g id="a_edge8_Node000007_Node000006"><a xlink:title=" ">
<path fill="none" stroke="#63b8ff" d="M203.22,-54.08C201.97,-47.51 200.2,-38.21 198.61,-29.87"/>
<polygon fill="#63b8ff" stroke="#63b8ff" points="202.09,-29.41 196.78,-20.24 195.21,-30.72 202.09,-29.41"/>
</a>
</g>
</g>
<!-- Node9 -->
<g id="Node000009" class="node">
<title>Node9</title>
<g id="a_Node000009"><a xlink:title=" ">
<polygon fill="#e0e0e0" stroke="#999999" points="535.25,-18.5 476.5,-18.5 476.5,0 535.25,0 535.25,-18.5"/>
<text text-anchor="middle" x="505.88" y="-5" font-family="Helvetica,sans-Serif" font-size="10.00">inttypes.h</text>
</a>
</g>
</g>
<!-- Node8&#45;&gt;Node9 -->
<g id="edge10_Node000008_Node000009" class="edge">
<title>Node8&#45;&gt;Node9</title>
<g id="a_edge10_Node000008_Node000009"><a xlink:title=" ">
<path fill="none" stroke="#63b8ff" d="M505.88,-54.08C505.88,-47.58 505.88,-38.42 505.88,-30.16"/>
<polygon fill="#63b8ff" stroke="#63b8ff" points="509.38,-30.27 505.88,-20.27 502.38,-30.27 509.38,-30.27"/>
</a>
</g>
</g>
<!-- Node10&#45;&gt;Node4 -->
<g id="edge13_Node000010_Node000004" class="edge">
<title>Node10&#45;&gt;Node4</title>
<g id="a_edge13_Node000010_Node000004"><a xlink:title=" ">
<path fill="none" stroke="#63b8ff" d="M322.4,-108.63C319.98,-96.04 314.35,-72.22 303.88,-54.5 297.7,-44.05 288.64,-34.1 280.51,-26.28"/>
<polygon fill="#63b8ff" stroke="#63b8ff" points="283.1,-23.91 273.36,-19.74 278.38,-29.07 283.1,-23.91"/>
</a>
</g>
</g>
<!-- Node10&#45;&gt;Node6 -->
<g id="edge15_Node000010_Node000006" class="edge">
<title>Node10&#45;&gt;Node6</title>
<g id="a_edge15_Node000010_Node000006"><a xlink:title=" ">
<path fill="none" stroke="#63b8ff" d="M313.75,-108.85C292.29,-91.05 241.9,-49.25 214.11,-26.21"/>
<polygon fill="#63b8ff" stroke="#63b8ff" points="216.41,-23.56 206.47,-19.87 211.94,-28.95 216.41,-23.56"/>
</a>
</g>
</g>
<!-- Node10&#45;&gt;Node7 -->
<g id="edge16_Node000010_Node000007" class="edge">
<title>Node10&#45;&gt;Node7</title>
<g id="a_edge16_Node000010_Node000007"><a xlink:title=" ">
<path fill="none" stroke="#63b8ff" d="M304.22,-108.58C285.14,-100.16 255.92,-87.27 234.11,-77.65"/>
<polygon fill="#63b8ff" stroke="#63b8ff" points="235.71,-74.53 225.15,-73.7 232.89,-80.93 235.71,-74.53"/>
</a>
</g>
</g>
<!-- Node10&#45;&gt;Node8 -->
<g id="edge17_Node000010_Node000008" class="edge">
<title>Node10&#45;&gt;Node8</title>
<g id="a_edge17_Node000010_Node000008"><a xlink:title=" ">
<path fill="none" stroke="#63b8ff" d="M353.93,-108.58C387.22,-98.98 440.65,-83.57 474.47,-73.81"/>
<polygon fill="#63b8ff" stroke="#63b8ff" points="475.04,-77.29 483.68,-71.15 473.1,-70.56 475.04,-77.29"/>
</a>
</g>
</g>
<!-- Node11 -->
<g id="Node000011" class="node">
<title>Node11</title>
<g id="a_Node000011"><a xlink:title=" ">
<polygon fill="#e0e0e0" stroke="#999999" points="404,-73 355.75,-73 355.75,-54.5 404,-54.5 404,-73"/>
<text text-anchor="middle" x="379.88" y="-59.5" font-family="Helvetica,sans-Serif" font-size="10.00">pcre2.h</text>
</a>
</g>
</g>
<!-- Node10&#45;&gt;Node11 -->
<g id="edge12_Node000010_Node000011" class="edge">
<title>Node10&#45;&gt;Node11</title>
<g id="a_edge12_Node000010_Node000011"><a xlink:title=" ">
<path fill="none" stroke="#63b8ff" d="M333.12,-108.58C341.11,-101.09 352.88,-90.06 362.61,-80.94"/>
<polygon fill="#63b8ff" stroke="#63b8ff" points="364.79,-83.69 369.7,-74.29 360.01,-78.58 364.79,-83.69"/>
</a>
</g>
</g>
<!-- Node12 -->
<g id="Node000012" class="node">
<title>Node12</title>
<g id="a_Node000012"><a xlink:title=" ">
<polygon fill="#e0e0e0" stroke="#999999" points="467.5,-73 422.25,-73 422.25,-54.5 467.5,-54.5 467.5,-73"/>
<text text-anchor="middle" x="444.88" y="-59.5" font-family="Helvetica,sans-Serif" font-size="10.00">stdio.h</text>
</a>
</g>
</g>
<!-- Node10&#45;&gt;Node12 -->
<g id="edge14_Node000010_Node000012" class="edge">
<title>Node10&#45;&gt;Node12</title>
<g id="a_edge14_Node000010_Node000012"><a xlink:title=" ">
<path fill="none" stroke="#63b8ff" d="M343.86,-108.58C363.03,-100.26 392.27,-87.58 414.36,-77.99"/>
<polygon fill="#63b8ff" stroke="#63b8ff" points="415.7,-81.23 423.48,-74.03 412.91,-74.8 415.7,-81.23"/>
</a>
</g>
</g>
</g>
</svg>

<g id="navigator" transform="translate(0 0)" fill="#404254">
  <rect fill="#f2f5e9" fill-opacity="0.5" stroke="#606060" stroke-width=".5" x="0" y="0" width="60" height="60"/>
  <use id="zoomplus" xlink:href="#zoomPlus" x="17" y="9" onmousedown="handleZoom(evt,'in')"/>
  <use id="zoomminus" xlink:href="#zoomMin" x="42" y="9" onmousedown="handleZoom(evt,'out')"/>
  <use id="reset" xlink:href="#resetDef" x="30" y="36" onmousedown="handleReset()"/>
   <use id="arrowup" xlink:href="#arrowUp" x="0" y="0" onmousedown="handlePan(0,-1)"/>
  <use id="arrowright" xlink:href="#arrowRight" x="0" y="0" onmousedown="handlePan(1,0)"/>
  <use id="arrowdown" xlink:href="#arrowDown" x="0" y="0" onmousedown="handlePan(0,1)"/>
  <use id="arrowleft" xlink:href="#arrowLeft" x="0" y="0" onmousedown="handlePan(-1,0)"/>
</g>
<svg viewBox="0 0 15 15" width="100%" height="30px" preserveAspectRatio="xMaxYMin meet">
 <g id="arrow_out" transform="scale(0.3 0.3)">
  <a xlink:href="tree__data_8h__incl_org.svg" target="_base">
   <rect id="button" ry="5" rx="5" y="6" x="6" height="38" width="38"
        fill="#f2f5e9" fill-opacity="0.5" stroke="#606060" stroke-width="1.0"/>
   <path id="arrow"
     d="M 11.500037,31.436501 C 11.940474,20.09759 22.043105,11.32322 32.158766,21.979434 L 37.068811,17.246167 C 37.068811,17.246167 37.088388,32 37.088388,32 L 22.160133,31.978069 C 22.160133,31.978069 26.997745,27.140456 26.997745,27.140456 C 18.528582,18.264221 13.291696,25.230495 11.500037,31.436501 z"
     style="fill:#404040;"/>
  </a>
 </g>
</svg>

<style type='text/css'>
<![CDATA[
[data-mouse-over-selected='false'] { opacity: 0.7; }
[data-mouse-over-selected='true']  { opacity: 1.0; }
]]>
</style>
<script type="application/ecmascript"><![CDATA[
document.addEventListener('DOMContentLoaded', (event) => {
  highlightEdges();
  highlightAdjacentNodes();
});
]]></script>
</svg>
